# Created by Kenney (www.kenney.nl)

mtllib banner.mtl

g banner

v 0.04 0.8 -0.475 0.7986599 0.07769118 0.04857835
v -0.04 0.8 -0.475 0.7835869 0.0735385 0.04838627
v 0.04 0.7403893 -0.475 0.7835869 0.0735385 0.04838627
v -0.04 0.7403893 -0.475 0.7835869 0.0735385 0.04838627
v 0.12 0.7403893 -0.475 0.7835869 0.0735385 0.04838627
v -0.12 0.7403893 -0.475 0.6934878 0.0487157 0.0472381
v -0.12 0.3840638 -0.475 0.6934878 0.0487157 0.0472381
v 0.12 0.3840638 -0.475 0.673765 0.04328197 0.04698676
v 3.292566E-10 0.3060638 -0.475 0.7835869 0.0735385 0.04838627
v -0.12 0.8 -0.475 1 0.1549894 0.05087609
v -0.2 0.8 -0.475 0.9618875 0.1422814 0.05041751
v -0.12 0.7403894 -0.475 0.7340679 0.06631856 0.04767636
v -0.2 0.3406489 -0.475 0.684198 0.04969022 0.04707632
v 3.292605E-10 0.3060638 -0.475 0.6231937 0.02934932 0.04634231
v 3.292605E-10 0.2106489 -0.475 0.7063103 0.05706321 0.04734238
v 0.2 0.3406489 -0.475 0.7340679 0.06631856 0.04767636
v 0.2 0.8 -0.475 0.9618875 0.1422814 0.05041751
v 0.12 0.7403894 -0.475 1 0.1549894 0.05087609
v 0.12 0.8 -0.475 0.9618875 0.1422814 0.05041751
v -0.2 0.8 -0.52 0.7077566 0.05015045 0.04745265
v -0.12 0.8 -0.52 0.8422394 0.09467394 0.04907181
v -0.2 0.85 -0.52 0.8422394 0.09467394 0.04907181
v -0.12 0.85 -0.52 0.8960326 0.1124833 0.04971948
v -0.12 0.87 -0.5 0.8960326 0.1124833 0.04971948
v -0.12 0.87 -0.45 0.8960326 0.1124833 0.04971948
v -0.2 0.87 -0.5 0.8960326 0.1124833 0.04971948
v -0.2 0.87 -0.45 0.7077566 0.05015045 0.04745265
v -0.12 0.78 -0.45 0.7077566 0.05015045 0.04745265
v -0.12 0.78 -0.5 0.7077566 0.05015045 0.04745265
v -0.2 0.78 -0.45 0.7077566 0.05015045 0.04745265
v -0.2 0.78 -0.5 0.7077566 0.05015045 0.04745265
v -0.2 0.8 -0.43 0.8422394 0.09467394 0.04907181
v -0.2 0.85 -0.43 0.7077566 0.05015045 0.04745265
v -0.12 0.8 -0.43 0.8422394 0.09467395 0.04907181
v -0.12 0.85 -0.43 0.8422394 0.09467394 0.04907181
v 0.12 0.8 -0.52 0.7077566 0.05015045 0.04745265
v 0.2 0.8 -0.52 0.8422394 0.09467394 0.04907181
v 0.12 0.85 -0.52 0.8422394 0.09467394 0.04907181
v 0.2 0.85 -0.52 0.8960326 0.1124833 0.04971948
v 0.2 0.87 -0.5 0.8960326 0.1124833 0.04971948
v 0.2 0.87 -0.45 0.8960326 0.1124833 0.04971948
v 0.12 0.87 -0.5 0.8960326 0.1124833 0.04971948
v 0.12 0.87 -0.45 0.7077566 0.05015045 0.04745265
v 0.2 0.78 -0.45 0.7077566 0.05015045 0.04745265
v 0.2 0.78 -0.5 0.7077566 0.05015045 0.04745265
v 0.12 0.78 -0.45 0.7077566 0.05015045 0.04745265
v 0.12 0.78 -0.5 0.7077566 0.05015045 0.04745265
v 0.12 0.8 -0.43 0.8422394 0.09467394 0.04907181
v 0.12 0.85 -0.43 0.7077566 0.05015045 0.04745265
v 0.2 0.8 -0.43 0.8422394 0.09467395 0.04907181
v 0.2 0.85 -0.43 0.8422394 0.09467394 0.04907181
v -0.04 0.8 -0.52 0.7077566 0.05015045 0.04745265
v 0.04 0.8 -0.52 0.8422394 0.09467394 0.04907181
v -0.04 0.85 -0.52 0.8422394 0.09467394 0.04907181
v 0.04 0.85 -0.52 0.8960326 0.1124833 0.04971948
v 0.04 0.87 -0.5 0.8960326 0.1124833 0.04971948
v 0.04 0.87 -0.45 0.8960326 0.1124833 0.04971948
v -0.04 0.87 -0.5 0.8960326 0.1124833 0.04971948
v -0.04 0.87 -0.45 0.7077566 0.05015045 0.04745265
v 0.04 0.78 -0.45 0.7077566 0.05015045 0.04745265
v 0.04 0.78 -0.5 0.7077566 0.05015045 0.04745265
v -0.04 0.78 -0.45 0.7077566 0.05015045 0.04745265
v -0.04 0.78 -0.5 0.7077566 0.05015045 0.04745265
v -0.04 0.8 -0.43 0.8422394 0.09467394 0.04907181
v -0.04 0.85 -0.43 0.7077566 0.05015045 0.04745265
v 0.04 0.8 -0.43 0.8422394 0.09467395 0.04907181
v 0.04 0.85 -0.43 0.8422394 0.09467394 0.04907181
v -0.3 0.85 -0.5 0.6331333 0.2045548 0.09185512
v -0.3 0.85 -0.45 0.5545134 0.136869 0.06633239
v -0.3 0.8 -0.5 0.5545134 0.136869 0.06633238
v -0.3 0.8 -0.45 0.6331333 0.2045548 0.09185512
v -0.2 0.85 -0.5000001 0.6724432 0.2383977 0.1046165
v -0.25 0.875 -0.525 0.5545134 0.136869 0.06633239
v -0.2 0.8 -0.5 0.5152035 0.103026 0.05357102
v -0.25 0.775 -0.525 0.5545134 0.136869 0.06633239
v -0.25 0.8749999 -0.425 0.6331333 0.2045548 0.09185512
v -0.2 0.8 -0.45 0.5545134 0.136869 0.06633239
v -0.25 0.775 -0.425 0.5152035 0.103026 0.05357102
v -0.2 0.85 -0.45 0.6724432 0.2383977 0.1046165
v 0.2 0.8 -0.45 0.5545134 0.136869 0.06633239
v 0.2 0.8 -0.5 0.5545134 0.136869 0.06633238
v 0.2 0.85 -0.5000001 0.5545134 0.136869 0.06633238
v 0.2 0.85 -0.45 0.6331333 0.2045548 0.09185512
v 0.25 0.775 -0.425 0.5545134 0.136869 0.06633239
v 0.25 0.875 -0.425 0.6331333 0.2045548 0.09185513
v 0.3 0.8 -0.5000001 0.5545134 0.136869 0.06633239
v 0.3 0.8 -0.45 0.6331333 0.2045548 0.09185512
v 0.3 0.85 -0.5000001 0.6331333 0.2045548 0.09185512
v 0.3 0.85 -0.45 0.5152035 0.103026 0.05357102
v 0.25 0.875 -0.525 0.5545134 0.136869 0.06633239
v 0.25 0.775 -0.525 0.5545134 0.136869 0.06633239

vn 0 0 -1
vn 0 0 1
vn -4.021783E-14 0 -1
vn 4.021783E-14 0 1
vn 0 -0.3826834 -0.9238795
vn 0 0.3826834 -0.9238795
vn 0 0.9238795 -0.3826834
vn 0 0.9238795 0.3826834
vn 0 -0.9238795 0.3826834
vn 0 -0.9238795 -0.3826835
vn 0 -0.3826834 0.9238795
vn 0 0.3826834 0.9238795
vn 0 -0.3826834 0.9238795
vn 1 0 0
vn -1 0 0
vn 0.4472136 0 -0.8944272
vn -0.4472136 0 -0.8944272
vn 0 1 0
vn -0.4472135 0.8944273 0
vn 0.4472136 -0.8944272 0
vn 0 -1 0
vn 0.4472135 0.8944273 0
vn -0.4472135 0 0.8944272
vn -0.4472135 -0.8944272 0
vn 0.4472136 0 0.8944272
vn 0.4472136 0 0.8944272
vn 0.4472135 0 -0.8944272
vn 0.4472135 -0.8944272 0
vn -0.4472136 -0.8944272 0

vt -1.574803 27.32032
vt 1.574803 27.32032
vt -1.574803 24.97345
vt 1.574803 24.97345
vt -4.72441 24.97345
vt 4.72441 24.97345
vt 4.72441 10.94488
vt -4.72441 10.94488
vt -6.976105E-27 7.874016
vt 4.72441 23.2028
vt 7.874016 23.2028
vt 4.72441 20.85592
vt 4.72441 6.827358
vt 7.874016 5.11811
vt -1.058796E-21 3.756491
vt -1.058796E-21 -4.353501E-28
vt -7.874016 5.11811
vt -4.72441 6.827358
vt -7.874016 23.2028
vt -4.72441 20.85592
vt -4.72441 23.2028
vt 3.149606 5.152217E-08
vt 1.221696E-08 1.043759E-07
vt 3.149606 1.968504
vt 1.103086E-08 1.968504
vt -3.299955E-09 -5.646726E-08
vt 7.30697E-09 1.968504
vt 3.149606 -8.946759E-08
vt 3.149606 1.968504
vt -1.20382E-08 1.968504
vt -1.616326E-08 -2.457081E-08
vt -3.149606 1.968504
vt -3.149606 -8.397105E-08
vt -3.149606 8.393042E-08
vt -3.149606 1.968504
vt 1.134393E-08 1.136304E-07
vt -3.821271E-09 1.968504
vt 0.7874016 1.968504
vt 0.7874015 1.071204E-07
vt 5.646726E-08 2.755906
vt 3.006735E-08 -0.7874015
vt -1.968504 2.755906
vt -1.968504 -0.7874016
vt -2.755905 6.050007E-08
vt -2.755905 1.968504
vt -0.7874016 5.63039E-08
vt -0.7874016 1.968504
vt -8.774384E-08 -0.7874016
vt -8.774384E-08 2.755906
vt 1.968504 -0.7874016
vt 1.968504 2.755906
vt 2.755905 3.28372E-08
vt 2.755905 1.968504
vt 1.910479E-08 0.8351657
vt 8.250084E-09 1.94872
vt 3.149606 0.8351657
vt 3.149606 1.94872
vt -3.149606 -0.5567769
vt -3.149606 0.5567771
vt 6.829444E-08 -0.5567768
vt 4.606059E-08 0.5567772
vt 3.149606 -0.5567771
vt 8.250084E-09 -0.556777
vt 3.149606 0.5567769
vt 3.467692E-08 0.556777
vt -3.149606 0.8351653
vt -3.149606 1.948719
vt -3.300005E-08 0.8351654
vt -4.785005E-08 1.948719
vt 0.9842522 2.952756
vt 2.952756 2.952756
vt 0.9842523 0.984252
vt 2.952756 0.984252
vt 17.16666 2.952755
vt 19.36752 3.937007
vt 17.16666 0.9842515
vt 19.36752 -3.82177E-07
vt 21.56837 0.9842524
vt 21.56837 2.952756
vt -5.42667E-07 -17.60683
vt 3.937007 -17.60684
vt 0.9842515 -19.80769
vt 2.952755 -19.80769
vt -2.952756 -17.16666
vt -0.9842516 -17.16666
vt -3.937007 -19.36752
vt 3.373343E-07 -19.36752
vt -0.9842527 18.92735
vt -2.952757 18.92735
vt -7.480006E-07 21.1282
vt -3.937009 21.1282
vt -17.60683 -6.01151E-07
vt -19.80769 0.9842513
vt -17.60683 3.937007
vt -19.80769 2.952755
vt 3.937009 19.36752
vt 9.533346E-07 19.36752
vt 2.952757 21.56837
vt 0.984253 21.56837
vt -21.1282 2.943968E-07
vt -21.1282 3.937008
vt -18.92735 0.9842522
vt -18.92735 2.952756
vt -3.937008 2.952756
vt -3.937008 0.9842523
vt -19.68504 2.952756
vt -19.68504 0.9842523
vt 19.68504 0.9842519
vt 3.937008 0.9842519
vt 19.68504 2.952756
vt 3.937008 2.952756
vt -19.68504 0.9842518
vt -19.68504 2.952755
vt -3.937008 0.984252
vt -3.937008 2.952756
vt 3.937008 0.9842523
vt 3.937008 2.952756
vt 19.68504 0.9842523
vt 19.68504 2.952756
vt -1.799678E-07 2.112003E-07
vt -2.200854 0.9842523
vt -8.076111E-08 3.937008
vt -2.200854 2.952756
vt -0.9842519 0.984252
vt -2.952756 0.984252
vt -0.984252 2.952756
vt -2.952756 2.952756
vt -3.521367 2.141701E-07
vt -3.521367 3.937008
vt -1.320513 0.9842521
vt -1.320513 2.952756
vt -0.4401709 2.952756
vt 1.760683 3.937008
vt -0.4401708 0.984252
vt 1.760684 6.94101E-08
vt 3.961538 0.9842519
vt 3.961538 2.952756
vt 3.461338E-07 -5.339141E-07
vt 3.937008 -2.558067E-07
vt 0.9842524 -2.200855
vt 2.952756 -2.200855
vt -0.984252 1.320512
vt -2.952756 1.320512
vt -1.466669E-07 3.521367
vt -3.937008 3.521367
vt -0.9842519 0.4401709
vt -5.86669E-08 -1.760683
vt -2.952756 0.4401709
vt -3.937008 -1.760683
vt -1.408001E-07 1.760683
vt 0.9842519 3.961538
vt 3.937008 1.760684
vt 2.952756 3.961538

usemtl red

f 3/3/1 2/2/1 1/1/1
f 2/2/1 3/3/1 4/4/1
f 5/5/1 4/4/1 3/3/1
f 5/5/1 6/6/1 4/4/1
f 5/5/1 7/7/1 6/6/1
f 8/8/1 7/7/1 5/5/1
f 7/7/1 8/8/1 9/9/1
f 1/1/2 2/2/2 3/3/2
f 4/4/2 3/3/2 2/2/2
f 3/3/2 4/4/2 5/5/2
f 4/4/2 6/6/2 5/5/2
f 6/6/2 7/7/2 5/5/2
f 5/5/2 7/7/2 8/8/2
f 9/9/2 8/8/2 7/7/2
f 12/12/3 11/11/3 10/10/3
f 7/13/3 11/11/3 12/12/3
f 7/13/3 13/14/3 11/11/3
f 14/15/3 13/14/3 7/13/3
f 13/14/3 14/15/3 15/16/3
f 14/15/3 16/17/3 15/16/3
f 16/17/3 14/15/3 8/18/3
f 16/17/3 8/18/3 17/19/3
f 17/19/3 8/18/3 18/20/3
f 17/19/3 18/20/3 19/21/3
f 10/10/4 11/11/4 12/12/4
f 12/12/4 11/11/4 7/13/4
f 11/11/4 13/14/4 7/13/4
f 7/13/4 13/14/4 14/15/4
f 15/16/4 14/15/4 13/14/4
f 15/16/4 16/17/4 14/15/4
f 8/18/4 14/15/4 16/17/4
f 17/19/4 8/18/4 16/17/4
f 18/20/4 8/18/4 17/19/4
f 19/21/4 18/20/4 17/19/4
f 22/24/6 21/23/5 20/22/5
f 21/23/5 22/24/6 23/25/6
f 26/28/7 25/27/8 24/26/7
f 25/27/8 26/28/7 27/29/8
f 30/32/9 29/31/10 28/30/9
f 29/31/10 30/32/9 31/33/10
f 34/36/13 33/35/12 32/34/11
f 33/35/12 34/36/13 35/37/12
f 24/40/14 21/39/14 23/38/14
f 21/39/14 24/40/14 29/41/14
f 29/41/14 24/40/14 25/42/14
f 29/41/14 25/42/14 28/43/14
f 28/43/14 25/42/14 34/44/14
f 34/44/14 25/42/14 35/45/14
f 31/48/15 22/47/15 20/46/15
f 22/47/15 31/48/15 26/49/15
f 26/49/15 31/48/15 30/50/15
f 26/49/15 30/50/15 27/51/15
f 27/51/15 30/50/15 32/52/15
f 27/51/15 32/52/15 33/53/15
f 22/56/6 24/55/7 23/54/6
f 24/55/7 22/56/6 26/57/7
f 35/60/12 27/59/8 33/58/12
f 27/59/8 35/60/12 25/61/8
f 20/64/5 29/63/10 31/62/10
f 29/63/10 20/64/5 21/65/5
f 28/68/9 32/67/11 30/66/9
f 32/67/11 28/68/9 34/69/13
f 38/24/6 37/23/5 36/22/5
f 37/23/5 38/24/6 39/25/6
f 42/28/7 41/27/8 40/26/7
f 41/27/8 42/28/7 43/29/8
f 46/32/9 45/31/10 44/30/9
f 45/31/10 46/32/9 47/33/10
f 50/36/13 49/35/12 48/34/11
f 49/35/12 50/36/13 51/37/12
f 40/40/14 37/39/14 39/38/14
f 37/39/14 40/40/14 45/41/14
f 45/41/14 40/40/14 41/42/14
f 45/41/14 41/42/14 44/43/14
f 44/43/14 41/42/14 50/44/14
f 50/44/14 41/42/14 51/45/14
f 47/48/15 38/47/15 36/46/15
f 38/47/15 47/48/15 42/49/15
f 42/49/15 47/48/15 46/50/15
f 42/49/15 46/50/15 43/51/15
f 43/51/15 46/50/15 48/52/15
f 43/51/15 48/52/15 49/53/15
f 38/56/6 40/55/7 39/54/6
f 40/55/7 38/56/6 42/57/7
f 51/60/12 43/59/8 49/58/12
f 43/59/8 51/60/12 41/61/8
f 36/64/5 45/63/10 47/62/10
f 45/63/10 36/64/5 37/65/5
f 44/68/9 48/67/11 46/66/9
f 48/67/11 44/68/9 50/69/13
f 54/24/6 53/23/5 52/22/5
f 53/23/5 54/24/6 55/25/6
f 58/28/7 57/27/8 56/26/7
f 57/27/8 58/28/7 59/29/8
f 62/32/9 61/31/10 60/30/9
f 61/31/10 62/32/9 63/33/10
f 66/36/13 65/35/12 64/34/11
f 65/35/12 66/36/13 67/37/12
f 56/40/14 53/39/14 55/38/14
f 53/39/14 56/40/14 61/41/14
f 61/41/14 56/40/14 57/42/14
f 61/41/14 57/42/14 60/43/14
f 60/43/14 57/42/14 66/44/14
f 66/44/14 57/42/14 67/45/14
f 63/48/15 54/47/15 52/46/15
f 54/47/15 63/48/15 58/49/15
f 58/49/15 63/48/15 62/50/15
f 58/49/15 62/50/15 59/51/15
f 59/51/15 62/50/15 64/52/15
f 59/51/15 64/52/15 65/53/15
f 54/56/6 56/55/7 55/54/6
f 56/55/7 54/56/6 58/57/7
f 67/60/12 59/59/8 65/58/12
f 59/59/8 67/60/12 57/61/8
f 52/64/5 61/63/10 63/62/10
f 61/63/10 52/64/5 53/65/5
f 60/68/9 64/67/11 62/66/9
f 64/67/11 60/68/9 66/69/13

usemtl brown

f 70/72/15 69/71/15 68/70/15
f 69/71/15 70/72/15 71/73/15
f 74/76/16 73/75/1 72/74/16
f 73/75/1 74/76/16 75/77/1
f 70/78/17 73/75/1 75/77/1
f 73/75/1 70/78/17 68/79/17
f 68/82/19 76/81/18 73/80/18
f 76/81/18 68/82/19 69/83/19
f 78/86/21 74/85/20 77/84/20
f 74/85/20 78/86/21 75/87/21
f 73/90/18 79/89/22 72/88/22
f 79/89/22 73/90/18 76/91/18
f 76/94/2 71/93/23 78/92/2
f 71/93/23 76/94/2 69/95/23
f 71/98/24 75/97/21 78/96/21
f 75/97/21 71/98/24 70/99/24
f 77/102/25 76/101/2 78/100/2
f 76/101/2 77/102/25 79/103/25
f 77/106/21 81/105/21 80/104/21
f 81/105/21 77/106/21 74/107/21
f 72/110/1 81/109/1 74/108/1
f 81/109/1 72/110/1 82/111/1
f 80/114/2 79/113/2 77/112/2
f 79/113/2 80/114/2 83/115/2
f 72/118/18 83/117/18 82/116/18
f 83/117/18 72/118/18 79/119/18
f 85/122/2 80/121/23 84/120/2
f 80/121/23 85/122/2 83/123/23
f 88/126/14 87/125/14 86/124/14
f 87/125/14 88/126/14 89/127/14
f 87/130/26 85/129/2 84/128/2
f 85/129/2 87/130/26 89/131/26
f 86/134/27 90/133/1 88/132/27
f 90/133/1 86/134/27 91/135/1
f 81/136/17 90/133/1 91/135/1
f 90/133/1 81/136/17 82/137/17
f 82/140/19 85/139/18 90/138/18
f 85/139/18 82/140/19 83/141/19
f 90/144/18 89/143/22 88/142/22
f 89/143/22 90/144/18 85/145/18
f 87/148/28 91/147/21 86/146/28
f 91/147/21 87/148/28 84/149/21
f 84/152/21 81/151/29 91/150/21
f 81/151/29 84/152/21 80/153/29

g banner




usemtl red

f 3/3/1 2/2/1 1/1/1
f 2/2/1 3/3/1 4/4/1
f 5/5/1 4/4/1 3/3/1
f 5/5/1 6/6/1 4/4/1
f 5/5/1 7/7/1 6/6/1
f 8/8/1 7/7/1 5/5/1
f 7/7/1 8/8/1 9/9/1
f 1/1/2 2/2/2 3/3/2
f 4/4/2 3/3/2 2/2/2
f 3/3/2 4/4/2 5/5/2
f 4/4/2 6/6/2 5/5/2
f 6/6/2 7/7/2 5/5/2
f 5/5/2 7/7/2 8/8/2
f 9/9/2 8/8/2 7/7/2
f 12/12/3 11/11/3 10/10/3
f 7/13/3 11/11/3 12/12/3
f 7/13/3 13/14/3 11/11/3
f 14/15/3 13/14/3 7/13/3
f 13/14/3 14/15/3 15/16/3
f 14/15/3 16/17/3 15/16/3
f 16/17/3 14/15/3 8/18/3
f 16/17/3 8/18/3 17/19/3
f 17/19/3 8/18/3 18/20/3
f 17/19/3 18/20/3 19/21/3
f 10/10/4 11/11/4 12/12/4
f 12/12/4 11/11/4 7/13/4
f 11/11/4 13/14/4 7/13/4
f 7/13/4 13/14/4 14/15/4
f 15/16/4 14/15/4 13/14/4
f 15/16/4 16/17/4 14/15/4
f 8/18/4 14/15/4 16/17/4
f 17/19/4 8/18/4 16/17/4
f 18/20/4 8/18/4 17/19/4
f 19/21/4 18/20/4 17/19/4
f 22/24/6 21/23/5 20/22/5
f 21/23/5 22/24/6 23/25/6
f 26/28/7 25/27/8 24/26/7
f 25/27/8 26/28/7 27/29/8
f 30/32/9 29/31/10 28/30/9
f 29/31/10 30/32/9 31/33/10
f 34/36/13 33/35/12 32/34/11
f 33/35/12 34/36/13 35/37/12
f 24/40/14 21/39/14 23/38/14
f 21/39/14 24/40/14 29/41/14
f 29/41/14 24/40/14 25/42/14
f 29/41/14 25/42/14 28/43/14
f 28/43/14 25/42/14 34/44/14
f 34/44/14 25/42/14 35/45/14
f 31/48/15 22/47/15 20/46/15
f 22/47/15 31/48/15 26/49/15
f 26/49/15 31/48/15 30/50/15
f 26/49/15 30/50/15 27/51/15
f 27/51/15 30/50/15 32/52/15
f 27/51/15 32/52/15 33/53/15
f 22/56/6 24/55/7 23/54/6
f 24/55/7 22/56/6 26/57/7
f 35/60/12 27/59/8 33/58/12
f 27/59/8 35/60/12 25/61/8
f 20/64/5 29/63/10 31/62/10
f 29/63/10 20/64/5 21/65/5
f 28/68/9 32/67/11 30/66/9
f 32/67/11 28/68/9 34/69/13
f 38/24/6 37/23/5 36/22/5
f 37/23/5 38/24/6 39/25/6
f 42/28/7 41/27/8 40/26/7
f 41/27/8 42/28/7 43/29/8
f 46/32/9 45/31/10 44/30/9
f 45/31/10 46/32/9 47/33/10
f 50/36/13 49/35/12 48/34/11
f 49/35/12 50/36/13 51/37/12
f 40/40/14 37/39/14 39/38/14
f 37/39/14 40/40/14 45/41/14
f 45/41/14 40/40/14 41/42/14
f 45/41/14 41/42/14 44/43/14
f 44/43/14 41/42/14 50/44/14
f 50/44/14 41/42/14 51/45/14
f 47/48/15 38/47/15 36/46/15
f 38/47/15 47/48/15 42/49/15
f 42/49/15 47/48/15 46/50/15
f 42/49/15 46/50/15 43/51/15
f 43/51/15 46/50/15 48/52/15
f 43/51/15 48/52/15 49/53/15
f 38/56/6 40/55/7 39/54/6
f 40/55/7 38/56/6 42/57/7
f 51/60/12 43/59/8 49/58/12
f 43/59/8 51/60/12 41/61/8
f 36/64/5 45/63/10 47/62/10
f 45/63/10 36/64/5 37/65/5
f 44/68/9 48/67/11 46/66/9
f 48/67/11 44/68/9 50/69/13
f 54/24/6 53/23/5 52/22/5
f 53/23/5 54/24/6 55/25/6
f 58/28/7 57/27/8 56/26/7
f 57/27/8 58/28/7 59/29/8
f 62/32/9 61/31/10 60/30/9
f 61/31/10 62/32/9 63/33/10
f 66/36/13 65/35/12 64/34/11
f 65/35/12 66/36/13 67/37/12
f 56/40/14 53/39/14 55/38/14
f 53/39/14 56/40/14 61/41/14
f 61/41/14 56/40/14 57/42/14
f 61/41/14 57/42/14 60/43/14
f 60/43/14 57/42/14 66/44/14
f 66/44/14 57/42/14 67/45/14
f 63/48/15 54/47/15 52/46/15
f 54/47/15 63/48/15 58/49/15
f 58/49/15 63/48/15 62/50/15
f 58/49/15 62/50/15 59/51/15
f 59/51/15 62/50/15 64/52/15
f 59/51/15 64/52/15 65/53/15
f 54/56/6 56/55/7 55/54/6
f 56/55/7 54/56/6 58/57/7
f 67/60/12 59/59/8 65/58/12
f 59/59/8 67/60/12 57/61/8
f 52/64/5 61/63/10 63/62/10
f 61/63/10 52/64/5 53/65/5
f 60/68/9 64/67/11 62/66/9
f 64/67/11 60/68/9 66/69/13

usemtl brown

f 70/72/15 69/71/15 68/70/15
f 69/71/15 70/72/15 71/73/15
f 74/76/16 73/75/1 72/74/16
f 73/75/1 74/76/16 75/77/1
f 70/78/17 73/75/1 75/77/1
f 73/75/1 70/78/17 68/79/17
f 68/82/19 76/81/18 73/80/18
f 76/81/18 68/82/19 69/83/19
f 78/86/21 74/85/20 77/84/20
f 74/85/20 78/86/21 75/87/21
f 73/90/18 79/89/22 72/88/22
f 79/89/22 73/90/18 76/91/18
f 76/94/2 71/93/23 78/92/2
f 71/93/23 76/94/2 69/95/23
f 71/98/24 75/97/21 78/96/21
f 75/97/21 71/98/24 70/99/24
f 77/102/25 76/101/2 78/100/2
f 76/101/2 77/102/25 79/103/25
f 77/106/21 81/105/21 80/104/21
f 81/105/21 77/106/21 74/107/21
f 72/110/1 81/109/1 74/108/1
f 81/109/1 72/110/1 82/111/1
f 80/114/2 79/113/2 77/112/2
f 79/113/2 80/114/2 83/115/2
f 72/118/18 83/117/18 82/116/18
f 83/117/18 72/118/18 79/119/18
f 85/122/2 80/121/23 84/120/2
f 80/121/23 85/122/2 83/123/23
f 88/126/14 87/125/14 86/124/14
f 87/125/14 88/126/14 89/127/14
f 87/130/26 85/129/2 84/128/2
f 85/129/2 87/130/26 89/131/26
f 86/134/27 90/133/1 88/132/27
f 90/133/1 86/134/27 91/135/1
f 81/136/17 90/133/1 91/135/1
f 90/133/1 81/136/17 82/137/17
f 82/140/19 85/139/18 90/138/18
f 85/139/18 82/140/19 83/141/19
f 90/144/18 89/143/22 88/142/22
f 89/143/22 90/144/18 85/145/18
f 87/148/28 91/147/21 86/146/28
f 91/147/21 87/148/28 84/149/21
f 84/152/21 81/151/29 91/150/21
f 81/151/29 84/152/21 80/153/29

