# Created by Kenney (www.kenney.nl)

mtllib barrel.mtl

g barrel

v 1.082867E-15 0.3976504 -0.1067448 0.646509 0.2160703 0.09619735
v -0.07547994 0.3976504 -0.07547994 0.6724432 0.2383977 0.1046165
v 3.609557E-16 0.4761904 -0.1301765 0.6724432 0.2383977 0.1046165
v -0.09204871 0.4761904 -0.09204871 0.6724432 0.2383977 0.1046165
v 0.09204871 0.4761904 -0.09204871 0.6724432 0.2383977 0.1046165
v 0.1301765 0.4761904 0 0.646509 0.2160703 0.09619735
v 0.07547994 0.3976504 -0.07547994 0.646509 0.2160703 0.09619735
v 0.1067448 0.3976504 7.219114E-16 0.646509 0.2160703 0.09619735
v -0.07547994 0.3976504 0.07547994 0.646509 0.2160703 0.09619735
v 1.082867E-15 0.3976504 0.1067448 0.6724432 0.2383977 0.1046165
v -0.09204871 0.4761904 0.09204871 0.6724432 0.2383977 0.1046165
v 3.609557E-16 0.4761904 0.1301765 0.5152035 0.103026 0.05357102
v 3.609557E-16 0 0.19516 0.5152035 0.103026 0.05357102
v -0.137999 0 0.137999 0.5610651 0.1425094 0.06845928
v 3.609557E-16 0.1388889 0.24395 0.5610651 0.1425094 0.06845928
v -0.1724987 0.1388889 0.1724987 0.6724432 0.2383977 0.1046165
v 0.09204871 0.4761904 0.09204871 0.646509 0.2160703 0.09619735
v 0.07547994 0.3976504 0.07547994 0.6724432 0.2383977 0.1046165
v 0.19516 0.4761904 0 0.6265816 0.1989143 0.08972823
v 0.24395 0.3373015 0 0.6724432 0.2383977 0.1046165
v 0.137999 0.4761904 0.137999 0.6265816 0.1989143 0.08972823
v 0.1724987 0.3373015 0.1724987 0.6724432 0.2383977 0.1046165
v -0.1301765 0.4761904 0 0.646509 0.2160703 0.09619735
v -0.1067448 0.3976504 7.219114E-16 0.6724432 0.2383977 0.1046165
v 0.1724987 0.3373015 -0.1724987 0.6265816 0.1989143 0.08972823
v 0.137999 0.4761904 -0.137999 0.6724432 0.2383977 0.1046165
v 0.1724987 0.1388889 -0.1724987 0.6265816 0.1989143 0.08972823
v 0.24395 0.1388889 0 0.5610651 0.1425094 0.06845928
v -0.1724987 0.1388889 -0.1724987 0.6265816 0.1989143 0.08972823
v -0.1724987 0.3373015 -0.1724987 0.5610651 0.1425094 0.06845928
v -0.24395 0.1388889 0 0.6265816 0.1989143 0.08972823
v -0.24395 0.3373015 0 0.5152035 0.103026 0.05357102
v -0.137999 0 -0.137999 0.5152035 0.103026 0.05357102
v 3.609557E-16 0 -0.19516 0.5610651 0.1425094 0.06845928
v 3.609557E-16 0.1388889 -0.24395 0.5610651 0.1425094 0.06845928
v -0.1724987 0.3373015 0.1724987 0.6265816 0.1989143 0.08972823
v 3.609557E-16 0.3373015 -0.24395 0.6265816 0.1989143 0.08972823
v 3.609557E-16 0.4761904 -0.19516 0.6724432 0.2383977 0.1046165
v 3.609557E-16 0.3373015 0.24395 0.6724432 0.2383977 0.1046165
v 3.609557E-16 0.4761904 0.19516 0.6265816 0.1989143 0.08972823
v -0.19516 0.4761904 0 0.6265816 0.1989143 0.08972823
v -0.137999 0.4761904 0.137999 0.6265816 0.1989143 0.08972823
v -0.137999 0.4761904 -0.137999 0.6724432 0.2383977 0.1046165
v 0.137999 0 0.137999 0.5152035 0.103026 0.05357102
v 0.1724987 0.1388889 0.1724987 0.5610651 0.1425094 0.06845928
v 0.137999 0 -0.137999 0.5610651 0.1425094 0.06845928
v -0.19516 0 0 0.5610651 0.1425094 0.06845928
v 0.19516 0 0 0.5610651 0.1425094 0.06845928
v -0.1830087 0.2861111 -0.1830087 0.3780808 0.4181685 0.6270932
v 0 0.2861111 -0.2588134 0.4418095 0.4887875 0.7343559
v -0.1830087 0.3821428 -0.1830087 0.4418095 0.4887875 0.7343559
v 0 0.3821428 -0.2588134 0.3780808 0.4181685 0.6270932
v 0.1830087 0.2861111 -0.1830087 0.4418095 0.4887875 0.7343559
v 0.1830087 0.3821428 -0.1830087 0.3780808 0.4181685 0.6270932
v -0.2588134 0.2861111 0 0.4418095 0.4887875 0.7343559
v -0.2588134 0.3821428 0 0.3780808 0.4181685 0.6270932
v -0.1830087 0.2861111 0.1830087 0.4418095 0.4887875 0.7343559
v -0.1830087 0.3821428 0.1830087 0.2506236 0.2769303 0.4125678
v 0.2588134 0.0940476 0 0.2506236 0.2769303 0.4125678
v 0.1830087 0.0940476 -0.1830087 0.2506236 0.2769303 0.4125678
v 0.1830087 0.0940476 0.1830087 0.2506236 0.2769303 0.4125678
v 0 0.0940476 0.2588134 0.2506236 0.2769303 0.4125678
v 0 0.0940476 -0.2588134 0.2506236 0.2769303 0.4125678
v -0.1830087 0.0940476 0.1830087 0.2506236 0.2769303 0.4125678
v -0.1830087 0.0940476 -0.1830087 0.2506236 0.2769303 0.4125678
v -0.2588134 0.0940476 0 0.3780808 0.4181685 0.6270932
v 0.1830087 0.2861111 0.1830087 0.3780808 0.4181685 0.6270932
v 0 0.2861111 0.2588134 0.4418095 0.4887875 0.7343559
v 0.1830087 0.3821428 0.1830087 0.4418095 0.4887875 0.7343559
v 0 0.3821428 0.2588134 0.3143522 0.3475494 0.5198305
v 0.2588134 0.1900793 0 0.3143522 0.3475494 0.5198305
v 0.1830087 0.1900793 0.1830087 0.3143522 0.3475494 0.5198305
v 0.1830087 0.1900793 -0.1830087 0.3143522 0.3475494 0.5198305
v 0 0.1900793 -0.2588134 0.3143522 0.3475494 0.5198305
v 0 0.1900793 0.2588134 0.3143522 0.3475494 0.5198305
v -0.1830087 0.1900793 -0.1830087 0.3143522 0.3475494 0.5198305
v -0.1830087 0.1900793 0.1830087 0.3143522 0.3475494 0.5198305
v -0.2588134 0.1900793 0 0.3780808 0.4181685 0.6270932
v 0.2588134 0.2861111 0 0.4418095 0.4887875 0.7343559
v 0.2588134 0.3821428 0 0.3780808 0.4181685 0.6270932

vn 0 0.2858899 0.9582625
vn 0.6775939 0.2858899 0.6775939
vn -0.6775939 0.2858899 0.6775939
vn -0.9582625 0.2858899 0
vn 0.6775939 0.2858899 -0.6775939
vn 0 0.2858899 -0.9582625
vn -0.3639933 -0.3086971 0.8787577
vn -0.3783728 -0.1496722 0.9134727
vn -0.6775939 0.2858899 -0.6775939
vn 0.8787577 0.3086971 0.3639933
vn 0.9134727 0.1496722 0.3783728
vn 0.9582625 0.2858899 0
vn 0 1 0
vn 0.9134727 0.1496722 -0.3783728
vn 0.8787577 0.3086971 -0.3639933
vn 0.9134727 -0.1496722 -0.3783728
vn -0.9134727 -0.1496722 -0.3783728
vn -0.9134727 0.1496722 -0.3783728
vn -0.3639933 -0.3086971 -0.8787577
vn -0.3783728 -0.1496722 -0.9134727
vn -0.9134727 -0.1496722 0.3783728
vn -0.9134727 0.1496722 0.3783728
vn 0.3783728 0.1496722 -0.9134727
vn 0.3639933 0.3086971 -0.8787577
vn 0.3783728 0.1496722 0.9134727
vn 0.3639933 0.3086971 0.8787577
vn -0.8787577 0.3086971 0.3639933
vn -0.3783728 0.1496722 -0.9134727
vn -0.3639933 0.3086971 -0.8787577
vn 0.3783728 -0.1496722 -0.9134727
vn 0.3639933 -0.3086971 0.8787577
vn 0.3783728 -0.1496722 0.9134727
vn 0.3639933 -0.3086971 -0.8787577
vn -0.3783728 0.1496722 0.9134727
vn -0.3639933 0.3086971 0.8787577
vn -0.8787577 -0.3086971 0.3639933
vn 0.9134727 -0.1496722 0.3783728
vn 0.8787577 -0.3086971 0.3639933
vn 0 -1 0
vn -0.8787577 0.3086971 -0.3639933
vn 0.8787577 -0.3086971 -0.3639933
vn -0.8787577 -0.3086971 -0.3639933
vn -0.7071068 0 -0.7071068
vn 0 0 -1
vn 0.7071068 0 -0.7071068
vn -1 0 0
vn -0.7071068 0 0.7071068
vn 0.7071068 0 0.7071068
vn 0 0 1
vn 1 0 0

vt 1.608246 16.12441
vt -1.608246 16.12441
vt 1.961276 19.33185
vt -1.961276 19.33185
vt 2.940335 2.191316
vt -2.940335 2.191316
vt 3.675418 7.940152
vt -3.675418 7.940152
vt 2.940335 15.64071
vt 3.675418 9.891873
vt -2.940335 15.64071
vt -3.675418 9.891873
vt -4.202549 2.842171E-14
vt -2.971651 2.971651
vt -2.971651 -2.971651
vt -4.263256E-14 -4.202549
vt -4.263256E-14 4.202549
vt 2.971651 -2.971651
vt 2.971651 2.971651
vt 4.202549 2.842171E-14
vt 3.675418 13.27959
vt 3.675418 5.468066
vt -3.675418 13.27959
vt -3.675418 5.468066
vt -7.683465 -8.143443E-16
vt -5.43303 5.43303
vt -5.43303 -5.43303
vt -5.125061 -8.143443E-16
vt -3.623965 -3.623965
vt -3.623965 3.623965
vt -1.337356E-14 -7.683465
vt -1.337356E-14 -5.125061
vt -1.337356E-14 7.683465
vt -1.337356E-14 5.125061
vt 3.623965 3.623965
vt 5.43303 -5.43303
vt 5.43303 5.43303
vt 3.623965 -3.623965
vt 5.125061 -8.143443E-16
vt 7.683465 -8.143443E-16
vt 7.683465 0
vt 1.421085E-14 7.683465
vt 1.421085E-14 -7.683465
vt -7.683465 0
vt 17.21258 7.561553
vt 9.413874 7.561553
vt 17.21258 11.34233
vt 9.413874 11.34233
vt 1.615165 7.561553
vt 1.615165 11.34233
vt 0 10.1895
vt -2.984437 2.984437
vt -2.984437 17.39457
vt -10.1895 20.37901
vt -10.1895 0
vt -17.39457 17.39457
vt -17.39457 2.984437
vt -20.37901 10.1895
vt -9.413874 7.561553
vt -17.21258 7.561553
vt -9.413874 11.34233
vt -17.21258 11.34233
vt 2.984437 17.39457
vt 2.984437 2.984437
vt 10.1895 0
vt 10.1895 20.37901
vt 17.39457 2.984437
vt 17.39457 17.39457
vt 20.37901 10.1895
vt -1.615165 7.561553
vt -1.615165 11.34233
vt 1.615165 0
vt 1.615165 3.780777
vt 9.413874 0
vt 9.413874 3.780777
vt -9.413874 0
vt -17.21258 0
vt -9.413874 3.780777
vt -17.21258 3.780777
vt -1.615165 0
vt -1.615165 3.780777
vt 17.21258 0
vt 17.21258 3.780777

usemtl brown

f 3/3/1 2/2/2 1/1/1
f 2/2/2 3/3/1 4/4/2
f 7/2/3 6/3/4 5/4/3
f 6/3/4 7/2/3 8/1/4
f 11/3/5 10/2/6 9/1/5
f 10/2/6 11/3/5 12/4/6
f 15/7/8 14/6/7 13/5/7
f 14/6/7 15/7/8 16/8/8
f 8/2/4 17/3/9 6/4/4
f 17/3/9 8/2/4 18/1/9
f 21/11/10 20/10/11 19/9/10
f 20/10/11 21/11/10 22/12/11
f 11/4/5 24/1/12 23/3/12
f 24/1/12 11/4/5 9/2/5
f 7/15/13 18/14/13 8/13/13
f 18/14/13 7/15/13 1/16/13
f 18/14/13 1/16/13 10/17/13
f 10/17/13 1/16/13 2/18/13
f 10/17/13 2/18/13 9/19/13
f 9/19/13 2/18/13 24/20/13
f 26/9/15 20/12/14 25/10/14
f 20/12/14 26/9/15 19/11/15
f 20/23/14 27/22/16 25/21/14
f 27/22/16 20/23/14 28/24/16
f 31/22/17 30/23/18 29/24/17
f 30/23/18 31/22/17 32/21/18
f 29/7/20 34/6/19 33/5/19
f 34/6/19 29/7/20 35/8/20
f 16/22/21 32/23/22 31/24/21
f 32/23/22 16/22/21 36/21/22
f 38/9/24 25/12/23 37/10/23
f 25/12/23 38/9/24 26/11/24
f 21/9/26 39/12/25 22/10/25
f 39/12/25 21/9/26 40/11/26
f 36/10/22 41/11/27 32/12/22
f 41/11/27 36/10/22 42/9/27
f 43/9/29 37/12/28 30/10/28
f 37/12/28 43/9/29 38/11/29
f 37/21/23 27/24/30 35/22/30
f 27/24/30 37/21/23 25/23/23
f 23/4/12 2/1/2 4/3/2
f 2/1/2 23/4/12 24/2/12
f 45/7/32 13/6/31 44/5/31
f 13/6/31 45/7/32 15/8/32
f 35/7/30 46/6/33 34/5/33
f 46/6/33 35/7/30 27/8/30
f 26/27/13 21/26/13 19/25/13
f 21/26/13 26/27/13 6/28/13
f 6/28/13 26/27/13 5/29/13
f 17/30/13 21/26/13 6/28/13
f 5/29/13 26/27/13 38/31/13
f 5/29/13 38/31/13 3/32/13
f 21/26/13 17/30/13 40/33/13
f 40/33/13 17/30/13 12/34/13
f 40/33/13 12/34/13 11/35/13
f 3/32/13 38/31/13 43/36/13
f 40/33/13 11/35/13 42/37/13
f 3/32/13 43/36/13 4/38/13
f 42/37/13 11/35/13 23/39/13
f 4/38/13 43/36/13 23/39/13
f 42/37/13 23/39/13 43/36/13
f 42/37/13 43/36/13 41/40/13
f 12/3/6 18/2/9 10/1/6
f 18/2/9 12/3/6 17/4/9
f 40/9/35 36/12/34 39/10/34
f 36/12/34 40/9/35 42/11/35
f 30/21/28 35/24/20 29/22/20
f 35/24/20 30/21/28 37/23/28
f 14/5/36 31/8/21 47/6/36
f 31/8/21 14/5/36 16/7/21
f 45/8/37 48/5/38 28/7/37
f 48/5/38 45/8/37 44/6/38
f 39/21/34 16/24/8 15/22/8
f 16/24/8 39/21/34 36/23/34
f 44/37/39 46/36/39 48/41/39
f 46/36/39 44/37/39 13/42/39
f 46/36/39 13/42/39 34/43/39
f 34/43/39 13/42/39 14/26/39
f 34/43/39 14/26/39 33/27/39
f 33/27/39 14/26/39 47/44/39
f 32/10/18 43/11/40 30/12/18
f 43/11/40 32/10/18 41/9/40
f 28/8/16 46/5/41 27/7/16
f 46/5/41 28/8/16 48/6/41
f 33/6/42 31/7/17 29/8/17
f 31/7/17 33/6/42 47/5/42
f 22/23/11 28/22/37 20/21/11
f 28/22/37 22/23/11 45/24/37
f 22/21/25 15/24/32 45/22/32
f 15/24/32 22/21/25 39/23/25
f 5/3/3 1/2/1 7/1/3
f 1/2/1 5/3/3 3/4/1

usemtl grey-light

f 51/47/43 50/46/44 49/45/43
f 50/46/44 51/47/43 52/48/44
f 52/48/44 53/49/45 50/46/44
f 53/49/45 52/48/44 54/50/45
f 57/46/47 56/50/46 55/49/46
f 56/50/46 57/46/47 58/48/47
f 61/53/39 60/52/39 59/51/39
f 60/52/39 61/53/39 62/54/39
f 60/52/39 62/54/39 63/55/39
f 63/55/39 62/54/39 64/56/39
f 63/55/39 64/56/39 65/57/39
f 65/57/39 64/56/39 66/58/39
f 55/45/46 51/48/43 49/46/43
f 51/48/43 55/45/46 56/47/46
f 69/61/48 68/60/49 67/59/48
f 68/60/49 69/61/48 70/62/49
f 73/64/13 72/63/13 71/51/13
f 72/63/13 73/64/13 74/65/13
f 72/63/13 74/65/13 75/66/13
f 75/66/13 74/65/13 76/67/13
f 75/66/13 76/67/13 77/68/13
f 77/68/13 76/67/13 78/69/13
f 70/71/49 57/59/47 68/70/49
f 57/59/47 70/71/49 58/61/47
f 64/74/47 78/73/46 66/72/46
f 78/73/46 64/74/47 77/75/47
f 72/78/48 62/77/49 61/76/48
f 62/77/49 72/78/48 75/79/49
f 75/81/49 64/76/47 62/80/49
f 64/76/47 75/81/49 77/78/47
f 59/76/50 72/79/48 61/77/48
f 72/79/48 59/76/50 71/78/50
f 60/80/45 71/78/50 59/76/50
f 71/78/50 60/80/45 73/81/45
f 66/82/46 76/75/43 65/74/43
f 76/75/43 66/82/46 78/83/46
f 76/83/43 63/74/44 65/82/43
f 63/74/44 76/83/43 74/75/44
f 74/75/44 60/72/45 63/74/44
f 60/72/45 74/75/44 73/73/45
f 79/59/50 69/62/48 67/60/48
f 69/62/48 79/59/50 80/61/50
f 53/70/45 80/61/50 79/59/50
f 80/61/50 53/70/45 54/71/45
f 54/64/13 69/63/13 80/51/13
f 69/63/13 54/64/13 52/65/13
f 69/63/13 52/65/13 70/66/13
f 70/66/13 52/65/13 51/67/13
f 70/66/13 51/67/13 58/68/13
f 58/68/13 51/67/13 56/69/13
f 67/53/39 53/52/39 79/51/39
f 53/52/39 67/53/39 68/54/39
f 53/52/39 68/54/39 50/55/39
f 50/55/39 68/54/39 57/56/39
f 50/55/39 57/56/39 49/57/39
f 49/57/39 57/56/39 55/58/39

g barrel




usemtl brown

f 3/3/1 2/2/2 1/1/1
f 2/2/2 3/3/1 4/4/2
f 7/2/3 6/3/4 5/4/3
f 6/3/4 7/2/3 8/1/4
f 11/3/5 10/2/6 9/1/5
f 10/2/6 11/3/5 12/4/6
f 15/7/8 14/6/7 13/5/7
f 14/6/7 15/7/8 16/8/8
f 8/2/4 17/3/9 6/4/4
f 17/3/9 8/2/4 18/1/9
f 21/11/10 20/10/11 19/9/10
f 20/10/11 21/11/10 22/12/11
f 11/4/5 24/1/12 23/3/12
f 24/1/12 11/4/5 9/2/5
f 7/15/13 18/14/13 8/13/13
f 18/14/13 7/15/13 1/16/13
f 18/14/13 1/16/13 10/17/13
f 10/17/13 1/16/13 2/18/13
f 10/17/13 2/18/13 9/19/13
f 9/19/13 2/18/13 24/20/13
f 26/9/15 20/12/14 25/10/14
f 20/12/14 26/9/15 19/11/15
f 20/23/14 27/22/16 25/21/14
f 27/22/16 20/23/14 28/24/16
f 31/22/17 30/23/18 29/24/17
f 30/23/18 31/22/17 32/21/18
f 29/7/20 34/6/19 33/5/19
f 34/6/19 29/7/20 35/8/20
f 16/22/21 32/23/22 31/24/21
f 32/23/22 16/22/21 36/21/22
f 38/9/24 25/12/23 37/10/23
f 25/12/23 38/9/24 26/11/24
f 21/9/26 39/12/25 22/10/25
f 39/12/25 21/9/26 40/11/26
f 36/10/22 41/11/27 32/12/22
f 41/11/27 36/10/22 42/9/27
f 43/9/29 37/12/28 30/10/28
f 37/12/28 43/9/29 38/11/29
f 37/21/23 27/24/30 35/22/30
f 27/24/30 37/21/23 25/23/23
f 23/4/12 2/1/2 4/3/2
f 2/1/2 23/4/12 24/2/12
f 45/7/32 13/6/31 44/5/31
f 13/6/31 45/7/32 15/8/32
f 35/7/30 46/6/33 34/5/33
f 46/6/33 35/7/30 27/8/30
f 26/27/13 21/26/13 19/25/13
f 21/26/13 26/27/13 6/28/13
f 6/28/13 26/27/13 5/29/13
f 17/30/13 21/26/13 6/28/13
f 5/29/13 26/27/13 38/31/13
f 5/29/13 38/31/13 3/32/13
f 21/26/13 17/30/13 40/33/13
f 40/33/13 17/30/13 12/34/13
f 40/33/13 12/34/13 11/35/13
f 3/32/13 38/31/13 43/36/13
f 40/33/13 11/35/13 42/37/13
f 3/32/13 43/36/13 4/38/13
f 42/37/13 11/35/13 23/39/13
f 4/38/13 43/36/13 23/39/13
f 42/37/13 23/39/13 43/36/13
f 42/37/13 43/36/13 41/40/13
f 12/3/6 18/2/9 10/1/6
f 18/2/9 12/3/6 17/4/9
f 40/9/35 36/12/34 39/10/34
f 36/12/34 40/9/35 42/11/35
f 30/21/28 35/24/20 29/22/20
f 35/24/20 30/21/28 37/23/28
f 14/5/36 31/8/21 47/6/36
f 31/8/21 14/5/36 16/7/21
f 45/8/37 48/5/38 28/7/37
f 48/5/38 45/8/37 44/6/38
f 39/21/34 16/24/8 15/22/8
f 16/24/8 39/21/34 36/23/34
f 44/37/39 46/36/39 48/41/39
f 46/36/39 44/37/39 13/42/39
f 46/36/39 13/42/39 34/43/39
f 34/43/39 13/42/39 14/26/39
f 34/43/39 14/26/39 33/27/39
f 33/27/39 14/26/39 47/44/39
f 32/10/18 43/11/40 30/12/18
f 43/11/40 32/10/18 41/9/40
f 28/8/16 46/5/41 27/7/16
f 46/5/41 28/8/16 48/6/41
f 33/6/42 31/7/17 29/8/17
f 31/7/17 33/6/42 47/5/42
f 22/23/11 28/22/37 20/21/11
f 28/22/37 22/23/11 45/24/37
f 22/21/25 15/24/32 45/22/32
f 15/24/32 22/21/25 39/23/25
f 5/3/3 1/2/1 7/1/3
f 1/2/1 5/3/3 3/4/1

usemtl grey-light

f 51/47/43 50/46/44 49/45/43
f 50/46/44 51/47/43 52/48/44
f 52/48/44 53/49/45 50/46/44
f 53/49/45 52/48/44 54/50/45
f 57/46/47 56/50/46 55/49/46
f 56/50/46 57/46/47 58/48/47
f 61/53/39 60/52/39 59/51/39
f 60/52/39 61/53/39 62/54/39
f 60/52/39 62/54/39 63/55/39
f 63/55/39 62/54/39 64/56/39
f 63/55/39 64/56/39 65/57/39
f 65/57/39 64/56/39 66/58/39
f 55/45/46 51/48/43 49/46/43
f 51/48/43 55/45/46 56/47/46
f 69/61/48 68/60/49 67/59/48
f 68/60/49 69/61/48 70/62/49
f 73/64/13 72/63/13 71/51/13
f 72/63/13 73/64/13 74/65/13
f 72/63/13 74/65/13 75/66/13
f 75/66/13 74/65/13 76/67/13
f 75/66/13 76/67/13 77/68/13
f 77/68/13 76/67/13 78/69/13
f 70/71/49 57/59/47 68/70/49
f 57/59/47 70/71/49 58/61/47
f 64/74/47 78/73/46 66/72/46
f 78/73/46 64/74/47 77/75/47
f 72/78/48 62/77/49 61/76/48
f 62/77/49 72/78/48 75/79/49
f 75/81/49 64/76/47 62/80/49
f 64/76/47 75/81/49 77/78/47
f 59/76/50 72/79/48 61/77/48
f 72/79/48 59/76/50 71/78/50
f 60/80/45 71/78/50 59/76/50
f 71/78/50 60/80/45 73/81/45
f 66/82/46 76/75/43 65/74/43
f 76/75/43 66/82/46 78/83/46
f 76/83/43 63/74/44 65/82/43
f 63/74/44 76/83/43 74/75/44
f 74/75/44 60/72/45 63/74/44
f 60/72/45 74/75/44 73/73/45
f 79/59/50 69/62/48 67/60/48
f 69/62/48 79/59/50 80/61/50
f 53/70/45 80/61/50 79/59/50
f 80/61/50 53/70/45 54/71/45
f 54/64/13 69/63/13 80/51/13
f 69/63/13 54/64/13 52/65/13
f 69/63/13 52/65/13 70/66/13
f 70/66/13 52/65/13 51/67/13
f 70/66/13 51/67/13 58/68/13
f 58/68/13 51/67/13 56/69/13
f 67/53/39 53/52/39 79/51/39
f 53/52/39 67/53/39 68/54/39
f 53/52/39 68/54/39 50/55/39
f 50/55/39 68/54/39 57/56/39
f 50/55/39 57/56/39 49/57/39
f 49/57/39 57/56/39 55/58/39

