# Created by Kenney (www.kenney.nl)

mtllib chest.mtl

g chest

v 0.125 0.1 -0.125 0.5915362 0.1645852 0.07724162
v -0.125 0.1 -0.125 0.6308377 0.1983572 0.08998587
v 0.125 0.2 -0.125 0.6308377 0.1983572 0.08998587
v -0.125 0.2 -0.125 0.6308377 0.1983572 0.08998587
v -0.125 0.2 0.125 0.5915362 0.1645852 0.07724162
v -0.125 0.1 0.125 0.5915362 0.1645852 0.07724162
v 0.125 0.1 0.125 0.5915362 0.1645852 0.07724162
v 0.125 0.2 0.125 0.5915362 0.1645852 0.07724162
v 0.15 0 0.2 0.5522346 0.1308131 0.06449737
v -0.15 0 0.2 0.6308377 0.1983572 0.08998587
v 0.15 0.2 0.2 0.6308377 0.1983572 0.08998587
v -0.15 0.2 0.2 0.5522346 0.1308131 0.06449737
v -0.2 0 -0.15 0.6308377 0.1983572 0.08998587
v -0.2 0.2 -0.15 0.5522346 0.1308131 0.06449737
v -0.2 0 0.15 0.6308377 0.1983572 0.08998587
v -0.2 0.2 0.15 0.6308377 0.1983572 0.08998587
v 0.2 0.2 -0.15 0.5522346 0.1308131 0.06449737
v 0.2 0 -0.15 0.6308377 0.1983572 0.08998587
v 0.2 0.2 0.15 0.5522346 0.1308131 0.06449737
v 0.2 0 0.15 0.5522346 0.1308131 0.06449737
v -0.15 0 -0.2 0.5522346 0.1308131 0.06449737
v 0.15 0 -0.2 0.6308377 0.1983572 0.08998587
v -0.15 0.2 -0.2 0.6308377 0.1983572 0.08998587
v 0.15 0.2 -0.2 0.2506236 0.2769303 0.4125678
v 0.25 0 0.25 0.2506236 0.2769303 0.4125678
v 0.25 0 0.15 0.2506236 0.2769303 0.4125678
v 0.15 0 0.25 0.2506236 0.2769303 0.4125678
v 0.15 0 -0.25 0.2506236 0.2769303 0.4125678
v 0.25 0 -0.25 0.2506236 0.2769303 0.4125678
v 0.25 0 -0.15 0.2506236 0.2769303 0.4125678
v -0.15 0 -0.25 0.2506236 0.2769303 0.4125678
v -0.25 0 0.25 0.2506236 0.2769303 0.4125678
v -0.15 0 0.25 0.2506236 0.2769303 0.4125678
v -0.25 0 0.15 0.2506236 0.2769303 0.4125678
v -0.25 0 -0.25 0.2506236 0.2769303 0.4125678
v -0.25 0 -0.15 0.4418095 0.4887875 0.7343559
v 0.25 0.2 0.25 0.4418095 0.4887875 0.7343559
v 0.15 0.2 0.25 0.4418095 0.4887875 0.7343559
v 0.25 0.2 0.15 0.4418095 0.4887875 0.7343559
v 0.15 0.2 -0.25 0.4418095 0.4887875 0.7343559
v 0.25 0.2 -0.25 0.4418095 0.4887875 0.7343559
v 0.25 0.2 -0.15 0.4418095 0.4887875 0.7343559
v -0.15 0.2 -0.25 0.4418095 0.4887875 0.7343559
v -0.25 0.2 0.25 0.4418095 0.4887875 0.7343559
v -0.15 0.2 0.25 0.4418095 0.4887875 0.7343559
v -0.25 0.2 0.15 0.4418095 0.4887875 0.7343559
v -0.25 0.2 -0.25 0.4418095 0.4887875 0.7343559
v -0.25 0.2 -0.15 0.2506236 0.2769303 0.4125678

vn 0 0 1
vn 1 0 0
vn 0 1 0
vn -1 0 0
vn 0 0 -1
vn 0 -1 0

vt 4.92126 3.937008
vt -4.92126 3.937008
vt 4.92126 7.874016
vt -4.92126 7.874016
vt -4.92126 4.92126
vt 4.92126 4.92126
vt -4.92126 -4.92126
vt 4.92126 -4.92126
vt 5.905512 0
vt -5.905512 0
vt 5.905512 7.874016
vt -5.905512 7.874016
vt 9.84252 9.84252
vt 9.84252 5.905512
vt 5.905512 9.84252
vt 7.874016 5.905512
vt 7.874016 -5.905512
vt 5.905512 -9.84252
vt 9.84252 -9.84252
vt 9.84252 -5.905512
vt 5.905512 -7.874016
vt -5.905512 -7.874016
vt -7.874016 5.905512
vt -5.905512 -9.84252
vt -9.84252 9.84252
vt -5.905512 9.84252
vt -9.84252 5.905512
vt -7.874016 -5.905512
vt -9.84252 -9.84252
vt -9.84252 -5.905512
vt 9.84252 0
vt 9.84252 7.874016
vt -9.84252 7.874016
vt -9.84252 0
vt -7.874016 0
vt -7.874016 7.874016
vt 7.874016 0
vt 7.874016 7.874016

usemtl brown

f 3/3/1 2/2/1 1/1/1
f 2/2/1 3/3/1 4/4/1
f 5/4/2 2/1/2 4/3/2
f 2/1/2 5/4/2 6/2/2
f 1/7/3 6/6/3 7/5/3
f 6/6/3 1/7/3 2/8/3
f 7/1/4 3/4/4 1/2/4
f 3/4/4 7/1/4 8/3/4
f 5/3/5 7/2/5 6/1/5
f 7/2/5 5/3/5 8/4/5
f 11/11/1 10/10/1 9/9/1
f 10/10/1 11/11/1 12/12/1
f 15/9/4 14/12/4 13/10/4
f 14/12/4 15/9/4 16/11/4
f 19/12/2 18/9/2 17/11/2
f 18/9/2 19/12/2 20/10/2
f 23/11/5 22/10/5 21/9/5
f 22/10/5 23/11/5 24/12/5

usemtl grey-light

f 27/15/6 26/14/6 25/13/6
f 26/14/6 27/15/6 20/16/6
f 20/16/6 27/15/6 18/17/6
f 9/11/6 18/17/6 27/15/6
f 28/18/6 18/17/6 9/11/6
f 29/19/6 18/17/6 28/18/6
f 18/17/6 29/19/6 30/20/6
f 28/18/6 9/11/6 22/21/6
f 10/12/6 22/21/6 9/11/6
f 22/21/6 10/12/6 21/22/6
f 10/12/6 15/23/6 21/22/6
f 21/22/6 15/23/6 31/24/6
f 10/12/6 32/25/6 15/23/6
f 32/25/6 10/12/6 33/26/6
f 15/23/6 32/25/6 34/27/6
f 13/28/6 31/24/6 15/23/6
f 31/24/6 13/28/6 35/29/6
f 35/29/6 13/28/6 36/30/6
f 39/27/3 38/26/3 37/25/3
f 38/26/3 39/27/3 19/23/3
f 38/26/3 19/23/3 17/28/3
f 17/28/3 11/12/3 38/26/3
f 17/28/3 40/24/3 11/12/3
f 17/28/3 41/29/3 40/24/3
f 41/29/3 17/28/3 42/30/3
f 11/12/3 40/24/3 24/22/3
f 8/5/3 11/12/3 24/22/3
f 11/12/3 8/5/3 12/11/3
f 24/22/3 3/7/3 8/5/3
f 12/11/3 8/5/3 5/6/3
f 3/7/3 24/22/3 23/21/3
f 12/11/3 5/6/3 4/8/3
f 3/7/3 23/21/3 4/8/3
f 4/8/3 23/21/3 12/11/3
f 16/16/3 12/11/3 23/21/3
f 16/16/3 23/21/3 43/18/3
f 44/13/3 12/11/3 16/16/3
f 12/11/3 44/13/3 45/15/3
f 44/13/3 16/16/3 46/14/3
f 43/18/3 14/17/3 16/16/3
f 14/17/3 43/18/3 47/19/3
f 14/17/3 47/19/3 48/20/3
f 32/31/4 46/11/4 34/9/4
f 46/11/4 32/31/4 44/32/4
f 37/33/2 26/10/2 39/12/2
f 26/10/2 37/33/2 25/34/2
f 19/36/5 26/34/5 20/35/5
f 26/34/5 19/36/5 39/33/5
f 46/32/5 15/37/5 34/31/5
f 15/37/5 46/32/5 16/38/5
f 23/38/2 31/31/2 43/32/2
f 31/31/2 23/38/2 21/37/2
f 45/33/2 10/35/2 12/36/2
f 10/35/2 45/33/2 33/34/2
f 40/12/5 29/34/5 28/10/5
f 29/34/5 40/12/5 41/33/5
f 45/12/1 32/34/1 33/10/1
f 32/34/1 45/12/1 44/33/1
f 47/32/5 31/9/5 35/31/5
f 31/9/5 47/32/5 43/11/5
f 42/11/2 29/31/2 41/32/2
f 29/31/2 42/11/2 30/9/2
f 42/32/1 18/37/1 30/31/1
f 18/37/1 42/32/1 17/38/1
f 36/10/4 47/33/4 35/34/4
f 47/33/4 36/10/4 48/12/4
f 14/36/1 36/34/1 13/35/1
f 36/34/1 14/36/1 48/33/1
f 27/31/4 11/38/4 9/37/4
f 11/38/4 27/31/4 38/32/4
f 22/35/4 40/33/4 28/34/4
f 40/33/4 22/35/4 24/36/4
f 37/32/1 27/9/1 25/31/1
f 27/9/1 37/32/1 38/11/1

g chest




usemtl brown

f 3/3/1 2/2/1 1/1/1
f 2/2/1 3/3/1 4/4/1
f 5/4/2 2/1/2 4/3/2
f 2/1/2 5/4/2 6/2/2
f 1/7/3 6/6/3 7/5/3
f 6/6/3 1/7/3 2/8/3
f 7/1/4 3/4/4 1/2/4
f 3/4/4 7/1/4 8/3/4
f 5/3/5 7/2/5 6/1/5
f 7/2/5 5/3/5 8/4/5
f 11/11/1 10/10/1 9/9/1
f 10/10/1 11/11/1 12/12/1
f 15/9/4 14/12/4 13/10/4
f 14/12/4 15/9/4 16/11/4
f 19/12/2 18/9/2 17/11/2
f 18/9/2 19/12/2 20/10/2
f 23/11/5 22/10/5 21/9/5
f 22/10/5 23/11/5 24/12/5

usemtl grey-light

f 27/15/6 26/14/6 25/13/6
f 26/14/6 27/15/6 20/16/6
f 20/16/6 27/15/6 18/17/6
f 9/11/6 18/17/6 27/15/6
f 28/18/6 18/17/6 9/11/6
f 29/19/6 18/17/6 28/18/6
f 18/17/6 29/19/6 30/20/6
f 28/18/6 9/11/6 22/21/6
f 10/12/6 22/21/6 9/11/6
f 22/21/6 10/12/6 21/22/6
f 10/12/6 15/23/6 21/22/6
f 21/22/6 15/23/6 31/24/6
f 10/12/6 32/25/6 15/23/6
f 32/25/6 10/12/6 33/26/6
f 15/23/6 32/25/6 34/27/6
f 13/28/6 31/24/6 15/23/6
f 31/24/6 13/28/6 35/29/6
f 35/29/6 13/28/6 36/30/6
f 39/27/3 38/26/3 37/25/3
f 38/26/3 39/27/3 19/23/3
f 38/26/3 19/23/3 17/28/3
f 17/28/3 11/12/3 38/26/3
f 17/28/3 40/24/3 11/12/3
f 17/28/3 41/29/3 40/24/3
f 41/29/3 17/28/3 42/30/3
f 11/12/3 40/24/3 24/22/3
f 8/5/3 11/12/3 24/22/3
f 11/12/3 8/5/3 12/11/3
f 24/22/3 3/7/3 8/5/3
f 12/11/3 8/5/3 5/6/3
f 3/7/3 24/22/3 23/21/3
f 12/11/3 5/6/3 4/8/3
f 3/7/3 23/21/3 4/8/3
f 4/8/3 23/21/3 12/11/3
f 16/16/3 12/11/3 23/21/3
f 16/16/3 23/21/3 43/18/3
f 44/13/3 12/11/3 16/16/3
f 12/11/3 44/13/3 45/15/3
f 44/13/3 16/16/3 46/14/3
f 43/18/3 14/17/3 16/16/3
f 14/17/3 43/18/3 47/19/3
f 14/17/3 47/19/3 48/20/3
f 32/31/4 46/11/4 34/9/4
f 46/11/4 32/31/4 44/32/4
f 37/33/2 26/10/2 39/12/2
f 26/10/2 37/33/2 25/34/2
f 19/36/5 26/34/5 20/35/5
f 26/34/5 19/36/5 39/33/5
f 46/32/5 15/37/5 34/31/5
f 15/37/5 46/32/5 16/38/5
f 23/38/2 31/31/2 43/32/2
f 31/31/2 23/38/2 21/37/2
f 45/33/2 10/35/2 12/36/2
f 10/35/2 45/33/2 33/34/2
f 40/12/5 29/34/5 28/10/5
f 29/34/5 40/12/5 41/33/5
f 45/12/1 32/34/1 33/10/1
f 32/34/1 45/12/1 44/33/1
f 47/32/5 31/9/5 35/31/5
f 31/9/5 47/32/5 43/11/5
f 42/11/2 29/31/2 41/32/2
f 29/31/2 42/11/2 30/9/2
f 42/32/1 18/37/1 30/31/1
f 18/37/1 42/32/1 17/38/1
f 36/10/4 47/33/4 35/34/4
f 47/33/4 36/10/4 48/12/4
f 14/36/1 36/34/1 13/35/1
f 36/34/1 14/36/1 48/33/1
f 27/31/4 11/38/4 9/37/4
f 11/38/4 27/31/4 38/32/4
f 22/35/4 40/33/4 28/34/4
f 40/33/4 22/35/4 24/36/4
f 37/32/1 27/9/1 25/31/1
f 27/9/1 37/32/1 38/11/1

g lid

v -0.25 0.325 -0.2165063 0.3383621 0.3741365 0.5600193
v -0.25 0.4165064 -0.125 0.4331082 0.47916 0.7198829
v -0.25 0.306066 -0.106066 0.5616809 0.6216792 0.9368213
v -0.25 0.45 0 0.4723534 0.5226622 0.7861006
v -0.25 0.35 0 0.4331082 0.47916 0.7198829
v -0.25 0.306066 0.106066 0.5317619 0.5885148 0.8863395
v -0.25 0.4165064 0.125 0.3383621 0.3741365 0.5600193
v -0.25 0.2 0.15 0.4500215 0.4979079 0.7484204
v -0.25 0.325 0.2165063 0.3383621 0.3741365 0.5600193
v -0.25 0.2 0.25 0.3383621 0.3741365 0.5600193
v 0.25 0.2 0.25 0.3383621 0.3741365 0.5600193
v 0.15 0.2 0.25 0.4500215 0.4979079 0.7484204
v 0.25 0.325 0.2165063 0.4500215 0.4979079 0.7484204
v 0.15 0.325 0.2165063 0.5616809 0.6216792 0.9368213
v -0.15 0.45 0 0.5317619 0.5885148 0.8863395
v -0.15 0.4165064 0.125 0.5616809 0.6216792 0.9368213
v -0.15 0.2 0.25 0.3383621 0.3741365 0.5600193
v -0.15 0.325 0.2165063 0.4500215 0.4979079 0.7484204
v 0.05 0.25 0.1866025 0.3383621 0.3741365 0.5600193
v 0.05 0.2 0.2 0.3830259 0.4236451 0.6353797
v 0.05 0.25 0.25 0.3383621 0.3741365 0.5600193
v 0.05 0.15 0.2 0.3383621 0.3741365 0.5600193
v 0.05 0.15 0.25 0.3383621 0.3741365 0.5600193
v -0.05 0.15 0.2 0.3383621 0.3741365 0.5600193
v -0.05 0.2 0.2 0.3383621 0.3741365 0.5600193
v -0.05 0.15 0.25 0.3830259 0.4236451 0.6353797
v -0.05 0.25 0.25 0.3830259 0.4236451 0.6353797
v -0.05 0.25 0.1866025 0.5616809 0.6216792 0.9368213
v 0.25 0.45 0 0.5317619 0.5885148 0.8863395
v 0.25 0.4165064 0.125 0.5616809 0.6216792 0.9368213
v 0.15 0.45 0 0.5317619 0.5885148 0.8863395
v 0.15 0.4165064 0.125 0.4500215 0.4979079 0.7484204
v 0.15 0.325 -0.2165063 0.4500215 0.4979079 0.7484204
v 0.25 0.325 -0.2165063 0.3383621 0.3741365 0.5600193
v -0.2 0.2 0.15 0.4331082 0.47916 0.7198829
v -0.2 0.306066 0.106066 0.3383621 0.3741365 0.5600193
v -0.15 0.4165064 -0.125 0.5616809 0.6216792 0.9368213
v -0.2 0.306066 -0.106066 0.4331082 0.47916 0.7198829
v -0.2 0.35 0 0.4723534 0.5226622 0.7861006
v 0.25 0.4165064 -0.125 0.5616809 0.6216792 0.9368213
v 0.15 0.4165064 -0.125 0.5616809 0.6216792 0.9368213
v -0.15 0.325 -0.2165063 0.5317619 0.5885148 0.8863395
v 0.25 0.35 0 0.4723534 0.5226622 0.7861006
v 0.2 0.35 0 0.4331082 0.47916 0.7198829
v 0.25 0.306066 0.106066 0.4331082 0.47916 0.7198829
v 0.2 0.306066 0.106066 0.3383621 0.3741365 0.5600193
v 0.25 0.306066 -0.106066 0.4331082 0.47916 0.7198829
v 0.2 0.306066 -0.106066 0.4331082 0.47916 0.7198829
v -0.15 0.3 -0.1732051 0.5317619 0.5885148 0.8863395
v -0.15 0.3732051 -0.1 0.5616809 0.6216792 0.9368213
v -0.15 0.4 0 0.5317619 0.5885148 0.8863395
v -0.15 0.3732051 0.1 0.4276896 0.4731536 0.7107401
v -0.15 0.3 0.1732051 0.4500215 0.4979079 0.7484204
v 0.2 0.2 0.15 0.3383621 0.3741365 0.5600193
v 0.25 0.2 0.15 0.4331082 0.47916 0.7198829
v 0.15 0.3 -0.1732051 0.5317619 0.5885148 0.8863395
v 0.15 0.3732051 -0.1 0.5616809 0.6216792 0.9368213
v 0.15 0.4 0 0.4930819 0.5456392 0.8210754
v 0.15 0.3732051 0.1 0.5317619 0.5885148 0.8863395
v 0.15 0.3 0.1732051 0.4500215 0.4979079 0.7484204

vn 0 0.258819 0.9659258
vn 0 0.5 0.8660254
vn 0 0.8660254 0.5
vn 0.6401844 0.7682213 0
vn 0.7071068 0.7071068 0
vn 0.7071068 -0.7071068 0
vn -0.7071068 -0.7071068 0
vn -0.7071068 0.7071068 0
vn -0.6401844 0.7682213 0
vn 0 0.258819 -0.9659258
vn 0 0.5 -0.8660254
vn 0 -0.3826834 -0.9238795
vn 0 -0.7071068 -0.7071068
vn 0 0.8660254 -0.5
vn 0 -0.7071068 0.7071068
vn 0 -0.3826834 0.9238795

vt -1.968504 1.720781E-14
vt -0.6498563 4.92126
vt 1.968504 1.720781E-14
vt 2.952756 8.523872
vt 3.698188 4.175828
vt 7.874016 9.84252
vt 12.04984 4.175828
vt 12.79528 8.523872
vt 13.77953 1.720781E-14
vt 16.39789 4.92126
vt 17.71654 1.720781E-14
vt 9.84252 -4.585377
vt 5.905512 -4.585377
vt 9.84252 0.5094863
vt 5.905512 0.5094863
vt -5.905512 -5.058284
vt -5.905512 -10.15315
vt -9.84252 -5.058284
vt -9.84252 -10.15315
vt -5.905512 -4.585377
vt -9.84252 -4.585377
vt -5.905512 0.5094863
vt -9.84252 0.5094863
vt -15.22057 1.968504
vt -15.74803 2.016747E-14
vt -17.71654 1.968504
vt -15.74803 -1.968504
vt -17.71654 -1.968504
vt 15.74803 -1.968504
vt 15.74803 2.779417E-14
vt 17.71654 -1.968504
vt 17.71654 1.968504
vt 15.22057 1.968504
vt 9.84252 -5.058284
vt 9.84252 -10.15315
vt 5.905512 -5.058284
vt 5.905512 -10.15315
vt 9.84252 -8.115202
vt 5.905512 -8.115202
vt 9.84252 -3.020338
vt 5.905512 -3.020338
vt -5.905512 -0.5094863
vt -9.84252 -0.5094863
vt -5.905512 4.585377
vt -9.84252 4.585377
vt 9.84252 -5.273197
vt 7.874016 -5.273197
vt 9.84252 -0.7533138
vt 7.874016 -0.7533138
vt 1.968504 -1.968504
vt -1.968504 -1.968504
vt 1.968504 1.968504
vt -1.968504 1.968504
vt 1.968504 2.593481E-13
vt -1.968504 2.433609E-13
vt 5.905512 5.058284
vt 5.905512 10.15315
vt 9.84252 5.058284
vt 9.84252 10.15315
vt -1.968504 15.22057
vt -1.968504 17.71654
vt 1.968504 15.22057
vt 1.968504 17.71654
vt -7.874016 5.0147
vt -9.84252 5.0147
vt -7.874016 9.534583
vt -9.84252 9.534583
vt -9.84252 5.058284
vt -9.84252 10.15315
vt -5.905512 5.058284
vt -5.905512 10.15315
vt 9.84252 3.020338
vt 5.905512 3.020338
vt 9.84252 8.115202
vt 5.905512 8.115202
vt -9.84252 -5.0147
vt -7.874016 -5.0147
vt -9.84252 -9.534583
vt -7.874016 -9.534583
vt 9.84252 0.7533138
vt 7.874016 0.7533138
vt 9.84252 5.273197
vt 7.874016 5.273197
vt 9.84252 5.0147
vt 7.874016 5.0147
vt 9.84252 9.534583
vt 7.874016 9.534583
vt 1.968504 15.74803
vt -1.968504 15.74803
vt 1.968504 2.747045E-14
vt -5.866649E-08 2.747045E-14
vt 0.6498563 4.92126
vt -1.054918 3.937008
vt -2.952756 8.523872
vt -3.937008 6.819098
vt -7.874016 9.84252
vt -12.79528 8.523872
vt -11.81102 6.819098
vt -14.69311 3.937008
vt -16.39789 4.92126
vt -15.74803 2.747045E-14
vt -17.71654 2.747045E-14
vt -5.905512 -8.115202
vt -9.84252 -8.115202
vt -5.905512 -3.020338
vt -9.84252 -3.020338
vt 9.84252 -0.5094863
vt 5.905512 -0.5094863
vt 9.84252 4.585377
vt 5.905512 4.585377
vt -7.874016 -5.273197
vt -9.84252 -5.273197
vt -7.874016 -0.7533138
vt -9.84252 -0.7533138
vt -1.968504 5.880698E-14
vt 5.866651E-08 1.084535E-14
vt 1.054918 3.937008
vt 3.937008 6.819098
vt 11.81102 6.819098
vt 14.69311 3.937008
vt 15.74803 1.084535E-14
vt 17.71654 5.880698E-14
vt 1.968504 4.824714E-14
vt -1.968504 4.824714E-14
vt -3.698188 4.175828
vt -12.04984 4.175828
vt -13.77953 4.824714E-14
vt -17.71654 4.824714E-14
vt 7.874016 -5.0147
vt 9.84252 -5.0147
vt 7.874016 -9.534583
vt 9.84252 -9.534583
vt -7.874016 0.7533138
vt -9.84252 0.7533138
vt -7.874016 5.273197
vt -9.84252 5.273197
vt -5.905512 3.020338
vt -9.84252 3.020338
vt -5.905512 8.115202
vt -9.84252 8.115202
vt -5.905512 1.518401E-08
vt -5.905512 4.075891
vt 5.905512 1.518405E-08
vt 5.905512 4.075891
vt 5.905512 -4.075891
vt 1.968504 -4.075891
vt 5.905512 -1.518415E-08
vt 1.968504 -2.037945
vt -1.968504 -2.037945
vt -5.905512 -1.51841E-08
vt -5.905512 -4.075891
vt -1.968504 -4.075891
vt -5.905512 5.56777
vt -5.905512 9.643661
vt 5.905512 5.56777
vt 5.905512 9.643661
vt 5.905512 -5.56777
vt 5.905512 -9.643661
vt -5.905512 -5.56777
vt -5.905512 -9.643661
vt 5.905512 -7.605715
vt -5.905512 -7.605715
vt 5.905512 -3.529825
vt -5.905512 -3.529825
vt -5.905512 3.529825
vt -5.905512 7.605715
vt 5.905512 3.529825
vt 5.905512 7.605715
vt -1.968504 2.758893E-14
vt -13.77953 2.758893E-14
vt 1.968504 2.44717E-14
vt 13.77953 2.44717E-14
vt 9.84252 -1.968504
vt 5.905512 -1.968504
vt 9.84252 1.968504
vt 7.874016 1.968504
vt 7.874016 13.77953
vt 5.905512 17.71654
vt 9.84252 17.71654
vt 9.84252 13.77953
vt 5.905512 15.74803
vt 5.905512 5.867639E-08
vt -5.905512 5.865661E-08
vt -5.905512 15.74803
vt -7.874016 1.968504
vt -5.905512 17.71654
vt -9.84252 -1.968504
vt -5.905512 -1.968504
vt -9.84252 1.968504
vt -7.874016 13.77953
vt -9.84252 17.71654
vt -9.84252 13.77953

usemtl grey-light

f 48/41/4 49/40/4 47/39/4
f 49/40/4 48/41/4 50/42/4
f 50/42/4 48/41/4 51/43/4
f 50/42/4 51/43/4 52/44/4
f 52/44/4 51/43/4 53/16/4
f 52/44/4 53/16/4 54/45/4
f 52/44/4 54/45/4 55/46/4
f 55/46/4 54/45/4 56/47/4
f 55/46/4 56/47/4 57/48/4
f 57/48/4 56/47/4 58/49/4
f 61/52/8 60/51/7 59/50/7
f 60/51/7 61/52/8 62/53/8
f 52/56/3 64/55/9 63/54/3
f 64/55/9 52/56/3 55/57/9
f 66/60/8 58/59/7 65/58/7
f 58/59/7 66/60/8 57/61/8
f 69/64/11 68/63/2 67/62/10
f 68/63/2 69/64/11 70/65/12
f 70/65/12 69/64/11 71/66/12
f 74/69/13 73/68/4 72/67/13
f 75/70/14 73/68/4 74/69/13
f 73/68/4 75/70/14 76/71/15
f 79/74/3 78/73/9 77/72/3
f 78/73/9 79/74/3 80/75/9
f 78/78/9 62/77/8 61/76/8
f 62/77/8 78/78/9 80/79/9
f 81/82/17 41/81/16 40/80/16
f 41/81/16 81/82/17 82/83/17
f 54/86/19 83/85/18 56/84/18
f 83/85/18 54/86/19 84/87/19
f 69/90/1 74/89/1 71/88/1
f 74/89/1 69/90/1 75/91/1
f 73/92/5 70/89/5 72/88/5
f 70/89/5 73/92/5 68/93/5
f 50/96/20 63/95/3 85/94/20
f 63/95/3 50/96/20 52/97/3
f 76/100/15 69/99/11 67/98/10
f 69/99/11 76/100/15 75/101/14
f 87/104/6 51/103/21 86/102/21
f 51/103/21 87/104/6 53/105/6
f 89/108/20 77/107/3 88/106/20
f 77/107/3 89/108/20 79/109/3
f 50/112/20 90/111/17 49/110/17
f 90/111/17 50/112/20 85/113/20
f 93/116/19 92/115/6 91/114/6
f 92/115/6 93/116/19 94/117/19
f 95/120/21 17/119/22 42/118/22
f 17/119/22 95/120/21 96/121/21
f 91/124/6 96/123/21 95/122/21
f 96/123/21 91/124/6 92/125/6
f 71/101/12 72/127/13 70/126/12
f 72/127/13 71/101/12 74/99/13
f 90/130/2 23/129/2 43/128/2
f 23/129/2 90/130/2 97/131/2
f 97/131/2 90/130/2 85/132/2
f 97/131/2 85/132/2 98/133/2
f 98/133/2 85/132/2 63/134/2
f 98/133/2 63/134/2 99/36/2
f 99/36/2 63/134/2 64/135/2
f 99/36/2 64/135/2 100/136/2
f 100/136/2 64/135/2 101/137/2
f 101/137/2 64/135/2 66/138/2
f 101/137/2 66/138/2 12/139/2
f 12/139/2 66/138/2 65/140/2
f 64/143/9 57/142/8 66/141/8
f 57/142/8 64/143/9 55/144/9
f 49/147/17 43/146/16 47/145/16
f 43/146/16 49/147/17 90/148/17
f 94/151/19 103/150/18 102/149/18
f 103/150/18 94/151/19 93/152/19
f 24/154/4 81/40/4 40/153/4
f 81/40/4 24/154/4 104/155/4
f 81/40/4 104/155/4 89/42/4
f 89/42/4 104/155/4 105/156/4
f 89/42/4 105/156/4 79/44/4
f 79/44/4 105/156/4 106/38/4
f 79/44/4 106/38/4 107/157/4
f 79/44/4 107/157/4 80/46/4
f 80/46/4 107/157/4 108/158/4
f 80/46/4 108/158/4 62/48/4
f 62/48/4 108/158/4 11/159/4
f 62/48/4 11/159/4 60/160/4
f 82/130/2 42/162/2 41/161/2
f 42/162/2 82/130/2 88/132/2
f 42/162/2 88/132/2 95/163/2
f 95/163/2 88/132/2 77/134/2
f 95/163/2 77/134/2 91/23/2
f 91/23/2 77/134/2 93/164/2
f 93/164/2 77/134/2 78/135/2
f 93/164/2 78/135/2 103/165/2
f 103/165/2 78/135/2 61/138/2
f 103/165/2 61/138/2 59/166/2
f 84/169/19 53/168/6 87/167/6
f 53/168/6 84/169/19 54/170/19
f 86/173/21 48/172/22 14/171/22
f 48/172/22 86/173/21 51/174/21
f 89/177/20 82/176/17 81/175/17
f 82/176/17 89/177/20 88/178/20

usemtl brown

f 23/181/16 104/180/17 24/179/16
f 104/180/17 23/181/16 97/182/17
f 108/185/8 68/184/7 11/183/7
f 68/184/7 108/185/8 67/186/7
f 67/186/7 108/185/8 76/187/7
f 101/188/8 76/187/7 108/185/8
f 12/189/7 76/187/7 101/188/8
f 76/187/7 12/189/7 73/190/7
f 98/193/20 106/192/3 105/191/20
f 106/192/3 98/193/20 99/194/3
f 99/197/3 107/196/9 106/195/3
f 107/196/9 99/197/3 100/198/9
f 107/201/9 101/200/8 108/199/8
f 101/200/8 107/201/9 100/202/9
f 97/205/17 105/204/20 104/203/17
f 105/204/20 97/205/17 98/206/20
f 96/163/2 102/208/2 17/207/2
f 102/208/2 96/163/2 92/23/2
f 102/208/2 92/23/2 94/164/2
f 83/210/4 86/43/4 14/209/4
f 86/43/4 83/210/4 87/16/4
f 87/16/4 83/210/4 84/45/4
f 42/213/6 40/212/6 41/211/6
f 40/212/6 42/213/6 17/214/6
f 40/212/6 17/214/6 102/215/6
f 102/215/6 60/216/6 40/212/6
f 102/215/6 59/217/6 60/216/6
f 59/217/6 102/215/6 103/218/6
f 40/212/6 60/216/6 11/219/6
f 40/212/6 11/219/6 24/220/6
f 11/219/6 23/221/6 24/220/6
f 23/221/6 11/219/6 68/126/6
f 23/221/6 68/126/6 73/127/6
f 23/221/6 73/127/6 12/222/6
f 14/223/6 23/221/6 12/222/6
f 14/223/6 12/222/6 65/224/6
f 47/225/6 23/221/6 14/223/6
f 23/221/6 47/225/6 43/226/6
f 47/225/6 14/223/6 48/227/6
f 65/224/6 83/228/6 14/223/6
f 83/228/6 65/224/6 58/229/6
f 83/228/6 58/229/6 56/230/6

