# Created by Kenney (www.kenney.nl)

mtllib column.mtl

g column

v 0.25 1.1 0.2 0.2506236 0.2769303 0.4125678
v 0.25 0.9 0.2 0.4418095 0.4887875 0.7343559
v 0.2 1.1 0.25 0.2506236 0.2769303 0.4125678
v 0.2 0.9 0.25 0.4418095 0.4887875 0.7343559
v 0.2 1.1 -0.25 0.2506236 0.2769303 0.4125678
v 0.2 0.9 -0.25 0.4418095 0.4887875 0.7343559
v 0.25 1.1 -0.2 0.2506236 0.2769303 0.4125678
v 0.25 0.9 -0.2 0.2506236 0.2769303 0.4125678
v -0.25 0.9 0.2 0.4418095 0.4887875 0.7343559
v -0.25 1.1 0.2 0.2506236 0.2769303 0.4125678
v -0.2 0.9 0.25 0.4418095 0.4887875 0.7343559
v -0.2 1.1 0.25 0.2506236 0.2769303 0.4125678
v -0.2 0.9 -0.25 0.2506236 0.2769303 0.4125678
v -0.25 0.9 -0.2 0.4418095 0.4887875 0.7343559
v -0.2 1.1 -0.25 0.4418095 0.4887875 0.7343559
v -0.25 1.1 -0.2 0.4418095 0.4887875 0.7343559
v 0.25 0.2 0.2 0.2506236 0.2769303 0.4125678
v 0.25 1.602965E-31 0.2 0.4418095 0.4887875 0.7343559
v 0.2 0.2 0.25 0.2506236 0.2769303 0.4125678
v 0.2 1.602965E-31 0.25 0.4418095 0.4887875 0.7343559
v 0.2 0.2 -0.25 0.2506236 0.2769303 0.4125678
v 0.2 0 -0.25 0.4418095 0.4887875 0.7343559
v 0.25 0.2 -0.2 0.2506236 0.2769303 0.4125678
v 0.25 0 -0.2 0.4418095 0.4887875 0.7343559
v -0.2 0.2 -0.25 0.4418095 0.4887875 0.7343559
v -0.2 0.2 0.25 0.4418095 0.4887875 0.7343559
v -0.25 0.2 -0.2 0.4418095 0.4887875 0.7343559
v -0.25 0.2 0.2 0.2506236 0.2769303 0.4125678
v -0.25 1.602965E-31 0.2 0.4418095 0.4887875 0.7343559
v -0.2 1.602965E-31 0.25 0.4418095 0.4887875 0.7343559
v -0.2 0 -0.25 0.2506236 0.2769303 0.4125678
v -0.25 0 -0.2 0.4418095 0.4887875 0.7343559
v -0.1575 0.2 -0.1575 0.1942013 0.21243 0.3032852
v 0.1575 0.2 -0.1575 0.121188 0.1360939 0.211703
v -0.175 0.9 -0.175 0.121188 0.1360939 0.211703
v 0.175 0.9 -0.175 0.121188 0.1360939 0.211703
v -0.175 0.9 0.175 0.1942013 0.21243 0.3032852
v -0.1575 0.2 0.1575 0.1942013 0.21243 0.3032852
v 0.1575 0.2 0.1575 0.1942013 0.21243 0.3032852
v 0.175 0.9 0.175 0.121188 0.1360939 0.211703

vn 0.9238795 0 0.3826834
vn 0.3826834 0 0.9238795
vn 0.3826834 0 -0.9238795
vn 0.9238795 0 -0.3826834
vn -0.9238795 0 0.3826834
vn -0.3826834 0 0.9238795
vn 0 -1 0
vn 0 1 0
vn -0.3826834 0 -0.9238795
vn -0.9238795 0 -0.3826834
vn 0 -0.02499219 -0.9996877
vn -0.9996877 -0.02499219 0
vn 0 -0.02499219 0.9996877
vn 0.9996877 -0.02499219 0

vt 1.391943 7.874016
vt 1.391943 2.131628E-14
vt -1.391943 7.874016
vt -1.391943 2.131628E-14
vt 1.391943 0
vt -1.391943 0
vt 7.874016 2.131628E-14
vt -7.874016 2.131628E-14
vt 7.874016 7.874016
vt -7.874016 7.874016
vt 9.84252 7.874016
vt 9.84252 -7.874016
vt 7.874016 9.84252
vt 7.874016 -9.84252
vt -7.874016 9.84252
vt -7.874016 -9.84252
vt -9.84252 7.874016
vt -9.84252 -7.874016
vt -7.874016 0
vt 7.874016 0
vt 1.391943 6.310887E-30
vt -1.391943 6.310887E-30
vt -7.874016 6.310887E-30
vt 7.874016 6.310887E-30
vt 6.200788 0.1549713
vt -6.200788 0.1549713
vt 6.889764 27.72264
vt -6.889764 27.72264

usemtl grey-light

f 3/3/2 2/2/1 1/1/1
f 2/2/1 3/3/2 4/4/2
f 7/3/4 6/5/3 5/1/3
f 6/5/3 7/3/4 8/6/4
f 11/2/6 10/3/5 9/4/5
f 10/3/5 11/2/6 12/1/6
f 3/9/2 11/8/6 4/7/2
f 11/8/6 3/9/2 12/10/6
f 4/13/7 8/12/7 2/11/7
f 8/12/7 4/13/7 6/14/7
f 6/14/7 4/13/7 11/15/7
f 6/14/7 11/15/7 13/16/7
f 13/16/7 11/15/7 9/17/7
f 13/16/7 9/17/7 14/18/7
f 5/16/8 1/17/8 7/18/8
f 1/17/8 5/16/8 3/15/8
f 3/15/8 5/16/8 15/14/8
f 3/15/8 15/14/8 12/13/8
f 12/13/8 15/14/8 16/12/8
f 12/13/8 16/12/8 10/11/8
f 14/5/10 15/3/9 13/6/9
f 15/3/9 14/5/10 16/1/10
f 9/7/5 16/10/10 14/19/10
f 16/10/10 9/7/5 10/9/5
f 15/9/9 6/19/3 13/20/9
f 6/19/3 15/9/9 5/10/3
f 1/10/1 8/20/4 7/9/4
f 8/20/4 1/10/1 2/8/1
f 19/3/2 18/21/1 17/1/1
f 18/21/1 19/3/2 20/22/2
f 23/3/4 22/5/3 21/1/3
f 22/5/3 23/3/4 24/6/4
f 17/10/1 24/20/4 23/9/4
f 24/20/4 17/10/1 18/23/1
f 21/16/8 17/17/8 23/18/8
f 17/17/8 21/16/8 19/15/8
f 19/15/8 21/16/8 25/14/8
f 19/15/8 25/14/8 26/13/8
f 26/13/8 25/14/8 27/12/8
f 26/13/8 27/12/8 28/11/8
f 30/21/6 28/3/5 29/22/5
f 28/3/5 30/21/6 26/1/6
f 25/9/9 22/19/3 31/20/9
f 22/19/3 25/9/9 21/10/3
f 29/24/5 27/10/10 32/19/10
f 27/10/10 29/24/5 28/9/5
f 19/9/2 30/23/6 20/24/2
f 30/23/6 19/9/2 26/10/6
f 20/13/7 24/12/7 18/11/7
f 24/12/7 20/13/7 22/14/7
f 22/14/7 20/13/7 30/15/7
f 22/14/7 30/15/7 31/16/7
f 31/16/7 30/15/7 29/17/7
f 31/16/7 29/17/7 32/18/7
f 32/5/10 25/3/9 31/6/9
f 25/3/9 32/5/10 27/1/10

usemtl grey

f 35/27/11 34/26/11 33/25/11
f 34/26/11 35/27/11 36/28/11
f 33/26/12 37/27/12 35/28/12
f 37/27/12 33/26/12 38/25/12
f 40/27/13 38/26/13 39/25/13
f 38/26/13 40/27/13 37/28/13
f 40/28/14 34/25/14 36/27/14
f 34/25/14 40/28/14 39/26/14

g column




usemtl grey-light

f 3/3/2 2/2/1 1/1/1
f 2/2/1 3/3/2 4/4/2
f 7/3/4 6/5/3 5/1/3
f 6/5/3 7/3/4 8/6/4
f 11/2/6 10/3/5 9/4/5
f 10/3/5 11/2/6 12/1/6
f 3/9/2 11/8/6 4/7/2
f 11/8/6 3/9/2 12/10/6
f 4/13/7 8/12/7 2/11/7
f 8/12/7 4/13/7 6/14/7
f 6/14/7 4/13/7 11/15/7
f 6/14/7 11/15/7 13/16/7
f 13/16/7 11/15/7 9/17/7
f 13/16/7 9/17/7 14/18/7
f 5/16/8 1/17/8 7/18/8
f 1/17/8 5/16/8 3/15/8
f 3/15/8 5/16/8 15/14/8
f 3/15/8 15/14/8 12/13/8
f 12/13/8 15/14/8 16/12/8
f 12/13/8 16/12/8 10/11/8
f 14/5/10 15/3/9 13/6/9
f 15/3/9 14/5/10 16/1/10
f 9/7/5 16/10/10 14/19/10
f 16/10/10 9/7/5 10/9/5
f 15/9/9 6/19/3 13/20/9
f 6/19/3 15/9/9 5/10/3
f 1/10/1 8/20/4 7/9/4
f 8/20/4 1/10/1 2/8/1
f 19/3/2 18/21/1 17/1/1
f 18/21/1 19/3/2 20/22/2
f 23/3/4 22/5/3 21/1/3
f 22/5/3 23/3/4 24/6/4
f 17/10/1 24/20/4 23/9/4
f 24/20/4 17/10/1 18/23/1
f 21/16/8 17/17/8 23/18/8
f 17/17/8 21/16/8 19/15/8
f 19/15/8 21/16/8 25/14/8
f 19/15/8 25/14/8 26/13/8
f 26/13/8 25/14/8 27/12/8
f 26/13/8 27/12/8 28/11/8
f 30/21/6 28/3/5 29/22/5
f 28/3/5 30/21/6 26/1/6
f 25/9/9 22/19/3 31/20/9
f 22/19/3 25/9/9 21/10/3
f 29/24/5 27/10/10 32/19/10
f 27/10/10 29/24/5 28/9/5
f 19/9/2 30/23/6 20/24/2
f 30/23/6 19/9/2 26/10/6
f 20/13/7 24/12/7 18/11/7
f 24/12/7 20/13/7 22/14/7
f 22/14/7 20/13/7 30/15/7
f 22/14/7 30/15/7 31/16/7
f 31/16/7 30/15/7 29/17/7
f 31/16/7 29/17/7 32/18/7
f 32/5/10 25/3/9 31/6/9
f 25/3/9 32/5/10 27/1/10

usemtl grey

f 35/27/11 34/26/11 33/25/11
f 34/26/11 35/27/11 36/28/11
f 33/26/12 37/27/12 35/28/12
f 37/27/12 33/26/12 38/25/12
f 40/27/13 38/26/13 39/25/13
f 38/26/13 40/27/13 37/28/13
f 40/28/14 34/25/14 36/27/14
f 34/25/14 40/28/14 39/26/14

