# Created by Kenney (www.kenney.nl)

mtllib door.mtl

g door

v 0.7 2.255973E-17 -8.940651E-09 0.5152035 0.103026 0.05357102
v 0.1 4.511946E-17 8.940662E-09 0.6499804 0.2190589 0.09732429
v 0.7 0.6 -8.940651E-09 0.6499804 0.2190589 0.09732429
v 0.1 0.6 8.940662E-09 0.5068446 0.5609128 0.8445132
v 0.7 0.6 0.09999999 0.5068446 0.5609128 0.8445132
v 0.1 0.6 0.1 0.5068446 0.5609128 0.8445132
v 0.8 0 0.09999999 0.1778262 0.1963144 0.2906642
v 0.7 2.255973E-17 0.09999999 0.5616809 0.6216792 0.9368213
v 0.8 0.7 0.09999999 0.5068446 0.5609128 0.8445132
v 2.980213E-09 0.7 0.1 0.1778262 0.1963144 0.2906642
v 0.1 4.511946E-17 0.1 0.1778262 0.1963144 0.2906642
v 2.980213E-09 0 0.1 0.1778262 0.1963144 0.2906642
v -2.980225E-09 0 -0.09999999 0.1778262 0.1963144 0.2906642
v 0.8 0 -0.1 0.1778262 0.1963144 0.2906642
v 0.8 0.7 -0.1 0.5616809 0.6216792 0.9368213
v -2.980225E-09 0.7 -0.09999999 0.1778262 0.1963144 0.2906642
v 0.7 4.511946E-17 0.04999999 0.1778262 0.1963144 0.2906642
v 0.1 4.511946E-17 0.05000001 0.3383621 0.3741365 0.5600193
v 0.7 0.1 0.04999999 0.3383621 0.3741365 0.5600193
v 0.1 0.1 0.05000001 0.3383621 0.3741365 0.5600193
v 0.1 0.1 8.940662E-09 0.3383621 0.3741365 0.5600193
v 0.7 0.1 -8.94065E-09 0.1778262 0.1963144 0.2906642
v 0.7 4.511946E-17 -8.94065E-09 0.1778262 0.1963144 0.2906642
v 0.7 0.3 0.04999999 0.1778262 0.1963144 0.2906642
v 0.1 0.3 0.05000001 0.3383621 0.3741365 0.5600193
v 0.7 0.4 0.04999999 0.3383621 0.3741365 0.5600193
v 0.1 0.4 0.05000001 0.3383621 0.3741365 0.5600193
v 0.1 0.4 8.940662E-09 0.3383621 0.3741365 0.5600193
v 0.7 0.4 -8.94065E-09 0.1778262 0.1963144 0.2906642
v 0.1 0.3 8.940662E-09 0.1778262 0.1963144 0.2906642
v 0.7 0.3 -8.94065E-09 0.1778262 0.1963144 0.2906642
v 0.487 0.1787823 0.05 0.5616809 0.6216792 0.9368213
v 0.487 0.3043799 0.0163462 0.1778262 0.1963144 0.2906642
v 0.487 0.1637708 -0.006023701 0.5207004 0.5762671 0.8678373
v 0.487 0.2893685 -0.0396775 0.3347566 0.3702153 0.5548311
v 0.3569717 0.2212557 0.03861928 0.2937761 0.3248031 0.4858471
v 0.3569717 0.2062442 -0.01740441 0.3347566 0.3702153 0.5548311
v 0.4430283 0.2212557 0.03861928 0.2937761 0.3248031 0.4858471
v 0.4430283 0.2062442 -0.01740442 0.5207004 0.5762671 0.8678373
v 0.3569717 0.2893685 -0.0396775 0.5207004 0.5762671 0.8678373
v 0.313 0.2893685 -0.03967749 0.2937761 0.3248031 0.4858471
v 0.313 0.1637708 -0.006023695 0.1778262 0.1963144 0.2906642
v 0.4430283 0.2893685 -0.0396775 0.5616809 0.6216792 0.9368213
v 0.313 0.3043799 0.01634621 0.5207004 0.5762671 0.8678373
v 0.3569717 0.3043799 0.0163462 0.5207004 0.5762671 0.8678373
v 0.4430283 0.3043799 0.0163462 0.5207004 0.5762671 0.8678373
v 0.313 0.1787823 0.05 0.3347566 0.3702153 0.5548311

vn 0 0 1
vn 0 -1 0
vn 1 0 0
vn 0 1 0
vn 0 0 -1
vn -1 0 0
vn 2.980219E-08 0 1
vn 1 0 -2.980219E-08
vn -7.713374E-09 0.9659258 -0.258819
vn -2.87867E-08 -0.258819 -0.9659258
vn -1 0 2.980219E-08
vn 2.87867E-08 0.258819 0.9659258
vn 7.713374E-09 -0.9659258 0.258819

vt 27.55906 8.881784E-16
vt 3.937008 1.776357E-15
vt 27.55906 23.62205
vt 3.937008 23.62205
vt 27.55906 3.937007
vt 27.55906 -3.519941E-07
vt 3.937008 3.937008
vt 3.937008 3.519946E-07
vt 31.49606 0
vt 31.49606 27.55906
vt -2.395135E-13 27.55906
vt -2.395135E-13 0
vt 1.173312E-07 3.937008
vt -1.173317E-07 -3.937007
vt 31.49606 -3.937008
vt 31.49606 3.937007
vt -4.69326E-07 23.62205
vt -4.69326E-07 1.776357E-15
vt -3.937008 23.62205
vt -3.937008 1.776357E-15
vt -31.49606 3.937007
vt -1.173312E-07 3.937008
vt -31.49606 -3.937008
vt 1.173317E-07 -3.937007
vt 2.396551E-13 0
vt -31.49606 0
vt 2.396551E-13 27.55906
vt -31.49606 27.55906
vt -3.937007 0
vt -3.937007 27.55906
vt 3.937008 0
vt 3.937008 27.55906
vt 3.937007 27.55906
vt 3.937007 0
vt -3.937008 27.55906
vt -3.937008 0
vt 4.69326E-07 8.881784E-16
vt 4.69326E-07 23.62205
vt 3.937008 8.881784E-16
vt 3.937008 23.62205
vt 23.62205 0
vt 0 0
vt 23.62205 3.937008
vt 0 3.937008
vt 0 -1.968504
vt 23.62205 -1.968504
vt -23.62205 0
vt -23.62205 -1.968504
vt -1.765305 0.5910041
vt -0.4403524 5.535795
vt 0.4403524 0
vt 1.765305 4.944791
vt 1.694027 1.858117
vt 1.694027 -0.4253477
vt -1.694027 1.858117
vt -1.694027 -0.4253477
vt 1.694027 5.233195
vt 3.425197 5.233195
vt 1.694027 1.845141
vt 3.425197 0.1139716
vt -3.425197 0.1139716
vt -1.694027 1.845141
vt -3.425197 5.233195
vt -1.694027 5.233195
vt 3.425197 1.858117
vt 3.425197 -0.4253477
vt -1.317245 2.263186
vt 0.8884121 1.672182
vt 1.317245 2.263186
vt -0.8884121 1.672182
vt 0.4403524 5.535795
vt -1.765305 4.944791
vt 1.765305 0.5910041
vt -0.4403524 0
vt -3.425197 1.858117
vt -3.425197 -0.4253477

usemtl brown

f 3/3/1 2/2/1 1/1/1
f 2/2/1 3/3/1 4/4/1

usemtl grey-light

f 6/7/2 3/6/2 5/5/2
f 3/6/2 6/7/2 4/8/2
f 9/10/1 8/1/1 7/9/1
f 8/1/1 9/10/1 5/3/1
f 5/3/1 9/10/1 6/4/1
f 10/11/1 6/4/1 9/10/1
f 10/11/1 11/2/1 6/4/1
f 11/2/1 10/11/1 12/12/1
f 12/13/2 2/8/2 11/7/2
f 13/14/2 2/8/2 12/13/2
f 13/14/2 1/6/2 2/8/2
f 14/15/2 1/6/2 13/14/2
f 14/15/2 8/5/2 1/6/2
f 8/5/2 14/15/2 7/16/2
f 6/19/3 2/18/3 4/17/3
f 2/18/3 6/19/3 11/20/3
f 15/23/4 10/22/4 9/21/4
f 10/22/4 15/23/4 16/24/4
f 16/27/5 14/26/5 13/25/5
f 14/26/5 16/27/5 15/28/5
f 12/31/6 16/30/6 13/29/6
f 16/30/6 12/31/6 10/32/6
f 9/35/3 14/34/3 15/33/3
f 14/34/3 9/35/3 7/36/3
f 8/39/6 3/38/6 1/37/6
f 3/38/6 8/39/6 5/40/6
f 19/43/7 18/42/7 17/41/7
f 18/42/7 19/43/7 20/44/7
f 19/46/4 21/42/4 20/45/4
f 21/42/4 19/46/4 22/41/4
f 23/47/2 18/45/2 2/42/2
f 18/45/2 23/47/2 17/48/2
f 26/43/7 25/42/7 24/41/7
f 25/42/7 26/43/7 27/44/7
f 26/46/4 28/42/4 27/45/4
f 28/42/4 26/46/4 29/41/4
f 31/47/2 25/45/2 30/42/2
f 25/45/2 31/47/2 24/48/2
f 34/51/8 33/50/8 32/49/8
f 33/50/8 34/51/8 35/52/8
f 38/55/9 37/54/9 36/53/9
f 37/54/9 38/55/9 39/56/9
f 37/59/10 41/58/10 40/57/10
f 37/59/10 42/60/10 41/58/10
f 42/60/10 37/59/10 34/61/10
f 39/62/10 34/61/10 37/59/10
f 34/61/10 39/62/10 35/63/10
f 35/63/10 39/62/10 43/64/10
f 45/53/9 41/66/9 44/65/9
f 41/66/9 45/53/9 40/54/9
f 37/68/8 45/50/8 36/67/8
f 45/50/8 37/68/8 40/52/8
f 46/71/11 39/70/11 38/69/11
f 39/70/11 46/71/11 43/72/11
f 38/59/12 33/58/12 46/57/12
f 38/59/12 32/60/12 33/58/12
f 32/60/12 38/59/12 47/61/12
f 36/62/12 47/61/12 38/59/12
f 47/61/12 36/62/12 44/63/12
f 44/63/12 36/62/12 45/64/12
f 44/71/11 42/74/11 47/73/11
f 42/74/11 44/71/11 41/72/11
f 33/75/9 43/56/9 46/55/9
f 43/56/9 33/75/9 35/76/9
f 34/66/13 47/75/13 42/76/13
f 47/75/13 34/66/13 32/65/13

g door




usemtl brown

f 3/3/1 2/2/1 1/1/1
f 2/2/1 3/3/1 4/4/1

usemtl grey-light

f 6/7/2 3/6/2 5/5/2
f 3/6/2 6/7/2 4/8/2
f 9/10/1 8/1/1 7/9/1
f 8/1/1 9/10/1 5/3/1
f 5/3/1 9/10/1 6/4/1
f 10/11/1 6/4/1 9/10/1
f 10/11/1 11/2/1 6/4/1
f 11/2/1 10/11/1 12/12/1
f 12/13/2 2/8/2 11/7/2
f 13/14/2 2/8/2 12/13/2
f 13/14/2 1/6/2 2/8/2
f 14/15/2 1/6/2 13/14/2
f 14/15/2 8/5/2 1/6/2
f 8/5/2 14/15/2 7/16/2
f 6/19/3 2/18/3 4/17/3
f 2/18/3 6/19/3 11/20/3
f 15/23/4 10/22/4 9/21/4
f 10/22/4 15/23/4 16/24/4
f 16/27/5 14/26/5 13/25/5
f 14/26/5 16/27/5 15/28/5
f 12/31/6 16/30/6 13/29/6
f 16/30/6 12/31/6 10/32/6
f 9/35/3 14/34/3 15/33/3
f 14/34/3 9/35/3 7/36/3
f 8/39/6 3/38/6 1/37/6
f 3/38/6 8/39/6 5/40/6
f 19/43/7 18/42/7 17/41/7
f 18/42/7 19/43/7 20/44/7
f 19/46/4 21/42/4 20/45/4
f 21/42/4 19/46/4 22/41/4
f 23/47/2 18/45/2 2/42/2
f 18/45/2 23/47/2 17/48/2
f 26/43/7 25/42/7 24/41/7
f 25/42/7 26/43/7 27/44/7
f 26/46/4 28/42/4 27/45/4
f 28/42/4 26/46/4 29/41/4
f 31/47/2 25/45/2 30/42/2
f 25/45/2 31/47/2 24/48/2
f 34/51/8 33/50/8 32/49/8
f 33/50/8 34/51/8 35/52/8
f 38/55/9 37/54/9 36/53/9
f 37/54/9 38/55/9 39/56/9
f 37/59/10 41/58/10 40/57/10
f 37/59/10 42/60/10 41/58/10
f 42/60/10 37/59/10 34/61/10
f 39/62/10 34/61/10 37/59/10
f 34/61/10 39/62/10 35/63/10
f 35/63/10 39/62/10 43/64/10
f 45/53/9 41/66/9 44/65/9
f 41/66/9 45/53/9 40/54/9
f 37/68/8 45/50/8 36/67/8
f 45/50/8 37/68/8 40/52/8
f 46/71/11 39/70/11 38/69/11
f 39/70/11 46/71/11 43/72/11
f 38/59/12 33/58/12 46/57/12
f 38/59/12 32/60/12 33/58/12
f 32/60/12 38/59/12 47/61/12
f 36/62/12 47/61/12 38/59/12
f 47/61/12 36/62/12 44/63/12
f 44/63/12 36/62/12 45/64/12
f 44/71/11 42/74/11 47/73/11
f 42/74/11 44/71/11 41/72/11
f 33/75/9 43/56/9 46/55/9
f 43/56/9 33/75/9 35/76/9
f 34/66/13 47/75/13 42/76/13
f 47/75/13 34/66/13 32/65/13

