# Created by Kenney (www.kenney.nl)

mtllib floor-detail.mtl

g floor-detail

v 0.5 0 -0.5 0.1778262 0.1963144 0.2906642
v 0.5 0 0.5 0.1778262 0.1963144 0.2906642
v -0.5 0 -0.5 0.1778262 0.1963144 0.2906642
v -0.5 0 0.5 0.2580942 0.2852255 0.4253418
v -0.1716288 0.025 0.1277654 0.2580942 0.2852255 0.4253418
v -0.1716288 0.025 0.2027654 0.2580942 0.2852255 0.4253418
v -0.2466288 0.025 0.1277654 0.2580942 0.2852255 0.4253418
v -0.2466288 0.025 0.2027654 0.1778262 0.1963144 0.2906642
v -0.1591288 0 0.1152654 0.1778262 0.1963144 0.2906642
v -0.1591288 0 0.2152654 0.2580942 0.2852255 0.4253418
v -0.2591288 0 0.1152654 0.1778262 0.1963144 0.2906642
v -0.2591288 0 0.2152654 0.2580942 0.2852255 0.4253418
v 0.04905942 0 -0.1486915 0.2580942 0.2852255 0.4253418
v 0.05530943 0.025 -0.1424415 0.1778262 0.1963144 0.2906642
v 0.04905942 0 -0.09869151 0.2580942 0.2852255 0.4253418
v 0.05530943 0.025 -0.1049415 0.2580942 0.2852255 0.4253418
v 0.09280942 0.025 -0.1424415 0.2580942 0.2852255 0.4253418
v 0.09280942 0.025 -0.1049415 0.2580942 0.2852255 0.4253418
v 0.09905943 0 -0.1486915 0.2580942 0.2852255 0.4253418
v 0.09905943 0 -0.09869151 0.1778262 0.1963144 0.2906642
v 0.221285 0 0.02210614 0.1778262 0.1963144 0.2906642
v 0.1246925 0 0.04798805 0.2179602 0.24077 0.358003
v 0.2059757 0.0125 0.01326731 0.2179602 0.24077 0.358003
v 0.1335313 0.0125 0.03267874 0.1778262 0.1963144 0.2906642
v 0.1954031 0 -0.07448643 0.2179602 0.24077 0.358003
v 0.1865643 0.0125 -0.05917713 0.1778262 0.1963144 0.2906642
v 0.09881055 0 -0.04860453 0.2179602 0.24077 0.358003
v 0.1141199 0.0125 -0.0397657 0.2179602 0.24077 0.358003
v 0.3461725 0 0.1087051 0.1778262 0.1963144 0.2906642
v 0.3202906 0 0.2052977 0.2580942 0.2852255 0.4253418
v 0.3308631 0.025 0.117544 0.2580942 0.2852255 0.4253418
v 0.3114517 0.025 0.1899884 0.1778262 0.1963144 0.2906642
v 0.223698 0 0.1794158 0.2580942 0.2852255 0.4253418
v 0.2390073 0.025 0.170577 0.1778262 0.1963144 0.2906642
v 0.2495799 0 0.08282322 0.1778262 0.1963144 0.2906642
v 0.2584187 0.025 0.09813253 0.2580942 0.2852255 0.4253418
v -0.09755582 0 0.1312122 0.3383621 0.3741365 0.5600193
v -0.0669372 0.05 0.1488899 0.1778262 0.1963144 0.2906642
v -0.04579201 0 0.3243974 0.3383621 0.3741365 0.5600193
v -0.02811434 0.05 0.2937788 0.1778262 0.1963144 0.2906642
v 0.09562934 0 0.07944845 0.3383621 0.3741365 0.5600193
v 0.07795167 0.05 0.1100671 0.3383621 0.3741365 0.5600193
v 0.1167745 0.05 0.2549559 0.3383621 0.3741365 0.5600193
v 0.1473932 0 0.2726336 0.3383621 0.3741365 0.5600193
v 0.02125099 0 -0.2467517 0.1778262 0.1963144 0.2906642
v -0.05639472 0 0.04302604 0.2580942 0.2852255 0.4253418
v -0.02467694 0.025 -0.2202352 0.2580942 0.2852255 0.4253418
v -0.08291122 0.025 -0.002901896 0.2580942 0.2852255 0.4253418
v -0.2420103 0.025 -0.2784695 0.2580942 0.2852255 0.4253418
v -0.3002445 0.025 -0.06113618 0.1778262 0.1963144 0.2906642
v -0.2685268 0 -0.3243974 0.2580942 0.2852255 0.4253418
v -0.3461725 0 -0.03461968 0.2580942 0.2852255 0.4253418
v -0.3173944 0 0.2461565 0.2179602 0.24077 0.358003
v -0.3262332 0.0125 0.2614658 0.1778262 0.1963144 0.2906642
v -0.4139869 0 0.2720384 0.2179602 0.24077 0.358003
v -0.3986776 0.0125 0.2808772 0.2179602 0.24077 0.358003
v -0.3068218 0.0125 0.3339102 0.2179602 0.24077 0.358003
v -0.3792662 0.0125 0.3533217 0.2179602 0.24077 0.358003
v -0.3881051 0 0.368631 0.2179602 0.24077 0.358003
v -0.2915125 0 0.3427491 0.1778262 0.1963144 0.2906642
v 0.3027503 0.025 -0.2265656 0.2580942 0.2852255 0.4253418
v 0.232592 0.025 -0.200055 0.2580942 0.2852255 0.4253418
v 0.2762398 0.025 -0.2967239 0.2580942 0.2852255 0.4253418
v 0.2060814 0.025 -0.2702133 0.1778262 0.1963144 0.2906642
v 0.2835144 0 -0.3128354 0.1778262 0.1963144 0.2906642
v 0.3188618 0 -0.219291 0.2580942 0.2852255 0.4253418
v 0.18997 0 -0.2774879 0.2580942 0.2852255 0.4253418
v 0.2253174 0 -0.1839435 0.2580942 0.2852255 0.4253418
v 0.3462609 0 0.349198 0.1778262 0.1963144 0.2906642
v 0.3945572 0 0.336257 0.2179602 0.24077 0.358003
v 0.3539155 0.0125 0.3536174 0.2179602 0.24077 0.358003
v 0.3901378 0.0125 0.3439116 0.1778262 0.1963144 0.2906642
v 0.4074981 0 0.3845533 0.1778262 0.1963144 0.2906642
v 0.3592018 0 0.3974943 0.2179602 0.24077 0.358003
v 0.3998435 0.0125 0.3801339 0.2179602 0.24077 0.358003
v 0.3636213 0.0125 0.3898396 0.2179602 0.24077 0.358003
v -0.184333 0 -0.4429926 0.1778262 0.1963144 0.2906642
v -0.1713921 0 -0.3946964 0.2179602 0.24077 0.358003
v -0.1887524 0.0125 -0.435338 0.2179602 0.24077 0.358003
v -0.1790467 0.0125 -0.3991157 0.1778262 0.1963144 0.2906642
v -0.2196883 0 -0.3817554 0.2179602 0.24077 0.358003
v -0.2152689 0.0125 -0.38941 0.1778262 0.1963144 0.2906642
v -0.2326293 0 -0.4300517 0.2179602 0.24077 0.358003
v -0.2249746 0.0125 -0.4256322 0.1778262 0.1963144 0.2906642

vn 0 1 0
vn 0.4247964 0.7994348 -0.4247964
vn 0.4247964 0.7994348 0.4247964
vn -0.4247964 0.7994348 -0.4247964
vn -0.4247964 0.7994348 0.4247964
vn 0.5773503 0.5773503 -0.5773503
vn 0.5773503 0.5773503 0.5773503
vn -0.5773503 0.5773503 -0.5773503
vn -0.5773503 0.5773503 0.5773503
vn -0.6666667 0.3333333 -0.6666667
vn -0.5033765 0.7022992 -0.5033765
vn -0.6666667 0.3333333 0.6666667
vn -0.5033765 0.7022992 0.5033765
vn 0.5033765 0.7022992 -0.5033765
vn 0.5033765 0.7022992 0.5033765
vn 0.6666667 0.3333333 -0.6666667
vn 0.6666667 0.3333333 0.6666667
vn 0.5 0.8164966 0.2886751
vn -0.2886751 0.8164966 0.5
vn 0.3676609 0.90541 0.2122691
vn -0.2122691 0.90541 0.3676609
vn 0.2886751 0.8164966 -0.5
vn 0.2122691 0.90541 -0.3676609
vn -0.5 0.8164966 -0.2886751
vn -0.3676609 0.90541 -0.2122691
vn 0.7071068 0.5773503 -0.4082483
vn 0.4082483 0.5773503 0.7071068
vn 0.5202672 0.7994348 -0.3003764
vn 0.3003764 0.7994348 0.5202672
vn -0.7071068 0.5773503 0.4082483
vn -0.5202672 0.7994348 0.3003764
vn -0.4082483 0.5773503 -0.7071068
vn -0.3003764 0.7994348 -0.5202672
vn -0.7071068 0.5773503 -0.4082483
vn -0.5202672 0.7994348 -0.3003764
vn -0.4082483 0.5773503 0.7071068
vn -0.3003764 0.7994348 0.5202672
vn 0.4082483 0.5773503 -0.7071068
vn 0.3003764 0.7994348 -0.5202672
vn 0.5202672 0.7994348 0.3003764
vn 0.7071068 0.5773503 0.4082483
vn 0.3692745 0.904534 -0.2132007
vn 0.2132007 0.904534 0.3692745
vn 0.2734133 0.9488556 -0.1578553
vn 0.1578553 0.9488556 0.2734133
vn -0.1578553 0.9488556 -0.2734133
vn -0.2734133 0.9488556 0.1578553
vn -0.2132007 0.904534 -0.3692745
vn -0.3692745 0.904534 0.2132007
vn 0.5475281 0.7994348 0.2472184
vn -0.2472184 0.7994348 0.5475281
vn 0.2472184 0.7994348 -0.5475281
vn -0.5475281 0.7994348 -0.2472184
vn 0.3360001 0.5773503 -0.7441577
vn 0.7441577 0.5773503 0.3360001
vn -0.7441577 0.5773503 -0.3360001
vn -0.3360001 0.5773503 0.7441577

vt -19.68504 -19.68504
vt -19.68504 19.68504
vt 19.68504 -19.68504
vt 19.68504 19.68504
vt 6.757041 5.030135
vt 6.757041 7.982891
vt 9.709796 5.030135
vt 9.709796 7.982891
vt -4.538009 2.801755
vt -8.475018 2.801755
vt -5.030135 3.902182
vt -7.982891 3.902182
vt 10.20192 2.029459
vt 6.264915 2.029459
vt 9.709796 3.129887
vt 6.757041 3.129887
vt -6.264915 -3.790143
vt -10.20192 -3.790143
vt -6.757041 -2.689716
vt -9.709796 -2.689716
vt 4.538009 -4.562438
vt 5.030135 -3.462011
vt 8.475018 -4.562438
vt 7.982891 -3.462011
vt -5.853996 0.4684511
vt -5.607934 1.482995
vt -3.885493 0.4684511
vt -4.131556 1.482995
vt -3.653914 -5.607934
vt -3.653914 -4.131556
vt -2.177536 -5.607934
vt -2.177536 -4.131556
vt -1.931473 -1.419803
vt -3.899977 -1.419803
vt -2.177536 -0.405259
vt -3.653914 -0.405259
vt 3.899977 0.9423704
vt 1.931473 0.9423704
vt 3.653914 1.956914
vt 2.177536 1.956914
vt 5.853996 -0.9458835
vt 3.885493 -0.9458835
vt 5.607934 0.06866026
vt 4.131556 0.06866026
vt 8.189899 -2.188848
vt 4.252892 -2.188848
vt 7.697773 -1.492877
vt 4.745018 -1.492877
vt -8.189899 -0.5950365
vt -7.697773 0.1009348
vt -4.252892 -0.5950365
vt -4.745018 0.1009348
vt -8.109281 0.522335
vt -5.257138 1.286564
vt -7.345051 -2.329808
vt -4.492908 -1.565579
vt 2.603373 3.70322
vt 3.095499 3.007249
vt -0.3493827 3.70322
vt -0.8415087 3.007249
vt -3.095499 -5.791133
vt -2.603373 -5.095162
vt 0.8415087 -5.791133
vt 0.3493827 -5.095162
vt -0.6064982 -6.382687
vt -4.543506 -6.382687
vt -1.098624 -5.282259
vt -4.05138 -5.282259
vt 14.27212 -2.031918
vt 10.33511 -2.031918
vt 13.77999 -0.9314905
vt 10.82724 -0.9314905
vt -10.33511 0.2712342
vt -14.27212 0.2712342
vt -10.82724 1.371661
vt -13.77999 1.371661
vt 0.6064982 4.622003
vt 1.098624 5.72243
vt 4.543506 4.622003
vt 4.05138 5.72243
vt -13.02611 4.627715
vt -12.26188 7.479858
vt -10.17397 3.863485
vt -9.409736 6.715629
vt 3.995748 -2.257054
vt 4.98 -0.05619963
vt 11.86976 -2.257054
vt 10.88551 -0.05619963
vt 5.046926 1.786953
vt -2.82709 1.786953
vt 4.062674 3.987807
vt -1.842838 3.987807
vt -4.597423 10.03764
vt 1.106864 11.56609
vt -3.068964 4.333349
vt 2.635323 5.861808
vt -3.995748 -1.264313
vt -11.86976 -1.264313
vt -4.98 0.9365414
vt -10.88551 0.9365414
vt 2.82709 -5.30832
vt -5.046926 -5.30832
vt 1.842838 -3.107466
vt -4.062674 -3.107466
vt 9.600158 1.419634
vt -2.210866 1.419634
vt 8.12378 3.194019
vt -0.7344877 3.194019
vt 0.9715331 -8.670677
vt 3.264221 -0.1142479
vt 9.527963 -10.96337
vt 11.82065 -2.406936
vt 1.706187 -7.987814
vt 3.182565 -6.213429
vt 13.51721 -7.987814
vt 12.04083 -6.213429
vt -1.706187 -1.839551
vt -13.51721 -1.839551
vt -3.182565 -0.06516595
vt -12.04083 -0.06516595
vt -8.12378 -9.472614
vt 0.7344877 -9.472614
vt -9.600158 -11.247
vt 2.210866 -11.247
vt 14.57832 4.332315
vt 15.07045 5.028286
vt 18.51533 4.332315
vt 18.0232 5.028286
vt 12.0796 13.14607
vt 14.93174 13.9103
vt 12.84383 10.29393
vt 15.69597 11.05816
vt 9.571701 -12.39635
vt 10.06383 -13.09232
vt 6.618945 -12.39635
vt 6.126819 -13.09232
vt -14.57832 -7.1162
vt -18.51533 -7.1162
vt -15.07045 -6.420229
vt -18.0232 -6.420229
vt -10.06383 10.30843
vt -9.571701 11.0044
vt -6.126819 10.30843
vt -6.618945 11.0044
vt -11.91931 -8.919906
vt -9.157167 -7.876181
vt -10.87558 -11.68204
vt -8.113442 -10.63832
vt 7.57578 -6.616495
vt 3.638772 -6.616495
vt 7.083654 -5.516068
vt 4.130898 -5.516068
vt -7.57578 4.855811
vt -7.083654 5.956238
vt -3.638772 4.855811
vt -4.130898 5.956238
vt -10.85792 -3.387992
vt -14.79493 -3.387992
vt -11.35005 -2.287565
vt -14.3028 -2.287565
vt 14.79493 1.627308
vt 10.85792 1.627308
vt 14.3028 2.727736
vt 11.35005 2.727736
vt -9.609577 7.516679
vt -11.57808 7.516679
vt -9.85564 8.066893
vt -11.33202 8.066893
vt 11.57808 -8.39702
vt 9.609577 -8.39702
vt 11.33202 -7.846807
vt 9.85564 -7.846807
vt -15.74187 14.9659
vt -14.3158 15.34802
vt -15.35975 13.53983
vt -13.93368 13.92194
vt -16.80781 -5.177875
vt -18.77631 -5.177875
vt -17.05387 -4.627662
vt -18.53025 -4.627662
vt 16.80781 4.297534
vt 17.05387 4.847747
vt 18.77631 4.297534
vt 18.53025 4.847747
vt 18.72468 1.116222
vt 16.75618 1.116222
vt 18.47862 1.666435
vt 17.00224 1.666435
vt -2.495948 7.493591
vt -4.464452 7.493591
vt -2.742011 8.043804
vt -4.218389 8.043804
vt -18.72468 -1.996564
vt -18.47862 -1.44635
vt -16.75618 -1.996564
vt -17.00224 -1.44635
vt 7.049083 -15.71322
vt 8.475155 -15.3311
vt 7.431198 -17.13929
vt 8.857269 -16.75718
vt 4.464452 -8.373933
vt 2.495948 -8.373933
vt 4.218389 -7.823719
vt 2.742011 -7.823719

usemtl grey-light

f 3/3/1 2/2/1 1/1/1
f 2/2/1 3/3/1 4/4/1
f 7/7/4 6/6/3 5/5/2
f 6/6/3 7/7/4 8/8/5
f 5/11/2 10/10/7 9/9/6
f 10/10/7 5/11/2 6/12/3
f 7/15/4 9/14/6 11/13/8
f 9/14/6 7/15/4 5/16/2
f 6/19/3 12/18/9 10/17/7
f 12/18/9 6/19/3 8/20/5
f 12/23/9 7/22/4 11/21/8
f 7/22/4 12/23/9 8/24/5
f 15/27/12 14/26/11 13/25/10
f 14/26/11 15/27/12 16/28/13
f 14/31/11 18/30/15 17/29/14
f 18/30/15 14/31/11 16/32/13
f 14/35/11 19/34/16 13/33/10
f 19/34/16 14/35/11 17/36/14
f 18/39/15 15/38/12 20/37/17
f 15/38/12 18/39/15 16/40/13
f 17/43/14 20/42/17 19/41/16
f 20/42/17 17/43/14 18/44/15
f 23/47/20 22/46/19 21/45/18
f 22/46/19 23/47/20 24/48/21
f 27/51/24 26/50/23 25/49/22
f 26/50/23 27/51/24 28/52/25
f 26/55/23 24/54/21 23/53/20
f 24/54/21 26/55/23 28/56/25
f 28/59/25 22/58/19 24/57/21
f 22/58/19 28/59/25 27/60/24
f 25/63/22 23/62/20 21/61/18
f 23/62/20 25/63/22 26/64/23
f 31/67/28 30/66/27 29/65/26
f 30/66/27 31/67/28 32/68/29
f 32/71/29 33/70/30 30/69/27
f 33/70/30 32/71/29 34/72/31
f 36/75/33 29/74/26 35/73/32
f 29/74/26 36/75/33 31/76/28
f 33/79/30 36/78/33 35/77/32
f 36/78/33 33/79/30 34/80/31
f 36/83/33 32/82/29 31/81/28
f 32/82/29 36/83/33 34/84/31
f 39/87/36 38/86/35 37/85/34
f 38/86/35 39/87/36 40/88/37
f 38/91/35 41/90/38 37/89/34
f 41/90/38 38/91/35 42/92/39
f 42/95/39 40/94/37 43/93/40
f 40/94/37 42/95/39 38/96/35
f 42/99/39 44/98/41 41/97/38
f 44/98/41 42/99/39 43/100/40
f 43/103/40 39/102/36 44/101/41
f 39/102/36 43/103/40 40/104/37
f 47/107/44 46/106/43 45/105/42
f 46/106/43 47/107/44 48/108/45
f 49/111/46 48/110/45 47/109/44
f 48/110/45 49/111/46 50/112/47
f 51/115/48 47/114/44 45/113/42
f 47/114/44 51/115/48 49/116/46
f 48/119/45 52/118/49 46/117/43
f 52/118/49 48/119/45 50/120/47
f 51/123/48 50/122/47 49/121/46
f 50/122/47 51/123/48 52/124/49
f 55/127/24 54/126/23 53/125/22
f 54/126/23 55/127/24 56/128/25
f 54/131/23 58/130/21 57/129/20
f 58/130/21 54/131/23 56/132/25
f 56/135/25 59/134/19 58/133/21
f 59/134/19 56/135/25 55/136/24
f 57/139/20 59/138/19 60/137/18
f 59/138/19 57/139/20 58/140/21
f 53/143/22 57/142/20 60/141/18
f 57/142/20 53/143/22 54/144/23
f 63/147/52 62/146/51 61/145/50
f 62/146/51 63/147/52 64/148/53
f 63/151/52 66/150/55 65/149/54
f 66/150/55 63/151/52 61/152/50
f 68/155/57 64/154/53 67/153/56
f 64/154/53 68/155/57 62/156/51
f 64/159/53 65/158/54 67/157/56
f 65/158/54 64/159/53 63/160/52
f 61/163/50 68/162/57 66/161/55
f 68/162/57 61/163/50 62/164/51
f 71/167/35 70/166/38 69/165/34
f 70/166/38 71/167/35 72/168/39
f 75/171/40 74/170/36 73/169/41
f 74/170/36 75/171/40 76/172/37
f 72/175/39 76/174/37 75/173/40
f 76/174/37 72/175/39 71/176/35
f 72/179/39 73/178/41 70/177/38
f 73/178/41 72/179/39 75/180/40
f 74/183/36 71/182/35 69/181/34
f 71/182/35 74/183/36 76/184/37
f 79/187/39 78/186/41 77/185/38
f 78/186/41 79/187/39 80/188/40
f 80/191/40 81/190/36 78/189/41
f 81/190/36 80/191/40 82/192/37
f 81/195/36 84/194/35 83/193/34
f 84/194/35 81/195/36 82/196/37
f 79/199/39 82/198/37 80/197/40
f 82/198/37 79/199/39 84/200/35
f 84/203/35 77/202/38 83/201/34
f 77/202/38 84/203/35 79/204/39

g floor-detail




usemtl grey-light

f 3/3/1 2/2/1 1/1/1
f 2/2/1 3/3/1 4/4/1
f 7/7/4 6/6/3 5/5/2
f 6/6/3 7/7/4 8/8/5
f 5/11/2 10/10/7 9/9/6
f 10/10/7 5/11/2 6/12/3
f 7/15/4 9/14/6 11/13/8
f 9/14/6 7/15/4 5/16/2
f 6/19/3 12/18/9 10/17/7
f 12/18/9 6/19/3 8/20/5
f 12/23/9 7/22/4 11/21/8
f 7/22/4 12/23/9 8/24/5
f 15/27/12 14/26/11 13/25/10
f 14/26/11 15/27/12 16/28/13
f 14/31/11 18/30/15 17/29/14
f 18/30/15 14/31/11 16/32/13
f 14/35/11 19/34/16 13/33/10
f 19/34/16 14/35/11 17/36/14
f 18/39/15 15/38/12 20/37/17
f 15/38/12 18/39/15 16/40/13
f 17/43/14 20/42/17 19/41/16
f 20/42/17 17/43/14 18/44/15
f 23/47/20 22/46/19 21/45/18
f 22/46/19 23/47/20 24/48/21
f 27/51/24 26/50/23 25/49/22
f 26/50/23 27/51/24 28/52/25
f 26/55/23 24/54/21 23/53/20
f 24/54/21 26/55/23 28/56/25
f 28/59/25 22/58/19 24/57/21
f 22/58/19 28/59/25 27/60/24
f 25/63/22 23/62/20 21/61/18
f 23/62/20 25/63/22 26/64/23
f 31/67/28 30/66/27 29/65/26
f 30/66/27 31/67/28 32/68/29
f 32/71/29 33/70/30 30/69/27
f 33/70/30 32/71/29 34/72/31
f 36/75/33 29/74/26 35/73/32
f 29/74/26 36/75/33 31/76/28
f 33/79/30 36/78/33 35/77/32
f 36/78/33 33/79/30 34/80/31
f 36/83/33 32/82/29 31/81/28
f 32/82/29 36/83/33 34/84/31
f 39/87/36 38/86/35 37/85/34
f 38/86/35 39/87/36 40/88/37
f 38/91/35 41/90/38 37/89/34
f 41/90/38 38/91/35 42/92/39
f 42/95/39 40/94/37 43/93/40
f 40/94/37 42/95/39 38/96/35
f 42/99/39 44/98/41 41/97/38
f 44/98/41 42/99/39 43/100/40
f 43/103/40 39/102/36 44/101/41
f 39/102/36 43/103/40 40/104/37
f 47/107/44 46/106/43 45/105/42
f 46/106/43 47/107/44 48/108/45
f 49/111/46 48/110/45 47/109/44
f 48/110/45 49/111/46 50/112/47
f 51/115/48 47/114/44 45/113/42
f 47/114/44 51/115/48 49/116/46
f 48/119/45 52/118/49 46/117/43
f 52/118/49 48/119/45 50/120/47
f 51/123/48 50/122/47 49/121/46
f 50/122/47 51/123/48 52/124/49
f 55/127/24 54/126/23 53/125/22
f 54/126/23 55/127/24 56/128/25
f 54/131/23 58/130/21 57/129/20
f 58/130/21 54/131/23 56/132/25
f 56/135/25 59/134/19 58/133/21
f 59/134/19 56/135/25 55/136/24
f 57/139/20 59/138/19 60/137/18
f 59/138/19 57/139/20 58/140/21
f 53/143/22 57/142/20 60/141/18
f 57/142/20 53/143/22 54/144/23
f 63/147/52 62/146/51 61/145/50
f 62/146/51 63/147/52 64/148/53
f 63/151/52 66/150/55 65/149/54
f 66/150/55 63/151/52 61/152/50
f 68/155/57 64/154/53 67/153/56
f 64/154/53 68/155/57 62/156/51
f 64/159/53 65/158/54 67/157/56
f 65/158/54 64/159/53 63/160/52
f 61/163/50 68/162/57 66/161/55
f 68/162/57 61/163/50 62/164/51
f 71/167/35 70/166/38 69/165/34
f 70/166/38 71/167/35 72/168/39
f 75/171/40 74/170/36 73/169/41
f 74/170/36 75/171/40 76/172/37
f 72/175/39 76/174/37 75/173/40
f 76/174/37 72/175/39 71/176/35
f 72/179/39 73/178/41 70/177/38
f 73/178/41 72/179/39 75/180/40
f 74/183/36 71/182/35 69/181/34
f 71/182/35 74/183/36 76/184/37
f 79/187/39 78/186/41 77/185/38
f 78/186/41 79/187/39 80/188/40
f 80/191/40 81/190/36 78/189/41
f 81/190/36 80/191/40 82/192/37
f 81/195/36 84/194/35 83/193/34
f 84/194/35 81/195/36 82/196/37
f 79/199/39 82/198/37 80/197/40
f 82/198/37 79/199/39 84/200/35
f 84/203/35 77/202/38 83/201/34
f 77/202/38 84/203/35 79/204/39

