# Created by Kenney (www.kenney.nl)

mtllib stairs.mtl

g stairs

v -0.5 0.15 0.3125 0.09197842 0.1051445 0.1729492
v -0.5 0 0.4625 0.1407848 0.1561573 0.2340996
v -0.5 0.3 0.1625 0.1407848 0.1561573 0.2340996
v -0.1625 0.3 0.35 0.1285832 0.1434041 0.218812
v -0.2375 0.225 0.35 0.1407848 0.1561573 0.2340996
v -0.2375 0.3 0.275 0.1895912 0.2071701 0.2952499
v 0.3125 0.6 0.05 0.1773896 0.1944169 0.2799623
v 0.2375 0.525 0.05 0.1895912 0.2071701 0.2952499
v 0.2375 0.6 -0.025 0.2383977 0.2581829 0.3564003
v -0.1625 0.9 -0.25 0.2261961 0.2454297 0.3411127
v -0.2375 0.825 -0.25 0.2383977 0.2581829 0.3564003
v -0.2375 0.9 -0.325 0.2261961 0.2454297 0.3411127
v -0.3125 0.9 -0.25 0.2383977 0.2581829 0.3564003
v 0.1625 0.6 0.05 0.1895912 0.2071701 0.2952499
v 0.5 0.15 0.3125 0.1407848 0.1561573 0.2340996
v 0.5 0.3 0.1625 0.09197842 0.1051445 0.1729492
v 0.5 0 0.4625 0.1285832 0.1434041 0.218812
v -0.3125 0.3 0.35 0.1407848 0.1561573 0.2340996
v 0.5 0.45 0.0125 0.165188 0.1816637 0.2646747
v 0.4625 0.45 0.05 0.1895912 0.2071701 0.2952499
v 0.5 0.6 0.0125 0.1895912 0.2071701 0.2952499
v 0.4625 0.6 0.05 0.2139945 0.2326765 0.3258251
v 0.5 0.75 -0.2875 0.2139945 0.2326765 0.3258251
v 0.5 0.75 -0.1375 0.2139945 0.2326765 0.3258251
v 0.4625 0.75 -0.25 0.2139945 0.2326765 0.3258251
v 0.4625 0.75 -0.1 0.2139945 0.2326765 0.3258251
v -0.4625 0.75 -0.25 0.2139945 0.2326765 0.3258251
v -0.4625 0.75 -0.1 0.2139945 0.2326765 0.3258251
v -0.5 0.75 -0.2875 0.2139945 0.2326765 0.3258251
v -0.5 0.75 -0.1375 0.1163816 0.1306509 0.2035244
v -0.5 0.3 0.3125 0.1163816 0.1306509 0.2035244
v -0.4625 0.15 0.35 0.1407848 0.1561573 0.2340996
v -0.4625 0.3 0.35 0.09197842 0.1051445 0.1729492
v -0.5 0 -0.5 0.2383977 0.2581829 0.3564003
v -0.5 0.9 -0.5 0.09197842 0.1051445 0.1729492
v -0.5 0.9 -0.2875 0.1895912 0.2071701 0.2952499
v -0.5 0.6 -0.1375 0.2139945 0.2326765 0.3258251
v -0.5 0.45 0.0125 0.1895912 0.2071701 0.2952499
v -0.5 0.6 0.0125 0.165188 0.1816637 0.2646747
v -0.5 0.45 0.1625 0.1163816 0.1306509 0.2035244
v -0.5 0.15 0.4625 0.1163816 0.1306509 0.2035244
v 0.5 0 -0.5 0.09197842 0.1051445 0.1729492
v 0.4625 0 0.5 0.09197842 0.1051445 0.1729492
v -0.4625 0 0.5 0.09197842 0.1051445 0.1729492
v -0.4625 0.3 0.2 0.165188 0.1816637 0.2646747
v -0.4625 0.45 0.2 0.165188 0.1816637 0.2646747
v 0.5 0.45 0.1625 0.1407848 0.1561573 0.2340996
v 0.4625 0.45 0.2 0.1407848 0.1561573 0.2340996
v 0.4625 0.3 0.2 0.2139945 0.2326765 0.3258251
v 0.4625 0.9 -0.25 0.2261961 0.2454297 0.3411127
v -0.4625 0.9 -0.25 0.2383977 0.2581829 0.3564003
v 0.5 0.6 -0.1375 0.1895912 0.2071701 0.2952499
v 0.4625 0.6 -0.1 0.1895912 0.2071701 0.2952499
v -0.4625 0.6 -0.1 0.1895912 0.2071701 0.2952499
v -0.4625 0.6 0.05 0.1895912 0.2071701 0.2952499
v 0.5 0.9 -0.5 0.2383977 0.2581829 0.3564003
v 0.5 0.9 -0.2875 0.2383977 0.2581829 0.3564003
v 0.4625 0.15 0.35 0.1163816 0.1306509 0.2035244
v 0.4625 0.3 0.35 0.1285832 0.1434041 0.218812
v 0.5 0.15 0.4625 0.1163816 0.1306509 0.2035244
v 0.4625 0.15 0.5 0.1163816 0.1306509 0.2035244
v -0.4625 0.15 0.5 0.1163816 0.1306509 0.2035244
v 0.5 0.3 0.3125 0.1407848 0.1561573 0.2340996
v -0.4625 0.45 0.05 0.165188 0.1816637 0.2646747

vn -1 0 0
vn -0.5773503 0.5773503 0.5773503
vn 0 0.7071068 0.7071068
vn 0.5773503 0.5773503 0.5773503
vn 1 0 0
vn 0.7071068 0 0.7071068
vn 0.3826834 0 0.9238795
vn 0 1 0
vn -0.7071068 0 0.7071068
vn -0.3826834 0 0.9238795
vn 0 -1 0
vn 0 0 1
vn 0 0 -1

vt 12.30315 5.905512
vt 18.20866 -4.171582E-14
vt 6.397638 11.81102
vt 5.219784 1.406367
vt 3.131871 -2.210005
vt 1.043957 1.406367
vt 10.09158 23.50642
vt 8.00367 19.89005
vt 5.915756 23.50642
vt -11.48353 30.33735
vt -13.57144 26.72098
vt -15.65935 30.33735
vt 0.3479855 34.35554
vt -1.739928 37.97191
vt 2.435899 37.97191
vt 5.219784 12.25549
vt 3.131871 15.87186
vt 7.307698 15.87186
vt -12.30315 5.905512
vt -6.397638 11.81102
vt -18.20866 2.558599E-14
vt -16.35532 5.424559
vt -18.44324 9.040932
vt -14.26741 9.040932
vt 13.57144 17.71654
vt 11.48353 17.71654
vt 13.57144 23.62205
vt 11.48353 23.62205
vt -19.68504 -11.3189
vt -19.68504 -5.413386
vt -18.20866 -9.84252
vt -18.20866 -3.937008
vt 18.20866 -9.84252
vt 18.20866 -3.937008
vt 19.68504 -11.3189
vt 19.68504 -5.413386
vt -5.219784 5.905512
vt -5.219784 11.81102
vt -3.131871 5.905512
vt -3.131871 11.81102
vt -19.68504 -4.171582E-14
vt -19.68504 35.43307
vt -11.3189 29.52756
vt -11.3189 35.43307
vt -5.413386 23.62205
vt -5.413386 29.52756
vt 0.492126 17.71654
vt 0.492126 23.62205
vt 6.397638 17.71654
vt 18.20866 5.905512
vt 12.30315 11.81102
vt 19.68504 -19.68504
vt -19.68504 -19.68504
vt 19.68504 18.20866
vt 18.20866 19.68504
vt -18.20866 19.68504
vt -19.68504 18.20866
vt -9.395612 11.81102
vt -9.395612 17.71654
vt -7.307698 11.81102
vt -7.307698 17.71654
vt 9.395612 17.71654
vt 9.395612 11.81102
vt 7.307698 17.71654
vt 7.307698 11.81102
vt 18.20866 29.52756
vt -18.20866 29.52756
vt 18.20866 35.43307
vt -9.350393 32.48032
vt -6.397638 35.43307
vt -18.20866 35.43307
vt -12.30315 35.43307
vt -19.68504 0.492126
vt -18.20866 1.968504
vt -9.350393 -0.984252
vt -12.30315 1.968504
vt -6.397638 1.968504
vt 18.20866 1.968504
vt 19.68504 0.492126
vt 9.350393 -12.79528
vt 6.397638 -9.84252
vt 12.30315 -9.84252
vt -18.20866 5.905512
vt 18.20866 11.81102
vt -9.350393 8.858268
vt -18.20866 11.81102
vt -12.30315 11.81102
vt 17.74727 23.62205
vt 15.65935 23.62205
vt 17.74727 29.52756
vt 15.65935 29.52756
vt -19.68504 12.30315
vt -18.20866 13.77953
vt 18.20866 13.77953
vt 19.68504 12.30315
vt -19.68504 6.397638
vt -18.20866 7.874016
vt 18.20866 7.874016
vt 9.350393 10.82677
vt 6.397638 13.77953
vt 12.30315 13.77953
vt 19.68504 6.397638
vt -17.74727 23.62205
vt -17.74727 29.52756
vt -15.65935 23.62205
vt -15.65935 29.52756
vt 5.219784 5.905512
vt 3.131871 5.905512
vt 5.219784 11.81102
vt 3.131871 11.81102
vt 19.68504 2.558599E-14
vt 19.68504 35.43307
vt 11.3189 29.52756
vt 11.3189 35.43307
vt 5.413386 23.62205
vt 5.413386 29.52756
vt -0.492126 17.71654
vt -0.492126 23.62205
vt -6.397638 17.71654
vt 21.92309 35.43307
vt 21.92309 29.52756
vt 19.83518 35.43307
vt 19.83518 29.52756
vt 12.30315 23.62205
vt 18.20866 23.62205
vt 9.350393 20.66929
vt 18.20866 17.71654
vt -18.20866 17.71654
vt -18.20866 23.62205
vt 6.397638 23.62205
vt -19.83518 29.52756
vt -21.92309 29.52756
vt -19.83518 35.43307
vt -21.92309 35.43307
vt 18.20866 0
vt -18.20866 0
vt -1.043957 0
vt -1.043957 5.905512
vt 1.043957 0
vt 1.043957 5.905512
vt 19.68504 -2.386621E-13
vt -19.68504 -2.386621E-13
vt -13.57144 17.71654
vt -13.57144 23.62205
vt -11.48353 17.71654
vt -11.48353 23.62205

usemtl grey

f 3/3/1 2/2/1 1/1/1
f 6/6/3 5/5/3 4/4/2
f 9/9/3 8/8/3 7/7/2
f 12/12/3 11/11/3 10/10/2
f 12/15/3 13/14/4 11/13/3
f 9/18/3 14/17/4 8/16/3
f 17/21/5 16/20/5 15/19/5
f 6/24/3 18/23/4 5/22/3
f 21/27/6 20/26/7 19/25/6
f 20/26/7 21/27/6 22/28/7
f 25/31/8 24/30/8 23/29/8
f 24/30/8 25/31/8 26/32/8
f 26/32/8 25/31/8 27/33/8
f 26/32/8 27/33/8 28/34/8
f 28/34/8 27/33/8 29/35/8
f 28/34/8 29/35/8 30/36/8
f 32/39/10 31/38/9 1/37/9
f 31/38/9 32/39/10 33/40/10
f 2/2/1 35/42/1 34/41/1
f 35/42/1 2/2/1 3/3/1
f 35/42/1 3/3/1 29/43/1
f 36/44/1 35/42/1 29/43/1
f 29/43/1 3/3/1 37/45/1
f 30/46/1 29/43/1 37/45/1
f 37/45/1 3/3/1 38/47/1
f 39/48/1 37/45/1 38/47/1
f 40/49/1 38/47/1 3/3/1
f 1/1/1 2/2/1 41/50/1
f 31/51/1 3/3/1 1/1/1
f 17/54/11 34/53/11 42/52/11
f 34/53/11 17/54/11 43/55/11
f 34/53/11 43/55/11 44/56/11
f 34/53/11 44/56/11 2/57/11
f 45/60/10 40/59/9 3/58/9
f 40/59/9 45/60/10 46/61/10
f 48/64/7 16/63/6 47/62/6
f 16/63/6 48/64/7 49/65/7
f 50/68/7 27/67/10 25/66/7
f 27/67/10 50/68/7 11/69/12
f 11/69/12 50/68/7 10/70/12
f 11/69/12 51/71/10 27/67/10
f 51/71/10 11/69/12 13/72/12
f 53/32/8 21/73/8 52/30/8
f 21/73/8 53/32/8 22/74/8
f 22/74/8 53/32/8 9/75/8
f 22/74/8 9/75/8 7/76/8
f 9/75/8 53/32/8 54/34/8
f 9/75/8 54/34/8 14/77/8
f 14/77/8 54/34/8 55/78/8
f 55/78/8 54/34/8 37/36/8
f 55/78/8 37/36/8 39/79/8
f 35/52/8 57/29/8 56/53/8
f 57/29/8 35/52/8 50/31/8
f 50/31/8 35/52/8 12/80/8
f 50/31/8 12/80/8 10/81/8
f 12/80/8 35/52/8 13/82/8
f 13/82/8 35/52/8 51/33/8
f 51/33/8 35/52/8 36/35/8
f 59/84/7 32/83/10 58/50/7
f 32/83/10 59/84/7 5/85/12
f 5/85/12 59/84/7 4/20/12
f 5/85/12 33/86/10 32/83/10
f 33/86/10 5/85/12 18/87/12
f 24/90/6 53/89/7 52/88/6
f 53/89/7 24/90/6 26/91/7
f 58/93/8 60/57/8 15/92/8
f 60/57/8 58/93/8 61/56/8
f 61/56/8 58/93/8 32/94/8
f 61/56/8 32/94/8 62/55/8
f 62/55/8 32/94/8 1/95/8
f 62/55/8 1/95/8 41/54/8
f 49/97/8 63/92/8 16/96/8
f 63/92/8 49/97/8 59/93/8
f 59/93/8 49/97/8 45/98/8
f 59/93/8 45/98/8 6/99/8
f 59/93/8 6/99/8 4/100/8
f 6/99/8 45/98/8 18/101/8
f 18/101/8 45/98/8 33/94/8
f 33/94/8 45/98/8 3/102/8
f 33/94/8 3/102/8 31/95/8
f 54/105/10 30/104/9 37/103/9
f 30/104/9 54/105/10 28/106/10
f 63/109/6 58/108/7 15/107/6
f 58/108/7 63/109/6 59/110/7
f 56/112/5 17/21/5 42/111/5
f 17/21/5 56/112/5 23/113/5
f 23/113/5 56/112/5 57/114/5
f 17/21/5 23/113/5 52/115/5
f 52/115/5 23/113/5 24/116/5
f 17/21/5 52/115/5 19/117/5
f 19/117/5 52/115/5 21/118/5
f 17/21/5 19/117/5 16/20/5
f 16/20/5 19/117/5 47/119/5
f 17/21/5 15/19/5 60/83/5
f 15/19/5 16/20/5 63/87/5
f 20/74/8 47/96/8 19/73/8
f 47/96/8 20/74/8 48/97/8
f 48/97/8 20/74/8 64/78/8
f 48/97/8 64/78/8 46/98/8
f 46/98/8 64/78/8 38/79/8
f 46/98/8 38/79/8 40/102/8
f 50/122/7 23/121/6 57/120/6
f 23/121/6 50/122/7 25/123/7
f 8/126/12 22/125/7 7/124/12
f 8/126/12 20/127/7 22/125/7
f 20/127/7 8/126/12 64/128/10
f 8/126/12 55/129/10 64/128/10
f 55/129/10 8/126/12 14/130/12
f 26/66/7 54/129/10 53/125/7
f 54/129/10 26/66/7 28/67/10
f 51/133/10 29/132/9 27/131/10
f 29/132/9 51/133/10 36/134/9
f 61/50/7 44/136/10 43/135/7
f 44/136/10 61/50/7 62/83/10
f 44/139/10 41/138/9 2/137/9
f 41/138/9 44/139/10 62/140/10
f 35/112/13 42/142/13 34/141/13
f 42/142/13 35/112/13 56/42/13
f 60/140/6 43/137/7 17/139/6
f 43/137/7 60/140/6 61/138/7
f 64/145/10 39/144/9 38/143/9
f 39/144/9 64/145/10 55/146/10
f 48/127/7 45/86/10 49/84/7
f 45/86/10 48/127/7 46/128/10

g stairs




usemtl grey

f 3/3/1 2/2/1 1/1/1
f 6/6/3 5/5/3 4/4/2
f 9/9/3 8/8/3 7/7/2
f 12/12/3 11/11/3 10/10/2
f 12/15/3 13/14/4 11/13/3
f 9/18/3 14/17/4 8/16/3
f 17/21/5 16/20/5 15/19/5
f 6/24/3 18/23/4 5/22/3
f 21/27/6 20/26/7 19/25/6
f 20/26/7 21/27/6 22/28/7
f 25/31/8 24/30/8 23/29/8
f 24/30/8 25/31/8 26/32/8
f 26/32/8 25/31/8 27/33/8
f 26/32/8 27/33/8 28/34/8
f 28/34/8 27/33/8 29/35/8
f 28/34/8 29/35/8 30/36/8
f 32/39/10 31/38/9 1/37/9
f 31/38/9 32/39/10 33/40/10
f 2/2/1 35/42/1 34/41/1
f 35/42/1 2/2/1 3/3/1
f 35/42/1 3/3/1 29/43/1
f 36/44/1 35/42/1 29/43/1
f 29/43/1 3/3/1 37/45/1
f 30/46/1 29/43/1 37/45/1
f 37/45/1 3/3/1 38/47/1
f 39/48/1 37/45/1 38/47/1
f 40/49/1 38/47/1 3/3/1
f 1/1/1 2/2/1 41/50/1
f 31/51/1 3/3/1 1/1/1
f 17/54/11 34/53/11 42/52/11
f 34/53/11 17/54/11 43/55/11
f 34/53/11 43/55/11 44/56/11
f 34/53/11 44/56/11 2/57/11
f 45/60/10 40/59/9 3/58/9
f 40/59/9 45/60/10 46/61/10
f 48/64/7 16/63/6 47/62/6
f 16/63/6 48/64/7 49/65/7
f 50/68/7 27/67/10 25/66/7
f 27/67/10 50/68/7 11/69/12
f 11/69/12 50/68/7 10/70/12
f 11/69/12 51/71/10 27/67/10
f 51/71/10 11/69/12 13/72/12
f 53/32/8 21/73/8 52/30/8
f 21/73/8 53/32/8 22/74/8
f 22/74/8 53/32/8 9/75/8
f 22/74/8 9/75/8 7/76/8
f 9/75/8 53/32/8 54/34/8
f 9/75/8 54/34/8 14/77/8
f 14/77/8 54/34/8 55/78/8
f 55/78/8 54/34/8 37/36/8
f 55/78/8 37/36/8 39/79/8
f 35/52/8 57/29/8 56/53/8
f 57/29/8 35/52/8 50/31/8
f 50/31/8 35/52/8 12/80/8
f 50/31/8 12/80/8 10/81/8
f 12/80/8 35/52/8 13/82/8
f 13/82/8 35/52/8 51/33/8
f 51/33/8 35/52/8 36/35/8
f 59/84/7 32/83/10 58/50/7
f 32/83/10 59/84/7 5/85/12
f 5/85/12 59/84/7 4/20/12
f 5/85/12 33/86/10 32/83/10
f 33/86/10 5/85/12 18/87/12
f 24/90/6 53/89/7 52/88/6
f 53/89/7 24/90/6 26/91/7
f 58/93/8 60/57/8 15/92/8
f 60/57/8 58/93/8 61/56/8
f 61/56/8 58/93/8 32/94/8
f 61/56/8 32/94/8 62/55/8
f 62/55/8 32/94/8 1/95/8
f 62/55/8 1/95/8 41/54/8
f 49/97/8 63/92/8 16/96/8
f 63/92/8 49/97/8 59/93/8
f 59/93/8 49/97/8 45/98/8
f 59/93/8 45/98/8 6/99/8
f 59/93/8 6/99/8 4/100/8
f 6/99/8 45/98/8 18/101/8
f 18/101/8 45/98/8 33/94/8
f 33/94/8 45/98/8 3/102/8
f 33/94/8 3/102/8 31/95/8
f 54/105/10 30/104/9 37/103/9
f 30/104/9 54/105/10 28/106/10
f 63/109/6 58/108/7 15/107/6
f 58/108/7 63/109/6 59/110/7
f 56/112/5 17/21/5 42/111/5
f 17/21/5 56/112/5 23/113/5
f 23/113/5 56/112/5 57/114/5
f 17/21/5 23/113/5 52/115/5
f 52/115/5 23/113/5 24/116/5
f 17/21/5 52/115/5 19/117/5
f 19/117/5 52/115/5 21/118/5
f 17/21/5 19/117/5 16/20/5
f 16/20/5 19/117/5 47/119/5
f 17/21/5 15/19/5 60/83/5
f 15/19/5 16/20/5 63/87/5
f 20/74/8 47/96/8 19/73/8
f 47/96/8 20/74/8 48/97/8
f 48/97/8 20/74/8 64/78/8
f 48/97/8 64/78/8 46/98/8
f 46/98/8 64/78/8 38/79/8
f 46/98/8 38/79/8 40/102/8
f 50/122/7 23/121/6 57/120/6
f 23/121/6 50/122/7 25/123/7
f 8/126/12 22/125/7 7/124/12
f 8/126/12 20/127/7 22/125/7
f 20/127/7 8/126/12 64/128/10
f 8/126/12 55/129/10 64/128/10
f 55/129/10 8/126/12 14/130/12
f 26/66/7 54/129/10 53/125/7
f 54/129/10 26/66/7 28/67/10
f 51/133/10 29/132/9 27/131/10
f 29/132/9 51/133/10 36/134/9
f 61/50/7 44/136/10 43/135/7
f 44/136/10 61/50/7 62/83/10
f 44/139/10 41/138/9 2/137/9
f 41/138/9 44/139/10 62/140/10
f 35/112/13 42/142/13 34/141/13
f 42/142/13 35/112/13 56/42/13
f 60/140/6 43/137/7 17/139/6
f 43/137/7 60/140/6 61/138/7
f 64/145/10 39/144/9 38/143/9
f 39/144/9 64/145/10 55/146/10
f 48/127/7 45/86/10 49/84/7
f 45/86/10 48/127/7 46/128/10

