# Created by Kenney (www.kenney.nl)

mtllib wood-structure.mtl

g wood-structure

v 0.475 0.8 0.35 0.6724432 0.2383977 0.1046165
v 0.475 0.9 0.35 0.6724432 0.2383977 0.1046165
v 0.4750001 0.8 -0.3500001 0.6724432 0.2383977 0.1046165
v 0.4750001 0.9 -0.3500001 0.6724432 0.2383977 0.1046165
v 0.3749999 0.8 0.35 0.6724432 0.2383977 0.1046165
v 0.375 0.8 -0.3500001 0.6724432 0.2383977 0.1046165
v 0.3749999 0.9 0.35 0.6724432 0.2383977 0.1046165
v 0.375 0.9 -0.3500001 0.6724432 0.2383977 0.1046165
v -0.375 0.8 0.35 0.6724432 0.2383977 0.1046165
v -0.375 0.9 0.35 0.6724432 0.2383977 0.1046165
v -0.3749999 0.8 -0.3500001 0.6724432 0.2383977 0.1046165
v -0.3749999 0.9 -0.3500001 0.6724432 0.2383977 0.1046165
v -0.475 0.8 0.35 0.6724432 0.2383977 0.1046165
v -0.4749999 0.8 -0.3500001 0.6724432 0.2383977 0.1046165
v -0.475 0.9 0.35 0.6724432 0.2383977 0.1046165
v -0.4749999 0.9 -0.3500001 0.6724432 0.2383977 0.1046165
v -0.35 0.8 -0.375 0.6724432 0.2383977 0.1046165
v -0.35 0.9 -0.375 0.6724432 0.2383977 0.1046165
v 0.35 0.8 -0.375 0.6724432 0.2383977 0.1046165
v 0.35 0.9 -0.375 0.6724432 0.2383977 0.1046165
v -0.35 0.8 -0.475 0.6724432 0.2383977 0.1046165
v 0.35 0.8 -0.475 0.6724432 0.2383977 0.1046165
v -0.35 0.9 -0.475 0.6724432 0.2383977 0.1046165
v 0.35 0.9 -0.475 0.6724432 0.2383977 0.1046165
v -0.35 0.8 0.475 0.6724432 0.2383977 0.1046165
v -0.35 0.9 0.475 0.6724432 0.2383977 0.1046165
v 0.35 0.8 0.475 0.6724432 0.2383977 0.1046165
v 0.35 0.9 0.475 0.6724432 0.2383977 0.1046165
v -0.35 0.8 0.375 0.6724432 0.2383977 0.1046165
v 0.35 0.8 0.375 0.6724432 0.2383977 0.1046165
v -0.35 0.9 0.375 0.6724432 0.2383977 0.1046165
v 0.35 0.9 0.375 0.6724432 0.2383977 0.1046165
v 0.5 1.602965E-31 -0.35 0.5522346 0.1308131 0.06449737
v 0.5 1.602965E-31 -0.5 0.5522346 0.1308131 0.06449737
v 0.35 1.602965E-31 -0.35 0.5522346 0.1308131 0.06449737
v 0.35 1.602965E-31 -0.5 0.6308377 0.1983572 0.08998587
v 0.5 1 -0.5 0.6308377 0.1983572 0.08998587
v 0.5 1 -0.35 0.6308377 0.1983572 0.08998587
v 0.35 1 -0.5 0.6308377 0.1983572 0.08998587
v 0.35 1 -0.35 0.5522346 0.1308131 0.06449737
v 0.5 0 0.5 0.5522346 0.1308131 0.06449737
v 0.5 0 0.35 0.5522346 0.1308131 0.06449737
v 0.35 0 0.5 0.5522346 0.1308131 0.06449737
v 0.35 0 0.35 0.6308377 0.1983572 0.08998587
v 0.5 1 0.35 0.6308377 0.1983572 0.08998587
v 0.5 1 0.5 0.6308377 0.1983572 0.08998587
v 0.35 1 0.35 0.6308377 0.1983572 0.08998587
v 0.35 1 0.5 0.5522346 0.1308131 0.06449737
v -0.35 0 0.5 0.5522346 0.1308131 0.06449737
v -0.35 0 0.35 0.5522346 0.1308131 0.06449737
v -0.5 0 0.5 0.5522346 0.1308131 0.06449737
v -0.5 0 0.35 0.6308377 0.1983572 0.08998587
v -0.35 1 0.35 0.6308377 0.1983572 0.08998587
v -0.35 1 0.5 0.6308377 0.1983572 0.08998587
v -0.5 1 0.35 0.6308377 0.1983572 0.08998587
v -0.5 1 0.5 0.5522346 0.1308131 0.06449737
v -0.35 0 -0.35 0.5522346 0.1308131 0.06449737
v -0.35 0 -0.5 0.5522346 0.1308131 0.06449737
v -0.5 0 -0.35 0.5522346 0.1308131 0.06449737
v -0.5 0 -0.5 0.6308377 0.1983572 0.08998587
v -0.35 1 -0.5 0.6308377 0.1983572 0.08998587
v -0.35 1 -0.35 0.6308377 0.1983572 0.08998587
v -0.5 1 -0.5 0.6308377 0.1983572 0.08998587
v -0.5 1 -0.35 0.5522346 0.1308131 0.06449737
v -0.35 0.4928932 -0.45 0.5522346 0.1308131 0.06449737
v -0.04289324 0.8 -0.45 0.5946413 0.1672534 0.07824852
v -0.35 0.6343146 -0.45 0.5522346 0.1308132 0.06449737
v -0.1843146 0.8 -0.45 0.5946413 0.1672534 0.07824852
v -0.35 0.6343146 -0.4 0.5522346 0.1308132 0.06449737
v -0.1843146 0.8 -0.4 0.6308377 0.1983572 0.08998587
v -0.35 0.4928932 -0.4 0.5946413 0.1672534 0.07824852
v -0.04289324 0.8 -0.4 0.5522346 0.1308132 0.06449737
v 0.35 0.4928932 -0.45 0.5522346 0.1308131 0.06449737
v 0.04289323 0.8 -0.45 0.6308377 0.1983572 0.08998587
v 0.35 0.4928932 -0.4 0.5522346 0.1308131 0.06449737
v 0.04289323 0.8 -0.4 0.6308377 0.1983572 0.08998587
v 0.35 0.6343146 -0.45 0.5522346 0.1308131 0.06449737
v 0.1843146 0.8 -0.45 0.6308377 0.1983572 0.08998587
v 0.35 0.6343146 -0.4 0.5522346 0.1308132 0.06449737
v 0.1843146 0.8 -0.4 0.5946413 0.1672534 0.07824852
v 0.35 0.4928932 0.4 0.5522346 0.1308131 0.06449737
v 0.04289323 0.8 0.4 0.6308377 0.1983572 0.08998587
v 0.35 0.4928932 0.45 0.5522346 0.1308131 0.06449737
v 0.04289323 0.8 0.45 0.6308377 0.1983572 0.08998587
v 0.35 0.6343146 0.4 0.5522346 0.1308131 0.06449737
v 0.1843146 0.8 0.4 0.6308377 0.1983572 0.08998587
v 0.35 0.6343146 0.45 0.5522346 0.1308132 0.06449737
v 0.1843146 0.8 0.45 0.5946413 0.1672534 0.07824852
v -0.35 0.4928932 0.4 0.5522346 0.1308131 0.06449737
v -0.04289324 0.8 0.4 0.5946413 0.1672534 0.07824852
v -0.35 0.6343146 0.4 0.5522346 0.1308132 0.06449737
v -0.1843146 0.8 0.4 0.5946413 0.1672534 0.07824852
v -0.35 0.6343146 0.45 0.5522346 0.1308132 0.06449737
v -0.1843146 0.8 0.45 0.6308377 0.1983572 0.08998587
v -0.35 0.4928932 0.45 0.5946413 0.1672534 0.07824852
v -0.04289324 0.8 0.45 0.5522346 0.1308132 0.06449737
v 0.45 0.4928932 -0.35 0.5522346 0.1308131 0.06449737
v 0.45 0.8 -0.04289324 0.5946413 0.1672534 0.07824852
v 0.45 0.6343146 -0.35 0.5522346 0.1308132 0.06449737
v 0.45 0.8 -0.1843146 0.5946413 0.1672534 0.07824852
v 0.4 0.6343146 -0.35 0.5522346 0.1308132 0.06449737
v 0.4 0.8 -0.1843146 0.6308377 0.1983572 0.08998587
v 0.4 0.4928932 -0.35 0.5946413 0.1672534 0.07824852
v 0.4 0.8 -0.04289325 0.5522346 0.1308132 0.06449737
v -0.4 0.4928932 0.35 0.5522346 0.1308131 0.06449737
v -0.4 0.8 0.0428932 0.6308377 0.1983572 0.08998587
v -0.45 0.4928932 0.35 0.5522346 0.1308131 0.06449737
v -0.45 0.8 0.0428932 0.6308377 0.1983572 0.08998587
v -0.4 0.6343146 0.35 0.5522346 0.1308131 0.06449737
v -0.4 0.8 0.1843146 0.6308377 0.1983572 0.08998587
v -0.45 0.6343146 0.35 0.5522346 0.1308132 0.06449737
v -0.45 0.8 0.1843146 0.5946413 0.1672534 0.07824852
v -0.4 0.4928932 -0.35 0.5522346 0.1308131 0.06449737
v -0.4 0.8 -0.04289324 0.5946413 0.1672534 0.07824852
v -0.4 0.6343146 -0.35 0.5522346 0.1308132 0.06449737
v -0.4 0.8 -0.1843146 0.5946413 0.1672534 0.07824852
v -0.45 0.6343146 -0.35 0.5522346 0.1308132 0.06449737
v -0.45 0.8 -0.1843146 0.6308377 0.1983572 0.08998587
v -0.45 0.4928932 -0.35 0.5946413 0.1672534 0.07824852
v -0.45 0.8 -0.04289325 0.5522346 0.1308132 0.06449737
v 0.45 0.4928932 0.35 0.5522346 0.1308131 0.06449737
v 0.45 0.8 0.0428932 0.6308377 0.1983572 0.08998587
v 0.4 0.4928932 0.35 0.5522346 0.1308131 0.06449737
v 0.4 0.8 0.0428932 0.6308377 0.1983572 0.08998587
v 0.45 0.6343146 0.35 0.5522346 0.1308131 0.06449737
v 0.45 0.8 0.1843146 0.6308377 0.1983572 0.08998587
v 0.4 0.6343146 0.35 0.5522346 0.1308132 0.06449737
v 0.4 0.8 0.1843146 0.5946413 0.1672534 0.07824852

vn 1 0 1.192093E-07
vn 0 -1 0
vn -1 0 -1.192093E-07
vn 0 1 0
vn 1.28038E-12 0 1
vn -1.28038E-12 0 -1
vn -1 0 0
vn 0 0 -1
vn 1 0 0
vn 0 0 1
vn -0.7071068 0.7071068 0
vn 0.7071068 -0.7071068 0
vn -0.7071068 -0.7071068 0
vn 0.7071068 0.7071068 0
vn 8.429368E-08 0.7071068 -0.7071068
vn -8.429368E-08 -0.7071068 0.7071068
vn 8.429368E-08 -0.7071068 -0.7071068
vn -8.429368E-08 0.7071068 0.7071068

vt 1.173324E-07 0
vt 0 3.937008
vt 31.49606 9.386595E-07
vt 31.49606 3.937009
vt -1.173324E-07 3.937008
vt -1.173324E-07 0
vt -31.49606 3.937008
vt -31.49606 0
vt -31.49606 9.386595E-07
vt -1.776357E-15 3.937008
vt -31.49606 3.937009
vt 1.173324E-07 2.3695E-35
vt 1.173324E-07 3.937008
vt 31.49606 2.3695E-35
vt 31.49606 3.937008
vt 0 5.905512
vt 0 0
vt -5.905512 5.905512
vt -5.905512 0
vt 5.905512 0
vt 5.905512 5.905512
vt 0 39.37008
vt 5.905512 39.37008
vt -5.905512 39.37008
vt 12.09082 7.3193E-27
vt -1.396052E-26 12.09082
vt 12.09082 5.56777
vt 5.56777 12.09082
vt 5.542493E-15 -4.612491
vt 4.857214E-13 4.612492
vt 3.937008 -4.612491
vt 3.937008 4.612492
vt -12.09082 7.164438E-14
vt -12.09082 5.56777
vt 4.240993E-14 12.09082
vt -5.56777 12.09082
vt -4.156751E-15 -8.549499
vt -3.937008 -8.549499
vt -5.115908E-13 8.5495
vt -3.937008 8.5495
vt 5.07434E-13 17.099
vt 3.937008 1.315888E-13
vt 3.937008 17.099
vt 0 5.56777
vt 12.09082 12.09082
vt 6.523047 12.09082
vt -1.845185E-13 7.164438E-14
vt -12.09082 12.09082
vt -1.845185E-13 5.56777
vt -6.523047 12.09082
vt 0 3.937008
vt -3.937008 3.937008
vt -4.801789E-13 13.16199
vt -3.937008 13.16199

usemtl brown

f 3/3/1 2/2/1 1/1/1
f 2/2/1 3/3/1 4/4/1
f 6/7/2 1/6/2 5/5/2
f 1/6/2 6/7/2 3/8/2
f 7/10/3 6/9/3 5/6/3
f 6/9/3 7/10/3 8/11/3
f 4/14/4 7/13/4 2/12/4
f 7/13/4 4/14/4 8/15/4
f 11/3/1 10/2/1 9/1/1
f 10/2/1 11/3/1 12/4/1
f 14/7/2 9/6/2 13/5/2
f 9/6/2 14/7/2 11/8/2
f 15/10/3 14/9/3 13/6/3
f 14/9/3 15/10/3 16/11/3
f 12/14/4 15/13/4 10/12/4
f 15/13/4 12/14/4 16/15/4
f 19/3/5 18/2/5 17/1/5
f 18/2/5 19/3/5 20/4/5
f 22/7/2 17/6/2 21/5/2
f 17/6/2 22/7/2 19/8/2
f 23/10/6 22/9/6 21/6/6
f 22/9/6 23/10/6 24/11/6
f 20/14/4 23/13/4 18/12/4
f 23/13/4 20/14/4 24/15/4
f 27/3/5 26/2/5 25/1/5
f 26/2/5 27/3/5 28/4/5
f 30/7/2 25/6/2 29/5/2
f 25/6/2 30/7/2 27/8/2
f 31/10/6 30/9/6 29/6/6
f 30/9/6 31/10/6 32/11/6
f 28/14/4 31/13/4 26/12/4
f 31/13/4 28/14/4 32/15/4
f 35/18/2 34/17/2 33/16/2
f 34/17/2 35/18/2 36/19/2
f 39/20/4 38/16/4 37/17/4
f 38/16/4 39/20/4 40/21/4
f 35/20/7 39/22/7 36/17/7
f 39/22/7 35/20/7 40/23/7
f 39/23/8 34/17/8 36/20/8
f 34/17/8 39/23/8 37/22/8
f 38/24/9 34/17/9 37/22/9
f 34/17/9 38/24/9 33/19/9
f 38/22/10 35/19/10 33/17/10
f 35/19/10 38/22/10 40/24/10
f 43/18/2 42/17/2 41/16/2
f 42/17/2 43/18/2 44/19/2
f 47/20/4 46/16/4 45/17/4
f 46/16/4 47/20/4 48/21/4
f 43/20/7 47/22/7 44/17/7
f 47/22/7 43/20/7 48/23/7
f 47/23/8 42/17/8 44/20/8
f 42/17/8 47/23/8 45/22/8
f 46/24/9 42/17/9 45/22/9
f 42/17/9 46/24/9 41/19/9
f 46/22/10 43/19/10 41/17/10
f 43/19/10 46/22/10 48/24/10
f 51/18/2 50/17/2 49/16/2
f 50/17/2 51/18/2 52/19/2
f 55/20/4 54/16/4 53/17/4
f 54/16/4 55/20/4 56/21/4
f 51/20/7 55/22/7 52/17/7
f 55/22/7 51/20/7 56/23/7
f 55/23/8 50/17/8 52/20/8
f 50/17/8 55/23/8 53/22/8
f 54/24/9 50/17/9 53/22/9
f 50/17/9 54/24/9 49/19/9
f 54/22/10 51/19/10 49/17/10
f 51/19/10 54/22/10 56/24/10
f 59/18/2 58/17/2 57/16/2
f 58/17/2 59/18/2 60/19/2
f 63/20/4 62/16/4 61/17/4
f 62/16/4 63/20/4 64/21/4
f 59/20/7 63/22/7 60/17/7
f 63/22/7 59/20/7 64/23/7
f 63/23/8 58/17/8 60/20/8
f 58/17/8 63/23/8 61/22/8
f 62/24/9 58/17/9 61/22/9
f 58/17/9 62/24/9 57/19/9
f 62/22/10 59/19/10 57/17/10
f 59/19/10 62/22/10 64/24/10
f 67/27/8 66/26/8 65/25/8
f 66/26/8 67/27/8 68/28/8
f 69/31/11 68/30/11 67/29/11
f 68/30/11 69/31/11 70/32/11
f 72/35/10 69/34/10 71/33/10
f 69/34/10 72/35/10 70/36/10
f 66/39/12 71/38/12 65/37/12
f 71/38/12 66/39/12 72/40/12
f 75/42/13 74/41/13 73/17/13
f 74/41/13 75/42/13 76/43/13
f 74/45/8 77/44/8 73/17/8
f 77/44/8 74/45/8 78/46/8
f 79/49/10 76/48/10 75/47/10
f 76/48/10 79/49/10 80/50/10
f 78/53/14 79/52/14 77/51/14
f 79/52/14 78/53/14 80/54/14
f 83/42/13 82/41/13 81/17/13
f 82/41/13 83/42/13 84/43/13
f 82/45/8 85/44/8 81/17/8
f 85/44/8 82/45/8 86/46/8
f 87/49/10 84/48/10 83/47/10
f 84/48/10 87/49/10 88/50/10
f 86/53/14 87/52/14 85/51/14
f 87/52/14 86/53/14 88/54/14
f 91/27/8 90/26/8 89/25/8
f 90/26/8 91/27/8 92/28/8
f 93/31/11 92/30/11 91/29/11
f 92/30/11 93/31/11 94/32/11
f 96/35/10 93/34/10 95/33/10
f 93/34/10 96/35/10 94/36/10
f 90/39/12 95/38/12 89/37/12
f 95/38/12 90/39/12 96/40/12
f 99/27/1 98/26/1 97/25/1
f 98/26/1 99/27/1 100/28/1
f 101/31/15 100/30/15 99/29/15
f 100/30/15 101/31/15 102/32/15
f 104/35/3 101/34/3 103/33/3
f 101/34/3 104/35/3 102/36/3
f 98/39/16 103/38/16 97/37/16
f 103/38/16 98/39/16 104/40/16
f 107/42/17 106/41/17 105/17/17
f 106/41/17 107/42/17 108/43/17
f 106/45/1 109/44/1 105/17/1
f 109/44/1 106/45/1 110/46/1
f 111/49/3 108/48/3 107/47/3
f 108/48/3 111/49/3 112/50/3
f 110/53/18 111/52/18 109/51/18
f 111/52/18 110/53/18 112/54/18
f 115/27/1 114/26/1 113/25/1
f 114/26/1 115/27/1 116/28/1
f 117/31/15 116/30/15 115/29/15
f 116/30/15 117/31/15 118/32/15
f 120/35/3 117/34/3 119/33/3
f 117/34/3 120/35/3 118/36/3
f 114/39/16 119/38/16 113/37/16
f 119/38/16 114/39/16 120/40/16
f 123/42/17 122/41/17 121/17/17
f 122/41/17 123/42/17 124/43/17
f 122/45/1 125/44/1 121/17/1
f 125/44/1 122/45/1 126/46/1
f 127/49/3 124/48/3 123/47/3
f 124/48/3 127/49/3 128/50/3
f 126/53/18 127/52/18 125/51/18
f 127/52/18 126/53/18 128/54/18

g wood-structure




usemtl brown

f 3/3/1 2/2/1 1/1/1
f 2/2/1 3/3/1 4/4/1
f 6/7/2 1/6/2 5/5/2
f 1/6/2 6/7/2 3/8/2
f 7/10/3 6/9/3 5/6/3
f 6/9/3 7/10/3 8/11/3
f 4/14/4 7/13/4 2/12/4
f 7/13/4 4/14/4 8/15/4
f 11/3/1 10/2/1 9/1/1
f 10/2/1 11/3/1 12/4/1
f 14/7/2 9/6/2 13/5/2
f 9/6/2 14/7/2 11/8/2
f 15/10/3 14/9/3 13/6/3
f 14/9/3 15/10/3 16/11/3
f 12/14/4 15/13/4 10/12/4
f 15/13/4 12/14/4 16/15/4
f 19/3/5 18/2/5 17/1/5
f 18/2/5 19/3/5 20/4/5
f 22/7/2 17/6/2 21/5/2
f 17/6/2 22/7/2 19/8/2
f 23/10/6 22/9/6 21/6/6
f 22/9/6 23/10/6 24/11/6
f 20/14/4 23/13/4 18/12/4
f 23/13/4 20/14/4 24/15/4
f 27/3/5 26/2/5 25/1/5
f 26/2/5 27/3/5 28/4/5
f 30/7/2 25/6/2 29/5/2
f 25/6/2 30/7/2 27/8/2
f 31/10/6 30/9/6 29/6/6
f 30/9/6 31/10/6 32/11/6
f 28/14/4 31/13/4 26/12/4
f 31/13/4 28/14/4 32/15/4
f 35/18/2 34/17/2 33/16/2
f 34/17/2 35/18/2 36/19/2
f 39/20/4 38/16/4 37/17/4
f 38/16/4 39/20/4 40/21/4
f 35/20/7 39/22/7 36/17/7
f 39/22/7 35/20/7 40/23/7
f 39/23/8 34/17/8 36/20/8
f 34/17/8 39/23/8 37/22/8
f 38/24/9 34/17/9 37/22/9
f 34/17/9 38/24/9 33/19/9
f 38/22/10 35/19/10 33/17/10
f 35/19/10 38/22/10 40/24/10
f 43/18/2 42/17/2 41/16/2
f 42/17/2 43/18/2 44/19/2
f 47/20/4 46/16/4 45/17/4
f 46/16/4 47/20/4 48/21/4
f 43/20/7 47/22/7 44/17/7
f 47/22/7 43/20/7 48/23/7
f 47/23/8 42/17/8 44/20/8
f 42/17/8 47/23/8 45/22/8
f 46/24/9 42/17/9 45/22/9
f 42/17/9 46/24/9 41/19/9
f 46/22/10 43/19/10 41/17/10
f 43/19/10 46/22/10 48/24/10
f 51/18/2 50/17/2 49/16/2
f 50/17/2 51/18/2 52/19/2
f 55/20/4 54/16/4 53/17/4
f 54/16/4 55/20/4 56/21/4
f 51/20/7 55/22/7 52/17/7
f 55/22/7 51/20/7 56/23/7
f 55/23/8 50/17/8 52/20/8
f 50/17/8 55/23/8 53/22/8
f 54/24/9 50/17/9 53/22/9
f 50/17/9 54/24/9 49/19/9
f 54/22/10 51/19/10 49/17/10
f 51/19/10 54/22/10 56/24/10
f 59/18/2 58/17/2 57/16/2
f 58/17/2 59/18/2 60/19/2
f 63/20/4 62/16/4 61/17/4
f 62/16/4 63/20/4 64/21/4
f 59/20/7 63/22/7 60/17/7
f 63/22/7 59/20/7 64/23/7
f 63/23/8 58/17/8 60/20/8
f 58/17/8 63/23/8 61/22/8
f 62/24/9 58/17/9 61/22/9
f 58/17/9 62/24/9 57/19/9
f 62/22/10 59/19/10 57/17/10
f 59/19/10 62/22/10 64/24/10
f 67/27/8 66/26/8 65/25/8
f 66/26/8 67/27/8 68/28/8
f 69/31/11 68/30/11 67/29/11
f 68/30/11 69/31/11 70/32/11
f 72/35/10 69/34/10 71/33/10
f 69/34/10 72/35/10 70/36/10
f 66/39/12 71/38/12 65/37/12
f 71/38/12 66/39/12 72/40/12
f 75/42/13 74/41/13 73/17/13
f 74/41/13 75/42/13 76/43/13
f 74/45/8 77/44/8 73/17/8
f 77/44/8 74/45/8 78/46/8
f 79/49/10 76/48/10 75/47/10
f 76/48/10 79/49/10 80/50/10
f 78/53/14 79/52/14 77/51/14
f 79/52/14 78/53/14 80/54/14
f 83/42/13 82/41/13 81/17/13
f 82/41/13 83/42/13 84/43/13
f 82/45/8 85/44/8 81/17/8
f 85/44/8 82/45/8 86/46/8
f 87/49/10 84/48/10 83/47/10
f 84/48/10 87/49/10 88/50/10
f 86/53/14 87/52/14 85/51/14
f 87/52/14 86/53/14 88/54/14
f 91/27/8 90/26/8 89/25/8
f 90/26/8 91/27/8 92/28/8
f 93/31/11 92/30/11 91/29/11
f 92/30/11 93/31/11 94/32/11
f 96/35/10 93/34/10 95/33/10
f 93/34/10 96/35/10 94/36/10
f 90/39/12 95/38/12 89/37/12
f 95/38/12 90/39/12 96/40/12
f 99/27/1 98/26/1 97/25/1
f 98/26/1 99/27/1 100/28/1
f 101/31/15 100/30/15 99/29/15
f 100/30/15 101/31/15 102/32/15
f 104/35/3 101/34/3 103/33/3
f 101/34/3 104/35/3 102/36/3
f 98/39/16 103/38/16 97/37/16
f 103/38/16 98/39/16 104/40/16
f 107/42/17 106/41/17 105/17/17
f 106/41/17 107/42/17 108/43/17
f 106/45/1 109/44/1 105/17/1
f 109/44/1 106/45/1 110/46/1
f 111/49/3 108/48/3 107/47/3
f 108/48/3 111/49/3 112/50/3
f 110/53/18 111/52/18 109/51/18
f 111/52/18 110/53/18 112/54/18
f 115/27/1 114/26/1 113/25/1
f 114/26/1 115/27/1 116/28/1
f 117/31/15 116/30/15 115/29/15
f 116/30/15 117/31/15 118/32/15
f 120/35/3 117/34/3 119/33/3
f 117/34/3 120/35/3 118/36/3
f 114/39/16 119/38/16 113/37/16
f 119/38/16 114/39/16 120/40/16
f 123/42/17 122/41/17 121/17/17
f 122/41/17 123/42/17 124/43/17
f 122/45/1 125/44/1 121/17/1
f 125/44/1 122/45/1 126/46/1
f 127/49/3 124/48/3 123/47/3
f 124/48/3 127/49/3 128/50/3
f 126/53/18 127/52/18 125/51/18
f 127/52/18 126/53/18 128/54/18

