# Blender v2.80 (sub 75) OBJ File: 'Dungeon_Remastered_Export1.0.blend'
# www.blender.org
mtllib banner_triple_brown.mtl
o banner_triple_brown_Cube.15700
v -0.749992 0.600000 0.380595
v 0.750008 0.600000 0.380595
v -0.749992 0.975000 0.473354
v -0.749992 1.300000 0.380595
v 0.750008 1.300000 0.380595
v 0.750008 0.975000 0.473354
v 0.610293 0.566320 0.380595
v 0.447376 0.600000 0.380595
v -0.447361 0.556341 0.380595
v -0.610278 0.556341 0.380595
v -0.610278 0.975000 0.473354
v -0.447361 0.975000 0.473354
v 0.447376 0.975000 0.473354
v 0.610293 0.975000 0.473354
v 0.447376 1.300000 0.380595
v 0.610293 1.300000 0.380595
v -0.610278 1.300000 0.380595
v -0.447361 1.300000 0.380595
v -0.223676 0.600000 0.380595
v 0.000008 0.531393 0.380595
v 0.223692 0.531393 0.380595
v 0.750008 1.400000 0.380595
v 0.610293 1.400000 0.380595
v 0.447376 1.400000 0.380595
v 0.750007 3.200000 0.380595
v -0.749993 3.200000 0.380595
v -0.447361 3.200000 0.380595
v -0.610278 3.200000 0.380595
v 0.610293 3.200000 0.380595
v 0.447375 3.200000 0.380595
v -0.749992 1.400000 0.380595
v -0.610278 1.400000 0.380595
v -0.447361 1.400000 0.380595
v 0.750007 3.450000 0.510907
v -0.749993 3.450000 0.510907
v -0.447361 3.450000 0.510907
v -0.610278 3.450000 0.510907
v 0.610293 3.450000 0.510907
v 0.447375 3.450000 0.510907
v 0.750007 3.727470 0.510907
v -0.749993 3.727470 0.510907
v -0.447361 3.727470 0.510907
v -0.610278 3.727470 0.510907
v 0.610293 3.727470 0.510907
v 0.447375 3.727470 0.510907
v 0.370122 3.563044 0.377638
v 0.436445 3.683063 0.642927
v 0.505195 3.639152 0.632872
v 0.504064 3.557791 0.644496
v 0.434182 3.520342 0.666176
v 0.365431 3.564253 0.676231
v 0.366563 3.645614 0.664607
v 0.442409 3.605910 0.684692
v -0.354433 3.628582 0.386725
v -0.438479 3.662392 0.671285
v -0.365728 3.626738 0.685138
v -0.356754 3.545845 0.673658
v -0.420532 3.500607 0.648325
v -0.493284 3.536261 0.634472
v -0.502257 3.617153 0.645952
v -0.437677 3.576375 0.689528
v -0.447361 2.500000 0.380595
v -0.749993 2.500000 0.380595
v -0.610278 2.500000 0.380595
v 0.750007 2.500000 0.380595
v 0.610293 2.500000 0.380595
v 0.447376 2.500000 0.380595
v 0.950002 1.400000 0.380595
v 1.850001 1.400000 0.380595
v 0.950002 1.775000 0.473354
v 0.950002 2.100000 0.380595
v 1.850001 2.100000 0.380595
v 1.850001 1.775000 0.473354
v 1.710287 1.366320 0.380595
v 1.547370 1.400000 0.380595
v 1.252633 1.356341 0.380595
v 1.089716 1.356341 0.380595
v 1.089716 1.775000 0.473354
v 1.252633 1.775000 0.473354
v 1.547370 1.775000 0.473354
v 1.710287 1.775000 0.473354
v 1.547370 2.100000 0.380595
v 1.710287 2.100000 0.380595
v 1.089716 2.100000 0.380595
v 1.252633 2.100000 0.380595
v 1.400002 1.365697 0.380595
v 1.850001 2.200000 0.380595
v 1.710287 2.200000 0.380595
v 1.547370 2.200000 0.380595
v 1.850001 3.200000 0.380595
v 0.950001 3.200000 0.380595
v 1.252633 3.200000 0.380595
v 1.089715 3.200000 0.380595
v 1.710287 3.200000 0.380595
v 1.547369 3.200000 0.380595
v 0.950002 2.200000 0.380595
v 1.089716 2.200000 0.380595
v 1.252633 2.200000 0.380595
v 1.850001 3.450000 0.510907
v 0.950001 3.450000 0.510907
v 1.252633 3.450000 0.510907
v 1.089715 3.450000 0.510907
v 1.710287 3.450000 0.510907
v 1.547369 3.450000 0.510907
v 1.850001 3.727470 0.510907
v 0.950001 3.727470 0.510907
v 1.252633 3.727470 0.510907
v 1.089715 3.727470 0.510907
v 1.710287 3.727470 0.510907
v 1.547369 3.727470 0.510907
v 1.422795 3.600453 0.353303
v 1.394948 3.666780 0.687124
v 1.469414 3.632017 0.688606
v 1.476629 3.550184 0.685889
v 1.409377 3.503116 0.681691
v 1.334910 3.537879 0.680209
v 1.327696 3.619711 0.682926
v 1.401010 3.583810 0.715614
v 1.252633 2.500000 0.380595
v 0.950001 2.500000 0.380595
v 1.089716 2.500000 0.380595
v 1.850001 2.500000 0.380595
v 1.710287 2.500000 0.380595
v 1.547369 2.500000 0.380595
v -1.849986 1.400000 0.380595
v -0.949986 1.400000 0.380595
v -1.849986 1.775000 0.473354
v -1.849986 2.100000 0.380595
v -0.949986 2.100000 0.380595
v -0.949986 1.775000 0.473354
v -1.089701 1.366320 0.380595
v -1.252618 1.400000 0.380595
v -1.547354 1.356341 0.380595
v -1.710272 1.356341 0.380595
v -1.710272 1.775000 0.473354
v -1.547354 1.775000 0.473354
v -1.252618 1.775000 0.473354
v -1.089701 1.775000 0.473354
v -1.252618 2.100000 0.380595
v -1.089701 2.100000 0.380595
v -1.710272 2.100000 0.380595
v -1.547354 2.100000 0.380595
v -1.399986 1.365697 0.380595
v -0.949986 2.200000 0.380595
v -1.089701 2.200000 0.380595
v -1.252618 2.200000 0.380595
v -0.949987 3.200000 0.380595
v -1.849987 3.200000 0.380595
v -1.547355 3.200000 0.380595
v -1.710272 3.200000 0.380595
v -1.089701 3.200000 0.380595
v -1.252619 3.200000 0.380595
v -1.849986 2.200000 0.380595
v -1.710272 2.200000 0.380595
v -1.547354 2.200000 0.380595
v -0.949987 3.450000 0.510907
v -1.849987 3.450000 0.510907
v -1.547355 3.450000 0.510907
v -1.710272 3.450000 0.510907
v -1.089701 3.450000 0.510907
v -1.252619 3.450000 0.510907
v -0.949987 3.727470 0.510907
v -1.849987 3.727470 0.510907
v -1.547355 3.727470 0.510907
v -1.710272 3.727470 0.510907
v -1.089701 3.727470 0.510907
v -1.252619 3.727470 0.510907
v -1.377192 3.600453 0.353303
v -1.405040 3.666780 0.687124
v -1.330573 3.632017 0.688606
v -1.323359 3.550184 0.685889
v -1.390611 3.503116 0.681691
v -1.465078 3.537879 0.680209
v -1.472292 3.619711 0.682926
v -1.398978 3.583810 0.715614
v -1.547355 2.500000 0.380595
v -1.849986 2.500000 0.380595
v -1.710272 2.500000 0.380595
v -0.949987 2.500000 0.380595
v -1.089701 2.500000 0.380595
v -1.252618 2.500000 0.380595
vt 0.783920 0.938309
vt 0.790098 0.938309
vt 0.790098 0.905873
vt 0.783920 0.905873
vt 0.850256 0.864572
vt 0.844078 0.864572
vt 0.844078 0.764175
vt 0.850256 0.770385
vt 0.797303 0.938309
vt 0.836873 0.938309
vt 0.836873 0.905873
vt 0.797303 0.905873
vt 0.844078 0.938309
vt 0.850256 0.938309
vt 0.850256 0.905873
vt 0.844078 0.905873
vt 0.797303 0.864572
vt 0.797303 0.762335
vt 0.807196 0.770385
vt 0.790098 0.864572
vt 0.783920 0.864572
vt 0.783920 0.770385
vt 0.790098 0.762335
vt 0.797303 0.985184
vt 0.797303 0.952748
vt 0.790098 0.952748
vt 0.790098 0.985184
vt 0.844078 0.985184
vt 0.844078 0.952748
vt 0.836873 0.952748
vt 0.836873 0.985184
vt 0.836873 0.911447
vt 0.836873 0.817260
vt 0.844078 0.811050
vt 0.844078 0.911447
vt 0.790098 0.911447
vt 0.790098 0.809210
vt 0.797303 0.809210
vt 0.797303 0.911447
vt 0.817088 0.757735
vt 0.836873 0.770385
vt 0.836873 0.864572
vt 0.826980 0.757735
vt 0.844078 0.921498
vt 0.844078 0.928856
vt 0.836873 0.928856
vt 0.836873 0.921498
vt 0.797303 0.921498
vt 0.797303 0.928856
vt 0.790098 0.928856
vt 0.790098 0.921498
vt 0.844078 0.874623
vt 0.850256 0.874623
vt 0.850256 0.881981
vt 0.844078 0.881981
vt 0.783920 0.874623
vt 0.790098 0.874623
vt 0.790098 0.881981
vt 0.783920 0.881981
vt 0.797303 0.874623
vt 0.836873 0.874623
vt 0.836873 0.881981
vt 0.797303 0.881981
vt 0.844078 0.972052
vt 0.844078 0.928856
vt 0.836873 0.928856
vt 0.836873 0.972052
vt 0.797303 0.972052
vt 0.797303 0.928856
vt 0.790098 0.928856
vt 0.790098 0.972052
vt 0.844078 0.925177
vt 0.850256 0.925177
vt 0.850256 0.881981
vt 0.844078 0.881981
vt 0.783920 0.925177
vt 0.790098 0.925177
vt 0.790098 0.881981
vt 0.783920 0.881981
vt 0.797303 0.925177
vt 0.836873 0.925177
vt 0.836873 0.881981
vt 0.797303 0.881981
vt 0.850256 0.827748
vt 0.844078 0.827748
vt 0.844078 0.827748
vt 0.850256 0.827748
vt 0.790098 0.827748
vt 0.783920 0.827748
vt 0.783920 0.827748
vt 0.790098 0.827748
vt 0.844078 0.874623
vt 0.836873 0.874623
vt 0.836873 0.874623
vt 0.844078 0.874623
vt 0.836873 0.827748
vt 0.797303 0.827748
vt 0.797303 0.827748
vt 0.836873 0.827748
vt 0.797303 0.874623
vt 0.790098 0.874623
vt 0.790098 0.874623
vt 0.797303 0.874623
vt 0.797303 0.874623
vt 0.836873 0.874623
vt 0.844078 0.921498
vt 0.836873 0.921498
vt 0.836873 0.921498
vt 0.844078 0.921498
vt 0.850256 0.874623
vt 0.844078 0.874623
vt 0.850256 0.874623
vt 0.783920 0.874623
vt 0.783920 0.874623
vt 0.790098 0.874623
vt 0.797303 0.921498
vt 0.790098 0.921498
vt 0.790098 0.921498
vt 0.797303 0.921498
vt 0.171876 0.832252
vt 0.171876 0.958449
vt 0.199458 0.958449
vt 0.171876 0.767472
vt 0.199458 0.893670
vt 0.199458 0.831170
vt 0.171876 0.831170
vt 0.144294 0.831170
vt 0.144294 0.893670
vt 0.144294 0.893670
vt 0.144294 0.958449
vt 0.171876 0.893670
vt 0.199458 0.924920
vt 0.171876 0.924920
vt 0.199458 0.924920
vt 0.144294 0.924920
vt 0.171876 0.924920
vt 0.199458 0.893670
vt 0.171876 0.832252
vt 0.171876 0.958449
vt 0.199458 0.958449
vt 0.171876 0.767472
vt 0.199458 0.893670
vt 0.199458 0.831170
vt 0.171876 0.831170
vt 0.144294 0.831170
vt 0.144294 0.893670
vt 0.144294 0.893670
vt 0.144294 0.958449
vt 0.171876 0.893670
vt 0.199458 0.924920
vt 0.171876 0.924920
vt 0.199458 0.924920
vt 0.144294 0.924920
vt 0.171876 0.924920
vt 0.199458 0.893670
vt 0.783920 0.874623
vt 0.850256 0.874623
vt 0.797303 0.921498
vt 0.790098 0.921498
vt 0.844078 0.921498
vt 0.836873 0.921498
vt 0.783920 0.938309
vt 0.790098 0.938309
vt 0.790098 0.905873
vt 0.783920 0.905873
vt 0.850256 0.864572
vt 0.844078 0.864572
vt 0.844078 0.764175
vt 0.850256 0.770385
vt 0.797303 0.938309
vt 0.836873 0.938309
vt 0.836873 0.905873
vt 0.797303 0.905873
vt 0.844078 0.938309
vt 0.850256 0.938309
vt 0.850256 0.905873
vt 0.844078 0.905873
vt 0.797303 0.864572
vt 0.797303 0.762335
vt 0.807196 0.770385
vt 0.790098 0.864572
vt 0.783920 0.864572
vt 0.783920 0.770385
vt 0.790098 0.762335
vt 0.797303 0.985184
vt 0.797303 0.952748
vt 0.790098 0.952748
vt 0.790098 0.985184
vt 0.844078 0.985184
vt 0.844078 0.952748
vt 0.836873 0.952748
vt 0.836873 0.985184
vt 0.836873 0.911447
vt 0.836873 0.817260
vt 0.844078 0.811050
vt 0.844078 0.911447
vt 0.790098 0.911447
vt 0.790098 0.809210
vt 0.797303 0.809210
vt 0.797303 0.911447
vt 0.836873 0.770385
vt 0.836873 0.864572
vt 0.826980 0.757735
vt 0.844078 0.921498
vt 0.844078 0.928856
vt 0.836873 0.928856
vt 0.836873 0.921498
vt 0.797303 0.921498
vt 0.797303 0.928856
vt 0.790098 0.928856
vt 0.790098 0.921498
vt 0.844078 0.874623
vt 0.850256 0.874623
vt 0.850256 0.881981
vt 0.844078 0.881981
vt 0.783920 0.874623
vt 0.790098 0.874623
vt 0.790098 0.881981
vt 0.783920 0.881981
vt 0.797303 0.874623
vt 0.836873 0.874623
vt 0.836873 0.881981
vt 0.797303 0.881981
vt 0.844078 0.972052
vt 0.844078 0.928856
vt 0.836873 0.928856
vt 0.836873 0.972052
vt 0.797303 0.972052
vt 0.797303 0.928856
vt 0.790098 0.928856
vt 0.790098 0.972052
vt 0.844078 0.925177
vt 0.850256 0.925177
vt 0.850256 0.881981
vt 0.844078 0.881981
vt 0.783920 0.925177
vt 0.790098 0.925177
vt 0.790098 0.881981
vt 0.783920 0.881981
vt 0.797303 0.925177
vt 0.836873 0.925177
vt 0.836873 0.881981
vt 0.797303 0.881981
vt 0.850256 0.827748
vt 0.844078 0.827748
vt 0.844078 0.827748
vt 0.850256 0.827748
vt 0.790098 0.827748
vt 0.783920 0.827748
vt 0.783920 0.827748
vt 0.790098 0.827748
vt 0.844078 0.874623
vt 0.836873 0.874623
vt 0.836873 0.874623
vt 0.844078 0.874623
vt 0.836873 0.827748
vt 0.797303 0.827748
vt 0.797303 0.827748
vt 0.836873 0.827748
vt 0.797303 0.874623
vt 0.790098 0.874623
vt 0.790098 0.874623
vt 0.797303 0.874623
vt 0.797303 0.874623
vt 0.836873 0.874623
vt 0.844078 0.921498
vt 0.836873 0.921498
vt 0.836873 0.921498
vt 0.844078 0.921498
vt 0.850256 0.874623
vt 0.844078 0.874623
vt 0.850256 0.874623
vt 0.783920 0.874623
vt 0.783920 0.874623
vt 0.790098 0.874623
vt 0.797303 0.921498
vt 0.790098 0.921498
vt 0.790098 0.921498
vt 0.797303 0.921498
vt 0.171876 0.832252
vt 0.171876 0.958449
vt 0.199458 0.958449
vt 0.171876 0.767472
vt 0.199458 0.893670
vt 0.199458 0.831170
vt 0.171876 0.831170
vt 0.144294 0.831170
vt 0.144294 0.893670
vt 0.144294 0.893670
vt 0.144294 0.958449
vt 0.171876 0.893670
vt 0.199458 0.924920
vt 0.171876 0.924920
vt 0.199458 0.924920
vt 0.144294 0.924920
vt 0.171876 0.924920
vt 0.199458 0.893670
vt 0.783920 0.874623
vt 0.850256 0.874623
vt 0.797303 0.921498
vt 0.790098 0.921498
vt 0.844078 0.921498
vt 0.836873 0.921498
vt 0.783920 0.938309
vt 0.790098 0.938309
vt 0.790098 0.905873
vt 0.783920 0.905873
vt 0.850256 0.864572
vt 0.844078 0.864572
vt 0.844078 0.764175
vt 0.850256 0.770385
vt 0.797303 0.938309
vt 0.836873 0.938309
vt 0.836873 0.905873
vt 0.797303 0.905873
vt 0.844078 0.938309
vt 0.850256 0.938309
vt 0.850256 0.905873
vt 0.844078 0.905873
vt 0.797303 0.864572
vt 0.797303 0.762335
vt 0.807196 0.770385
vt 0.790098 0.864572
vt 0.783920 0.864572
vt 0.783920 0.770385
vt 0.790098 0.762335
vt 0.797303 0.985184
vt 0.797303 0.952748
vt 0.790098 0.952748
vt 0.790098 0.985184
vt 0.844078 0.985184
vt 0.844078 0.952748
vt 0.836873 0.952748
vt 0.836873 0.985184
vt 0.836873 0.911447
vt 0.836873 0.817260
vt 0.844078 0.811050
vt 0.844078 0.911447
vt 0.790098 0.911447
vt 0.790098 0.809210
vt 0.797303 0.809210
vt 0.797303 0.911447
vt 0.836873 0.770385
vt 0.836873 0.864572
vt 0.826980 0.757735
vt 0.844078 0.921498
vt 0.844078 0.928856
vt 0.836873 0.928856
vt 0.836873 0.921498
vt 0.797303 0.921498
vt 0.797303 0.928856
vt 0.790098 0.928856
vt 0.790098 0.921498
vt 0.844078 0.874623
vt 0.850256 0.874623
vt 0.850256 0.881981
vt 0.844078 0.881981
vt 0.783920 0.874623
vt 0.790098 0.874623
vt 0.790098 0.881981
vt 0.783920 0.881981
vt 0.797303 0.874623
vt 0.836873 0.874623
vt 0.836873 0.881981
vt 0.797303 0.881981
vt 0.844078 0.972052
vt 0.844078 0.928856
vt 0.836873 0.928856
vt 0.836873 0.972052
vt 0.797303 0.972052
vt 0.797303 0.928856
vt 0.790098 0.928856
vt 0.790098 0.972052
vt 0.844078 0.925177
vt 0.850256 0.925177
vt 0.850256 0.881981
vt 0.844078 0.881981
vt 0.783920 0.925177
vt 0.790098 0.925177
vt 0.790098 0.881981
vt 0.783920 0.881981
vt 0.797303 0.925177
vt 0.836873 0.925177
vt 0.836873 0.881981
vt 0.797303 0.881981
vt 0.850256 0.827748
vt 0.844078 0.827748
vt 0.844078 0.827748
vt 0.850256 0.827748
vt 0.790098 0.827748
vt 0.783920 0.827748
vt 0.783920 0.827748
vt 0.790098 0.827748
vt 0.844078 0.874623
vt 0.836873 0.874623
vt 0.836873 0.874623
vt 0.844078 0.874623
vt 0.836873 0.827748
vt 0.797303 0.827748
vt 0.797303 0.827748
vt 0.836873 0.827748
vt 0.797303 0.874623
vt 0.790098 0.874623
vt 0.790098 0.874623
vt 0.797303 0.874623
vt 0.797303 0.874623
vt 0.836873 0.874623
vt 0.844078 0.921498
vt 0.836873 0.921498
vt 0.836873 0.921498
vt 0.844078 0.921498
vt 0.850256 0.874623
vt 0.844078 0.874623
vt 0.850256 0.874623
vt 0.783920 0.874623
vt 0.783920 0.874623
vt 0.790098 0.874623
vt 0.797303 0.921498
vt 0.790098 0.921498
vt 0.790098 0.921498
vt 0.797303 0.921498
vt 0.171876 0.832252
vt 0.171876 0.958449
vt 0.199458 0.958449
vt 0.171876 0.767472
vt 0.199458 0.893670
vt 0.199458 0.831170
vt 0.171876 0.831170
vt 0.144294 0.831170
vt 0.144294 0.893670
vt 0.144294 0.893670
vt 0.144294 0.958449
vt 0.171876 0.893670
vt 0.199458 0.924920
vt 0.171876 0.924920
vt 0.199458 0.924920
vt 0.144294 0.924920
vt 0.171876 0.924920
vt 0.199458 0.893670
vt 0.783920 0.874623
vt 0.850256 0.874623
vt 0.797303 0.921498
vt 0.790098 0.921498
vt 0.844078 0.921498
vt 0.836873 0.921498
vn -0.0184 0.0243 0.9995
vn -0.0092 0.0271 0.9996
vn 0.0000 0.1386 0.9904
vn 0.0143 0.0228 0.9996
vn 0.0010 0.0228 0.9997
vn 0.0017 -0.2304 0.9731
vn 0.0278 -0.2303 0.9727
vn -0.0001 0.0284 0.9996
vn -0.0006 0.0267 0.9996
vn 0.0198 -0.2163 0.9761
vn -0.0440 -0.2646 0.9634
vn -0.0355 -0.2275 0.9731
vn -0.0159 -0.2214 0.9751
vn 0.0261 -0.2353 0.9716
vn -0.0156 -0.2197 0.9754
vn 0.0212 -0.2149 0.9764
vn 0.0000 0.0000 1.0000
vn 0.0000 -0.2379 0.9713
vn 0.4295 0.7776 -0.4592
vn 0.8905 -0.0765 -0.4485
vn 0.4064 -0.8865 -0.2214
vn -0.5388 -0.8424 -0.0051
vn -0.0850 0.3157 0.9450
vn -0.0899 -0.0360 0.9953
vn 0.2271 0.1347 0.9645
vn -0.9998 0.0117 -0.0158
vn -0.5157 0.8217 -0.2428
vn 0.2074 -0.2259 0.9518
vn 0.5095 -0.0640 0.8581
vn 0.5144 0.2878 0.8078
vn 0.2171 0.4776 0.8513
vn 0.4366 0.8994 0.0221
vn 0.9938 0.1048 0.0383
vn 0.6201 -0.7551 -0.2127
vn -0.3107 -0.8205 -0.4799
vn -0.5590 0.0009 0.8292
vn -0.5202 -0.3489 0.7796
vn -0.2615 -0.1640 0.9512
vn -0.8679 -0.0259 -0.4961
vn -0.4943 0.8341 -0.2451
vn -0.2056 -0.5030 0.8395
vn 0.0701 -0.3074 0.9490
vn 0.0313 0.0423 0.9986
vn -0.2832 0.1964 0.9387
vn 0.0008 0.0290 0.9996
vn -0.0030 0.0241 0.9997
vn 0.0067 -0.2163 0.9763
vn 0.0249 -0.2254 0.9740
vn 0.0163 -0.2352 0.9718
vn 0.4210 0.8957 -0.1429
vn 0.9851 0.0917 -0.1456
vn 0.5692 -0.7943 -0.2122
vn -0.4022 -0.8732 -0.2753
vn -0.3564 0.1163 0.9271
vn -0.3252 -0.2375 0.9153
vn -0.0369 -0.0364 0.9987
vn -0.9592 -0.0755 -0.2723
vn -0.5523 0.8076 -0.2065
vn -0.0033 -0.3878 0.9217
vn 0.2875 -0.1843 0.9399
vn 0.2563 0.1695 0.9516
vn -0.0657 0.3198 0.9452
usemtl texture
s 1
f 3/1/1 11/2/2 17/3/3 4/4/3
s 2
f 6/5/4 14/6/5 7/7/6 2/8/7
s 3
f 12/9/8 13/10/9 15/11/3 18/12/3
s 4
f 14/13/5 6/14/4 5/15/3 16/16/3
s 5
f 12/17/8 9/18/10 19/19/11
s 6
f 11/20/2 3/21/1 1/22/12 10/23/13
s 7
f 12/24/8 18/25/3 17/26/3 11/27/2
s 8
f 14/28/5 16/29/3 15/30/3 13/31/9
s 9
f 13/32/9 8/33/14 7/34/6 14/35/5
s 10
f 11/36/2 10/37/13 9/38/10 12/39/8
s 11
f 12/17/8 19/19/11 20/40/15
s 12
f 8/41/14 13/42/9 21/43/16
s 13
f 21/43/16 13/42/9 20/40/15
s 14
f 13/42/9 12/17/8 20/40/15
s 15
f 16/44/3 23/45/17 24/46/17 15/47/3
s 16
f 18/48/3 33/49/17 32/50/17 17/51/3
s 17
f 16/52/3 5/53/3 22/54/17 23/55/17
s 18
f 4/56/3 17/57/3 32/58/17 31/59/17
s 19
f 18/60/3 15/61/3 24/62/17 33/63/17
s 20
f 64/64/17 32/65/17 33/66/17 62/67/17
s 21
f 67/68/17 24/69/17 23/70/17 66/71/17
s 22
f 64/72/17 63/73/17 31/74/17 32/75/17
s 23
f 65/76/17 66/77/17 23/78/17 22/79/17
s 24
f 67/80/17 62/81/17 33/82/17 24/83/17
s 25
f 26/84/18 28/85/18 37/86/18 35/87/18
s 26
f 29/88/18 25/89/18 34/90/18 38/91/18
s 27
f 28/92/18 27/93/18 36/94/18 37/95/18
s 28
f 27/96/18 30/97/18 39/98/18 36/99/18
s 29
f 30/100/18 29/101/18 38/102/18 39/103/18
s 30
f 36/94/18 39/103/18 45/104/17 42/105/17
s 31
f 37/106/18 36/107/18 42/108/17 43/109/17
s 32
f 35/110/18 37/95/18 43/111/17 41/112/17
s 33
f 38/102/18 34/113/18 40/114/17 44/115/17
s 34
f 39/116/18 38/117/18 44/118/17 45/119/17
s 35
f 46/120/19 47/121/19 48/122/19
s 36
f 46/123/20 48/124/20 49/125/20
s 37
f 46/123/21 49/125/21 50/126/21
s 38
f 46/123/22 50/126/22 51/127/22
s 39
f 52/128/23 51/127/24 53/129/25
s 40
f 46/123/26 51/127/26 52/128/26
s 41
f 46/120/27 52/130/27 47/121/27
s 42
f 51/127/24 50/126/28 53/129/25
s 43
f 50/126/28 49/125/29 53/131/25
s 44
f 48/132/30 47/133/31 53/134/25
s 45
f 47/133/31 52/135/23 53/136/25
s 46
f 49/125/29 48/124/30 53/137/25
s 47
f 54/138/32 55/139/32 56/140/32
s 48
f 54/141/33 56/142/33 57/143/33
s 49
f 54/141/34 57/143/34 58/144/34
s 50
f 54/141/35 58/144/35 59/145/35
s 51
f 60/146/36 59/145/37 61/147/38
s 52
f 54/141/39 59/145/39 60/146/39
s 53
f 54/138/40 60/148/40 55/139/40
s 54
f 59/145/37 58/144/41 61/147/38
s 55
f 58/144/41 57/143/42 61/149/38
s 56
f 56/150/43 55/151/44 61/152/38
s 57
f 55/151/44 60/153/36 61/154/38
s 58
f 57/143/42 56/142/43 61/155/38
s 59
f 30/100/18 27/93/18 62/81/17 67/80/17
s 60
f 25/156/18 29/101/18 66/77/17 65/76/17
s 61
f 28/92/18 26/157/18 63/73/17 64/72/17
s 62
f 30/158/18 67/68/17 66/71/17 29/159/18
s 63
f 28/160/18 64/64/17 62/67/17 27/161/18
s 64
f 70/162/1 78/163/2 84/164/3 71/165/3
s 65
f 73/166/4 81/167/5 74/168/6 69/169/7
s 66
f 79/170/45 80/171/46 82/172/3 85/173/3
s 67
f 81/174/5 73/175/4 72/176/3 83/177/3
s 68
f 79/178/45 76/179/47 86/180/48
s 69
f 78/181/2 70/182/1 68/183/12 77/184/13
s 70
f 79/185/45 85/186/3 84/187/3 78/188/2
s 71
f 81/189/5 83/190/3 82/191/3 80/192/46
s 72
f 80/193/46 75/194/49 74/195/6 81/196/5
s 73
f 78/197/2 77/198/13 76/199/47 79/200/45
s 74
f 75/201/49 80/202/46 86/203/48
s 75
f 80/202/46 79/178/45 86/203/48
s 76
f 83/204/3 88/205/17 89/206/17 82/207/3
s 77
f 85/208/3 98/209/17 97/210/17 84/211/3
s 78
f 83/212/3 72/213/3 87/214/17 88/215/17
s 79
f 71/216/3 84/217/3 97/218/17 96/219/17
s 80
f 85/220/3 82/221/3 89/222/17 98/223/17
s 81
f 121/224/17 97/225/17 98/226/17 119/227/17
s 82
f 124/228/17 89/229/17 88/230/17 123/231/17
s 83
f 121/232/17 120/233/17 96/234/17 97/235/17
s 84
f 122/236/17 123/237/17 88/238/17 87/239/17
s 85
f 124/240/17 119/241/17 98/242/17 89/243/17
s 86
f 91/244/18 93/245/18 102/246/18 100/247/18
s 87
f 94/248/18 90/249/18 99/250/18 103/251/18
s 88
f 93/252/18 92/253/18 101/254/18 102/255/18
s 89
f 92/256/18 95/257/18 104/258/18 101/259/18
s 90
f 95/260/18 94/261/18 103/262/18 104/263/18
s 91
f 101/254/18 104/263/18 110/264/17 107/265/17
s 92
f 102/266/18 101/267/18 107/268/17 108/269/17
s 93
f 100/270/18 102/255/18 108/271/17 106/272/17
s 94
f 103/262/18 99/273/18 105/274/17 109/275/17
s 95
f 104/276/18 103/277/18 109/278/17 110/279/17
s 96
f 111/280/50 112/281/50 113/282/50
s 97
f 111/283/51 113/284/51 114/285/51
s 98
f 111/283/52 114/285/52 115/286/52
s 99
f 111/283/53 115/286/53 116/287/53
s 100
f 117/288/54 116/287/55 118/289/56
s 101
f 111/283/57 116/287/57 117/288/57
s 102
f 111/280/58 117/290/58 112/281/58
s 103
f 116/287/55 115/286/59 118/289/56
s 104
f 115/286/59 114/285/60 118/291/56
s 105
f 113/292/61 112/293/62 118/294/56
s 106
f 112/293/62 117/295/54 118/296/56
s 107
f 114/285/60 113/284/61 118/297/56
s 108
f 95/260/18 92/253/18 119/241/17 124/240/17
s 109
f 90/298/18 94/261/18 123/237/17 122/236/17
s 110
f 93/252/18 91/299/18 120/233/17 121/232/17
s 111
f 95/300/18 124/228/17 123/231/17 94/301/18
s 112
f 93/302/18 121/224/17 119/227/17 92/303/18
s 113
f 127/304/1 135/305/2 141/306/3 128/307/3
s 114
f 130/308/4 138/309/5 131/310/6 126/311/7
s 115
f 136/312/45 137/313/46 139/314/3 142/315/3
s 116
f 138/316/5 130/317/4 129/318/3 140/319/3
s 117
f 136/320/45 133/321/47 143/322/48
s 118
f 135/323/2 127/324/1 125/325/12 134/326/13
s 119
f 136/327/45 142/328/3 141/329/3 135/330/2
s 120
f 138/331/5 140/332/3 139/333/3 137/334/46
s 121
f 137/335/46 132/336/49 131/337/6 138/338/5
s 122
f 135/339/2 134/340/13 133/341/47 136/342/45
s 123
f 132/343/49 137/344/46 143/345/48
s 124
f 137/344/46 136/320/45 143/345/48
s 125
f 140/346/3 145/347/17 146/348/17 139/349/3
s 126
f 142/350/3 155/351/17 154/352/17 141/353/3
s 127
f 140/354/3 129/355/3 144/356/17 145/357/17
s 128
f 128/358/3 141/359/3 154/360/17 153/361/17
s 129
f 142/362/3 139/363/3 146/364/17 155/365/17
s 130
f 178/366/17 154/367/17 155/368/17 176/369/17
s 131
f 181/370/17 146/371/17 145/372/17 180/373/17
s 132
f 178/374/17 177/375/17 153/376/17 154/377/17
s 133
f 179/378/17 180/379/17 145/380/17 144/381/17
s 134
f 181/382/17 176/383/17 155/384/17 146/385/17
s 135
f 148/386/18 150/387/18 159/388/18 157/389/18
s 136
f 151/390/18 147/391/18 156/392/18 160/393/18
s 137
f 150/394/18 149/395/18 158/396/18 159/397/18
s 138
f 149/398/18 152/399/18 161/400/18 158/401/18
s 139
f 152/402/18 151/403/18 160/404/18 161/405/18
s 140
f 158/396/18 161/405/18 167/406/17 164/407/17
s 141
f 159/408/18 158/409/18 164/410/17 165/411/17
s 142
f 157/412/18 159/397/18 165/413/17 163/414/17
s 143
f 160/404/18 156/415/18 162/416/17 166/417/17
s 144
f 161/418/18 160/419/18 166/420/17 167/421/17
s 145
f 168/422/50 169/423/50 170/424/50
s 146
f 168/425/51 170/426/51 171/427/51
s 147
f 168/425/52 171/427/52 172/428/52
s 148
f 168/425/53 172/428/53 173/429/53
s 149
f 174/430/54 173/429/55 175/431/56
s 150
f 168/425/57 173/429/57 174/430/57
s 151
f 168/422/58 174/432/58 169/423/58
s 152
f 173/429/55 172/428/59 175/431/56
s 153
f 172/428/59 171/427/60 175/433/56
s 154
f 170/434/61 169/435/62 175/436/56
s 155
f 169/435/62 174/437/54 175/438/56
s 156
f 171/427/60 170/426/61 175/439/56
s 157
f 152/402/18 149/395/18 176/383/17 181/382/17
s 158
f 147/440/18 151/403/18 180/379/17 179/378/17
s 159
f 150/394/18 148/441/18 177/375/17 178/374/17
s 160
f 152/442/18 181/370/17 180/373/17 151/443/18
s 161
f 150/444/18 178/366/17 176/369/17 149/445/18
