# Blender v2.80 (sub 75) OBJ File: 'Dungeon_Remastered_Export1.0.blend'
# www.blender.org
mtllib banner_thin_brown.mtl
o banner_thin_brown_Cube.15699
v -0.549992 0.600000 0.380595
v 0.550008 0.600000 0.380595
v -0.549992 0.975000 0.473354
v -0.549992 1.300000 0.380595
v 0.550008 1.300000 0.380595
v 0.550008 0.975000 0.473354
v 0.410293 0.566320 0.380595
v 0.247376 0.600000 0.380595
v -0.247361 0.556341 0.380595
v -0.410278 0.556341 0.380595
v -0.410278 0.975000 0.473354
v -0.247361 0.975000 0.473354
v 0.247376 0.975000 0.473354
v 0.410293 0.975000 0.473354
v 0.247376 1.300000 0.380595
v 0.410293 1.300000 0.380595
v -0.410278 1.300000 0.380595
v -0.247361 1.300000 0.380595
v 0.000008 0.565697 0.380595
v 0.550008 1.400000 0.380595
v 0.410293 1.400000 0.380595
v 0.247376 1.400000 0.380595
v 0.550007 3.200000 0.380595
v -0.549993 3.200000 0.380595
v -0.247361 3.200000 0.380595
v -0.410278 3.200000 0.380595
v 0.410293 3.200000 0.380595
v 0.247375 3.200000 0.380595
v -0.549992 1.400000 0.380595
v -0.410278 1.400000 0.380595
v -0.247361 1.400000 0.380595
v 0.550007 3.450000 0.510907
v -0.549993 3.450000 0.510907
v -0.247361 3.450000 0.510907
v -0.410278 3.450000 0.510907
v 0.410293 3.450000 0.510907
v 0.247375 3.450000 0.510907
v 0.550007 3.727470 0.510907
v -0.549993 3.727470 0.510907
v -0.247361 3.727470 0.510907
v -0.410278 3.727470 0.510907
v 0.410293 3.727470 0.510907
v 0.247375 3.727470 0.510907
v 0.022801 3.600453 0.353303
v -0.005046 3.666780 0.687124
v 0.069421 3.632017 0.688606
v 0.076635 3.550184 0.685889
v 0.009383 3.503116 0.681691
v -0.065084 3.537879 0.680209
v -0.072298 3.619711 0.682926
v 0.001016 3.583810 0.715614
v -0.247361 2.500000 0.380595
v -0.549993 2.500000 0.380595
v -0.410278 2.500000 0.380595
v 0.550007 2.500000 0.380595
v 0.410293 2.500000 0.380595
v 0.247376 2.500000 0.380595
vt 0.783920 0.938309
vt 0.790098 0.938309
vt 0.790098 0.905873
vt 0.783920 0.905873
vt 0.850256 0.864572
vt 0.844078 0.864572
vt 0.844078 0.764175
vt 0.850256 0.770385
vt 0.797303 0.938309
vt 0.836873 0.938309
vt 0.836873 0.905873
vt 0.797303 0.905873
vt 0.844078 0.938309
vt 0.850256 0.938309
vt 0.850256 0.905873
vt 0.844078 0.905873
vt 0.797303 0.864572
vt 0.797303 0.762335
vt 0.807196 0.770385
vt 0.790098 0.864572
vt 0.783920 0.864572
vt 0.783920 0.770385
vt 0.790098 0.762335
vt 0.797303 0.985184
vt 0.797303 0.952748
vt 0.790098 0.952748
vt 0.790098 0.985184
vt 0.844078 0.985184
vt 0.844078 0.952748
vt 0.836873 0.952748
vt 0.836873 0.985184
vt 0.836873 0.911447
vt 0.836873 0.817260
vt 0.844078 0.811050
vt 0.844078 0.911447
vt 0.790098 0.911447
vt 0.790098 0.809210
vt 0.797303 0.809210
vt 0.797303 0.911447
vt 0.836873 0.770385
vt 0.836873 0.864572
vt 0.826980 0.757735
vt 0.844078 0.921498
vt 0.844078 0.928856
vt 0.836873 0.928856
vt 0.836873 0.921498
vt 0.797303 0.921498
vt 0.797303 0.928856
vt 0.790098 0.928856
vt 0.790098 0.921498
vt 0.844078 0.874623
vt 0.850256 0.874623
vt 0.850256 0.881981
vt 0.844078 0.881981
vt 0.783920 0.874623
vt 0.790098 0.874623
vt 0.790098 0.881981
vt 0.783920 0.881981
vt 0.797303 0.874623
vt 0.836873 0.874623
vt 0.836873 0.881981
vt 0.797303 0.881981
vt 0.844078 0.972052
vt 0.844078 0.928856
vt 0.836873 0.928856
vt 0.836873 0.972052
vt 0.797303 0.972052
vt 0.797303 0.928856
vt 0.790098 0.928856
vt 0.790098 0.972052
vt 0.844078 0.925177
vt 0.850256 0.925177
vt 0.850256 0.881981
vt 0.844078 0.881981
vt 0.783920 0.925177
vt 0.790098 0.925177
vt 0.790098 0.881981
vt 0.783920 0.881981
vt 0.797303 0.925177
vt 0.836873 0.925177
vt 0.836873 0.881981
vt 0.797303 0.881981
vt 0.850256 0.827748
vt 0.844078 0.827748
vt 0.844078 0.827748
vt 0.850256 0.827748
vt 0.790098 0.827748
vt 0.783920 0.827748
vt 0.783920 0.827748
vt 0.790098 0.827748
vt 0.844078 0.874623
vt 0.836873 0.874623
vt 0.836873 0.874623
vt 0.844078 0.874623
vt 0.836873 0.827748
vt 0.797303 0.827748
vt 0.797303 0.827748
vt 0.836873 0.827748
vt 0.797303 0.874623
vt 0.790098 0.874623
vt 0.790098 0.874623
vt 0.797303 0.874623
vt 0.797303 0.874623
vt 0.836873 0.874623
vt 0.844078 0.921498
vt 0.836873 0.921498
vt 0.836873 0.921498
vt 0.844078 0.921498
vt 0.850256 0.874623
vt 0.844078 0.874623
vt 0.850256 0.874623
vt 0.783920 0.874623
vt 0.783920 0.874623
vt 0.790098 0.874623
vt 0.797303 0.921498
vt 0.790098 0.921498
vt 0.790098 0.921498
vt 0.797303 0.921498
vt 0.171876 0.832252
vt 0.171876 0.958449
vt 0.199458 0.958449
vt 0.171876 0.767472
vt 0.199458 0.893670
vt 0.199458 0.831170
vt 0.171876 0.831170
vt 0.144294 0.831170
vt 0.144294 0.893670
vt 0.144294 0.893670
vt 0.144294 0.958449
vt 0.171876 0.893670
vt 0.199458 0.924920
vt 0.171876 0.924920
vt 0.199458 0.924920
vt 0.144294 0.924920
vt 0.171876 0.924920
vt 0.199458 0.893670
vt 0.783920 0.874623
vt 0.850256 0.874623
vt 0.797303 0.921498
vt 0.790098 0.921498
vt 0.844078 0.921498
vt 0.836873 0.921498
vn -0.0184 0.0243 0.9995
vn -0.0092 0.0271 0.9996
vn 0.0000 0.1386 0.9904
vn 0.0143 0.0228 0.9996
vn 0.0010 0.0228 0.9997
vn 0.0017 -0.2304 0.9731
vn 0.0278 -0.2303 0.9727
vn 0.0007 0.0292 0.9996
vn -0.0032 0.0235 0.9997
vn 0.0040 -0.2163 0.9763
vn 0.0128 -0.2250 0.9743
vn -0.0355 -0.2275 0.9731
vn -0.0159 -0.2214 0.9751
vn 0.0042 -0.2352 0.9719
vn 0.0000 0.0000 1.0000
vn 0.0000 -0.2379 0.9713
vn 0.4210 0.8957 -0.1429
vn 0.9851 0.0917 -0.1456
vn 0.5692 -0.7943 -0.2122
vn -0.4022 -0.8732 -0.2753
vn -0.3564 0.1163 0.9271
vn -0.3252 -0.2375 0.9153
vn -0.0369 -0.0364 0.9987
vn -0.9592 -0.0755 -0.2723
vn -0.5523 0.8076 -0.2065
vn -0.0033 -0.3878 0.9217
vn 0.2875 -0.1843 0.9399
vn 0.2563 0.1695 0.9516
vn -0.0657 0.3198 0.9452
usemtl texture
s 1
f 3/1/1 11/2/2 17/3/3 4/4/3
s 2
f 6/5/4 14/6/5 7/7/6 2/8/7
s 3
f 12/9/8 13/10/9 15/11/3 18/12/3
s 4
f 14/13/5 6/14/4 5/15/3 16/16/3
s 5
f 12/17/8 9/18/10 19/19/11
s 6
f 11/20/2 3/21/1 1/22/12 10/23/13
s 7
f 12/24/8 18/25/3 17/26/3 11/27/2
s 8
f 14/28/5 16/29/3 15/30/3 13/31/9
s 9
f 13/32/9 8/33/14 7/34/6 14/35/5
s 10
f 11/36/2 10/37/13 9/38/10 12/39/8
s 11
f 8/40/14 13/41/9 19/42/11
s 12
f 13/41/9 12/17/8 19/42/11
s 13
f 16/43/3 21/44/15 22/45/15 15/46/3
s 14
f 18/47/3 31/48/15 30/49/15 17/50/3
s 15
f 16/51/3 5/52/3 20/53/15 21/54/15
s 16
f 4/55/3 17/56/3 30/57/15 29/58/15
s 17
f 18/59/3 15/60/3 22/61/15 31/62/15
s 18
f 54/63/15 30/64/15 31/65/15 52/66/15
s 19
f 57/67/15 22/68/15 21/69/15 56/70/15
s 20
f 54/71/15 53/72/15 29/73/15 30/74/15
s 21
f 55/75/15 56/76/15 21/77/15 20/78/15
s 22
f 57/79/15 52/80/15 31/81/15 22/82/15
s 23
f 24/83/16 26/84/16 35/85/16 33/86/16
s 24
f 27/87/16 23/88/16 32/89/16 36/90/16
s 25
f 26/91/16 25/92/16 34/93/16 35/94/16
s 26
f 25/95/16 28/96/16 37/97/16 34/98/16
s 27
f 28/99/16 27/100/16 36/101/16 37/102/16
s 28
f 34/93/16 37/102/16 43/103/15 40/104/15
s 29
f 35/105/16 34/106/16 40/107/15 41/108/15
s 30
f 33/109/16 35/94/16 41/110/15 39/111/15
s 31
f 36/101/16 32/112/16 38/113/15 42/114/15
s 32
f 37/115/16 36/116/16 42/117/15 43/118/15
s 33
f 44/119/17 45/120/17 46/121/17
s 34
f 44/122/18 46/123/18 47/124/18
s 35
f 44/122/19 47/124/19 48/125/19
s 36
f 44/122/20 48/125/20 49/126/20
s 37
f 50/127/21 49/126/22 51/128/23
s 38
f 44/122/24 49/126/24 50/127/24
s 39
f 44/119/25 50/129/25 45/120/25
s 40
f 49/126/22 48/125/26 51/128/23
s 41
f 48/125/26 47/124/27 51/130/23
s 42
f 46/131/28 45/132/29 51/133/23
s 43
f 45/132/29 50/134/21 51/135/23
s 44
f 47/124/27 46/123/28 51/136/23
s 45
f 28/99/16 25/92/16 52/80/15 57/79/15
s 46
f 23/137/16 27/100/16 56/76/15 55/75/15
s 47
f 26/91/16 24/138/16 53/72/15 54/71/15
s 48
f 28/139/16 57/67/15 56/70/15 27/140/16
s 49
f 26/141/16 54/63/15 52/66/15 25/142/16
