# Blender v2.80 (sub 75) OBJ File: 'Dungeon_Remastered_Export1.0.blend'
# www.blender.org
mtllib banner_red.mtl
o banner_red_Cube.15584
v -0.749992 0.600000 0.380595
v 0.750008 0.600000 0.380595
v -0.749992 0.975000 0.473354
v -0.749992 1.300000 0.380595
v 0.750008 1.300000 0.380595
v 0.750008 0.975000 0.473354
v 0.610293 0.566320 0.380595
v 0.447376 0.600000 0.380595
v -0.447361 0.556341 0.380595
v -0.610278 0.556341 0.380595
v -0.610278 0.975000 0.473354
v -0.447361 0.975000 0.473354
v 0.447376 0.975000 0.473354
v 0.610293 0.975000 0.473354
v 0.447376 1.300000 0.380595
v 0.610293 1.300000 0.380595
v -0.610278 1.300000 0.380595
v -0.447361 1.300000 0.380595
v -0.223676 0.600000 0.380595
v 0.000008 0.531393 0.380595
v 0.223692 0.531393 0.380595
v 0.750008 1.400000 0.380595
v 0.610293 1.400000 0.380595
v 0.447376 1.400000 0.380595
v 0.750007 3.200000 0.380595
v -0.749993 3.200000 0.380595
v -0.447361 3.200000 0.380595
v -0.610278 3.200000 0.380595
v 0.610293 3.200000 0.380595
v 0.447375 3.200000 0.380595
v -0.749992 1.400000 0.380595
v -0.610278 1.400000 0.380595
v -0.447361 1.400000 0.380595
v 0.750007 3.450000 0.510907
v -0.749993 3.450000 0.510907
v -0.447361 3.450000 0.510907
v -0.610278 3.450000 0.510907
v 0.610293 3.450000 0.510907
v 0.447375 3.450000 0.510907
v 0.750007 3.727470 0.510907
v -0.749993 3.727470 0.510907
v -0.447361 3.727470 0.510907
v -0.610278 3.727470 0.510907
v 0.610293 3.727470 0.510907
v 0.447375 3.727470 0.510907
v 0.370122 3.563044 0.377638
v 0.436445 3.683063 0.642927
v 0.505195 3.639152 0.632872
v 0.504064 3.557791 0.644496
v 0.434182 3.520342 0.666176
v 0.365431 3.564253 0.676231
v 0.366563 3.645614 0.664607
v 0.442409 3.605910 0.684692
v -0.354433 3.628582 0.386725
v -0.438479 3.662392 0.671285
v -0.365728 3.626738 0.685138
v -0.356754 3.545845 0.673658
v -0.420532 3.500607 0.648325
v -0.493284 3.536261 0.634472
v -0.502257 3.617153 0.645952
v -0.437677 3.576375 0.689528
v -0.447361 2.500000 0.380595
v -0.749993 2.500000 0.380595
v -0.610278 2.500000 0.380595
v 0.750007 2.500000 0.380595
v 0.610293 2.500000 0.380595
v 0.447376 2.500000 0.380595
vt 0.408920 0.438309
vt 0.415098 0.438309
vt 0.415098 0.405873
vt 0.408920 0.405873
vt 0.475256 0.364572
vt 0.469078 0.364572
vt 0.469078 0.264175
vt 0.475256 0.270385
vt 0.422303 0.438309
vt 0.461873 0.438309
vt 0.461873 0.405873
vt 0.422303 0.405873
vt 0.469078 0.438309
vt 0.475256 0.438309
vt 0.475256 0.405873
vt 0.469078 0.405873
vt 0.422303 0.364572
vt 0.422303 0.262335
vt 0.432196 0.270385
vt 0.415098 0.364572
vt 0.408920 0.364572
vt 0.408920 0.270385
vt 0.415098 0.262335
vt 0.422303 0.485184
vt 0.422303 0.452748
vt 0.415098 0.452748
vt 0.415098 0.485184
vt 0.469078 0.485184
vt 0.469078 0.452748
vt 0.461873 0.452748
vt 0.461873 0.485184
vt 0.461873 0.411447
vt 0.461873 0.317260
vt 0.469078 0.311050
vt 0.469078 0.411447
vt 0.415098 0.411447
vt 0.415098 0.309210
vt 0.422303 0.309210
vt 0.422303 0.411447
vt 0.442088 0.257735
vt 0.461873 0.270385
vt 0.461873 0.364572
vt 0.451980 0.257735
vt 0.469078 0.421498
vt 0.469078 0.428856
vt 0.461873 0.428856
vt 0.461873 0.421498
vt 0.422303 0.421498
vt 0.422303 0.428856
vt 0.415098 0.428856
vt 0.415098 0.421498
vt 0.469078 0.374623
vt 0.475256 0.374623
vt 0.475256 0.381981
vt 0.469078 0.381981
vt 0.408920 0.374623
vt 0.415098 0.374623
vt 0.415098 0.381981
vt 0.408920 0.381981
vt 0.422303 0.374623
vt 0.461873 0.374623
vt 0.461873 0.381981
vt 0.422303 0.381981
vt 0.469078 0.472052
vt 0.469078 0.428856
vt 0.461873 0.428856
vt 0.461873 0.472052
vt 0.422303 0.472052
vt 0.422303 0.428856
vt 0.415098 0.428856
vt 0.415098 0.472052
vt 0.469078 0.425177
vt 0.475256 0.425177
vt 0.475256 0.381981
vt 0.469078 0.381981
vt 0.408920 0.425177
vt 0.415098 0.425177
vt 0.415098 0.381981
vt 0.408920 0.381981
vt 0.422303 0.425177
vt 0.461873 0.425177
vt 0.461873 0.381981
vt 0.422303 0.381981
vt 0.475256 0.327748
vt 0.469078 0.327748
vt 0.469078 0.327748
vt 0.475256 0.327748
vt 0.415098 0.327748
vt 0.408920 0.327748
vt 0.408920 0.327748
vt 0.415098 0.327748
vt 0.469078 0.374623
vt 0.461873 0.374623
vt 0.461873 0.374623
vt 0.469078 0.374623
vt 0.461873 0.327748
vt 0.422303 0.327748
vt 0.422303 0.327748
vt 0.461873 0.327748
vt 0.422303 0.374623
vt 0.415098 0.374623
vt 0.415098 0.374623
vt 0.422303 0.374623
vt 0.422303 0.374623
vt 0.461873 0.374623
vt 0.469078 0.421498
vt 0.461873 0.421498
vt 0.461873 0.421498
vt 0.469078 0.421498
vt 0.475256 0.374623
vt 0.469078 0.374623
vt 0.475256 0.374623
vt 0.408920 0.374623
vt 0.408920 0.374623
vt 0.415098 0.374623
vt 0.422303 0.421498
vt 0.415098 0.421498
vt 0.415098 0.421498
vt 0.422303 0.421498
vt 0.171876 0.832252
vt 0.171876 0.958449
vt 0.199458 0.958449
vt 0.171876 0.767472
vt 0.199458 0.893670
vt 0.199458 0.831170
vt 0.171876 0.831170
vt 0.144294 0.831170
vt 0.144294 0.893670
vt 0.144294 0.893670
vt 0.144294 0.958449
vt 0.171876 0.893670
vt 0.199458 0.924920
vt 0.171876 0.924920
vt 0.199458 0.924920
vt 0.144294 0.924920
vt 0.171876 0.924920
vt 0.199458 0.893670
vt 0.171876 0.832252
vt 0.171876 0.958449
vt 0.199458 0.958449
vt 0.171876 0.767472
vt 0.199458 0.893670
vt 0.199458 0.831170
vt 0.171876 0.831170
vt 0.144294 0.831170
vt 0.144294 0.893670
vt 0.144294 0.893670
vt 0.144294 0.958449
vt 0.171876 0.893670
vt 0.199458 0.924920
vt 0.171876 0.924920
vt 0.199458 0.924920
vt 0.144294 0.924920
vt 0.171876 0.924920
vt 0.199458 0.893670
vt 0.408920 0.374623
vt 0.475256 0.374623
vt 0.422303 0.421498
vt 0.415098 0.421498
vt 0.469078 0.421498
vt 0.461873 0.421498
vn -0.0184 0.0243 0.9995
vn -0.0092 0.0271 0.9996
vn 0.0000 0.1386 0.9904
vn 0.0143 0.0228 0.9996
vn 0.0010 0.0228 0.9997
vn 0.0017 -0.2304 0.9731
vn 0.0278 -0.2303 0.9727
vn -0.0001 0.0284 0.9996
vn -0.0006 0.0267 0.9996
vn 0.0198 -0.2163 0.9761
vn -0.0440 -0.2646 0.9634
vn -0.0355 -0.2275 0.9731
vn -0.0159 -0.2214 0.9751
vn 0.0261 -0.2353 0.9716
vn -0.0156 -0.2197 0.9754
vn 0.0212 -0.2149 0.9764
vn 0.0000 0.0000 1.0000
vn 0.0000 -0.2379 0.9713
vn 0.4295 0.7776 -0.4592
vn 0.8905 -0.0765 -0.4485
vn 0.4064 -0.8865 -0.2214
vn -0.5388 -0.8424 -0.0051
vn -0.0850 0.3157 0.9450
vn -0.0899 -0.0360 0.9953
vn 0.2271 0.1347 0.9645
vn -0.9998 0.0117 -0.0158
vn -0.5157 0.8217 -0.2428
vn 0.2074 -0.2259 0.9518
vn 0.5095 -0.0640 0.8581
vn 0.5144 0.2878 0.8078
vn 0.2171 0.4776 0.8513
vn 0.4366 0.8994 0.0221
vn 0.9938 0.1048 0.0383
vn 0.6201 -0.7551 -0.2127
vn -0.3107 -0.8205 -0.4799
vn -0.5590 0.0009 0.8292
vn -0.5202 -0.3489 0.7796
vn -0.2615 -0.1640 0.9512
vn -0.8679 -0.0259 -0.4961
vn -0.4943 0.8341 -0.2451
vn -0.2056 -0.5030 0.8395
vn 0.0701 -0.3074 0.9490
vn 0.0313 0.0423 0.9986
vn -0.2832 0.1964 0.9387
usemtl texture
s 1
f 3/1/1 11/2/2 17/3/3 4/4/3
s 2
f 6/5/4 14/6/5 7/7/6 2/8/7
s 3
f 12/9/8 13/10/9 15/11/3 18/12/3
s 4
f 14/13/5 6/14/4 5/15/3 16/16/3
s 5
f 12/17/8 9/18/10 19/19/11
s 6
f 11/20/2 3/21/1 1/22/12 10/23/13
s 7
f 12/24/8 18/25/3 17/26/3 11/27/2
s 8
f 14/28/5 16/29/3 15/30/3 13/31/9
s 9
f 13/32/9 8/33/14 7/34/6 14/35/5
s 10
f 11/36/2 10/37/13 9/38/10 12/39/8
s 11
f 12/17/8 19/19/11 20/40/15
s 12
f 8/41/14 13/42/9 21/43/16
s 13
f 21/43/16 13/42/9 20/40/15
s 14
f 13/42/9 12/17/8 20/40/15
s 15
f 16/44/3 23/45/17 24/46/17 15/47/3
s 16
f 18/48/3 33/49/17 32/50/17 17/51/3
s 17
f 16/52/3 5/53/3 22/54/17 23/55/17
s 18
f 4/56/3 17/57/3 32/58/17 31/59/17
s 19
f 18/60/3 15/61/3 24/62/17 33/63/17
s 20
f 64/64/17 32/65/17 33/66/17 62/67/17
s 21
f 67/68/17 24/69/17 23/70/17 66/71/17
s 22
f 64/72/17 63/73/17 31/74/17 32/75/17
s 23
f 65/76/17 66/77/17 23/78/17 22/79/17
s 24
f 67/80/17 62/81/17 33/82/17 24/83/17
s 25
f 26/84/18 28/85/18 37/86/18 35/87/18
s 26
f 29/88/18 25/89/18 34/90/18 38/91/18
s 27
f 28/92/18 27/93/18 36/94/18 37/95/18
s 28
f 27/96/18 30/97/18 39/98/18 36/99/18
s 29
f 30/100/18 29/101/18 38/102/18 39/103/18
s 30
f 36/94/18 39/103/18 45/104/17 42/105/17
s 31
f 37/106/18 36/107/18 42/108/17 43/109/17
s 32
f 35/110/18 37/95/18 43/111/17 41/112/17
s 33
f 38/102/18 34/113/18 40/114/17 44/115/17
s 34
f 39/116/18 38/117/18 44/118/17 45/119/17
s 35
f 46/120/19 47/121/19 48/122/19
s 36
f 46/123/20 48/124/20 49/125/20
s 37
f 46/123/21 49/125/21 50/126/21
s 38
f 46/123/22 50/126/22 51/127/22
s 39
f 52/128/23 51/127/24 53/129/25
s 40
f 46/123/26 51/127/26 52/128/26
s 41
f 46/120/27 52/130/27 47/121/27
s 42
f 51/127/24 50/126/28 53/129/25
s 43
f 50/126/28 49/125/29 53/131/25
s 44
f 48/132/30 47/133/31 53/134/25
s 45
f 47/133/31 52/135/23 53/136/25
s 46
f 49/125/29 48/124/30 53/137/25
s 47
f 54/138/32 55/139/32 56/140/32
s 48
f 54/141/33 56/142/33 57/143/33
s 49
f 54/141/34 57/143/34 58/144/34
s 50
f 54/141/35 58/144/35 59/145/35
s 51
f 60/146/36 59/145/37 61/147/38
s 52
f 54/141/39 59/145/39 60/146/39
s 53
f 54/138/40 60/148/40 55/139/40
s 54
f 59/145/37 58/144/41 61/147/38
s 55
f 58/144/41 57/143/42 61/149/38
s 56
f 56/150/43 55/151/44 61/152/38
s 57
f 55/151/44 60/153/36 61/154/38
s 58
f 57/143/42 56/142/43 61/155/38
s 59
f 30/100/18 27/93/18 62/81/17 67/80/17
s 60
f 25/156/18 29/101/18 66/77/17 65/76/17
s 61
f 28/92/18 26/157/18 63/73/17 64/72/17
s 62
f 30/158/18 67/68/17 66/71/17 29/159/18
s 63
f 28/160/18 64/64/17 62/67/17 27/161/18
