# Blender v2.80 (sub 75) OBJ File: 'Dungeon_Remastered_Export1.0.blend'
# www.blender.org
mtllib barrier_half.mtl
o barrier_half_Cube.13694
v 2.000000 0.900000 0.250000
v 2.000000 0.900000 -0.250000
v 0.000000 0.900000 -0.250000
v 0.000000 0.900000 0.250000
v 2.000000 0.300000 0.250000
v 2.000000 0.300000 -0.250000
v 0.000000 0.300000 0.250000
v 0.000000 0.300000 -0.250000
v 2.000000 0.000000 0.250000
v 2.000000 0.000000 -0.250000
v 0.000000 0.000000 -0.250000
v 0.000000 0.000000 0.250000
v 2.000000 1.100000 0.187500
v 2.000000 1.075000 0.250000
v 2.000000 1.075000 -0.250000
v 2.000000 1.100000 -0.187500
v 0.000000 1.075000 0.250000
v 0.000000 1.100000 0.187500
v 0.000000 1.100000 -0.187500
v 0.000000 1.075000 -0.250000
v 0.750000 0.300000 0.250000
v 0.750000 0.900000 0.250000
v 0.750000 0.900000 -0.250000
v 0.750000 0.300000 -0.250000
v 1.250000 0.900000 -0.250000
v 1.250000 0.300000 -0.250000
v 1.250000 0.900000 0.250000
v 1.250000 0.300000 0.250000
v 0.825191 0.400000 0.174809
v 0.825191 0.800000 0.174809
v 0.825191 0.800000 -0.174809
v 0.825191 0.400000 -0.174809
v 1.174809 0.800000 -0.174809
v 1.174809 0.400000 -0.174809
v 1.174809 0.800000 0.174809
v 1.174809 0.400000 0.174809
vt 0.195770 0.861218
vt 0.195770 0.861218
vt 0.204371 0.861218
vt 0.204371 0.861218
vt 0.164673 0.833788
vt 0.211016 0.833788
vt 0.211016 0.833788
vt 0.164673 0.833788
vt 0.211016 0.818163
vt 0.211016 0.818163
vt 0.211016 0.818163
vt 0.211016 0.818163
vt 0.211016 0.833788
vt 0.164673 0.833788
vt 0.164673 0.833788
vt 0.211016 0.833788
vt 0.164673 0.818163
vt 0.164673 0.818163
vt 0.164673 0.818163
vt 0.164673 0.818163
vt 0.211016 0.849058
vt 0.164673 0.849058
vt 0.211016 0.802538
vt 0.211016 0.833433
vt 0.211016 0.833433
vt 0.211016 0.802538
vt 0.164673 0.849058
vt 0.211016 0.849058
vt 0.164673 0.802538
vt 0.164673 0.833433
vt 0.164673 0.833433
vt 0.164673 0.802538
vt 0.164673 0.817808
vt 0.164673 0.817808
vt 0.164673 0.817808
vt 0.164673 0.817808
vt 0.164673 0.833433
vt 0.211016 0.833433
vt 0.211016 0.817808
vt 0.211016 0.817808
vt 0.211016 0.817808
vt 0.211016 0.817808
vt 0.211016 0.833433
vt 0.164673 0.833433
vt 0.204371 0.843366
vt 0.195770 0.843366
vt 0.195770 0.843366
vt 0.204371 0.843366
vt 0.204371 0.861218
vt 0.204371 0.861218
vt 0.195770 0.861218
vt 0.195770 0.861218
vt 0.204371 0.825513
vt 0.195770 0.825513
vt 0.195770 0.825513
vt 0.204371 0.825513
vt 0.195770 0.825513
vt 0.195770 0.825513
vt 0.204371 0.825513
vt 0.204371 0.825513
vt 0.204371 0.861218
vt 0.204371 0.861218
vt 0.195770 0.861218
vt 0.195770 0.861218
vt 0.195770 0.914774
vt 0.204371 0.914774
vt 0.204371 0.914774
vt 0.195770 0.914774
vt 0.195770 0.914774
vt 0.204371 0.914774
vt 0.204371 0.914774
vt 0.195770 0.914774
vt 0.204371 0.896922
vt 0.204371 0.896922
vt 0.195770 0.896922
vt 0.195770 0.896922
vn -0.0000 0.0000 1.0000
vn 0.0000 0.6010 0.7993
vn 0.7993 0.6010 0.0000
vn 0.0000 0.6010 -0.7993
vn -0.7993 0.6010 -0.0000
vn 1.0000 0.0000 0.0000
vn 0.0000 0.0000 -1.0000
vn -1.0000 0.0000 0.0000
vn -0.7993 -0.6010 0.0000
vn 0.0000 -0.6010 -0.7993
vn 0.7993 -0.6010 0.0000
vn 0.0000 -0.6010 0.7993
vn 0.0000 -1.0000 0.0000
vn 0.0000 1.0000 0.0000
vn -0.0000 0.9285 0.3714
vn 0.0000 0.9285 -0.3714
usemtl texture
s 1
f 17/1/1 4/2/1 1/3/1 14/4/1
s off
f 21/5/2 28/6/2 36/7/2 29/8/2
f 28/9/3 26/10/3 34/11/3 36/12/3
f 26/13/4 24/14/4 32/15/4 34/16/4
f 24/17/5 21/18/5 29/19/5 32/20/5
f 36/12/1 35/21/1 30/22/1 29/19/1
f 34/23/6 33/24/6 35/25/6 36/26/6
f 32/20/7 31/27/7 33/28/7 34/11/7
f 29/29/8 30/30/8 31/31/8 32/32/8
f 22/33/9 23/34/9 31/35/9 30/36/9
f 23/37/10 25/38/10 33/24/10 31/31/10
f 25/39/11 27/40/11 35/41/11 33/42/11
f 27/43/12 22/44/12 30/30/12 35/25/12
s 2
f 1/45/13 4/46/13 3/47/13 2/48/13
s 3
f 15/49/7 2/50/7 3/51/7 20/52/7
s 4
f 10/53/7 11/54/7 8/55/7 6/56/7
s 5
f 7/57/1 12/58/1 9/59/1 5/60/1
s 6
f 5/61/14 6/62/14 8/63/14 7/64/14
s 7
f 17/65/15 14/66/15 13/67/15 18/68/15
s 8
f 19/69/16 16/70/16 15/71/16 20/72/16
s 9
f 13/73/14 16/74/14 19/75/14 18/76/14
