# Blender v2.80 (sub 75) OBJ File: 'Dungeon_Remastered_Export1.0.blend'
# www.blender.org
mtllib barrier_colum_half.mtl
o barrier_colum_half_Cube.13693
v 2.000000 0.900000 0.250000
v 2.000000 0.900000 -0.250000
v 0.000000 0.900000 -0.250000
v 0.000000 0.900000 0.250000
v 2.000000 0.300000 0.250000
v 2.000000 0.300000 -0.250000
v 0.000000 0.300000 0.250000
v 0.000000 0.300000 -0.250000
v 2.000000 0.000000 0.250000
v 2.000000 0.000000 -0.250000
v 0.000000 0.000000 -0.250000
v 0.000000 0.000000 0.250000
v 2.000000 1.100000 0.187500
v 2.000000 1.075000 0.250000
v 2.000000 1.075000 -0.250000
v 2.000000 1.100000 -0.187500
v 0.000000 1.075000 0.250000
v 0.000000 1.100000 0.187500
v 0.000000 1.100000 -0.187500
v 0.000000 1.075000 -0.250000
v 0.750000 0.300000 0.250000
v 0.750000 0.900000 0.250000
v 0.750000 0.900000 -0.250000
v 0.750000 0.300000 -0.250000
v 1.250000 0.900000 -0.250000
v 1.250000 0.300000 -0.250000
v 1.250000 0.900000 0.250000
v 1.250000 0.300000 0.250000
v 0.825191 0.400000 0.174809
v 0.825191 0.800000 0.174809
v 0.825191 0.800000 -0.174809
v 0.825191 0.400000 -0.174809
v 1.174809 0.800000 -0.174809
v 1.174809 0.400000 -0.174809
v 1.174809 0.800000 0.174809
v 1.174809 0.400000 0.174809
v 0.350000 0.000000 -0.350000
v 0.350000 1.200000 -0.350000
v 0.350000 0.000000 0.350000
v 0.350000 1.200000 0.350000
v -0.350000 0.000000 -0.350000
v -0.350000 1.200000 -0.350000
v -0.350000 0.000000 0.350000
v -0.350000 1.200000 0.350000
v 0.000000 1.400000 0.000000
v 0.350000 0.300000 -0.350000
v 0.350000 0.900000 -0.350000
v 0.350000 0.900000 0.350000
v 0.350000 0.300000 0.350000
v -0.350000 0.900000 0.350000
v -0.350000 0.300000 0.350000
v -0.350000 0.900000 -0.350000
v -0.350000 0.300000 -0.350000
v 0.274809 0.400000 -0.274809
v 0.274809 0.800000 -0.274809
v 0.274809 0.800000 0.274809
v 0.274809 0.400000 0.274809
v -0.274809 0.800000 0.274809
v -0.274809 0.400000 0.274809
v -0.274809 0.800000 -0.274809
v -0.274809 0.400000 -0.274809
vt 0.195770 0.861218
vt 0.195770 0.861218
vt 0.204371 0.861218
vt 0.204371 0.861218
vt 0.164673 0.833788
vt 0.211016 0.833788
vt 0.211016 0.833788
vt 0.164673 0.833788
vt 0.211016 0.818163
vt 0.211016 0.818163
vt 0.211016 0.818163
vt 0.211016 0.818163
vt 0.211016 0.833788
vt 0.164673 0.833788
vt 0.164673 0.833788
vt 0.211016 0.833788
vt 0.164673 0.818163
vt 0.164673 0.818163
vt 0.164673 0.818163
vt 0.164673 0.818163
vt 0.211016 0.849058
vt 0.164673 0.849058
vt 0.211016 0.802538
vt 0.211016 0.833433
vt 0.211016 0.833433
vt 0.211016 0.802538
vt 0.164673 0.849058
vt 0.211016 0.849058
vt 0.164673 0.802538
vt 0.164673 0.833433
vt 0.164673 0.833433
vt 0.164673 0.802538
vt 0.164673 0.817808
vt 0.164673 0.817808
vt 0.164673 0.817808
vt 0.164673 0.817808
vt 0.164673 0.833433
vt 0.211016 0.833433
vt 0.211016 0.817808
vt 0.211016 0.817808
vt 0.211016 0.817808
vt 0.211016 0.817808
vt 0.211016 0.833433
vt 0.164673 0.833433
vt 0.164673 0.833433
vt 0.164673 0.864329
vt 0.164673 0.864329
vt 0.164673 0.833433
vt 0.164673 0.849058
vt 0.164673 0.879954
vt 0.211016 0.879954
vt 0.211016 0.849058
vt 0.211016 0.833433
vt 0.211016 0.864329
vt 0.211016 0.864329
vt 0.211016 0.833433
vt 0.211016 0.849058
vt 0.211016 0.879954
vt 0.164673 0.879954
vt 0.164673 0.849058
vt 0.211016 0.895579
vt 0.164673 0.895579
vt 0.199429 0.945366
vt 0.199429 0.929741
vt 0.176258 0.929741
vt 0.164673 0.895579
vt 0.211016 0.895579
vt 0.176258 0.945366
vt 0.211016 0.787267
vt 0.211016 0.818163
vt 0.164673 0.818163
vt 0.164673 0.787267
vt 0.164673 0.833788
vt 0.211016 0.833788
vt 0.211016 0.833788
vt 0.164673 0.833788
vt 0.211016 0.771642
vt 0.211016 0.802538
vt 0.211016 0.802538
vt 0.211016 0.771642
vt 0.211016 0.818163
vt 0.211016 0.818163
vt 0.211016 0.818163
vt 0.164673 0.787267
vt 0.164673 0.818163
vt 0.211016 0.787267
vt 0.211016 0.833788
vt 0.164673 0.833788
vt 0.164673 0.833788
vt 0.211016 0.833788
vt 0.164673 0.771642
vt 0.164673 0.802538
vt 0.164673 0.802538
vt 0.164673 0.771642
vt 0.164673 0.818163
vt 0.164673 0.818163
vt 0.211016 0.849058
vt 0.164673 0.849058
vt 0.211016 0.802538
vt 0.211016 0.833433
vt 0.211016 0.833433
vt 0.211016 0.802538
vt 0.164673 0.849058
vt 0.211016 0.849058
vt 0.164673 0.802538
vt 0.164673 0.833433
vt 0.164673 0.833433
vt 0.164673 0.802538
vt 0.164673 0.817808
vt 0.164673 0.817808
vt 0.164673 0.817808
vt 0.164673 0.817808
vt 0.211016 0.817808
vt 0.211016 0.817808
vt 0.211016 0.817808
vt 0.211016 0.817808
vt 0.204371 0.843366
vt 0.195770 0.843366
vt 0.195770 0.843366
vt 0.204371 0.843366
vt 0.204371 0.861218
vt 0.204371 0.861218
vt 0.195770 0.861218
vt 0.195770 0.861218
vt 0.204371 0.825513
vt 0.195770 0.825513
vt 0.195770 0.825513
vt 0.204371 0.825513
vt 0.195770 0.825513
vt 0.195770 0.825513
vt 0.204371 0.825513
vt 0.204371 0.825513
vt 0.204371 0.861218
vt 0.204371 0.861218
vt 0.195770 0.861218
vt 0.195770 0.861218
vt 0.195770 0.914774
vt 0.204371 0.914774
vt 0.204371 0.914774
vt 0.195770 0.914774
vt 0.195770 0.914774
vt 0.204371 0.914774
vt 0.204371 0.914774
vt 0.195770 0.914774
vt 0.204371 0.896922
vt 0.204371 0.896922
vt 0.195770 0.896922
vt 0.195770 0.896922
vn -0.0000 0.0000 1.0000
vn 0.0000 0.6010 0.7993
vn 0.7993 0.6010 0.0000
vn 0.0000 0.6010 -0.7993
vn -0.7993 0.6010 -0.0000
vn 1.0000 0.0000 0.0000
vn 0.0000 0.0000 -1.0000
vn -1.0000 0.0000 0.0000
vn -0.7993 -0.6010 0.0000
vn 0.0000 -0.6010 -0.7993
vn 0.7993 -0.6010 0.0000
vn 0.0000 -0.6010 0.7993
vn 0.0000 0.8682 0.4961
vn -0.4961 0.8682 0.0000
vn 0.4961 0.8682 0.0000
vn -0.0000 0.8682 -0.4961
vn 0.0000 -1.0000 0.0000
vn 0.0000 1.0000 0.0000
vn -0.0000 0.9285 0.3714
vn 0.0000 0.9285 -0.3714
usemtl texture
s 1
f 17/1/1 4/2/1 1/3/1 14/4/1
s off
f 21/5/2 28/6/2 36/7/2 29/8/2
f 28/9/3 26/10/3 34/11/3 36/12/3
f 26/13/4 24/14/4 32/15/4 34/16/4
f 24/17/5 21/18/5 29/19/5 32/20/5
f 36/12/1 35/21/1 30/22/1 29/19/1
f 34/23/6 33/24/6 35/25/6 36/26/6
f 32/20/7 31/27/7 33/28/7 34/11/7
f 29/29/8 30/30/8 31/31/8 32/32/8
f 22/33/9 23/34/9 31/35/9 30/36/9
f 23/37/10 25/38/10 33/24/10 31/31/10
f 25/39/11 27/40/11 35/41/11 33/42/11
f 27/43/12 22/44/12 30/30/12 35/25/12
f 47/45/6 38/46/6 40/47/6 48/48/6
f 48/49/1 40/50/1 44/51/1 50/52/1
f 50/53/8 44/54/8 42/55/8 52/56/8
f 52/57/7 42/58/7 38/59/7 47/60/7
f 44/61/13 40/62/13 45/63/13
f 42/58/14 44/51/14 45/64/14
f 40/50/15 38/59/15 45/65/15
f 38/66/16 42/67/16 45/68/16
f 41/69/7 53/70/7 46/71/7 37/72/7
f 46/73/4 53/74/4 61/75/4 54/76/4
f 43/77/8 51/78/8 53/79/8 41/80/8
f 53/70/5 51/81/5 59/82/5 61/83/5
f 39/84/1 49/85/1 51/81/1 43/86/1
f 51/87/2 49/88/2 57/89/2 59/90/2
f 37/91/6 46/92/6 49/93/6 39/94/6
f 49/85/3 46/71/3 54/95/3 57/96/3
f 61/83/7 60/97/7 55/98/7 54/95/7
f 59/99/8 58/100/8 60/101/8 61/102/8
f 57/96/1 56/103/1 58/104/1 59/82/1
f 54/105/6 55/106/6 56/107/6 57/108/6
f 47/109/11 48/110/11 56/111/11 55/112/11
f 48/48/12 50/53/12 58/100/12 56/107/12
f 50/113/9 52/114/9 60/115/9 58/116/9
f 52/56/10 47/45/10 55/106/10 60/101/10
s 2
f 1/117/17 4/118/17 3/119/17 2/120/17
s 3
f 15/121/7 2/122/7 3/123/7 20/124/7
s 4
f 10/125/7 11/126/7 8/127/7 6/128/7
s 5
f 7/129/1 12/130/1 9/131/1 5/132/1
s 6
f 5/133/18 6/134/18 8/135/18 7/136/18
s 7
f 17/137/19 14/138/19 13/139/19 18/140/19
s 8
f 19/141/20 16/142/20 15/143/20 20/144/20
s 9
f 13/145/18 16/146/18 19/147/18 18/148/18
