# Blender v2.80 (sub 75) OBJ File: 'Dungeon_Remastered_Export1.0.blend'
# www.blender.org
mtllib bed_frame.mtl
o bed_frame_Cube.14951
v 0.450000 0.000000 -1.200000
v 0.375000 0.600000 -1.125000
v 0.450000 0.000000 -1.425000
v 0.375000 0.600000 -1.350000
v 0.675000 0.000000 -1.200000
v 0.600000 0.600000 -1.125000
v -0.675000 0.000000 -1.200000
v -0.600000 0.600000 -1.125000
v -0.450000 0.000000 -1.200000
v -0.375000 0.600000 -1.125000
v -0.450000 0.000000 -1.425000
v -0.375000 0.600000 -1.350000
v 0.656250 0.000000 -1.425000
v 0.675000 0.000000 -1.406250
v 0.600000 0.600000 -1.331250
v 0.581250 0.600000 -1.350000
v -0.675000 0.000000 -1.406250
v -0.656250 0.000000 -1.425000
v -0.581250 0.600000 -1.350000
v -0.600000 0.600000 -1.331250
v 0.450000 0.000000 1.425000
v 0.375000 0.600000 1.350000
v 0.450000 0.000000 1.200000
v 0.375000 0.600000 1.125000
v 0.675000 0.000000 1.200000
v 0.600000 0.600000 1.125000
v -0.675000 0.000000 1.200000
v -0.600000 0.600000 1.125000
v -0.450000 0.000000 1.425000
v -0.375000 0.600000 1.350000
v -0.450000 0.000000 1.200000
v -0.375000 0.600000 1.125000
v 0.675000 0.000000 1.406250
v 0.656250 0.000000 1.425000
v 0.581250 0.600000 1.350000
v 0.600000 0.600000 1.331250
v -0.656250 0.000000 1.425000
v -0.675000 0.000000 1.406250
v -0.600000 0.600000 1.331250
v -0.581250 0.600000 1.350000
v -0.525000 0.150000 1.350000
v -0.525000 0.150000 1.200000
v -0.525000 0.300000 1.200000
v 0.525000 0.150000 1.350000
v 0.525000 0.150000 1.200000
v 0.525000 0.300000 1.200000
v -0.525000 0.150000 -1.200000
v -0.525000 0.300000 -1.200000
v -0.525000 0.150000 -1.350000
v 0.525000 0.150000 -1.200000
v 0.525000 0.300000 -1.200000
v 0.525000 0.150000 -1.350000
v -0.525000 0.281250 1.350000
v -0.525000 0.300000 1.331250
v 0.525000 0.300000 1.331250
v 0.525000 0.281250 1.350000
v -0.525000 0.300000 -1.331250
v -0.525000 0.281250 -1.350000
v 0.525000 0.281250 -1.350000
v 0.525000 0.300000 -1.331250
v 0.000000 0.700000 -0.638586
v -0.750000 0.675000 -1.475000
v -0.717317 0.675000 -1.500000
v -0.750000 0.500000 -1.500000
v 0.717317 0.675000 -1.500000
v 0.750000 0.675000 -1.475000
v 0.750000 0.500000 -1.500000
v -0.750000 0.675000 1.475000
v 0.000000 0.700000 0.638586
v -0.717317 0.675000 1.500000
v -0.750000 0.500000 1.500000
v 0.717317 0.675000 1.500000
v 0.750000 0.675000 1.475000
v 0.750000 0.500000 1.500000
v -0.563151 1.041077 -0.814634
v -0.563151 1.041077 -1.125705
v 0.563151 1.041077 -1.125705
v 0.563151 1.041077 -0.814634
v -0.338799 1.028090 -1.285488
v 0.338799 1.028090 -1.285488
v 0.338800 1.028090 -0.654851
v -0.338800 1.028090 -0.654851
v -0.290189 1.062632 -1.100093
v 0.290189 1.062632 -1.100093
v -0.290189 1.062632 -0.840246
v 0.290189 1.062632 -0.840246
v 0.659089 0.699997 -1.055917
v 0.673466 0.862635 -1.057829
v 0.673466 0.862635 -0.882510
v 0.659089 0.699997 -0.884422
v -0.659089 0.699997 -0.884422
v -0.673466 0.862635 -0.882510
v -0.673466 0.862635 -1.057829
v -0.659089 0.699997 -1.055917
v 0.324885 0.699997 -0.569830
v 0.329252 0.851016 -0.564950
v -0.329252 0.851016 -0.564950
v -0.324885 0.699997 -0.569830
v -0.324885 0.699997 -1.370509
v -0.329252 0.851016 -1.375389
v 0.329252 0.851016 -1.375389
v 0.324885 0.699997 -1.370509
v 0.000000 1.005732 -1.278067
v 0.000000 1.005732 -0.662273
v 0.000000 1.027655 -1.096536
v 0.000000 1.027655 -0.843803
v 0.000000 0.839591 -1.366284
v 0.000000 0.699997 -1.356981
v 0.000000 0.839591 -0.574055
v 0.000000 0.699997 -0.583358
v -0.513233 0.699997 -0.573725
v -0.661968 0.699997 -0.691913
v -0.533103 0.857862 -0.567522
v -0.676694 0.862374 -0.678942
v -0.661968 0.699997 -1.248426
v -0.513233 0.699997 -1.366614
v -0.676694 0.862374 -1.261397
v -0.533103 0.857862 -1.372817
v 0.513233 0.699997 -1.366614
v 0.661968 0.699997 -1.248426
v 0.533103 0.857862 -1.372817
v 0.676694 0.862374 -1.261397
v 0.661968 0.699997 -0.691913
v 0.513233 0.699997 -0.573725
v 0.676694 0.862374 -0.678942
v 0.533103 0.857862 -0.567522
v -0.430524 0.832232 1.053722
v -0.591666 0.832232 0.085337
v 0.388913 0.832232 -0.077834
v 0.550055 0.832232 0.890551
v -0.416339 0.826613 -0.100307
v 0.197321 0.826613 -0.186523
v 0.374727 0.826613 1.076195
v -0.238933 0.826613 1.162411
v -0.351539 0.841558 0.067645
v 0.162042 0.841558 -0.014651
v -0.203654 0.841558 0.990539
v 0.309927 0.841558 0.908243
v 0.493885 0.699997 -0.048702
v 0.486142 0.755025 -0.034388
v 0.631871 0.755025 0.810187
v 0.643071 0.699997 0.822851
v -0.535493 0.699997 1.024590
v -0.527753 0.755025 1.010276
v -0.673481 0.755025 0.165701
v -0.684680 0.699997 0.153037
v 0.378730 0.699997 1.184700
v 0.371342 0.749998 1.163343
v -0.228292 0.749998 1.240867
v -0.234447 0.699997 1.262188
v -0.420340 0.699997 -0.208813
v -0.412955 0.749998 -0.187455
v 0.186680 0.749998 -0.264980
v 0.192837 0.699997 -0.286301
v -0.097024 0.816939 -0.138180
v 0.055412 0.816939 1.114067
v -0.081898 0.826425 0.027915
v 0.040286 0.826425 0.947973
v -0.104022 0.745055 -0.218920
v -0.105489 0.699997 -0.235601
v 0.062410 0.745055 1.194807
v 0.063879 0.699997 1.211488
v -0.410529 0.699997 1.282019
v -0.549952 0.699997 1.195343
v -0.411417 0.752960 1.263718
v -0.541621 0.754913 1.184958
v -0.727249 0.699997 -0.042478
v -0.599405 0.699997 -0.181133
v -0.717506 0.754913 -0.033291
v -0.599978 0.752960 -0.159330
v 0.368919 0.699997 -0.306132
v 0.508342 0.699997 -0.219456
v 0.369805 0.752960 -0.287831
v 0.500009 0.754913 -0.209070
v 0.685639 0.699997 1.018365
v 0.557794 0.699997 1.157020
v 0.675894 0.754913 1.009178
v 0.558366 0.752960 1.135217
v -0.449564 0.832232 0.739234
v -0.512855 0.832232 0.418180
v 0.407955 0.832232 0.236655
v 0.471246 0.832232 0.557709
v 0.198655 0.841558 0.289723
v 0.254373 0.841558 0.596256
v -0.295983 0.841558 0.379632
v -0.240265 0.841558 0.686165
v -0.543770 0.755025 0.736632
v -0.599026 0.755025 0.456341
v -0.550511 0.699997 0.742577
v -0.607518 0.699997 0.453399
v 0.502161 0.755025 0.239257
v 0.557416 0.755025 0.519548
v 0.508904 0.699997 0.233312
v 0.565911 0.699997 0.522489
v -0.042995 0.826425 0.334854
v 0.001383 0.826425 0.641033
v 0.717317 0.700000 -1.475000
v -0.717317 0.700000 -1.475000
v -0.717317 0.700000 1.475000
v 0.717317 0.700000 1.475000
vt 0.579507 0.786290
vt 0.591743 0.786290
vt 0.592855 0.786290
vt 0.592855 0.786290
vt 0.579507 0.813991
vt 0.575058 0.890865
vt 0.575058 0.890865
vt 0.579507 0.813991
vt 0.592855 0.813991
vt 0.588406 0.890865
vt 0.588406 0.890865
vt 0.592855 0.813991
vt 0.587294 0.890865
vt 0.591743 0.813991
vt 0.512768 0.786290
vt 0.526116 0.786290
vt 0.526116 0.786290
vt 0.513880 0.813991
vt 0.518329 0.890865
vt 0.530565 0.890865
vt 0.526116 0.813991
vt 0.530565 0.890865
vt 0.526116 0.813991
vt 0.517217 0.890865
vt 0.512768 0.813991
vt 0.517217 0.890865
vt 0.512768 0.813991
vt 0.588406 0.932416
vt 0.592855 0.855541
vt 0.591743 0.855541
vt 0.587294 0.932416
vt 0.518329 0.932416
vt 0.513880 0.855541
vt 0.512768 0.855541
vt 0.517217 0.932416
vt 0.579507 0.786290
vt 0.512768 0.786290
vt 0.513880 0.786290
vt 0.579507 0.813991
vt 0.575058 0.890865
vt 0.575058 0.890865
vt 0.579507 0.813991
vt 0.588406 0.890865
vt 0.592855 0.813991
vt 0.591743 0.813991
vt 0.587294 0.890865
vt 0.588406 0.890865
vt 0.592855 0.813991
vt 0.512768 0.786290
vt 0.526116 0.786290
vt 0.526116 0.786290
vt 0.526116 0.813991
vt 0.530565 0.890865
vt 0.518329 0.890865
vt 0.513880 0.813991
vt 0.512768 0.813991
vt 0.517217 0.890865
vt 0.530565 0.890865
vt 0.526116 0.813991
vt 0.512768 0.813991
vt 0.517217 0.890865
vt 0.592855 0.786290
vt 0.592855 0.786290
vt 0.591743 0.786290
vt 0.579507 0.786290
vt 0.587294 0.932416
vt 0.591743 0.855541
vt 0.592855 0.855541
vt 0.588406 0.932416
vt 0.513880 0.855541
vt 0.518329 0.932416
vt 0.517217 0.932416
vt 0.512768 0.855541
vt 0.579507 0.786290
vt 0.512768 0.786290
vt 0.513880 0.786290
vt 0.521666 0.833209
vt 0.521666 0.852428
vt 0.583957 0.852428
vt 0.583957 0.833209
vt 0.583957 0.880128
vt 0.521666 0.880128
vt 0.521666 0.880128
vt 0.583957 0.880128
vt 0.521666 0.805509
vt 0.583957 0.805509
vt 0.583957 0.805509
vt 0.521666 0.805509
vt 0.583957 0.880128
vt 0.521666 0.880128
vt 0.521666 0.880128
vt 0.583957 0.880128
vt 0.583957 0.833209
vt 0.583957 0.852428
vt 0.521666 0.852428
vt 0.521666 0.833209
vt 0.521666 0.805509
vt 0.583957 0.805509
vt 0.583957 0.805509
vt 0.521666 0.805509
vt 0.521666 0.833209
vt 0.521666 0.850026
vt 0.583957 0.850026
vt 0.583957 0.833209
vt 0.583957 0.893979
vt 0.521666 0.893979
vt 0.521666 0.891576
vt 0.583957 0.891576
vt 0.521666 0.893979
vt 0.583957 0.893979
vt 0.583957 0.891576
vt 0.521666 0.891576
vt 0.583957 0.833209
vt 0.583957 0.850026
vt 0.521666 0.850026
vt 0.521666 0.833209
vt 0.573945 0.907681
vt 0.575058 0.907681
vt 0.573945 0.890865
vt 0.573945 0.949526
vt 0.573945 0.949526
vt 0.575058 0.949526
vt 0.553924 0.907681
vt 0.552811 0.907681
vt 0.553924 0.890865
vt 0.553924 0.949526
vt 0.552811 0.949526
vt 0.553924 0.949526
vt 0.573945 0.890865
vt 0.573945 0.907681
vt 0.552811 0.949526
vt 0.553924 0.949526
vt 0.573945 0.949526
vt 0.575058 0.949526
vt 0.575058 0.907681
vt 0.553924 0.890865
vt 0.552811 0.907681
vt 0.573945 0.949526
vt 0.553924 0.907681
vt 0.553924 0.949526
vt 0.573945 0.831915
vt 0.573945 0.831915
vt 0.553924 0.831915
vt 0.553924 0.831915
vt 0.086172 0.098210
vt 0.086581 0.151786
vt 0.091863 0.100282
vt 0.099193 0.101646
vt 0.096180 0.155715
vt 0.100901 0.101725
vt 0.072084 0.145021
vt 0.074883 0.101344
vt 0.084501 0.162236
vt 0.043267 0.101725
vt 0.047988 0.155715
vt 0.047988 0.155715
vt 0.043267 0.101725
vt 0.100901 0.101725
vt 0.096180 0.155715
vt 0.099193 0.101646
vt 0.044976 0.101646
vt 0.059667 0.162236
vt 0.059667 0.162236
vt 0.091863 0.100282
vt 0.086581 0.151786
vt 0.086172 0.098210
vt 0.057587 0.151786
vt 0.072084 0.145021
vt 0.057996 0.098210
vt 0.072084 0.094753
vt 0.072084 0.010409
vt 0.058183 0.010430
vt 0.057587 0.151786
vt 0.045727 0.010644
vt 0.043883 0.010534
vt 0.057996 0.098210
vt 0.052305 0.100282
vt 0.053320 0.010578
vt 0.058183 0.010430
vt 0.090849 0.010578
vt 0.085985 0.010430
vt 0.100286 0.010534
vt 0.098441 0.010644
vt 0.044976 0.101646
vt 0.043883 0.010534
vt 0.045727 0.010644
vt 0.052305 0.100282
vt 0.053320 0.010578
vt 0.098441 0.010644
vt 0.100286 0.010534
vt 0.085985 0.010430
vt 0.090849 0.010578
vt 0.072084 0.094753
vt 0.072084 0.010409
vt 0.084501 0.162236
vt 0.074883 0.101344
vt 0.711172 0.848210
vt 0.711581 0.901786
vt 0.716863 0.850282
vt 0.724193 0.851646
vt 0.721180 0.905715
vt 0.725901 0.851725
vt 0.697084 0.895021
vt 0.699883 0.851344
vt 0.709501 0.912236
vt 0.668267 0.851725
vt 0.672988 0.905715
vt 0.672988 0.905715
vt 0.668267 0.851725
vt 0.725901 0.851725
vt 0.721180 0.905715
vt 0.724193 0.851646
vt 0.669976 0.851646
vt 0.684667 0.912236
vt 0.684667 0.912236
vt 0.716863 0.850282
vt 0.711581 0.901786
vt 0.711172 0.848210
vt 0.684667 0.912236
vt 0.682587 0.901786
vt 0.697084 0.895021
vt 0.682996 0.848210
vt 0.697084 0.844753
vt 0.697084 0.760409
vt 0.683183 0.760430
vt 0.682587 0.901786
vt 0.670727 0.760644
vt 0.668883 0.760534
vt 0.682996 0.848210
vt 0.677305 0.850282
vt 0.678320 0.760578
vt 0.683183 0.760430
vt 0.715849 0.760578
vt 0.710985 0.760430
vt 0.725286 0.760534
vt 0.723441 0.760644
vt 0.669976 0.851646
vt 0.668267 0.851725
vt 0.668883 0.760534
vt 0.670727 0.760644
vt 0.677305 0.850282
vt 0.678320 0.760578
vt 0.723441 0.760644
vt 0.725286 0.760534
vt 0.710985 0.760430
vt 0.715849 0.760578
vt 0.697084 0.844753
vt 0.697084 0.760409
vt 0.668883 0.760534
vt 0.725901 0.851725
vt 0.725286 0.760534
vt 0.721180 0.905715
vt 0.672988 0.905715
vt 0.709501 0.912236
vt 0.709501 0.912236
vt 0.699883 0.851344
vt 0.699883 0.851344
vt 0.684667 0.912236
vt 0.699883 0.851344
vt 0.709501 0.912236
vt 0.721180 0.905715
vt 0.725901 0.851725
vt 0.725286 0.760534
vt 0.668267 0.851725
vt 0.668883 0.760534
vt 0.672988 0.905715
vt 0.557009 0.842150
vt 0.553924 0.929084
vt 0.573945 0.929084
vt 0.570860 0.842150
vt 0.573945 0.929084
vt 0.553924 0.929084
vt 0.557009 0.842150
vt 0.570860 0.842150
vn 0.0000 -1.0000 -0.0000
vn -0.9923 -0.1240 0.0000
vn 0.9923 0.1240 0.0000
vn 0.0000 -0.1240 0.9923
vn 0.0000 0.1240 -0.9923
vn 0.9923 -0.1240 0.0000
vn -0.9923 0.1240 0.0000
vn 0.6963 0.1741 -0.6963
vn -0.6963 0.1741 -0.6963
vn 0.0000 -0.1240 -0.9923
vn 0.0000 0.1240 0.9923
vn 0.6963 0.1741 0.6963
vn -0.6963 0.1741 0.6963
vn 0.0000 0.0000 -1.0000
vn 0.0000 1.0000 0.0000
vn 0.0000 0.0000 1.0000
vn 0.0000 0.7071 0.7071
vn 0.0000 0.7071 -0.7071
vn -0.6037 0.1127 0.7892
vn -0.4757 0.6220 -0.6220
vn 0.6037 0.1127 -0.7892
vn 0.4757 0.6220 -0.6220
vn 0.6076 0.7943 0.0000
vn -0.6076 0.7943 0.0000
vn -1.0000 -0.0000 0.0000
vn 1.0000 -0.0000 0.0000
vn -0.4757 0.6220 0.6220
vn 0.6037 0.1127 0.7892
vn 0.4757 0.6220 0.6220
vn -0.6037 0.1127 -0.7892
vn -0.0170 0.2140 -0.9767
vn 0.0705 0.8046 -0.5896
vn 0.3520 0.2940 -0.8886
vn 0.8449 0.2918 -0.4484
vn 0.4952 0.8464 -0.1958
vn 0.9727 0.2319 0.0068
vn 0.0000 0.8099 -0.5866
vn 0.0000 0.9982 -0.0599
vn -0.0216 0.9962 -0.0839
vn -0.9727 0.2319 -0.0068
vn -0.4952 0.8464 0.1958
vn -0.4952 0.8464 -0.1958
vn -0.9727 0.2319 0.0068
vn 0.9727 0.2319 -0.0068
vn 0.4952 0.8464 0.1958
vn 0.8449 0.2918 0.4484
vn -0.8449 0.2918 -0.4484
vn 0.0216 0.9962 0.0839
vn 0.0216 0.9962 -0.0839
vn 0.3520 0.2940 0.8886
vn 0.0705 0.8046 0.5896
vn -0.0170 0.2140 0.9767
vn -0.0705 0.8046 0.5896
vn -0.0000 0.8099 0.5866
vn 0.0170 0.2140 -0.9767
vn 0.0000 0.2095 -0.9778
vn 0.0000 -0.0482 -0.9988
vn 0.0088 -0.0428 -0.9990
vn -0.0705 0.8046 -0.5896
vn -0.9014 -0.1121 -0.4182
vn -0.9961 -0.0883 0.0076
vn 0.0170 0.2140 0.9767
vn -0.3520 0.2940 0.8886
vn -0.3139 -0.0769 0.9463
vn 0.0088 -0.0428 0.9990
vn 0.3139 -0.0769 -0.9463
vn -0.0088 -0.0428 -0.9990
vn 0.9961 -0.0883 0.0076
vn 0.9014 -0.1121 -0.4182
vn -0.8449 0.2918 0.4484
vn -0.9961 -0.0883 -0.0076
vn -0.9014 -0.1121 0.4182
vn -0.3520 0.2940 -0.8886
vn -0.3139 -0.0769 -0.9463
vn 0.9014 -0.1121 0.4182
vn 0.9961 -0.0883 -0.0076
vn -0.0088 -0.0428 0.9990
vn 0.3139 -0.0769 0.9463
vn -0.0000 0.2095 0.9778
vn 0.0000 -0.0482 0.9988
vn -0.0216 0.9962 0.0839
vn -0.0000 0.9982 0.0599
vn -0.1271 0.5539 -0.8229
vn -0.0221 0.9131 -0.4071
vn 0.1975 0.6147 -0.7637
vn 0.7354 0.5666 -0.3716
vn 0.3114 0.9430 -0.1176
vn 0.8655 0.5009 -0.0010
vn -0.0551 0.9201 -0.3877
vn -0.0063 0.9996 -0.0281
vn -0.0173 0.9991 -0.0391
vn -0.8504 0.4910 0.1893
vn -0.3448 0.9355 0.0765
vn -0.3443 0.9385 -0.0249
vn -0.8463 0.4927 0.2026
vn 0.8463 0.4927 -0.2026
vn 0.3443 0.9385 0.0249
vn 0.7936 0.5685 0.2170
vn -0.7936 0.5685 -0.2170
vn 0.0084 1.0000 -0.0005
vn 0.0021 0.9992 -0.0389
vn 0.4038 0.6230 0.6699
vn 0.0902 0.9207 0.3796
vn 0.0917 0.5787 0.8104
vn 0.0173 0.9991 0.0391
vn 0.0221 0.9131 0.4071
vn 0.0551 0.9201 0.3877
vn -0.0917 0.5787 -0.8104
vn -0.1078 0.5698 -0.8147
vn -0.1190 0.3687 -0.9219
vn -0.1109 0.3843 -0.9165
vn -0.0902 0.9207 -0.3796
vn -0.9321 0.2242 -0.2844
vn -0.9640 0.1398 0.2264
vn 0.1271 0.5539 0.8229
vn -0.1975 0.6147 0.7637
vn -0.1877 0.3223 0.9278
vn 0.1316 0.3556 0.9253
vn 0.1877 0.3223 -0.9278
vn -0.1316 0.3556 -0.9253
vn 0.9909 0.1325 0.0239
vn 0.9887 0.1264 0.0810
vn -0.7354 0.5666 0.3716
vn -0.8655 0.5009 0.0010
vn -0.9909 0.1325 -0.0239
vn -0.9887 0.1263 -0.0810
vn -0.4038 0.6230 -0.6699
vn -0.4084 0.3469 -0.8443
vn 0.9321 0.2242 0.2844
vn 0.9639 0.1399 -0.2264
vn 0.1109 0.3843 0.9165
vn 0.4084 0.3469 0.8443
vn 0.1078 0.5698 0.8147
vn 0.1190 0.3687 0.9219
vn -0.9656 0.1382 0.2204
vn 0.8503 0.4910 -0.1893
vn 0.9656 0.1382 -0.2204
vn 0.3448 0.9355 -0.0765
vn -0.3114 0.9430 0.1176
vn -0.0084 1.0000 0.0005
vn -0.0021 0.9992 0.0389
vn 0.0063 0.9996 0.0281
vn 0.0008 1.0000 0.0003
vn 0.0101 0.9999 -0.0014
vn -0.5045 0.2542 0.8252
vn 0.5045 0.2542 -0.8252
vn -0.0008 1.0000 -0.0003
vn -0.0101 0.9999 0.0014
vn 0.3439 0.9380 -0.0426
vn 0.8616 0.4948 -0.1131
vn 0.9828 0.1403 -0.1197
vn -0.8616 0.4947 0.1131
vn -0.9828 0.1403 0.1197
vn -0.3439 0.9380 0.0426
usemtl texture
s 1
f 3/1/1 13/2/1 14/3/1 5/4/1
s 2
f 1/5/2 2/6/2 4/7/2 3/8/2
s 3
f 14/9/3 15/10/3 6/11/3 5/12/3
s 4
f 5/12/4 6/11/4 2/6/4 1/5/4
s 5
f 3/8/5 4/7/5 16/13/5 13/14/5
s 6
f 7/15/1 11/16/1 9/17/1
s 7
f 18/18/5 19/19/5 12/20/5 11/21/5
s 8
f 11/21/6 12/20/6 10/22/6 9/23/6
s 9
f 9/23/4 10/22/4 8/24/4 7/25/4
s 10
f 7/25/7 8/24/7 20/26/7 17/27/7
s 11
f 15/28/8 14/29/8 13/30/8 16/31/8
s 12
f 19/32/9 18/33/9 17/34/9 20/35/9
s 13
f 1/36/1 3/1/1 5/4/1
s 14
f 17/37/1 18/38/1 11/16/1 7/15/1
s 15
f 21/39/2 22/40/2 24/41/2 23/42/2
s 16
f 23/42/10 24/41/10 26/43/10 25/44/10
s 17
f 34/45/11 35/46/11 22/40/11 21/39/11
s 18
f 25/44/3 26/43/3 36/47/3 33/48/3
s 19
f 27/49/1 31/50/1 29/51/1
s 20
f 29/52/11 30/53/11 40/54/11 37/55/11
s 21
f 27/56/10 28/57/10 32/58/10 31/59/10
s 22
f 31/59/6 32/58/6 30/53/6 29/52/6
s 23
f 38/60/7 39/61/7 28/57/7 27/56/7
s 24
f 25/62/1 33/63/1 34/64/1 21/65/1
s 25
f 35/66/12 34/67/12 33/68/12 36/69/12
s 26
f 37/70/13 40/71/13 39/72/13 38/73/13
s 27
f 23/74/1 25/62/1 21/65/1
s 28
f 38/75/1 27/49/1 29/51/1 37/76/1
s 29
f 42/77/14 43/78/14 46/79/14 45/80/14
s 30
f 46/81/15 43/82/15 54/83/15 55/84/15
s 31
f 42/85/1 45/86/1 44/87/1 41/88/1
s 32
f 60/89/15 57/90/15 48/91/15 51/92/15
s 33
f 50/93/16 51/94/16 48/95/16 47/96/16
s 34
f 49/97/1 52/98/1 50/99/1 47/100/1
s 35
f 49/101/14 58/102/14 59/103/14 52/104/14
s 36
f 55/105/17 54/106/17 53/107/17 56/108/17
s 37
f 57/109/18 60/110/18 59/111/18 58/112/18
s 38
f 44/113/16 56/114/16 53/115/16 41/116/16
s 39
f 70/117/19 68/118/19 71/119/19
s 40
f 198/120/20 63/121/20 62/122/20
s 41
f 65/123/21 66/124/21 67/125/21
s 42
f 197/126/22 66/127/22 65/128/22
s 43
f 64/129/14 63/130/14 65/123/14 67/125/14
s 44
f 73/131/23 66/127/23 197/126/23 200/132/23
s 45
f 197/126/18 65/128/18 63/121/18 198/120/18
s 46
f 199/133/24 198/120/24 62/122/24 68/134/24
s 47
f 71/119/25 68/118/25 62/135/25 64/129/25
s 48
f 74/136/26 67/125/26 66/124/26 73/137/26
s 49
f 68/134/27 70/138/27 199/133/27
s 50
f 73/137/28 72/139/28 74/136/28
s 51
f 72/140/29 73/131/29 200/132/29
s 52
f 74/136/16 72/139/16 70/117/16 71/119/16
s 53
f 199/133/17 70/138/17 72/140/17 200/132/17
s 54
f 71/141/1 64/142/1 67/143/1 74/144/1
s 55
f 62/135/30 63/130/30 64/129/30
s 56
f 101/145/31 80/146/32 121/147/33
s 57
f 122/148/34 77/149/35 88/150/36
s 58
f 103/151/37 105/152/38 84/153/39
s 59
f 92/154/40 75/155/41 76/156/42 93/157/43
s 60
f 89/158/44 78/159/45 125/160/46
s 61
f 93/157/43 76/156/42 117/161/47
s 62
f 75/155/41 85/162/48 83/163/49 76/156/42
s 63
f 83/163/49 105/152/38 103/151/37
s 64
f 126/164/50 81/165/51 96/166/52
s 65
f 85/162/48 82/167/53 104/168/54
s 66
f 100/169/55 107/170/56 108/171/57 99/172/58
s 67
f 100/169/55 79/173/59 103/151/37 107/170/56
s 68
f 93/157/43 117/161/47 115/174/60 94/175/61
s 69
f 103/151/37 80/146/32 101/145/31 107/170/56
s 70
f 97/176/62 113/177/63 111/178/64 98/179/65
s 71
f 101/145/31 121/147/33 119/180/66 102/181/67
s 72
f 122/148/34 88/150/36 87/182/68 120/183/69
s 73
f 114/184/70 92/154/40 91/185/71 112/186/72
s 74
f 118/187/73 100/169/55 99/172/58 116/188/74
s 75
f 89/158/44 125/160/46 123/189/75 90/190/76
s 76
f 126/164/50 96/166/52 95/191/77 124/192/78
s 77
f 96/166/52 109/193/79 110/194/80 95/191/77
s 78
f 92/154/40 93/157/43 94/175/61 91/185/71
s 79
f 88/150/36 89/158/44 90/190/76 87/182/68
s 80
f 88/150/36 77/149/35 78/159/45 89/158/44
s 81
f 96/166/52 81/165/51 104/168/54 109/193/79
s 82
f 114/184/70 75/155/41 92/154/40
s 83
f 118/187/73 79/173/59 100/169/55
s 84
f 77/149/35 84/153/39 86/195/81 78/159/45
s 85
f 97/176/62 98/179/65 110/194/80 109/193/79
s 86
f 101/145/31 102/181/67 108/171/57 107/170/56
s 87
f 86/195/81 106/196/82 104/168/54
s 88
f 105/152/38 83/163/49 85/162/48 106/196/82
s 89
f 84/153/39 105/152/38 106/196/82 86/195/81
s 90
f 104/168/54 82/167/53 97/176/62 109/193/79
s 91
f 97/176/62 82/167/53 113/177/63
s 92
f 75/155/41 82/167/53 85/162/48
s 93
f 79/173/59 76/156/42 83/163/49
s 94
f 81/165/51 78/159/45 86/195/81
s 95
f 77/149/35 80/146/32 84/153/39
s 96
f 115/174/60 117/161/47 118/187/73 116/188/74
s 97
f 123/189/75 125/160/46 126/164/50 124/192/78
s 98
f 111/178/64 113/177/63 114/184/70 112/186/72
s 99
f 119/180/66 121/147/33 122/148/34 120/183/69
s 100
f 113/177/63 82/167/53 75/155/41 114/184/70
s 101
f 117/161/47 76/156/42 79/173/59 118/187/73
s 102
f 121/147/33 80/146/32 77/149/35 122/148/34
s 103
f 125/160/46 78/159/45 81/165/51 126/164/50
s 104
f 81/165/51 86/195/81 104/168/54
s 105
f 106/196/82 85/162/48 104/168/54
s 106
f 79/173/59 83/163/49 103/151/37
s 107
f 80/146/32 103/151/37 84/153/39
s 108
f 153/197/83 132/198/84 173/199/85
s 109
f 174/200/86 129/201/87 140/202/88
s 110
f 155/203/89 157/204/90 136/205/91
s 111
f 188/206/92 180/207/93 128/208/94 145/209/95
s 112
f 141/210/96 130/211/97 177/212/98
s 113
f 145/209/95 128/208/94 169/213/99
s 114
f 180/207/93 185/214/100 135/215/101 128/208/94
s 115
f 135/215/101 157/204/90 155/203/89
s 116
f 178/216/102 133/217/103 148/218/104
s 117
f 137/219/105 134/220/106 156/221/107
s 118
f 152/222/108 159/223/109 160/224/110 151/225/111
s 119
f 152/222/108 131/226/112 155/203/89 159/223/109
s 120
f 145/209/95 169/213/99 167/227/113 146/228/114
s 121
f 155/203/89 132/198/84 153/197/83 159/223/109
s 122
f 149/229/115 165/230/116 163/231/117 150/232/118
s 123
f 153/197/83 173/199/85 171/233/119 154/234/120
s 124
f 174/200/86 140/202/88 139/235/121 172/236/122
s 125
f 166/237/123 144/238/124 143/239/125 164/240/126
s 126
f 170/241/127 152/222/108 151/225/111 168/242/128
s 127
f 141/210/96 177/212/98 175/243/129 142/244/130
s 128
f 178/216/102 148/218/104 147/245/131 176/246/132
s 129
f 148/218/104 161/247/133 162/248/134 147/245/131
s 130
f 188/206/92 145/209/95 146/228/114 190/249/135
s 131
f 192/250/136 141/210/96 142/244/130 194/251/137
s 132
f 192/250/136 182/252/138 130/211/97 141/210/96
s 133
f 148/218/104 133/217/103 156/221/107 161/247/133
s 134
f 166/237/123 127/253/139 144/238/124
s 135
f 170/241/127 131/226/112 152/222/108
s 136
f 182/252/138 184/254/140 138/255/141 130/211/97
s 137
f 149/229/115 150/232/118 162/248/134 161/247/133
s 138
f 153/197/83 154/234/120 160/224/110 159/223/109
s 139
f 138/255/141 158/256/142 156/221/107
s 140
f 196/257/143 186/258/144 137/219/105 158/256/142
s 141
f 184/254/140 196/257/143 158/256/142 138/255/141
s 142
f 156/221/107 134/220/106 149/229/115 161/247/133
s 143
f 149/229/115 134/220/106 165/230/116
s 144
f 127/253/139 134/220/106 137/219/105
s 145
f 131/226/112 128/208/94 135/215/101
s 146
f 133/217/103 130/211/97 138/255/141
s 147
f 129/201/87 132/198/84 136/205/91
s 148
f 167/227/113 169/213/99 170/241/127 168/242/128
s 149
f 175/243/129 177/212/98 178/216/102 176/246/132
s 150
f 163/231/117 165/230/116 166/237/123 164/240/145
s 151
f 171/233/119 173/199/85 174/200/86 172/236/146
s 152
f 165/230/116 134/220/106 127/253/139 166/237/123
s 153
f 169/213/99 128/208/94 131/226/112 170/241/127
s 154
f 173/199/85 132/198/84 129/201/87 174/200/86
s 155
f 177/212/98 130/211/97 133/217/103 178/216/102
s 156
f 133/217/103 138/255/141 156/221/107
s 157
f 158/256/142 137/219/105 156/221/107
s 158
f 131/226/112 135/215/101 155/203/89
s 159
f 132/198/84 155/203/89 136/205/91
s 160
f 136/205/91 157/204/90 195/259/147 183/260/148
s 161
f 183/260/148 195/259/147 196/257/143 184/254/140
s 162
f 157/204/90 135/215/101 185/214/100 195/259/147
s 163
f 195/259/147 185/214/100 186/258/144 196/257/143
s 164
f 129/201/87 136/205/91 183/260/148 181/261/149
s 165
f 181/261/149 183/260/148 184/254/140 182/252/138
s 166
f 140/202/88 129/201/87 181/261/149 191/262/150
s 167
f 191/262/150 181/261/149 182/252/138 192/250/136
s 168
f 140/202/88 191/262/150 193/263/151 139/235/121
s 169
f 191/262/150 192/250/136 194/251/137 193/263/151
s 170
f 144/238/124 187/264/152 189/265/153 143/239/125
s 171
f 187/264/152 188/206/92 190/249/135 189/265/153
s 172
f 127/253/139 137/219/105 186/258/144 179/266/154
s 173
f 179/266/154 186/258/144 185/214/100 180/207/93
s 174
f 144/238/124 127/253/139 179/266/154 187/264/152
s 175
f 187/264/152 179/266/154 180/207/93 188/206/92
s 176
f 61/267/15 197/268/15 198/269/15
s 177
f 69/270/15 199/271/15 200/272/15
s 178
f 61/267/15 69/273/15 200/272/15 197/268/15
s 179
f 69/270/15 61/274/15 198/269/15 199/271/15
