# Blender v2.80 (sub 75) OBJ File: 'Dungeon_Remastered_Export1.0.blend'
# www.blender.org
mtllib bottle_A_labeled_green.mtl
o bottle_A_labeled_green_Cube.14526
v -0.100467 0.468007 0.100467
v -0.100467 0.468007 -0.100467
v 0.100467 0.468007 0.100467
v 0.100467 0.468007 -0.100467
v -0.138218 0.468007 0.032911
v -0.032911 0.468007 -0.138217
v 0.138218 0.468007 -0.032910
v 0.032911 0.468007 0.138218
v -0.000000 0.000001 0.000000
v -0.000000 0.677458 -0.075761
v 0.075761 0.677458 0.000000
v -0.075761 0.677458 0.000000
v -0.000000 0.677458 0.075762
v -0.030630 0.839169 -0.094805
v -0.000000 0.792623 -0.071786
v -0.071786 0.792623 0.000000
v -0.000000 0.792623 0.071786
v 0.071786 0.792623 0.000000
v -0.094806 0.839169 -0.030630
v -0.094806 0.839169 0.030630
v -0.030630 0.839169 0.094806
v 0.030630 0.839169 0.094806
v 0.094806 0.839169 0.030630
v 0.094806 0.839169 -0.030630
v 0.030630 0.839169 -0.094805
v -0.000000 0.874709 0.000000
v 0.078265 0.885715 -0.025286
v 0.025286 0.885715 -0.078265
v 0.078265 0.885715 0.025286
v 0.025286 0.885715 0.078265
v -0.025286 0.885715 0.078265
v -0.078265 0.885715 0.025286
v -0.078265 0.885715 -0.025286
v -0.025286 0.885715 -0.078265
v 0.035522 0.743299 -0.109947
v 0.030541 0.784509 -0.094529
v 0.094529 0.784509 -0.030540
v 0.109947 0.743299 -0.035522
v 0.109947 0.743299 0.035522
v 0.094529 0.784509 0.030541
v 0.030541 0.784509 0.094529
v 0.035522 0.743299 0.109947
v -0.035522 0.743299 0.109947
v -0.030541 0.784509 0.094529
v -0.094529 0.784509 0.030541
v -0.109947 0.743299 0.035522
v -0.109947 0.743299 -0.035522
v -0.094529 0.784509 -0.030540
v -0.030541 0.784509 -0.094529
v -0.035522 0.743299 -0.109947
v -0.095853 0.000001 0.095854
v -0.095853 0.000001 -0.095853
v 0.095853 0.000001 0.095854
v 0.095853 0.000001 -0.095853
v -0.131873 0.000001 0.031400
v -0.031400 0.000001 -0.131873
v 0.131873 0.000001 -0.031400
v 0.031400 0.000001 0.131874
v -0.136159 0.096789 0.136159
v -0.131198 0.379939 0.131198
v -0.131198 0.379939 -0.131198
v -0.136159 0.096789 -0.136158
v 0.131198 0.379939 -0.131198
v 0.136159 0.096789 -0.136158
v 0.131198 0.379939 0.131198
v 0.136159 0.096789 0.136159
v -0.177521 0.380996 0.035265
v -0.184205 0.096275 0.035419
v -0.035265 0.380996 -0.177521
v -0.035419 0.096275 -0.184205
v 0.177521 0.380996 -0.035265
v 0.184205 0.096275 -0.035419
v 0.035265 0.380996 0.177521
v 0.035419 0.096275 0.184205
vt 0.037589 0.415183
vt 0.044036 0.415183
vt 0.038788 0.433758
vt 0.030877 0.433535
vt 0.079077 0.251970
vt 0.071420 0.251970
vt 0.082214 0.251970
vt 0.092679 0.382534
vt 0.085073 0.420761
vt 0.080474 0.262127
vt 0.083848 0.262127
vt 0.083611 0.262127
vt 0.080474 0.262127
vt 0.085073 0.382844
vt 0.092627 0.382534
vt 0.038774 0.262127
vt 0.041911 0.262127
vt 0.037312 0.382844
vt 0.029758 0.382534
vt 0.083597 0.491824
vt 0.078349 0.491824
vt 0.066813 0.415183
vt 0.067215 0.433535
vt 0.043308 0.251970
vt 0.067222 0.251970
vt 0.041911 0.262127
vt 0.038536 0.262127
vt 0.029706 0.382534
vt 0.037312 0.382844
vt 0.043308 0.251970
vt 0.055162 0.251970
vt 0.050964 0.251970
vt 0.067484 0.262127
vt 0.079339 0.262127
vt 0.084828 0.420761
vt 0.067443 0.382534
vt 0.083597 0.459991
vt 0.078349 0.491611
vt 0.084796 0.407371
vt 0.091508 0.430792
vt 0.079077 0.251970
vt 0.079339 0.262127
vt 0.056507 0.262127
vt 0.055291 0.382534
vt 0.084828 0.382844
vt 0.067093 0.382534
vt 0.037557 0.382844
vt 0.043046 0.262127
vt 0.065878 0.262127
vt 0.055572 0.415183
vt 0.055170 0.433535
vt 0.040170 0.251970
vt 0.063978 0.259546
vt 0.055572 0.399558
vt 0.055873 0.397143
vt 0.059474 0.397143
vt 0.058929 0.371854
vt 0.054187 0.371854
vt 0.066512 0.415005
vt 0.062911 0.415005
vt 0.063456 0.395375
vt 0.068198 0.395375
vt 0.044036 0.399558
vt 0.037589 0.399558
vt 0.052569 0.259546
vt 0.044036 0.368308
vt 0.038788 0.423031
vt 0.044036 0.383933
vt 0.058406 0.259546
vt 0.058255 0.302411
vt 0.052100 0.299958
vt 0.059474 0.397143
vt 0.058929 0.371854
vt 0.069815 0.259546
vt 0.066813 0.399558
vt 0.063978 0.259546
vt 0.064130 0.323850
vt 0.069027 0.415005
vt 0.069649 0.395375
vt 0.069649 0.371854
vt 0.144407 0.572086
vt 0.148008 0.572086
vt 0.148008 0.572086
vt 0.144407 0.572086
vt 0.053358 0.397143
vt 0.052735 0.371854
vt 0.052735 0.371854
vt 0.052100 0.299958
vt 0.070285 0.331208
vt 0.070285 0.299958
vt 0.058406 0.259546
vt 0.058255 0.299958
vt 0.062911 0.397143
vt 0.063456 0.371854
vt 0.056959 0.397143
vt 0.057477 0.371854
vt 0.160076 0.517948
vt 0.160076 0.517948
vt 0.160076 0.614101
vt 0.064130 0.299958
vt 0.153960 0.614101
vt 0.153960 0.614101
vt 0.150523 0.517948
vt 0.144407 0.517948
vt 0.144407 0.517948
vt 0.144407 0.517948
vt 0.150523 0.517948
vt 0.150523 0.517948
vt 0.153960 0.517949
vt 0.156475 0.517949
vt 0.156475 0.517949
vt 0.157561 0.614101
vt 0.157561 0.614101
vt 0.148008 0.517948
vt 0.148008 0.517948
vt 0.146922 0.517948
vt 0.146922 0.517948
vt 0.153960 0.668239
vt 0.157561 0.668239
vt 0.157561 0.668239
vt 0.153960 0.668239
vt 0.160076 0.572086
vt 0.156475 0.572086
vt 0.156475 0.572086
vt 0.160076 0.572086
vt 0.153960 0.572086
vt 0.150523 0.572086
vt 0.150523 0.572086
vt 0.153960 0.572086
vt 0.144407 0.572086
vt 0.144407 0.572086
vt 0.150523 0.572086
vt 0.150523 0.572086
vt 0.160076 0.668239
vt 0.160076 0.668239
vt 0.146922 0.572086
vt 0.146922 0.572086
vt 0.159189 0.571430
vt 0.160076 0.666849
vt 0.156475 0.666849
vt 0.157235 0.571430
vt 0.157561 0.701436
vt 0.153546 0.571430
vt 0.153960 0.701436
vt 0.148588 0.571430
vt 0.148008 0.666849
vt 0.145294 0.571430
vt 0.144407 0.666849
vt 0.147248 0.571430
vt 0.146922 0.666849
vt 0.150937 0.571430
vt 0.150523 0.666849
vt 0.155895 0.571430
vt 0.065426 0.397143
vt 0.069027 0.397143
vt 0.064907 0.371854
vt 0.064978 0.330093
vt 0.069720 0.330093
vt 0.070285 0.323986
vt 0.064130 0.323986
vt 0.069720 0.361343
vt 0.064978 0.361343
vt 0.064130 0.347878
vt 0.070285 0.355236
vt 0.057406 0.330093
vt 0.052664 0.330093
vt 0.052100 0.323986
vt 0.058255 0.326439
vt 0.052664 0.330093
vt 0.057406 0.330093
vt 0.058255 0.323986
vt 0.052100 0.323986
vt 0.058929 0.330093
vt 0.063456 0.330093
vt 0.070499 0.333958
vt 0.070499 0.357479
vt 0.051885 0.330093
vt 0.051885 0.330093
vt 0.063456 0.357479
vt 0.058929 0.333958
vt 0.054901 0.262127
vt 0.043046 0.262127
vt 0.037557 0.382844
vt 0.054941 0.382534
vt 0.035484 0.416089
vt 0.027809 0.416089
vt 0.027566 0.416089
vt 0.035532 0.416089
vt 0.037250 0.416089
vt 0.053742 0.416089
vt 0.056098 0.416089
vt 0.084510 0.416089
vt 0.086901 0.416089
vt 0.094576 0.416089
vt 0.094818 0.417854
vt 0.086853 0.461629
vt 0.085135 0.658951
vt 0.068643 0.616771
vt 0.067443 0.580120
vt 0.084828 0.618347
vt 0.037557 0.554502
vt 0.067093 0.554193
vt 0.066286 0.587747
vt 0.037875 0.587747
vn -0.9221 0.3698 0.1136
vn -0.7191 0.3782 -0.5830
vn -0.7487 0.2195 -0.6256
vn -0.9714 0.2199 0.0897
vn 0.0000 -1.0000 -0.0000
vn 0.9694 -0.2290 -0.0885
vn 0.7456 -0.2287 0.6259
vn 0.6804 -0.4949 0.5405
vn 0.8677 -0.4893 -0.0880
vn 0.5405 -0.4949 -0.6804
vn 0.6259 -0.2287 -0.7456
vn -0.8677 -0.4893 0.0880
vn -0.5405 -0.4949 0.6804
vn -0.6259 -0.2287 0.7456
vn -0.9694 -0.2290 0.0885
vn 0.7487 0.2195 0.6256
vn 0.7191 0.3782 0.5830
vn 0.1136 0.3698 0.9221
vn 0.0897 0.2199 0.9714
vn -0.6804 -0.4949 -0.5405
vn -0.7456 -0.2287 -0.6259
vn 0.0880 -0.4893 0.8677
vn 0.0885 -0.2290 0.9694
vn 0.6256 0.2195 -0.7487
vn 0.5830 0.3782 -0.7191
vn 0.9221 0.3698 -0.1136
vn 0.9714 0.2199 -0.0897
vn -0.0880 -0.4893 -0.8677
vn -0.0885 -0.2290 -0.9694
vn -0.1136 0.3698 -0.9221
vn -0.0897 0.2199 -0.9714
vn 0.0025 0.4462 -0.8949
vn -0.2238 0.9746 -0.0000
vn -0.0000 0.9746 -0.2238
vn -0.1077 0.9733 -0.2026
vn -0.2026 0.9733 -0.1077
vn 0.2238 0.9746 0.0000
vn -0.0000 0.9746 0.2238
vn 0.1077 0.9733 0.2026
vn 0.2026 0.9733 0.1077
vn -0.8949 0.4462 -0.0025
vn -0.5830 0.3782 0.7191
vn -0.6256 0.2195 0.7487
vn -0.0025 0.4462 0.8949
vn -0.7464 -0.6655 0.0000
vn 0.0000 -0.6655 0.7464
vn -0.3503 -0.5735 0.7405
vn -0.7405 -0.5735 0.3503
vn -0.1077 0.9733 0.2026
vn 0.8949 0.4462 0.0025
vn 0.3503 -0.5735 0.7405
vn 0.2026 0.9733 -0.1077
vn -0.8679 0.3490 0.3534
vn -0.3534 0.3490 0.8679
vn -0.3654 0.3487 0.8631
vn -0.8631 0.3487 0.3654
vn -0.2026 0.9733 0.1077
vn -0.7405 -0.5735 -0.3503
vn 0.7464 -0.6655 0.0000
vn 0.7405 -0.5735 0.3503
vn 0.7405 -0.5735 -0.3503
vn -0.0000 -0.6655 -0.7464
vn -0.3503 -0.5735 -0.7405
vn 0.1077 0.9733 -0.2026
vn 0.7400 -0.6726 -0.0000
vn 0.7223 -0.5922 -0.3572
vn 0.7223 -0.5922 0.3572
vn 0.3503 -0.5735 -0.7405
vn 0.0000 -0.6726 0.7400
vn 0.3572 -0.5922 0.7223
vn -0.3572 -0.5922 0.7223
vn -0.7400 -0.6726 0.0000
vn -0.7223 -0.5922 0.3572
vn -0.7223 -0.5922 -0.3571
vn -0.0000 -0.6726 -0.7400
vn -0.3572 -0.5922 -0.7223
vn 0.3572 -0.5922 -0.7223
vn 0.3534 0.3490 0.8679
vn 0.8679 0.3490 0.3534
vn 0.8631 0.3487 0.3654
vn 0.3654 0.3487 0.8631
vn 0.8679 0.3490 -0.3534
vn 0.3534 0.3490 -0.8679
vn 0.3654 0.3487 -0.8631
vn 0.8631 0.3487 -0.3654
vn -0.3534 0.3490 -0.8679
vn -0.3654 0.3487 -0.8631
vn -0.8679 0.3490 -0.3534
vn -0.8631 0.3487 -0.3654
vn 0.0000 1.0000 -0.0000
vn -0.1235 0.9911 0.0491
vn -0.0491 0.9911 0.1235
vn -0.1235 0.9911 -0.0491
vn -0.0491 0.9911 -0.1235
vn 0.0491 0.9911 -0.1235
vn 0.1235 0.9911 -0.0491
vn 0.1235 0.9911 0.0491
vn 0.0491 0.9911 0.1235
vn 0.3634 0.3647 -0.8573
vn 0.8573 0.3647 -0.3634
vn 0.8624 0.3650 -0.3508
vn 0.3508 0.3650 -0.8624
vn 0.8573 0.3647 0.3634
vn 0.3634 0.3647 0.8573
vn 0.3508 0.3650 0.8624
vn 0.8624 0.3650 0.3508
vn -0.3634 0.3647 0.8573
vn -0.8573 0.3647 0.3634
vn -0.8624 0.3650 0.3508
vn -0.3508 0.3650 0.8624
vn -0.8573 0.3647 -0.3634
vn -0.3634 0.3647 -0.8573
vn -0.3508 0.3650 -0.8624
vn -0.8624 0.3650 -0.3508
usemtl texture
s 1
f 5/1/1 2/2/2 61/3/3 67/4/4
s 2
f 53/5/5 9/6/5 57/7/5
s 3
f 72/8/6 66/9/7 53/10/8 57/11/9
s 4
f 57/12/9 54/13/10 64/14/11 72/15/6
s 5
f 55/16/12 51/17/13 59/18/14 68/19/15
s 6
f 65/20/16 3/21/17 8/22/18 73/23/19
s 7
f 51/24/5 9/6/5 58/25/5
s 8
f 52/26/20 55/27/12 68/28/15 62/29/21
s 9
f 52/30/5 56/31/5 9/32/5
s 10
f 58/33/22 53/34/8 66/35/7 74/36/23
s 11
f 63/37/24 4/38/25 7/39/26 71/40/27
s 12
f 54/41/5 9/32/5 56/31/5
s 13
f 54/42/10 56/43/28 70/44/29 64/45/11
s 14
f 54/41/5 57/7/5 9/6/5
s 15
f 74/46/23 59/47/14 51/48/13 58/49/22
s 16
f 6/50/30 4/38/25 63/37/24 69/51/31
s 17
f 52/30/5 9/32/5 55/52/5
s 18
f 58/25/5 9/6/5 53/5/5
s 19
f 10/53/32 4/38/25 6/54/30
s 20
f 7/39/26 3/21/17 65/20/16 71/40/27
s 21
f 61/3/3 2/2/2 6/50/30 69/51/31
s 22
f 16/55/33 15/56/34 49/57/35 48/58/36
s 23
f 18/59/37 17/60/38 41/61/39 40/62/40
s 24
f 2/63/2 5/64/1 12/65/41
s 25
f 5/64/1 1/66/42 12/65/41
s 26
f 60/67/43 1/68/42 5/1/1 67/4/4
s 27
f 13/69/44 12/65/41 1/66/42
s 28
f 12/65/45 13/69/46 43/70/47 46/71/48
s 29
f 17/72/38 44/73/49 41/61/39
s 30
f 11/74/50 3/21/17 7/39/26
s 31
f 8/75/18 13/69/44 1/66/42
s 32
f 13/76/46 42/77/51 43/70/47
s 33
f 18/78/37 40/79/40 37/80/52
s 34
f 20/81/53 21/82/54 31/83/55 32/84/56
s 35
f 16/85/33 48/86/36 45/87/57
s 36
f 12/65/45 46/71/48 47/88/58
s 37
f 42/77/51 13/76/46 11/74/59 39/89/60
s 38
f 11/74/59 38/90/61 39/89/60
s 39
f 10/91/62 12/65/45 47/88/58 50/92/63
s 40
f 8/75/18 3/21/17 13/76/44
s 41
f 11/74/50 13/76/44 3/21/17
s 42
f 7/39/26 4/38/25 11/74/50
s 43
f 10/53/32 11/74/50 4/38/25
s 44
f 6/54/30 2/63/2 10/91/32
s 45
f 12/65/41 10/91/32 2/63/2
s 46
f 15/93/34 36/94/64 49/57/35
s 47
f 17/95/38 16/85/33 45/87/57 44/96/49
s 48
f 18/97/65 24/98/66 23/99/67
s 49
f 10/91/62 50/92/63 35/100/68
s 50
f 17/101/69 22/102/70 21/103/71
s 51
f 16/104/72 20/105/73 19/106/74
s 52
f 15/107/75 14/108/76 25/109/77
s 53
f 18/97/65 15/110/75 25/111/77 24/98/66
s 54
f 17/101/69 18/112/65 23/113/67 22/102/70
s 55
f 16/104/72 17/114/69 21/115/71 20/105/73
s 56
f 15/107/75 16/116/72 19/117/74 14/108/76
s 57
f 22/118/78 23/119/79 29/120/80 30/121/81
s 58
f 24/122/82 25/123/83 28/124/84 27/125/85
s 59
f 25/126/83 14/127/86 34/128/87 28/129/84
s 60
f 19/130/88 20/81/53 32/84/56 33/131/89
s 61
f 21/132/54 22/118/78 30/121/81 31/133/55
s 62
f 23/134/79 24/122/82 27/125/85 29/135/80
s 63
f 14/127/86 19/136/88 33/137/89 34/128/87
s 64
f 26/138/90 27/139/91 28/140/92
s 65
f 26/141/90 29/142/93 27/139/91
s 66
f 26/143/90 30/144/94 29/142/93
s 67
f 26/145/90 31/146/95 30/144/94
s 68
f 26/147/90 32/148/96 31/146/95
s 69
f 26/149/90 33/150/97 32/148/96
s 70
f 26/151/90 34/152/98 33/150/97
s 71
f 26/153/90 28/140/92 34/152/98
s 72
f 15/154/34 18/155/37 37/80/52 36/156/64
s 73
f 36/157/99 37/158/100 38/159/101 35/160/102
s 74
f 40/161/103 41/162/104 42/163/105 39/164/106
s 75
f 44/165/107 45/166/108 46/167/109 43/168/110
s 76
f 48/169/111 49/170/112 50/171/113 47/172/114
s 77
f 49/173/112 36/174/99 35/160/102 50/171/113
s 78
f 37/175/100 40/176/103 39/164/106 38/159/101
s 79
f 45/177/108 48/178/111 47/172/114 46/167/109
s 80
f 41/179/104 44/180/107 43/168/110 42/163/105
s 81
f 38/90/61 11/74/59 10/53/62 35/100/68
s 82
f 55/52/5 9/32/5 51/24/5
s 83
f 56/181/28 52/182/20 62/183/21 70/184/29
s 84
f 60/185/43 67/186/4 68/19/15 59/18/14
s 85
f 62/29/21 68/28/15 67/187/4 61/188/3
s 86
f 61/189/3 69/190/31 70/184/29 62/183/21
s 87
f 64/45/11 70/44/29 69/191/31 63/192/24
s 88
f 63/193/24 71/194/27 72/15/6 64/14/11
s 89
f 66/9/7 72/8/6 71/195/27 65/196/16
s 90
f 65/197/16 73/198/19 74/199/23 66/200/7
s 91
f 59/201/14 74/202/23 73/203/19 60/204/43
s 92
f 8/22/18 1/68/42 60/67/43 73/23/19
