# Blender v2.80 (sub 75) OBJ File: 'Dungeon_Remastered_Export1.0.blend'
# www.blender.org
mtllib candle_melted.mtl
o candle_melted_Cylinder.289
v -0.000000 0.000000 -0.000000
v -0.000000 0.575410 -0.169765
v 0.109123 0.526371 -0.130047
v 0.167186 0.500279 -0.029479
v 0.147020 0.509341 0.084882
v 0.058063 0.549317 0.159527
v -0.058063 0.601502 0.159527
v -0.147021 0.641479 0.084882
v -0.167186 0.650541 -0.029479
v -0.109123 0.624448 -0.130047
v -0.000000 0.604874 -0.000000
v 0.078692 0.598564 -0.093782
v -0.000000 0.633927 -0.122423
v 0.120563 0.579748 -0.021259
v 0.106021 0.586283 0.061212
v 0.041871 0.615111 0.115040
v -0.041871 0.652744 0.115040
v -0.106022 0.681572 0.061212
v -0.120563 0.688107 -0.021259
v -0.078692 0.669290 -0.093781
v -0.000000 0.000000 -0.169765
v 0.109123 0.000000 -0.130047
v 0.167186 0.000000 -0.029479
v 0.147020 0.000000 0.084882
v 0.058063 0.000000 0.159527
v -0.058063 0.000000 0.159527
v -0.147021 0.000000 0.084882
v -0.167186 0.000000 -0.029479
v -0.109123 0.000000 -0.130047
v -0.004599 0.535116 0.000000
v 0.007227 0.694301 -0.033205
v 0.035905 0.692171 -0.016603
v 0.035905 0.692171 0.016603
v 0.007227 0.694301 0.033205
v -0.021450 0.696432 0.016603
v -0.021450 0.696432 -0.016603
v 0.007765 0.701539 0.000000
vt 0.064500 0.053797
vt 0.064500 0.187171
vt 0.082731 0.187171
vt 0.082731 0.053797
vt 0.092437 0.187171
vt 0.092437 0.053797
vt 0.089065 0.187171
vt 0.089065 0.053797
vt 0.074200 0.187171
vt 0.074200 0.053797
vt 0.054799 0.187171
vt 0.054799 0.053797
vt 0.039934 0.187171
vt 0.039934 0.053797
vt 0.092437 0.211573
vt 0.082731 0.211573
vt 0.077648 0.221350
vt 0.084644 0.221350
vt 0.036565 0.187171
vt 0.036565 0.053797
vt 0.046268 0.187171
vt 0.046268 0.053797
vt 0.064500 0.211573
vt 0.046268 0.211573
vt 0.051351 0.221350
vt 0.064500 0.221350
vt 0.036565 0.211573
vt 0.044355 0.221350
vt 0.039934 0.211573
vt 0.046787 0.221350
vt 0.054799 0.211573
vt 0.057504 0.221350
vt 0.074200 0.211573
vt 0.071495 0.221350
vt 0.089065 0.211573
vt 0.082215 0.221350
vt 0.064500 0.101863
vt 0.077648 0.173823
vt 0.064500 0.173823
vt 0.084644 0.173823
vt 0.082215 0.173823
vt 0.071495 0.173823
vt 0.057504 0.173823
vt 0.046787 0.173823
vt 0.044355 0.173823
vt 0.051351 0.173823
vt 0.064500 0.007547
vt 0.064500 0.007547
vt 0.082731 0.007547
vt 0.079818 0.007547
vt 0.092437 0.007547
vt 0.087972 0.007547
vt 0.089065 0.007547
vt 0.085140 0.007547
vt 0.074200 0.007547
vt 0.072650 0.007547
vt 0.054799 0.007547
vt 0.056349 0.007547
vt 0.039934 0.007547
vt 0.043859 0.007547
vt 0.036565 0.007547
vt 0.041029 0.007547
vt 0.046268 0.007547
vt 0.049181 0.007547
vt 0.921876 0.767472
vt 0.921876 0.831170
vt 0.949458 0.831170
vt 0.949458 0.831170
vt 0.921876 0.831170
vt 0.894294 0.831170
vt 0.894294 0.831170
vt 0.894294 0.831170
vt 0.921876 0.831170
vt 0.949458 0.831170
vn -0.0000 0.0000 -1.0000
vn 0.1065 0.3044 -0.9466
vn 0.6708 0.2532 -0.6971
vn 0.6428 -0.0000 -0.7660
vn 0.9607 0.2294 -0.1561
vn 0.9848 0.0000 -0.1736
vn 0.8603 0.2376 0.4510
vn 0.8660 0.0000 0.5000
vn 0.4113 0.2756 0.8688
vn 0.3420 0.0000 0.9397
vn -0.2140 0.3388 0.9162
vn -0.3420 -0.0000 0.9397
vn -0.8906 -0.0000 0.4547
vn -0.8660 -0.0000 0.5000
vn 0.6408 0.5428 -0.5429
vn 0.8509 0.5116 -0.1192
vn -0.9878 0.0000 -0.1556
vn -0.9848 0.0000 -0.1736
vn -0.5139 0.3764 -0.7709
vn -0.6428 0.0000 -0.7660
vn -0.2942 0.7137 -0.6356
vn 0.2092 0.6150 -0.7602
vn -0.5993 0.7816 -0.1729
vn -0.6038 0.7826 -0.1519
vn -0.4575 0.7499 0.4778
vn -0.4925 0.7571 0.4293
vn -0.0475 0.6634 0.7468
vn 0.4458 0.5741 0.6868
vn 0.7792 0.5220 0.3470
vn 0.3930 0.9195 0.0000
vn 0.2786 0.9452 0.1702
vn 0.4035 0.8903 0.2113
vn 0.2104 0.9768 0.0389
vn 0.2340 0.9658 -0.1119
vn 0.3382 0.9185 -0.2048
vn 0.4645 0.8648 -0.1908
vn 0.5473 0.8316 -0.0940
vn 0.5640 0.8251 0.0320
vn 0.5138 0.8448 0.1492
vn 0.0000 -1.0000 0.0000
vn 0.4776 -0.2133 -0.8523
vn 0.9683 -0.2497 0.0000
vn 0.4776 -0.2133 0.8523
vn -0.5039 -0.1404 0.8523
vn -0.1120 0.9880 -0.1068
vn -0.1120 0.9880 0.1068
vn 0.0741 0.9973 0.0000
vn -0.9946 -0.1039 0.0000
vn -0.5039 -0.1404 -0.8523
vn 0.0724 0.9742 0.2135
vn 0.2568 0.9605 0.1068
vn 0.2568 0.9605 -0.1068
vn 0.0724 0.9742 -0.2135
usemtl texture
s 1
f 21/1/1 2/2/2 3/3/3 22/4/4
s 2
f 22/4/4 3/3/3 4/5/5 23/6/6
s 3
f 23/6/6 4/5/5 5/7/7 24/8/8
s 4
f 24/8/8 5/7/7 6/9/9 25/10/10
s 5
f 25/10/10 6/9/9 7/11/11 26/12/12
s 6
f 26/12/12 7/11/11 8/13/13 27/14/14
s 7
f 4/15/5 3/16/3 12/17/15 14/18/16
s 8
f 27/14/14 8/13/13 9/19/17 28/20/18
s 9
f 28/20/18 9/19/17 10/21/19 29/22/20
s 10
f 2/23/2 10/24/19 20/25/21 13/26/22
s 11
f 10/24/19 9/27/23 19/28/24 20/25/21
s 12
f 9/27/23 8/29/25 18/30/26 19/28/24
s 13
f 8/29/25 7/31/11 17/32/27 18/30/26
s 14
f 7/31/11 6/33/9 16/34/28 17/32/27
s 15
f 6/33/9 5/35/7 15/36/29 16/34/28
s 16
f 3/16/3 2/23/2 13/26/22 12/17/15
s 17
f 5/35/7 4/15/5 14/18/16 15/36/29
s 18
f 11/37/30 12/38/31 13/39/32
s 19
f 11/37/30 14/40/33 12/38/31
s 20
f 11/37/30 15/41/34 14/40/33
s 21
f 11/37/30 16/42/35 15/41/34
s 22
f 11/37/30 17/43/36 16/42/35
s 23
f 11/37/30 18/44/37 17/43/36
s 24
f 11/37/30 19/45/38 18/44/37
s 25
f 11/37/30 20/46/39 19/45/38
s 26
f 11/37/30 13/39/32 20/46/39
s 27
f 1/47/40 21/48/40 22/49/40
s 28
f 1/50/40 22/49/40 23/51/40
s 29
f 1/52/40 23/51/40 24/53/40
s 30
f 1/54/40 24/53/40 25/55/40
s 31
f 1/56/40 25/55/40 26/57/40
s 32
f 1/58/40 26/57/40 27/59/40
s 33
f 1/60/40 27/59/40 28/61/40
s 34
f 1/62/40 28/61/40 29/63/40
s 35
f 1/64/40 29/63/40 21/48/40
s 36
f 30/65/41 31/66/41 32/67/41
s 37
f 30/65/42 32/67/42 33/68/42
s 38
f 30/65/43 33/68/43 34/69/43
s 39
f 30/65/44 34/69/44 35/70/44
s 40
f 36/71/45 35/70/46 37/72/47
s 41
f 30/65/48 35/70/48 36/71/48
s 42
f 30/65/49 36/71/49 31/66/49
s 43
f 35/70/46 34/69/50 37/72/47
s 44
f 34/69/50 33/68/51 37/73/47
s 45
f 32/67/52 31/66/53 37/74/47
s 46
f 31/66/53 36/71/45 37/73/47
s 47
f 33/68/51 32/67/52 37/74/47
s 48
f 29/22/20 10/21/19 2/2/2 21/1/1
