# Blender v2.80 (sub 75) OBJ File: 'Dungeon_Remastered_Export1.0.blend'
# www.blender.org
mtllib candle_triple.mtl
o candle_triple_Cylinder.308
v 0.000000 0.000000 0.000000
v 0.000000 0.575410 0.169765
v -0.109123 0.526371 0.130047
v -0.167186 0.500279 0.029479
v -0.147021 0.509341 -0.084882
v -0.058063 0.549317 -0.159527
v 0.058063 0.601502 -0.159527
v 0.147021 0.641479 -0.084882
v 0.167186 0.650541 0.029479
v 0.109123 0.624448 0.130047
v 0.000000 0.604874 0.000000
v -0.078692 0.598564 0.093782
v 0.000000 0.633927 0.122423
v -0.120563 0.579748 0.021259
v -0.106021 0.586283 -0.061211
v -0.041871 0.615111 -0.115040
v 0.041871 0.652744 -0.115040
v 0.106021 0.681572 -0.061212
v 0.120563 0.688107 0.021258
v 0.078692 0.669290 0.093781
v 0.000000 0.000000 0.169765
v -0.109123 0.000000 0.130047
v -0.167186 0.000000 0.029479
v -0.147021 0.000000 -0.084882
v -0.058063 0.000000 -0.159527
v 0.058063 0.000000 -0.159527
v 0.147021 0.000000 -0.084882
v 0.167186 0.000000 0.029479
v 0.109123 0.000000 0.130047
v 0.004599 0.535116 -0.000000
v -0.007227 0.694301 0.033205
v -0.035905 0.692171 0.016603
v -0.035905 0.692171 -0.016603
v -0.007227 0.694301 -0.033205
v 0.021450 0.696432 -0.016603
v 0.021450 0.696432 0.016603
v -0.007765 0.701539 -0.000000
v 0.237305 0.000000 -0.047806
v 0.300772 0.765103 -0.122588
v 0.333993 0.765103 -0.064296
v 0.321972 0.765103 0.001712
v 0.270334 0.765103 0.044550
v 0.203242 0.765103 0.044174
v 0.152087 0.765103 0.000759
v 0.140807 0.765103 -0.065379
v 0.174679 0.765103 -0.123295
v 0.237854 0.765103 -0.145889
v 0.237305 0.771580 -0.047806
v 0.307030 0.800633 -0.059698
v 0.283073 0.800633 -0.101734
v 0.298361 0.800633 -0.012097
v 0.261124 0.800633 0.018795
v 0.212741 0.800633 0.018524
v 0.175852 0.800633 -0.012784
v 0.167717 0.800633 -0.060479
v 0.192143 0.800633 -0.102244
v 0.237701 0.800633 -0.118537
v 0.300772 0.000000 -0.122588
v 0.333993 0.000000 -0.064296
v 0.321972 0.000000 0.001712
v 0.270334 0.000000 0.044550
v 0.203242 0.000000 0.044174
v 0.152087 0.000000 0.000759
v 0.140807 0.000000 -0.065379
v 0.174679 0.000000 -0.123295
v 0.237854 0.000000 -0.145889
v 0.237305 0.706100 -0.047806
v 0.258791 0.865724 -0.073123
v 0.269973 0.865724 -0.041857
v 0.248486 0.865724 -0.016540
v 0.215818 0.865724 -0.022489
v 0.204637 0.865724 -0.053755
v 0.226123 0.865724 -0.079072
v 0.237305 0.872982 -0.047806
v 0.202393 0.000000 0.132431
v 0.289639 0.527086 0.087613
v 0.298036 0.527086 0.154179
v 0.261680 0.527086 0.210569
v 0.197583 0.527086 0.230398
v 0.135737 0.527086 0.204386
v 0.105079 0.527086 0.144706
v 0.119956 0.527086 0.079283
v 0.173405 0.527086 0.038728
v 0.240419 0.527086 0.042017
v 0.202393 0.533563 0.132431
v 0.271364 0.562616 0.148114
v 0.265309 0.562616 0.100111
v 0.245147 0.562616 0.188779
v 0.198924 0.562616 0.203078
v 0.154325 0.562616 0.184320
v 0.132217 0.562616 0.141283
v 0.142945 0.562616 0.094104
v 0.181489 0.562616 0.064858
v 0.229814 0.562616 0.067231
v 0.289639 0.000000 0.087613
v 0.298036 0.000000 0.154179
v 0.261680 0.000000 0.210569
v 0.197583 0.000000 0.230398
v 0.135737 0.000000 0.204386
v 0.105079 0.000000 0.144706
v 0.119956 0.000000 0.079283
v 0.173405 0.000000 0.038728
v 0.240419 0.000000 0.042017
v 0.202393 0.468082 0.132431
v 0.231929 0.627707 0.117258
v 0.230301 0.627707 0.150424
v 0.200764 0.627707 0.165596
v 0.172856 0.627707 0.147604
v 0.174485 0.627707 0.114438
v 0.204021 0.627707 0.099266
v 0.202393 0.634965 0.132431
vt 0.064500 0.053797
vt 0.064500 0.187171
vt 0.082731 0.187171
vt 0.082731 0.053797
vt 0.092437 0.187171
vt 0.092437 0.053797
vt 0.089065 0.187171
vt 0.089065 0.053797
vt 0.074200 0.187171
vt 0.074200 0.053797
vt 0.054799 0.187171
vt 0.054799 0.053797
vt 0.039934 0.187171
vt 0.039934 0.053797
vt 0.092437 0.211573
vt 0.082731 0.211573
vt 0.077648 0.221350
vt 0.084644 0.221350
vt 0.036565 0.187171
vt 0.036565 0.053797
vt 0.046268 0.187171
vt 0.046268 0.053797
vt 0.064500 0.211573
vt 0.046268 0.211573
vt 0.051351 0.221350
vt 0.064500 0.221350
vt 0.036565 0.211573
vt 0.044355 0.221350
vt 0.039934 0.211573
vt 0.046787 0.221350
vt 0.054799 0.211573
vt 0.057504 0.221350
vt 0.074200 0.211573
vt 0.071495 0.221350
vt 0.089065 0.211573
vt 0.082215 0.221350
vt 0.064500 0.101863
vt 0.077648 0.173823
vt 0.064500 0.173823
vt 0.084644 0.173823
vt 0.082215 0.173823
vt 0.071495 0.173823
vt 0.057504 0.173823
vt 0.046787 0.173823
vt 0.044355 0.173823
vt 0.051351 0.173823
vt 0.064500 0.007547
vt 0.064500 0.007547
vt 0.082731 0.007547
vt 0.079818 0.007547
vt 0.092437 0.007547
vt 0.087972 0.007547
vt 0.089065 0.007547
vt 0.085140 0.007547
vt 0.074200 0.007547
vt 0.072650 0.007547
vt 0.054799 0.007547
vt 0.056349 0.007547
vt 0.039934 0.007547
vt 0.043859 0.007547
vt 0.036565 0.007547
vt 0.041029 0.007547
vt 0.046268 0.007547
vt 0.049181 0.007547
vt 0.921876 0.767472
vt 0.921876 0.831170
vt 0.949458 0.831170
vt 0.949458 0.831170
vt 0.921876 0.831170
vt 0.894294 0.831170
vt 0.894294 0.831170
vt 0.894294 0.831170
vt 0.921876 0.831170
vt 0.949458 0.831170
vt 0.064500 0.053797
vt 0.064500 0.187171
vt 0.082731 0.187171
vt 0.082731 0.053797
vt 0.092437 0.187171
vt 0.092437 0.053797
vt 0.089065 0.187171
vt 0.089065 0.053797
vt 0.074200 0.187171
vt 0.074200 0.053797
vt 0.054799 0.187171
vt 0.054799 0.053797
vt 0.039934 0.187171
vt 0.039934 0.053797
vt 0.092437 0.211573
vt 0.082731 0.211573
vt 0.077648 0.221350
vt 0.084644 0.221350
vt 0.036565 0.187171
vt 0.036565 0.053797
vt 0.046268 0.187171
vt 0.046268 0.053797
vt 0.064500 0.211573
vt 0.046268 0.211573
vt 0.051351 0.221350
vt 0.064500 0.221350
vt 0.036565 0.211573
vt 0.044355 0.221350
vt 0.039934 0.211573
vt 0.046787 0.221350
vt 0.054799 0.211573
vt 0.057504 0.221350
vt 0.074200 0.211573
vt 0.071495 0.221350
vt 0.089065 0.211573
vt 0.082215 0.221350
vt 0.064500 0.101863
vt 0.077648 0.173823
vt 0.064500 0.173823
vt 0.084644 0.173823
vt 0.082215 0.173823
vt 0.071495 0.173823
vt 0.057504 0.173823
vt 0.046787 0.173823
vt 0.044355 0.173823
vt 0.051351 0.173823
vt 0.064500 0.007547
vt 0.064500 0.007547
vt 0.082731 0.007547
vt 0.079818 0.007547
vt 0.092437 0.007547
vt 0.087972 0.007547
vt 0.089065 0.007547
vt 0.085140 0.007547
vt 0.074200 0.007547
vt 0.072650 0.007547
vt 0.054799 0.007547
vt 0.056349 0.007547
vt 0.039934 0.007547
vt 0.043859 0.007547
vt 0.036565 0.007547
vt 0.041029 0.007547
vt 0.046268 0.007547
vt 0.049181 0.007547
vt 0.921876 0.767472
vt 0.921876 0.831170
vt 0.949458 0.831170
vt 0.949458 0.831170
vt 0.921876 0.831170
vt 0.894294 0.831170
vt 0.894294 0.831170
vt 0.894294 0.831170
vt 0.921876 0.831170
vt 0.949458 0.831170
vt 0.064500 0.053797
vt 0.064500 0.187171
vt 0.082731 0.187171
vt 0.082731 0.053797
vt 0.092437 0.187171
vt 0.092437 0.053797
vt 0.089065 0.187171
vt 0.089065 0.053797
vt 0.074200 0.187171
vt 0.074200 0.053797
vt 0.054799 0.187171
vt 0.054799 0.053797
vt 0.039934 0.187171
vt 0.039934 0.053797
vt 0.092437 0.211573
vt 0.082731 0.211573
vt 0.077648 0.221350
vt 0.084644 0.221350
vt 0.036565 0.187171
vt 0.036565 0.053797
vt 0.046268 0.187171
vt 0.046268 0.053797
vt 0.064500 0.211573
vt 0.046268 0.211573
vt 0.051351 0.221350
vt 0.064500 0.221350
vt 0.036565 0.211573
vt 0.044355 0.221350
vt 0.039934 0.211573
vt 0.046787 0.221350
vt 0.054799 0.211573
vt 0.057504 0.221350
vt 0.074200 0.211573
vt 0.071495 0.221350
vt 0.089065 0.211573
vt 0.082215 0.221350
vt 0.064500 0.101863
vt 0.077648 0.173823
vt 0.064500 0.173823
vt 0.084644 0.173823
vt 0.082215 0.173823
vt 0.071495 0.173823
vt 0.057504 0.173823
vt 0.046787 0.173823
vt 0.044355 0.173823
vt 0.051351 0.173823
vt 0.064500 0.007547
vt 0.064500 0.007547
vt 0.082731 0.007547
vt 0.079818 0.007547
vt 0.092437 0.007547
vt 0.087972 0.007547
vt 0.089065 0.007547
vt 0.085140 0.007547
vt 0.074200 0.007547
vt 0.072650 0.007547
vt 0.054799 0.007547
vt 0.056349 0.007547
vt 0.039934 0.007547
vt 0.043859 0.007547
vt 0.036565 0.007547
vt 0.041029 0.007547
vt 0.046268 0.007547
vt 0.049181 0.007547
vt 0.921876 0.767472
vt 0.921876 0.831170
vt 0.949458 0.831170
vt 0.949458 0.831170
vt 0.921876 0.831170
vt 0.894294 0.831170
vt 0.894294 0.831170
vt 0.894294 0.831170
vt 0.921876 0.831170
vt 0.949458 0.831170
vn 0.0000 0.0000 1.0000
vn -0.1065 0.3044 0.9466
vn -0.6708 0.2532 0.6971
vn -0.6428 -0.0000 0.7660
vn -0.9607 0.2294 0.1561
vn -0.9848 0.0000 0.1736
vn -0.8603 0.2376 -0.4510
vn -0.8660 0.0000 -0.5000
vn -0.4113 0.2756 -0.8688
vn -0.3420 0.0000 -0.9397
vn 0.2140 0.3388 -0.9162
vn 0.3420 -0.0000 -0.9397
vn 0.8906 0.0000 -0.4547
vn 0.8660 0.0000 -0.5000
vn -0.6408 0.5428 0.5429
vn -0.8509 0.5116 0.1192
vn 0.9878 0.0000 0.1556
vn 0.9848 0.0000 0.1736
vn 0.5139 0.3764 0.7709
vn 0.6428 0.0000 0.7660
vn 0.2942 0.7137 0.6356
vn -0.2092 0.6150 0.7602
vn 0.5993 0.7816 0.1729
vn 0.6038 0.7826 0.1519
vn 0.4575 0.7499 -0.4778
vn 0.4925 0.7571 -0.4293
vn 0.0475 0.6634 -0.7468
vn -0.4458 0.5741 -0.6868
vn -0.7792 0.5220 -0.3470
vn -0.3930 0.9195 0.0000
vn -0.2786 0.9452 -0.1702
vn -0.4035 0.8903 -0.2113
vn -0.2104 0.9768 -0.0389
vn -0.2340 0.9658 0.1119
vn -0.3382 0.9185 0.2048
vn -0.4645 0.8648 0.1908
vn -0.5473 0.8316 0.0940
vn -0.5640 0.8251 -0.0320
vn -0.5138 0.8448 -0.1492
vn 0.0000 -1.0000 0.0000
vn -0.4776 -0.2133 0.8523
vn -0.9683 -0.2497 0.0000
vn -0.4776 -0.2133 -0.8523
vn 0.5039 -0.1404 -0.8523
vn 0.1120 0.9880 0.1068
vn 0.1120 0.9880 -0.1068
vn -0.0741 0.9973 -0.0000
vn 0.9946 -0.1039 -0.0000
vn 0.5039 -0.1404 0.8523
vn -0.0724 0.9742 -0.2135
vn -0.2568 0.9605 -0.1068
vn -0.2568 0.9605 0.1068
vn -0.0724 0.9742 0.2135
vn 0.6471 0.0000 -0.7624
vn 0.6167 0.3026 -0.7267
vn 0.9396 0.3026 -0.1602
vn 0.9858 0.0000 -0.1681
vn 0.8227 0.3026 0.4812
vn 0.8632 0.0000 0.5048
vn 0.3210 0.3026 0.8975
vn 0.3367 0.0000 0.9416
vn -0.3310 0.3026 0.8938
vn -0.3473 0.0000 0.9378
vn -0.8281 0.3026 0.4719
vn -0.8688 0.0000 0.4951
vn -0.9377 0.3026 -0.1708
vn -0.9838 0.0000 -0.1792
vn 0.7811 0.6100 -0.1332
vn 0.6840 0.6100 0.4000
vn -0.6086 0.3026 -0.7336
vn -0.6385 0.0000 -0.7696
vn 0.0053 0.3026 -0.9531
vn 0.0056 0.0000 -1.0000
vn 0.0044 0.6100 -0.7924
vn 0.5127 0.6100 -0.6041
vn -0.5059 0.6100 -0.6099
vn -0.7796 0.6100 -0.1420
vn -0.6884 0.6100 0.3923
vn -0.2752 0.6100 0.7431
vn 0.2668 0.6100 0.7461
vn 0.0000 1.0000 -0.0000
vn -0.3745 0.9250 0.0639
vn -0.2459 0.9250 0.2897
vn -0.3280 0.9250 -0.1918
vn -0.1279 0.9250 -0.3578
vn 0.1319 0.9250 -0.3563
vn 0.3301 0.9250 -0.1881
vn 0.3738 0.9250 0.0681
vn 0.2426 0.9250 0.2924
vn -0.0021 0.9250 0.3799
vn 0.9267 -0.1773 -0.3314
vn 0.7503 -0.1773 0.6368
vn -0.1763 -0.1773 0.9682
vn -0.9267 -0.1773 0.3314
vn -0.0719 0.9769 -0.2011
vn -0.2101 0.9769 -0.0383
vn -0.7504 -0.1773 -0.6368
vn 0.1763 -0.1773 -0.9682
vn -0.1382 0.9769 0.1628
vn 0.0719 0.9769 0.2011
vn 0.2101 0.9769 0.0383
vn 0.1382 0.9769 -0.1628
vn 0.8895 0.0000 -0.4569
vn 0.8478 0.3026 -0.4355
vn 0.9294 0.3026 0.2113
vn 0.9751 0.0000 0.2217
vn 0.5761 0.3026 0.7593
vn 0.6045 0.0000 0.7966
vn -0.0467 0.3026 0.9520
vn -0.0490 0.0000 0.9988
vn -0.6477 0.3026 0.6992
vn -0.6796 0.0000 0.7336
vn -0.9456 0.3026 0.1193
vn -0.9921 0.0000 0.1252
vn -0.8011 0.3026 -0.5165
vn -0.8405 0.0000 -0.5419
vn 0.7727 0.6100 0.1757
vn 0.4790 0.6100 0.6313
vn -0.2817 0.3026 -0.9105
vn -0.2955 0.0000 -0.9553
vn 0.3695 0.3026 -0.8786
vn 0.3877 0.0000 -0.9218
vn 0.3072 0.6100 -0.7304
vn 0.7048 0.6100 -0.3621
vn -0.2342 0.6100 -0.7570
vn -0.6660 0.6100 -0.4294
vn -0.7862 0.6100 0.0992
vn -0.5385 0.6100 0.5813
vn -0.0389 0.6100 0.7914
vn -0.3705 0.9250 -0.0842
vn -0.3380 0.9250 0.1736
vn -0.2297 0.9250 -0.3027
vn 0.0186 0.9250 -0.3795
vn 0.2582 0.9250 -0.2787
vn 0.3770 0.9250 -0.0476
vn 0.3193 0.9250 0.2059
vn 0.1123 0.9250 0.3630
vn -0.1473 0.9250 0.3502
vn 0.9830 -0.1773 0.0483
vn 0.4497 -0.1773 0.8754
vn -0.5333 -0.1773 0.8272
vn -0.9830 -0.1773 -0.0483
vn 0.0105 0.9769 -0.2133
vn -0.1795 0.9769 -0.1157
vn -0.4497 -0.1773 -0.8754
vn 0.5333 -0.1773 -0.8272
vn -0.1899 0.9769 0.0976
vn -0.0105 0.9769 0.2133
vn 0.1795 0.9769 0.1157
vn 0.1899 0.9769 -0.0976
usemtl texture
s 1
f 21/1/1 2/2/2 3/3/3 22/4/4
s 2
f 22/4/4 3/3/3 4/5/5 23/6/6
s 3
f 23/6/6 4/5/5 5/7/7 24/8/8
s 4
f 24/8/8 5/7/7 6/9/9 25/10/10
s 5
f 25/10/10 6/9/9 7/11/11 26/12/12
s 6
f 26/12/12 7/11/11 8/13/13 27/14/14
s 7
f 4/15/5 3/16/3 12/17/15 14/18/16
s 8
f 27/14/14 8/13/13 9/19/17 28/20/18
s 9
f 28/20/18 9/19/17 10/21/19 29/22/20
s 10
f 2/23/2 10/24/19 20/25/21 13/26/22
s 11
f 10/24/19 9/27/23 19/28/24 20/25/21
s 12
f 9/27/23 8/29/25 18/30/26 19/28/24
s 13
f 8/29/25 7/31/11 17/32/27 18/30/26
s 14
f 7/31/11 6/33/9 16/34/28 17/32/27
s 15
f 6/33/9 5/35/7 15/36/29 16/34/28
s 16
f 3/16/3 2/23/2 13/26/22 12/17/15
s 17
f 5/35/7 4/15/5 14/18/16 15/36/29
s 18
f 11/37/30 12/38/31 13/39/32
s 19
f 11/37/30 14/40/33 12/38/31
s 20
f 11/37/30 15/41/34 14/40/33
s 21
f 11/37/30 16/42/35 15/41/34
s 22
f 11/37/30 17/43/36 16/42/35
s 23
f 11/37/30 18/44/37 17/43/36
s 24
f 11/37/30 19/45/38 18/44/37
s 25
f 11/37/30 20/46/39 19/45/38
s 26
f 11/37/30 13/39/32 20/46/39
s 27
f 1/47/40 21/48/40 22/49/40
s 28
f 1/50/40 22/49/40 23/51/40
s 29
f 1/52/40 23/51/40 24/53/40
s 30
f 1/54/40 24/53/40 25/55/40
s 31
f 1/56/40 25/55/40 26/57/40
s 32
f 1/58/40 26/57/40 27/59/40
s 33
f 1/60/40 27/59/40 28/61/40
s 34
f 1/62/40 28/61/40 29/63/40
s 35
f 1/64/40 29/63/40 21/48/40
s 36
f 30/65/41 31/66/41 32/67/41
s 37
f 30/65/42 32/67/42 33/68/42
s 38
f 30/65/43 33/68/43 34/69/43
s 39
f 30/65/44 34/69/44 35/70/44
s 40
f 36/71/45 35/70/46 37/72/47
s 41
f 30/65/48 35/70/48 36/71/48
s 42
f 30/65/49 36/71/49 31/66/49
s 43
f 35/70/46 34/69/50 37/72/47
s 44
f 34/69/50 33/68/51 37/73/47
s 45
f 32/67/52 31/66/53 37/74/47
s 46
f 31/66/53 36/71/45 37/73/47
s 47
f 33/68/51 32/67/52 37/74/47
s 48
f 29/22/20 10/21/19 2/2/2 21/1/1
s 49
f 58/75/54 39/76/55 40/77/56 59/78/57
s 50
f 59/78/57 40/77/56 41/79/58 60/80/59
s 51
f 60/80/59 41/79/58 42/81/60 61/82/61
s 52
f 61/82/61 42/81/60 43/83/62 62/84/63
s 53
f 62/84/63 43/83/62 44/85/64 63/86/65
s 54
f 63/86/65 44/85/64 45/87/66 64/88/67
s 55
f 41/89/58 40/90/56 49/91/68 51/92/69
s 56
f 64/88/67 45/87/66 46/93/70 65/94/71
s 57
f 65/94/71 46/93/70 47/95/72 66/96/73
s 58
f 39/97/55 47/98/72 57/99/74 50/100/75
s 59
f 47/98/72 46/101/70 56/102/76 57/99/74
s 60
f 46/101/70 45/103/66 55/104/77 56/102/76
s 61
f 45/103/66 44/105/64 54/106/78 55/104/77
s 62
f 44/105/64 43/107/62 53/108/79 54/106/78
s 63
f 43/107/62 42/109/60 52/110/80 53/108/79
s 64
f 40/90/56 39/97/55 50/100/75 49/91/68
s 65
f 42/109/60 41/89/58 51/92/69 52/110/80
s 66
f 48/111/81 49/112/82 50/113/83
s 67
f 48/111/81 51/114/84 49/112/82
s 68
f 48/111/81 52/115/85 51/114/84
s 69
f 48/111/81 53/116/86 52/115/85
s 70
f 48/111/81 54/117/87 53/116/86
s 71
f 48/111/81 55/118/88 54/117/87
s 72
f 48/111/81 56/119/89 55/118/88
s 73
f 48/111/81 57/120/90 56/119/89
s 74
f 48/111/81 50/113/83 57/120/90
s 75
f 38/121/40 58/122/40 59/123/40
s 76
f 38/124/40 59/123/40 60/125/40
s 77
f 38/126/40 60/125/40 61/127/40
s 78
f 38/128/40 61/127/40 62/129/40
s 79
f 38/130/40 62/129/40 63/131/40
s 80
f 38/132/40 63/131/40 64/133/40
s 81
f 38/134/40 64/133/40 65/135/40
s 82
f 38/136/40 65/135/40 66/137/40
s 83
f 38/138/40 66/137/40 58/122/40
s 84
f 67/139/91 68/140/91 69/141/91
s 85
f 67/139/92 69/141/92 70/142/92
s 86
f 67/139/93 70/142/93 71/143/93
s 87
f 67/139/94 71/143/94 72/144/94
s 88
f 73/145/95 72/144/96 74/146/81
s 89
f 67/139/97 72/144/97 73/145/97
s 90
f 67/139/98 73/145/98 68/140/98
s 91
f 72/144/96 71/143/99 74/146/81
s 92
f 71/143/99 70/142/100 74/147/81
s 93
f 69/141/101 68/140/102 74/148/81
s 94
f 68/140/102 73/145/95 74/147/81
s 95
f 70/142/100 69/141/101 74/148/81
s 96
f 66/96/73 47/95/72 39/76/55 58/75/54
s 97
f 95/149/103 76/150/104 77/151/105 96/152/106
s 98
f 96/152/106 77/151/105 78/153/107 97/154/108
s 99
f 97/154/108 78/153/107 79/155/109 98/156/110
s 100
f 98/156/110 79/155/109 80/157/111 99/158/112
s 101
f 99/158/112 80/157/111 81/159/113 100/160/114
s 102
f 100/160/114 81/159/113 82/161/115 101/162/116
s 103
f 78/163/107 77/164/105 86/165/117 88/166/118
s 104
f 101/162/116 82/161/115 83/167/119 102/168/120
s 105
f 102/168/120 83/167/119 84/169/121 103/170/122
s 106
f 76/171/104 84/172/121 94/173/123 87/174/124
s 107
f 84/172/121 83/175/119 93/176/125 94/173/123
s 108
f 83/175/119 82/177/115 92/178/126 93/176/125
s 109
f 82/177/115 81/179/113 91/180/127 92/178/126
s 110
f 81/179/113 80/181/111 90/182/128 91/180/127
s 111
f 80/181/111 79/183/109 89/184/129 90/182/128
s 112
f 77/164/105 76/171/104 87/174/124 86/165/117
s 113
f 79/183/109 78/163/107 88/166/118 89/184/129
s 114
f 85/185/81 86/186/130 87/187/131
s 115
f 85/185/81 88/188/132 86/186/130
s 116
f 85/185/81 89/189/133 88/188/132
s 117
f 85/185/81 90/190/134 89/189/133
s 118
f 85/185/81 91/191/135 90/190/134
s 119
f 85/185/81 92/192/136 91/191/135
s 120
f 85/185/81 93/193/137 92/192/136
s 121
f 85/185/81 94/194/138 93/193/137
s 122
f 85/185/81 87/187/131 94/194/138
s 123
f 75/195/40 95/196/40 96/197/40
s 124
f 75/198/40 96/197/40 97/199/40
s 125
f 75/200/40 97/199/40 98/201/40
s 126
f 75/202/40 98/201/40 99/203/40
s 127
f 75/204/40 99/203/40 100/205/40
s 128
f 75/206/40 100/205/40 101/207/40
s 129
f 75/208/40 101/207/40 102/209/40
s 130
f 75/210/40 102/209/40 103/211/40
s 131
f 75/212/40 103/211/40 95/196/40
s 132
f 104/213/139 105/214/139 106/215/139
s 133
f 104/213/140 106/215/140 107/216/140
s 134
f 104/213/141 107/216/141 108/217/141
s 135
f 104/213/142 108/217/142 109/218/142
s 136
f 110/219/143 109/218/144 111/220/81
s 137
f 104/213/145 109/218/145 110/219/145
s 138
f 104/213/146 110/219/146 105/214/146
s 139
f 109/218/144 108/217/147 111/220/81
s 140
f 108/217/147 107/216/148 111/221/81
s 141
f 106/215/149 105/214/150 111/222/81
s 142
f 105/214/150 110/219/143 111/221/81
s 143
f 107/216/148 106/215/149 111/222/81
s 144
f 103/170/122 84/169/121 76/150/104 95/149/103
