# Blender v2.80 (sub 75) OBJ File: 'Dungeon_Remastered_Export1.0.blend'
# www.blender.org
mtllib column.mtl
o column_Cube.13695
v 0.350000 0.000000 -0.350000
v 0.350000 1.200000 -0.350000
v 0.350000 0.000000 0.350000
v 0.350000 1.200000 0.350000
v -0.350000 0.000000 -0.350000
v -0.350000 1.200000 -0.350000
v -0.350000 0.000000 0.350000
v -0.350000 1.200000 0.350000
v 0.000000 1.400000 0.000000
v 0.350000 0.300000 -0.350000
v 0.350000 0.900000 -0.350000
v 0.350000 0.900000 0.350000
v 0.350000 0.300000 0.350000
v -0.350000 0.900000 0.350000
v -0.350000 0.300000 0.350000
v -0.350000 0.900000 -0.350000
v -0.350000 0.300000 -0.350000
v 0.274809 0.400000 -0.274809
v 0.274809 0.800000 -0.274809
v 0.274809 0.800000 0.274809
v 0.274809 0.400000 0.274809
v -0.274809 0.800000 0.274809
v -0.274809 0.400000 0.274809
v -0.274809 0.800000 -0.274809
v -0.274809 0.400000 -0.274809
vt 0.164673 0.833433
vt 0.164673 0.864329
vt 0.164673 0.864329
vt 0.164673 0.833433
vt 0.164673 0.849058
vt 0.164673 0.879954
vt 0.211016 0.879954
vt 0.211016 0.849058
vt 0.211016 0.833433
vt 0.211016 0.864329
vt 0.211016 0.864329
vt 0.211016 0.833433
vt 0.211016 0.849058
vt 0.211016 0.879954
vt 0.164673 0.879954
vt 0.164673 0.849058
vt 0.211016 0.895579
vt 0.164673 0.895579
vt 0.199429 0.945366
vt 0.199429 0.929741
vt 0.176258 0.929741
vt 0.164673 0.895579
vt 0.211016 0.895579
vt 0.176258 0.945366
vt 0.211016 0.787267
vt 0.211016 0.818163
vt 0.164673 0.818163
vt 0.164673 0.787267
vt 0.164673 0.833788
vt 0.211016 0.833788
vt 0.211016 0.833788
vt 0.164673 0.833788
vt 0.211016 0.771642
vt 0.211016 0.802538
vt 0.211016 0.802538
vt 0.211016 0.771642
vt 0.211016 0.818163
vt 0.211016 0.818163
vt 0.211016 0.818163
vt 0.164673 0.787267
vt 0.164673 0.818163
vt 0.211016 0.787267
vt 0.211016 0.833788
vt 0.164673 0.833788
vt 0.164673 0.833788
vt 0.211016 0.833788
vt 0.164673 0.771642
vt 0.164673 0.802538
vt 0.164673 0.802538
vt 0.164673 0.771642
vt 0.164673 0.818163
vt 0.164673 0.818163
vt 0.211016 0.849058
vt 0.164673 0.849058
vt 0.211016 0.802538
vt 0.211016 0.833433
vt 0.211016 0.833433
vt 0.211016 0.802538
vt 0.164673 0.849058
vt 0.211016 0.849058
vt 0.164673 0.802538
vt 0.164673 0.833433
vt 0.164673 0.833433
vt 0.164673 0.802538
vt 0.164673 0.817808
vt 0.164673 0.817808
vt 0.164673 0.817808
vt 0.164673 0.817808
vt 0.211016 0.817808
vt 0.211016 0.817808
vt 0.211016 0.817808
vt 0.211016 0.817808
vn 1.0000 0.0000 -0.0000
vn 0.0000 0.0000 1.0000
vn -1.0000 0.0000 0.0000
vn -0.0000 0.0000 -1.0000
vn 0.0000 0.8682 0.4961
vn -0.4961 0.8682 0.0000
vn 0.4961 0.8682 0.0000
vn -0.0000 0.8682 -0.4961
vn -0.0000 0.6010 -0.7993
vn -0.7993 0.6010 0.0000
vn 0.0000 0.6010 0.7993
vn 0.7993 0.6010 -0.0000
vn 0.7993 -0.6010 -0.0000
vn 0.0000 -0.6010 0.7993
vn -0.7993 -0.6010 0.0000
vn -0.0000 -0.6010 -0.7993
usemtl texture
s off
f 11/1/1 2/2/1 4/3/1 12/4/1
f 12/5/2 4/6/2 8/7/2 14/8/2
f 14/9/3 8/10/3 6/11/3 16/12/3
f 16/13/4 6/14/4 2/15/4 11/16/4
f 8/17/5 4/18/5 9/19/5
f 6/14/6 8/7/6 9/20/6
f 4/6/7 2/15/7 9/21/7
f 2/22/8 6/23/8 9/24/8
f 5/25/4 17/26/4 10/27/4 1/28/4
f 10/29/9 17/30/9 25/31/9 18/32/9
f 7/33/3 15/34/3 17/35/3 5/36/3
f 17/26/10 15/37/10 23/38/10 25/39/10
f 3/40/2 13/41/2 15/37/2 7/42/2
f 15/43/11 13/44/11 21/45/11 23/46/11
f 1/47/1 10/48/1 13/49/1 3/50/1
f 13/41/12 10/27/12 18/51/12 21/52/12
f 25/39/4 24/53/4 19/54/4 18/51/4
f 23/55/3 22/56/3 24/57/3 25/58/3
f 21/52/2 20/59/2 22/60/2 23/38/2
f 18/61/1 19/62/1 20/63/1 21/64/1
f 11/65/13 12/66/13 20/67/13 19/68/13
f 12/4/14 14/9/14 22/56/14 20/63/14
f 14/69/15 16/70/15 24/71/15 22/72/15
f 16/12/16 11/1/16 19/62/16 24/57/16
