# Blender v2.80 (sub 75) OBJ File: 'Dungeon_Remastered_Export1.0.blend'
# www.blender.org
mtllib floor_dirt_small_corner.mtl
o floor_dirt_small_corner_Cube.15088
v 1.000000 0.050000 -1.000000
v -1.000000 0.050000 -1.000000
v 1.000000 0.050000 1.000000
v 0.050000 0.050000 -0.667157
v -0.048350 0.050000 -0.616445
v 0.000000 0.020000 -0.644636
v 0.667157 0.050000 -0.050000
v 0.616445 0.050000 0.048350
v 0.644636 0.020000 0.000000
v -0.050000 0.050000 -1.000000
v 0.050000 0.050000 -1.000000
v 0.000000 0.020000 -1.000000
v 1.000000 0.050000 -0.050000
v 1.000000 0.050000 0.050000
v 1.000000 0.020000 0.000000
v 1.000000 -0.100000 -1.000000
v -1.000000 -0.100000 -1.000000
v 1.000000 -0.100000 1.000000
v -1.000012 -0.100000 -1.000000
v 0.999988 -0.100000 1.000000
v -0.569342 0.000000 0.535424
v -0.510763 0.000000 0.543366
v -0.516014 0.038438 0.398219
v -0.580410 0.038438 0.441713
v -0.584275 0.000000 0.364926
v -0.607478 0.000000 0.456524
v -0.502342 0.038438 0.470600
v -0.462969 0.000000 0.463138
v -0.467895 0.000000 0.388134
v -1.000012 -0.100000 1.000000
v -1.000012 0.020000 -1.000000
v 0.999988 0.020000 1.000000
v -1.000012 0.020000 1.000000
v 0.244184 0.015353 0.703687
v 0.280654 0.015353 0.708632
v 0.277384 0.053791 0.618267
v 0.237293 0.053791 0.645346
v 0.234887 0.015353 0.597540
v 0.220441 0.015353 0.654567
v 0.285896 0.053791 0.663330
v 0.310409 0.015353 0.658684
v 0.307342 0.015353 0.611989
vt 0.677734 0.854911
vt 0.703442 0.854911
vt 0.706517 0.837947
vt 0.677734 0.837947
vt 0.677734 0.869197
vt 0.706517 0.869197
vt 0.707522 0.901786
vt 0.679966 0.901786
vt 0.675502 0.854241
vt 0.675502 0.854911
vt 0.677734 0.822322
vt 0.677734 0.854241
vt 0.677734 0.853572
vt 0.679966 0.886161
vt 0.679966 0.854241
vt 0.707522 0.839286
vt 0.722385 0.854241
vt 0.722385 0.854241
vt 0.706517 0.806697
vt 0.722385 0.854241
vt 0.679966 0.870536
vt 0.722385 0.870536
vt 0.722385 0.870536
vt 0.722385 0.838616
vt 0.722385 0.838616
vt 0.722385 0.838616
vt 0.722385 0.838616
vt 0.722385 0.838616
vt 0.722385 0.838616
vt 0.722385 0.838616
vt 0.675502 0.838616
vt 0.677734 0.838616
vt 0.633084 0.838616
vt 0.633084 0.838616
vt 0.679966 0.838616
vt 0.679966 0.870536
vt 0.707522 0.870536
vt 0.675502 0.870536
vt 0.675502 0.870536
vt 0.633084 0.870536
vt 0.722385 0.870536
vt 0.703442 0.870536
vt 0.722385 0.870536
vt 0.707522 0.870536
vt 0.645254 0.819718
vt 0.654424 0.819718
vt 0.645254 0.876175
vt 0.720204 0.921304
vt 0.692484 0.952554
vt 0.711034 0.954300
vt 0.684098 0.985550
vt 0.645254 0.954300
vt 0.684098 0.907425
vt 0.684098 0.791913
vt 0.711034 0.819718
vt 0.654424 0.876175
vt 0.669261 0.921304
vt 0.692484 0.791913
vt 0.692484 0.874429
vt 0.720204 0.843179
vt 0.669261 0.843179
vt 0.633084 0.838616
vt 0.633084 0.838616
vt 0.677734 0.838616
vt 0.633084 0.838616
vt 0.677734 0.838616
vt 0.633084 0.838616
vt 0.645254 0.819718
vt 0.654424 0.819718
vt 0.645254 0.876175
vt 0.720204 0.921304
vt 0.692484 0.952554
vt 0.711034 0.954300
vt 0.684098 0.985550
vt 0.645254 0.954300
vt 0.684098 0.907425
vt 0.684098 0.791913
vt 0.711034 0.819718
vt 0.654424 0.876175
vt 0.669261 0.921304
vt 0.692484 0.791913
vt 0.692484 0.874429
vt 0.720204 0.843179
vt 0.669261 0.843179
vn 0.4314 0.8816 -0.1915
vn 0.1915 0.8816 -0.4314
vn 0.1646 0.8800 -0.4454
vn 0.4454 0.8800 -0.1646
vn -0.4426 0.8772 0.1859
vn -0.1859 0.8772 0.4426
vn -0.1795 0.8771 0.4454
vn -0.4454 0.8771 0.1795
vn 0.5206 0.8538 -0.0012
vn -0.5145 0.8575 0.0000
vn 0.0012 0.8538 -0.5206
vn 0.0000 0.8575 0.5145
vn 0.0000 1.0000 0.0000
vn 1.0000 0.0000 0.0000
vn 0.0000 0.0000 -1.0000
vn -0.7071 0.0000 0.7071
vn 0.1748 0.4487 -0.8764
vn -0.0624 0.8855 0.4605
vn 0.3474 0.9086 0.2321
vn -0.2417 0.8722 0.4253
vn -0.4898 0.8718 0.0058
vn 0.1853 0.9652 -0.1847
vn -0.7904 0.6014 0.1163
vn -0.5143 0.7770 -0.3630
vn 0.6430 0.7610 -0.0861
vn 0.7051 0.6963 0.1342
vn 0.6772 0.6154 0.4034
vn 0.0000 0.0000 1.0000
vn -1.0000 0.0000 0.0000
vn 0.1867 0.2984 -0.9360
vn -0.0866 0.7646 0.6387
vn -0.1115 0.9156 0.3864
vn -0.3385 0.7388 0.5827
vn -0.5693 0.8219 0.0189
vn -0.2068 0.9293 -0.3061
vn -0.8980 0.4229 0.1217
vn -0.6798 0.5879 -0.4385
vn 0.8260 0.5458 0.1406
vn 0.8057 0.5837 -0.1005
vn 0.7687 0.6229 -0.1452
vn 0.8401 0.5154 0.1690
vn 0.7727 0.4371 0.4603
usemtl texture
s 1
f 5/1/1 8/2/2 9/3/3 6/4/4
s 2
f 6/5/5 9/6/6 7/7/7 4/8/8
s 3
f 10/9/9 5/10/1 6/11/4 12/12/9
s 4
f 12/12/10 6/13/5 4/14/8 11/15/10
s 5
f 8/16/2 14/17/11 15/18/11 9/19/3
s 6
f 9/6/6 15/18/12 13/20/12 7/7/7
s 7
f 11/21/13 13/22/13 1/23/13
s 8
f 13/24/14 15/25/14 16/26/14 1/27/14
s 9
f 15/25/14 14/28/14 3/29/14 18/30/14
s 10
f 10/31/15 12/32/15 17/33/15 2/34/15
s 11
f 12/32/15 11/35/15 1/27/15 16/26/15
s 12
f 15/25/14 18/30/14 16/26/14
s 13
f 4/36/13 7/37/13 13/22/13 11/21/13
s 14
f 12/32/15 16/26/15 17/33/15
s 15
f 5/38/13 10/39/13 2/40/13
s 16
f 2/40/13 3/41/13 8/42/13 5/38/13
s 17
f 2/40/16 17/33/16 18/30/16 3/41/16
s 18
f 3/41/13 14/43/13 8/44/13
s 19
f 29/45/17 25/46/17 23/47/17
s 20
f 22/48/18 27/49/19 21/50/20
s 21
f 24/51/21 27/49/19 23/52/22
s 22
f 24/53/21 26/54/23 21/55/20
s 23
f 27/49/19 24/51/21 21/50/20
s 24
f 25/46/24 26/54/23 24/53/21
s 25
f 25/46/24 24/56/21 23/47/22
s 26
f 27/49/19 29/57/25 23/52/22
s 27
f 28/58/26 27/59/19 22/60/27
s 28
f 29/61/25 27/59/19 28/58/26
s 29
f 31/62/13 33/63/13 32/64/13
s 30
f 30/65/28 20/66/28 32/64/28 33/63/28
s 31
f 19/67/29 30/65/29 33/63/29 31/62/29
s 32
f 42/68/30 38/69/30 36/70/30
s 33
f 35/71/31 40/72/32 34/73/33
s 34
f 37/74/34 40/72/32 36/75/35
s 35
f 37/76/34 39/77/36 34/78/33
s 36
f 40/72/32 37/74/34 34/73/33
s 37
f 38/69/37 39/77/36 37/76/34
s 38
f 38/69/37 37/79/34 36/70/35
s 39
f 40/72/38 42/80/39 36/75/40
s 40
f 41/81/41 40/82/38 35/83/42
s 41
f 42/84/39 40/82/38 41/81/41
