# Blender v2.80 (sub 75) OBJ File: 'Dungeon_Remastered_Export1.0.blend'
# www.blender.org
mtllib floor_foundation_diagonal_corner.mtl
o floor_foundation_diagonal_corner_Cube.468
v -1.100000 0.000000 -1.000000
v -1.100000 2.000000 -1.000000
v 1.000000 0.000000 1.100000
v 1.000000 2.000000 1.100000
v 1.000000 0.000000 -1.000000
v 1.000000 2.000000 -1.000000
v -1.100000 1.800000 -1.000000
v -1.000000 1.700000 -1.000000
v -1.000000 0.300000 -1.000000
v -1.100000 0.200000 -1.000000
v 1.000000 1.800000 -1.000000
v 1.000000 1.700000 -1.000000
v 1.000000 0.300000 -1.000000
v 1.000000 0.200000 -1.000000
v 1.000000 1.800000 1.100000
v 1.000000 1.700000 1.000000
v 1.000000 0.300000 1.000000
v 1.000000 0.200000 1.100000
v -0.347616 1.323715 -0.260542
v -0.347616 1.528442 -0.260542
v -0.618457 1.323715 -0.531383
v -0.618457 1.528442 -0.531383
v -0.589404 1.519390 -0.631025
v -0.547709 1.578356 -0.589330
v -0.289669 1.578356 -0.331290
v -0.247974 1.519390 -0.289594
v -0.247974 1.332767 -0.289594
v -0.289669 1.273800 -0.331290
v -0.547709 1.273800 -0.589330
v -0.589404 1.332767 -0.631025
v -0.388671 1.273800 -0.430292
v -0.450473 1.397041 -0.363399
v -0.502322 1.323715 -0.415248
v -0.406838 1.288473 -0.410629
v -0.398624 1.323715 -0.311550
v -0.040772 0.679182 -0.082392
v 0.000924 0.738148 -0.040697
v 0.117542 0.738148 0.075921
v 0.159237 0.679182 0.117617
v 0.159237 0.492559 0.117617
v 0.117542 0.433593 0.075921
v 0.000924 0.433593 -0.040697
v -0.040772 0.492559 -0.082392
v -0.069825 0.483507 0.017250
v -0.069825 0.688234 0.017250
v 0.059595 0.483507 0.146669
v 0.059595 0.688234 0.146669
v 0.222538 0.675887 0.180917
v 0.264233 0.734853 0.222612
v 0.522272 0.734853 0.480652
v 0.563968 0.675887 0.522347
v 0.563968 0.489264 0.522347
v 0.522272 0.430298 0.480652
v 0.264233 0.430298 0.222612
v 0.222538 0.489264 0.180917
v 0.193485 0.480212 0.280559
v 0.193485 0.684939 0.280559
v 0.464326 0.480212 0.551400
v 0.464326 0.684939 0.551400
v -0.217981 1.518800 -0.259602
v -0.176286 1.577767 -0.217907
v 0.081754 1.577767 0.040132
v 0.123449 1.518800 0.081828
v 0.123449 1.332177 0.081828
v 0.081754 1.273211 0.040132
v -0.176286 1.273211 -0.217907
v -0.217981 1.332177 -0.259602
v -0.247034 1.323125 -0.159960
v -0.247034 1.527852 -0.159960
v 0.023807 1.323125 0.110881
v 0.023807 1.527852 0.110881
v -0.481968 1.196961 -0.523589
v -0.440272 1.255928 -0.481893
v -0.111522 1.255928 -0.153143
v -0.069826 1.196961 -0.111448
v -0.069826 1.010338 -0.111448
v -0.111522 0.951372 -0.153143
v -0.440272 0.951372 -0.481893
v -0.481968 1.010338 -0.523589
v -0.511020 1.001286 -0.423947
v -0.511020 1.206013 -0.423947
v -0.169469 1.001286 -0.082395
v -0.169469 1.206013 -0.082395
vt 0.082521 0.831162
vt 0.007666 0.831162
vt 0.007666 0.820203
vt 0.082521 0.820203
vt 0.007666 0.918838
vt 0.007666 0.929797
vt 0.082521 0.929797
vt 0.082521 0.918838
vt 0.082521 0.929797
vt 0.082521 0.918838
vt 0.007666 0.773328
vt 0.082521 0.773328
vt 0.082521 0.773328
vt 0.082521 0.883517
vt 0.011229 0.883517
vt 0.007666 0.878037
vt 0.082521 0.878037
vt 0.082521 0.913358
vt 0.011229 0.913358
vt 0.011229 0.836642
vt 0.082521 0.836642
vt 0.082521 0.871963
vt 0.007666 0.871963
vt 0.011229 0.866483
vt 0.082521 0.866483
vt 0.082521 0.820203
vt 0.082521 0.831162
vt 0.082521 0.836642
vt 0.082521 0.913358
vt 0.082521 0.976672
vt 0.007666 0.976672
vt 0.082521 0.976672
vt 0.071776 0.850386
vt 0.062079 0.849652
vt 0.061745 0.825425
vt 0.019294 0.824731
vt 0.012695 0.825836
vt 0.020490 0.818635
vt 0.017449 0.887106
vt 0.010849 0.885245
vt 0.010849 0.844975
vt 0.017449 0.843114
vt 0.081312 0.871976
vt 0.087914 0.873837
vt 0.087914 0.914108
vt 0.081312 0.915968
vt 0.083158 0.853593
vt 0.081962 0.847498
vt 0.089759 0.854698
vt 0.018645 0.911439
vt 0.010849 0.904239
vt 0.017449 0.905344
vt 0.087914 0.933101
vt 0.080116 0.940302
vt 0.081312 0.934206
vt 0.017449 0.901537
vt 0.017449 0.857545
vt 0.052386 0.857545
vt 0.062079 0.856811
vt 0.063590 0.817140
vt 0.063449 0.833066
vt 0.081962 0.833066
vt 0.020490 0.833066
vt 0.062079 0.831756
vt 0.052386 0.832489
vt 0.061745 0.807528
vt 0.081312 0.919775
vt 0.080116 0.925870
vt 0.018645 0.925870
vt 0.017449 0.919775
vt 0.081312 0.857545
vt 0.081312 0.901537
vt 0.071776 0.857545
vt 0.019294 0.839162
vt 0.054231 0.839162
vt 0.073621 0.839162
vt 0.083158 0.839162
vt 0.081849 0.841799
vt 0.081849 0.885790
vt 0.017984 0.885790
vt 0.017984 0.841799
vt 0.017984 0.827368
vt 0.017984 0.871359
vt 0.011384 0.869499
vt 0.011384 0.829228
vt 0.083695 0.823465
vt 0.019829 0.823465
vt 0.021025 0.817370
vt 0.082497 0.817370
vt 0.081849 0.900222
vt 0.081849 0.856230
vt 0.088449 0.858091
vt 0.088449 0.898361
vt 0.017984 0.904078
vt 0.081849 0.904078
vt 0.080652 0.910173
vt 0.019180 0.910173
vt 0.021025 0.802938
vt 0.019829 0.809034
vt 0.013230 0.810139
vt 0.017984 0.889647
vt 0.019180 0.895742
vt 0.011384 0.888542
vt 0.090294 0.839001
vt 0.083695 0.837896
vt 0.082497 0.831801
vt 0.081849 0.918509
vt 0.088449 0.917404
vt 0.080652 0.924605
vt 0.081849 0.841799
vt 0.081849 0.885790
vt 0.017984 0.885790
vt 0.017984 0.841799
vt 0.017984 0.827368
vt 0.017984 0.871359
vt 0.011384 0.869499
vt 0.011384 0.829228
vt 0.083695 0.823465
vt 0.019829 0.823465
vt 0.021025 0.817370
vt 0.082497 0.817370
vt 0.081849 0.900222
vt 0.081849 0.856230
vt 0.088449 0.858091
vt 0.088449 0.898361
vt 0.017984 0.904078
vt 0.081849 0.904078
vt 0.080652 0.910173
vt 0.019180 0.910173
vt 0.021025 0.802938
vt 0.019829 0.809034
vt 0.013230 0.810139
vt 0.017984 0.889647
vt 0.019180 0.895742
vt 0.011384 0.888542
vt 0.090294 0.839001
vt 0.083695 0.837896
vt 0.082497 0.831801
vt 0.081849 0.918509
vt 0.088449 0.917404
vt 0.080652 0.924605
vt 0.081849 0.857424
vt 0.081849 0.901415
vt 0.017984 0.901415
vt 0.017984 0.857424
vt 0.017984 0.842993
vt 0.017984 0.886984
vt 0.011384 0.885124
vt 0.011384 0.844853
vt 0.083695 0.839090
vt 0.019829 0.839090
vt 0.021025 0.832995
vt 0.082497 0.832995
vt 0.081849 0.915847
vt 0.081849 0.871855
vt 0.088449 0.873716
vt 0.088449 0.913986
vt 0.017984 0.919703
vt 0.081849 0.919703
vt 0.080652 0.925798
vt 0.019180 0.925798
vt 0.021025 0.818563
vt 0.019829 0.824659
vt 0.013230 0.825764
vt 0.017984 0.905272
vt 0.019180 0.911367
vt 0.011384 0.904167
vt 0.090294 0.854626
vt 0.083695 0.853521
vt 0.082497 0.847426
vt 0.081849 0.934134
vt 0.088449 0.933029
vt 0.080652 0.940230
vt 0.081849 0.857424
vt 0.081849 0.901415
vt 0.017984 0.901415
vt 0.017984 0.857424
vt 0.017984 0.842993
vt 0.017984 0.886984
vt 0.011384 0.885124
vt 0.011384 0.844853
vt 0.083695 0.839090
vt 0.019829 0.839090
vt 0.021025 0.832995
vt 0.082497 0.832995
vt 0.081849 0.915847
vt 0.081849 0.871855
vt 0.088449 0.873716
vt 0.088449 0.913986
vt 0.017984 0.919703
vt 0.081849 0.919703
vt 0.080652 0.925798
vt 0.019180 0.925798
vt 0.021025 0.818563
vt 0.019829 0.824659
vt 0.013230 0.825764
vt 0.017984 0.905272
vt 0.019180 0.911367
vt 0.011384 0.904167
vt 0.090294 0.854626
vt 0.083695 0.853521
vt 0.082497 0.847426
vt 0.081849 0.934134
vt 0.088449 0.933029
vt 0.080652 0.940230
vn -0.7071 0.0000 0.7071
vn 0.0000 0.0000 -1.0000
vn 1.0000 0.0000 0.0000
vn 0.0000 -1.0000 0.0000
vn -0.5774 0.5774 0.5774
vn -0.5774 -0.5774 0.5773
vn 0.0000 1.0000 0.0000
vn -0.8639 -0.4476 0.2308
vn -0.6905 -0.6740 -0.2626
vn -0.9600 0.0000 -0.2799
vn 0.2799 -0.0000 0.9600
vn 0.2626 -0.6739 0.6905
vn -0.6905 0.6739 -0.2626
vn 0.2626 0.6740 0.6905
vn -0.3401 -0.8768 0.3401
vn -0.2115 -0.4601 0.8623
vn -0.3401 0.8768 0.3401
vn 0.2626 -0.6740 0.6905
vn 0.2626 0.6739 0.6905
usemtl texture
s 1
f 18/1/1 10/2/1 1/3/1 3/4/1
s 2
f 7/5/2 2/6/2 6/7/2 11/8/2
s 3
f 11/8/3 6/7/3 4/9/3 15/10/3
s 4
f 1/11/4 5/12/4 3/13/4
s 5
f 17/14/5 9/15/5 10/16/5 18/17/5
s 6
f 16/18/1 8/19/1 9/20/1 17/21/1
s 7
f 15/22/6 7/23/6 8/24/6 16/25/6
s 8
f 5/26/3 14/27/3 18/1/3 3/4/3
s 9
f 14/27/3 13/28/3 17/21/3 18/1/3
s 10
f 12/29/3 16/18/3 17/21/3 13/28/3
s 11
f 12/29/3 11/8/3 15/10/3 16/18/3
s 12
f 1/3/2 10/2/2 14/27/2 5/26/2
s 13
f 10/2/2 9/20/2 13/28/2 14/27/2
s 14
f 8/19/2 12/29/2 13/28/2 9/20/2
s 15
f 8/19/2 7/5/2 11/8/2 12/29/2
s 16
f 6/30/7 2/31/7 4/32/7
s 17
f 15/10/1 4/9/1 2/6/1 7/5/1
s 18
f 35/33/8 32/34/8 34/35/8
s 19
f 21/36/9 30/37/9 29/38/9
s 20
f 22/39/10 23/40/10 30/41/10 21/42/10
s 21
f 19/43/11 27/44/11 26/45/11 20/46/11
s 22
f 19/47/12 28/48/12 27/49/12
s 23
f 24/50/13 23/51/13 22/52/13
s 24
f 26/53/14 25/54/14 20/55/14
s 25
f 22/56/1 21/57/1 33/58/1 32/59/1
s 26
f 34/60/15 31/61/15 28/62/15
s 27
f 29/63/15 31/61/15 34/60/15
s 28
f 32/64/16 33/65/16 34/66/16
s 29
f 20/67/17 25/68/17 24/69/17 22/70/17
s 30
f 19/71/1 20/72/1 32/59/1 35/73/1
s 31
f 21/74/15 29/63/15 34/60/15 33/75/15
s 32
f 35/76/15 34/60/15 28/62/15 19/77/15
s 33
f 22/56/1 32/59/1 20/72/1
s 34
f 46/78/1 47/79/1 45/80/1 44/81/1
s 35
f 44/82/10 45/83/10 36/84/10 43/85/10
s 36
f 46/86/15 44/87/15 42/88/15 41/89/15
s 37
f 47/90/11 46/91/11 40/92/11 39/93/11
s 38
f 45/94/17 47/95/17 38/96/17 37/97/17
s 39
f 42/98/9 44/99/9 43/100/9
s 40
f 45/101/13 37/102/13 36/103/13
s 41
f 40/104/18 46/105/18 41/106/18
s 42
f 47/107/19 39/108/19 38/109/19
s 43
f 58/110/1 59/111/1 57/112/1 56/113/1
s 44
f 56/114/10 57/115/10 48/116/10 55/117/10
s 45
f 58/118/15 56/119/15 54/120/15 53/121/15
s 46
f 59/122/11 58/123/11 52/124/11 51/125/11
s 47
f 57/126/17 59/127/17 50/128/17 49/129/17
s 48
f 54/130/9 56/131/9 55/132/9
s 49
f 57/133/13 49/134/13 48/135/13
s 50
f 52/136/18 58/137/18 53/138/18
s 51
f 59/139/19 51/140/19 50/141/19
s 52
f 70/142/1 71/143/1 69/144/1 68/145/1
s 53
f 68/146/10 69/147/10 60/148/10 67/149/10
s 54
f 70/150/15 68/151/15 66/152/15 65/153/15
s 55
f 71/154/11 70/155/11 64/156/11 63/157/11
s 56
f 69/158/17 71/159/17 62/160/17 61/161/17
s 57
f 66/162/9 68/163/9 67/164/9
s 58
f 69/165/13 61/166/13 60/167/13
s 59
f 64/168/18 70/169/18 65/170/18
s 60
f 71/171/19 63/172/19 62/173/19
s 61
f 82/174/1 83/175/1 81/176/1 80/177/1
s 62
f 80/178/10 81/179/10 72/180/10 79/181/10
s 63
f 82/182/15 80/183/15 78/184/15 77/185/15
s 64
f 83/186/11 82/187/11 76/188/11 75/189/11
s 65
f 81/190/17 83/191/17 74/192/17 73/193/17
s 66
f 78/194/9 80/195/9 79/196/9
s 67
f 81/197/13 73/198/13 72/199/13
s 68
f 76/200/18 82/201/18 77/202/18
s 69
f 83/203/19 75/204/19 74/205/19
