# Blender v2.80 (sub 75) OBJ File: 'Dungeon_Remastered_Export1.0.blend'
# www.blender.org
mtllib floor_dirt_small_D.mtl
o floor_dirt_small_D_Cube.15024
v 0.999988 -0.100000 -1.000000
v -1.000012 -0.100000 -1.000000
v 0.999988 -0.100000 1.000000
v 0.096176 0.000000 0.309727
v 0.144642 0.000000 0.343575
v 0.206339 0.038438 0.212088
v 0.129181 0.038438 0.221326
v 0.160854 0.000000 0.151269
v 0.098336 0.000000 0.222121
v 0.185402 0.038438 0.282711
v 0.223830 0.000000 0.294078
v 0.253745 0.000000 0.225121
v -1.000012 -0.100000 1.000000
v -1.000012 0.020000 -1.000000
v 0.999988 0.020000 -1.000000
v 0.999988 0.020000 1.000000
v -1.000012 0.020000 1.000000
vt 0.645254 0.819718
vt 0.654424 0.819718
vt 0.645254 0.876175
vt 0.720204 0.921304
vt 0.692484 0.952554
vt 0.711034 0.954300
vt 0.684098 0.985550
vt 0.645254 0.954300
vt 0.684098 0.907425
vt 0.684098 0.791913
vt 0.711034 0.819718
vt 0.654424 0.876175
vt 0.669261 0.921304
vt 0.692484 0.791913
vt 0.692484 0.874429
vt 0.720204 0.843179
vt 0.669261 0.843179
vt 0.633084 0.838616
vt 0.633084 0.838616
vt 0.677734 0.838616
vt 0.677734 0.838616
vt 0.633084 0.838616
vt 0.677734 0.838616
vt 0.677734 0.838616
vt 0.633084 0.838616
vn 0.5562 0.4487 -0.6995
vn -0.2661 0.8855 0.3810
vn 0.2028 0.9086 0.3652
vn -0.4094 0.8722 0.2677
vn -0.4383 0.8718 -0.2188
vn 0.2493 0.9652 -0.0795
vn -0.7561 0.6014 -0.2579
vn -0.2914 0.7770 -0.5580
vn 0.6112 0.7610 0.2175
vn 0.5658 0.6963 0.4417
vn 0.4178 0.6154 0.6684
vn 0.0000 1.0000 0.0000
vn 0.0000 0.0000 1.0000
vn -0.0000 0.0000 -1.0000
vn -1.0000 0.0000 0.0000
vn 1.0000 0.0000 0.0000
usemtl texture
s 1
f 12/1/1 8/2/1 6/3/1
s 2
f 5/4/2 10/5/3 4/6/4
s 3
f 7/7/5 10/5/3 6/8/6
s 4
f 7/9/5 9/10/7 4/11/4
s 5
f 10/5/3 7/7/5 4/6/4
s 6
f 8/2/8 9/10/7 7/9/5
s 7
f 8/2/8 7/12/5 6/3/6
s 8
f 10/5/3 12/13/9 6/8/6
s 9
f 11/14/10 10/15/3 5/16/11
s 10
f 12/17/9 10/15/3 11/14/10
s 11
f 14/18/12 17/19/12 16/20/12 15/21/12
s 12
f 13/22/13 3/23/13 16/20/13 17/19/13
s 13
f 1/24/14 2/25/14 14/18/14 15/21/14
s 14
f 2/25/15 13/22/15 17/19/15 14/18/15
s 15
f 3/23/16 1/24/16 15/21/16 16/20/16
