# Blender v2.80 (sub 75) OBJ File: 'Dungeon_Remastered_Export1.0.blend'
# www.blender.org
mtllib floor_tile_small.mtl
o floor_tile_small_Cube.11129
v 1.000000 0.050000 -1.000000
v -1.000000 0.050000 -1.000000
v -1.000000 0.050000 1.000000
v 1.000000 0.050000 1.000000
v 0.050000 0.050000 -0.667157
v -0.050000 0.050000 -0.667157
v 0.000000 0.050000 -0.575736
v 0.000000 0.020000 -0.644636
v 0.667157 0.050000 -0.050000
v 0.575736 0.050000 0.000000
v 0.667157 0.050000 0.050000
v 0.644636 0.020000 0.000000
v 0.050000 0.050000 0.667157
v 0.000000 0.050000 0.575736
v -0.050000 0.050000 0.667157
v -0.000000 0.020000 0.644636
v -0.667157 0.050000 -0.050000
v -0.667157 0.050000 0.050000
v -0.575736 0.050000 0.000000
v -0.644636 0.020000 -0.000000
v -0.050000 0.050000 -1.000000
v 0.050000 0.050000 -1.000000
v 0.000000 0.020000 -1.000000
v 1.000000 0.050000 -0.050000
v 1.000000 0.050000 0.050000
v 1.000000 0.020000 0.000000
v 0.050000 0.050000 1.000000
v -0.050000 0.050000 1.000000
v 0.000000 0.020000 1.000000
v -1.000000 0.050000 0.050000
v -1.000000 0.050000 -0.050000
v -1.000000 0.020000 0.000000
v 1.000000 -0.100000 -1.000000
v -1.000000 -0.100000 -1.000000
v -1.000000 -0.100000 1.000000
v 1.000000 -0.100000 1.000000
vt 0.722385 0.870536
vt 0.679966 0.870536
vt 0.722385 0.870536
vt 0.675502 0.870536
vt 0.633084 0.870536
vt 0.633084 0.870536
vt 0.633084 0.870536
vt 0.675502 0.870536
vt 0.633084 0.870536
vt 0.677734 0.870536
vt 0.652027 0.870536
vt 0.677734 0.870536
vt 0.703442 0.870536
vt 0.677734 0.854911
vt 0.703442 0.854911
vt 0.706517 0.837947
vt 0.677734 0.837947
vt 0.677734 0.869197
vt 0.706517 0.869197
vt 0.707522 0.901786
vt 0.679966 0.901786
vt 0.679966 0.839286
vt 0.707522 0.839286
vt 0.706517 0.806697
vt 0.677734 0.806697
vt 0.677734 0.837947
vt 0.677734 0.854911
vt 0.652027 0.854911
vt 0.648952 0.837947
vt 0.648952 0.869197
vt 0.675502 0.901786
vt 0.647947 0.901786
vt 0.647947 0.839286
vt 0.675502 0.839286
vt 0.648952 0.806697
vt 0.675502 0.854241
vt 0.675502 0.854911
vt 0.677734 0.822322
vt 0.677734 0.854241
vt 0.677734 0.853572
vt 0.679966 0.886161
vt 0.679966 0.854241
vt 0.722385 0.854241
vt 0.722385 0.854241
vt 0.722385 0.854241
vt 0.675502 0.854911
vt 0.675502 0.854241
vt 0.677734 0.854241
vt 0.677734 0.822322
vt 0.677734 0.853572
vt 0.679966 0.854241
vt 0.679966 0.886161
vt 0.633084 0.854241
vt 0.633084 0.854241
vt 0.633084 0.854241
vt 0.679966 0.870536
vt 0.722385 0.870536
vt 0.722385 0.870536
vt 0.633084 0.838616
vt 0.633084 0.838616
vt 0.633084 0.838616
vt 0.633084 0.838616
vt 0.679966 0.838616
vt 0.677734 0.838616
vt 0.722385 0.838616
vt 0.722385 0.838616
vt 0.633084 0.838616
vt 0.675502 0.838616
vt 0.722385 0.838616
vt 0.722385 0.838616
vt 0.722385 0.838616
vt 0.722385 0.838616
vt 0.722385 0.838616
vt 0.675502 0.838616
vt 0.677734 0.838616
vt 0.633084 0.838616
vt 0.679966 0.838616
vt 0.633084 0.838616
vt 0.679966 0.870536
vt 0.707522 0.870536
vt 0.707522 0.870536
vt 0.679966 0.870536
vt 0.675502 0.870536
vt 0.647947 0.870536
vt 0.647947 0.870536
vt 0.675502 0.870536
vn 0.0000 1.0000 0.0000
vn 0.0000 0.9169 -0.3992
vn 0.3992 0.9169 0.0000
vn -0.4426 0.8772 0.1859
vn -0.1859 0.8772 0.4426
vn -0.1795 0.8771 0.4454
vn -0.4454 0.8771 0.1795
vn -0.4454 0.8771 -0.1795
vn -0.1795 0.8771 -0.4454
vn -0.1859 0.8772 -0.4426
vn -0.4426 0.8772 -0.1859
vn 0.0000 0.9169 0.3992
vn -0.3992 0.9169 0.0000
vn 0.1859 0.8772 0.4426
vn 0.4426 0.8772 0.1859
vn 0.4454 0.8771 0.1795
vn 0.1795 0.8771 0.4454
vn 0.1795 0.8771 -0.4454
vn 0.4454 0.8771 -0.1795
vn 0.4426 0.8772 -0.1859
vn 0.1859 0.8772 -0.4426
vn 0.5145 0.8575 0.0000
vn -0.5145 0.8575 0.0000
vn 0.0000 0.8575 -0.5145
vn 0.0000 0.8575 0.5145
vn -1.0000 0.0000 0.0000
vn 0.0000 0.0000 1.0000
vn 1.0000 0.0000 0.0000
vn 0.0000 0.0000 -1.0000
usemtl texture
s 1
f 25/1/1 27/2/1 4/3/1
s 2
f 28/4/1 30/5/1 3/6/1
s 3
f 31/7/1 21/8/1 2/9/1
s 4
f 7/10/1 19/11/1 14/12/1 10/13/1
s 5
f 7/14/2 10/15/3 12/16/3 8/17/2
s 6
f 8/18/4 12/19/5 9/20/6 5/21/7
s 7
f 13/22/8 11/23/9 12/24/10 16/25/11
s 8
f 16/26/12 12/16/3 10/15/3 14/27/12
s 9
f 19/28/13 7/14/2 8/17/2 20/29/13
s 10
f 20/30/14 8/18/15 6/31/16 17/32/17
s 11
f 18/33/18 15/34/19 16/25/20 20/35/21
s 12
f 20/29/13 16/26/12 14/27/12 19/28/13
s 13
f 21/36/22 6/37/16 8/38/15 23/39/22
s 14
f 23/39/23 8/40/4 5/41/7 22/42/23
s 15
f 11/23/9 25/43/24 26/44/24 12/24/10
s 16
f 12/19/5 26/44/25 24/45/25 9/20/6
s 17
f 15/46/19 28/47/22 29/48/22 16/49/20
s 18
f 16/50/11 29/48/23 27/51/23 13/52/8
s 19
f 30/53/24 18/33/18 20/35/21 32/54/24
s 20
f 32/54/25 20/30/14 17/32/17 31/55/25
s 21
f 22/56/1 24/57/1 1/58/1
s 22
f 30/59/26 32/60/26 35/61/26 3/62/26
s 23
f 27/63/27 29/64/27 36/65/27 4/66/27
s 24
f 32/60/26 34/67/26 35/61/26
s 25
f 28/68/27 3/62/27 35/61/27 29/64/27
s 26
f 24/69/28 26/70/28 33/71/28 1/72/28
s 27
f 29/64/27 35/61/27 36/65/27
s 28
f 26/70/28 25/73/28 4/66/28 36/65/28
s 29
f 21/74/29 23/75/29 34/67/29 2/76/29
s 30
f 23/75/29 22/77/29 1/72/29 33/71/29
s 31
f 32/60/26 31/78/26 2/76/26 34/67/26
s 32
f 26/70/28 36/65/28 33/71/28
s 33
f 5/79/1 9/80/1 24/57/1 22/56/1
s 34
f 11/81/1 13/82/1 27/2/1 25/1/1
s 35
f 15/83/1 18/84/1 30/5/1 28/4/1
s 36
f 17/85/1 6/86/1 21/8/1 31/7/1
s 37
f 23/75/29 33/71/29 34/67/29
