# Blender v2.80 (sub 75) OBJ File: 'Dungeon_Remastered_Export1.0.blend'
# www.blender.org
mtllib floor_wood_small.mtl
o floor_wood_small_Cube.13701
v -1.000000 -0.100000 -1.000000
v 1.000000 -0.100000 -1.000000
v 1.000000 -0.100000 1.000000
v -1.000000 -0.100000 1.000000
v -0.975000 0.050000 -0.975000
v -1.000000 0.025000 -1.000000
v 0.975000 0.050000 -0.975000
v 1.000000 0.025000 -1.000000
v -0.025000 0.050000 -0.025000
v -0.025000 0.050000 -0.475000
v 0.025000 0.050000 0.525000
v -1.000000 0.025000 0.500000
v -0.975000 0.050000 0.475000
v -0.975000 0.050000 0.025000
v -1.000000 0.025000 0.000000
v -1.000000 0.025000 -0.500000
v -0.975000 0.050000 -0.525000
v 0.000000 0.025000 1.000000
v 0.025000 0.050000 0.975000
v 1.000000 0.050000 0.525000
v 1.000000 0.025000 1.000000
v 1.000000 0.050000 0.975000
v 0.975000 0.050000 -0.525000
v 1.000000 0.025000 -0.500000
v 0.975000 0.050000 0.025000
v 0.975000 0.050000 0.475000
v 1.000000 0.025000 0.500000
v -1.000000 0.050000 0.975000
v -1.000000 0.025000 1.000000
v -1.000000 0.050000 -0.475000
v -1.000000 0.050000 0.525000
v 1.000000 0.050000 -0.475000
v 1.000000 0.050000 -0.025000
v 1.000000 0.025000 0.000000
v -1.000000 0.050000 -0.025000
v 0.000000 0.025000 -0.500000
v 0.025000 0.050000 -0.475000
v 0.025000 0.050000 -0.025000
v 0.000000 0.025000 0.000000
v -0.025000 0.050000 0.975000
v -0.025000 0.050000 0.525000
v 0.000000 0.025000 0.500000
vt 0.591104 0.776186
vt 0.591104 0.768935
vt 0.519264 0.768935
vt 0.519264 0.776186
vt 0.519264 0.776186
vt 0.519264 0.776186
vt 0.519264 0.768935
vt 0.591104 0.776186
vt 0.551914 0.854736
vt 0.524451 0.854736
vt 0.524451 0.823328
vt 0.551914 0.823328
vt 0.519264 0.776186
vt 0.580822 0.926891
vt 0.524451 0.972595
vt 0.524451 0.916647
vt 0.580822 0.870944
vt 0.551914 0.895392
vt 0.524451 0.895392
vt 0.524451 0.839444
vt 0.551914 0.839444
vt 0.580822 0.896564
vt 0.553359 0.941095
vt 0.553359 0.885148
vt 0.580822 0.840616
vt 0.580821 0.855908
vt 0.553359 0.900440
vt 0.553359 0.844381
vt 0.580821 0.823800
vt 0.580822 0.865064
vt 0.524451 0.910767
vt 0.524451 0.854820
vt 0.580822 0.809117
vt 0.523729 0.976289
vt 0.523729 0.914125
vt 0.581544 0.929414
vt 0.523729 0.914461
vt 0.523729 0.852297
vt 0.581544 0.867250
vt 0.581544 0.805422
vt 0.581544 0.867586
vt 0.552637 0.890687
vt 0.552637 0.891024
vt 0.552637 0.828860
vt 0.552637 0.836336
vt 0.552637 0.898500
vt 0.552637 0.904720
vt 0.552637 0.840949
vt 0.581544 0.822076
vt 0.581544 0.857845
vt 0.523729 0.836336
vt 0.523729 0.822076
vt 0.552637 0.822076
vt 0.523729 0.857845
vt 0.581544 0.836336
vt 0.581544 0.898500
vt 0.552637 0.945375
vt 0.552637 0.883211
vt 0.523729 0.898500
vt 0.552637 0.857845
vt 0.591104 0.776186
vt 0.555184 0.776186
vt 0.591104 0.768935
vt 0.519264 0.776186
vt 0.591104 0.776186
vt 0.591104 0.776186
vn 0.0000 0.0000 -1.0000
vn -1.0000 0.0000 0.0000
vn 1.0000 0.0000 0.0000
vn 0.0000 1.0000 0.0000
vn -0.7071 0.7071 0.0000
vn 0.0000 0.7071 -0.7071
vn 0.7071 0.7071 0.0000
vn 0.0000 0.7071 0.7071
vn 0.0000 0.0000 1.0000
usemtl texture
s 1
f 8/1/1 2/2/1 1/3/1 6/4/1
s 2
f 29/5/2 12/6/2 4/7/2
s 3
f 2/2/3 8/1/3 24/8/3
s 4
f 41/9/4 31/10/4 28/11/4 40/12/4
s 5
f 6/4/2 1/3/2 16/13/2
s 6
f 7/14/4 5/15/4 17/16/4 23/17/4
s 7
f 10/18/4 30/19/4 35/20/4 9/21/4
s 8
f 32/22/4 37/23/4 38/24/4 33/25/4
s 9
f 20/26/4 11/27/4 19/28/4 22/29/4
s 10
f 25/30/4 14/31/4 13/32/4 26/33/4
s 11
f 17/16/5 5/15/5 6/34/5 16/35/5
s 12
f 5/15/6 7/14/6 8/36/6 6/34/6
s 13
f 13/32/5 14/31/5 15/37/5 12/38/5
s 14
f 7/14/7 23/17/7 24/39/7 8/36/7
s 15
f 25/30/7 26/33/7 27/40/7 34/41/7
s 16
f 36/42/8 24/39/8 23/17/8
s 17
f 25/30/6 34/41/6 39/43/6
s 18
f 42/44/8 27/40/8 26/33/8
s 19
f 10/18/7 9/21/7 39/45/7 36/46/7
s 20
f 42/47/5 18/48/5 19/28/5 11/27/5
s 21
f 22/29/8 19/28/8 18/48/8 21/49/8
s 22
f 11/27/6 20/26/6 27/50/6 42/47/6
s 23
f 20/26/3 22/29/3 21/49/3 27/50/3
s 24
f 15/51/8 39/45/8 9/21/8 35/20/8
s 25
f 40/12/8 28/11/8 29/52/8 18/53/8
s 26
f 28/11/2 31/10/2 12/54/2 29/52/2
s 27
f 32/22/3 33/25/3 34/55/3 24/56/3
s 28
f 37/23/6 32/22/6 24/56/6 36/57/6
s 29
f 39/58/8 34/55/8 33/25/8 38/24/8
s 30
f 30/19/6 10/18/6 36/46/6 16/59/6
s 31
f 36/57/5 39/58/5 38/24/5 37/23/5
s 32
f 35/20/2 30/19/2 16/59/2 15/51/2
s 33
f 31/10/6 41/9/6 42/60/6 12/54/6
s 34
f 41/9/7 40/12/7 18/53/7 42/60/7
s 35
f 42/44/8 26/33/8 13/32/8
s 36
f 12/38/8 42/44/8 13/32/8
s 37
f 36/42/8 23/17/8 17/16/8
s 38
f 16/35/8 36/42/8 17/16/8
s 39
f 14/31/6 25/30/6 39/43/6
s 40
f 15/37/6 14/31/6 39/43/6
s 41
f 21/61/9 18/62/9 3/63/9
s 42
f 29/5/9 4/7/9 18/62/9
s 43
f 4/7/9 3/63/9 18/62/9
s 44
f 12/6/2 15/64/2 4/7/2
s 45
f 1/3/2 15/64/2 16/13/2
s 46
f 4/7/2 15/64/2 1/3/2
s 47
f 3/63/3 34/65/3 27/66/3
s 48
f 21/61/3 3/63/3 27/66/3
s 49
f 2/2/3 24/8/3 34/65/3
s 50
f 3/63/3 2/2/3 34/65/3
