# Blender v2.80 (sub 75) OBJ File: 'Dungeon_Remastered_Export1.0.blend'
# www.blender.org
mtllib floor_tile_small_corner.mtl
o floor_tile_small_corner_Cube.11130
v 1.000000 0.050000 -1.000000
v -1.000000 0.050000 -1.000000
v 1.000000 0.050000 1.000000
v 0.050000 0.050000 -0.667157
v -0.048350 0.050000 -0.616445
v 0.000000 0.020000 -0.644636
v 0.667157 0.050000 -0.050000
v 0.616445 0.050000 0.048350
v 0.644636 0.020000 0.000000
v -0.050000 0.050000 -1.000000
v 0.050000 0.050000 -1.000000
v 0.000000 0.020000 -1.000000
v 1.000000 0.050000 -0.050000
v 1.000000 0.050000 0.050000
v 1.000000 0.020000 0.000000
v 1.000000 -0.100000 -1.000000
v -1.000000 -0.100000 -1.000000
v 1.000000 -0.100000 1.000000
vt 0.677734 0.854911
vt 0.703442 0.854911
vt 0.706517 0.837947
vt 0.677734 0.837947
vt 0.677734 0.869197
vt 0.706517 0.869197
vt 0.707522 0.901786
vt 0.679966 0.901786
vt 0.675502 0.854241
vt 0.675502 0.854911
vt 0.677734 0.822322
vt 0.677734 0.854241
vt 0.677734 0.853572
vt 0.679966 0.886161
vt 0.679966 0.854241
vt 0.707522 0.839286
vt 0.722385 0.854241
vt 0.722385 0.854241
vt 0.706517 0.806697
vt 0.722385 0.854241
vt 0.679966 0.870536
vt 0.722385 0.870536
vt 0.722385 0.870536
vt 0.722385 0.838616
vt 0.722385 0.838616
vt 0.722385 0.838616
vt 0.722385 0.838616
vt 0.722385 0.838616
vt 0.722385 0.838616
vt 0.722385 0.838616
vt 0.675502 0.838616
vt 0.677734 0.838616
vt 0.633084 0.838616
vt 0.633084 0.838616
vt 0.679966 0.838616
vt 0.679966 0.870536
vt 0.707522 0.870536
vt 0.675502 0.870536
vt 0.675502 0.870536
vt 0.633084 0.870536
vt 0.722385 0.870536
vt 0.703442 0.870536
vt 0.722385 0.870536
vt 0.707522 0.870536
vn 0.4314 0.8816 -0.1915
vn 0.1915 0.8816 -0.4314
vn 0.1646 0.8800 -0.4454
vn 0.4454 0.8800 -0.1646
vn -0.4426 0.8772 0.1859
vn -0.1859 0.8772 0.4426
vn -0.1795 0.8771 0.4454
vn -0.4454 0.8771 0.1795
vn 0.5206 0.8538 -0.0012
vn -0.5145 0.8575 0.0000
vn 0.0012 0.8538 -0.5206
vn 0.0000 0.8575 0.5145
vn 0.0000 1.0000 0.0000
vn 1.0000 0.0000 0.0000
vn 0.0000 0.0000 -1.0000
vn -0.7071 0.0000 0.7071
usemtl texture
s 1
f 5/1/1 8/2/2 9/3/3 6/4/4
s 2
f 6/5/5 9/6/6 7/7/7 4/8/8
s 3
f 10/9/9 5/10/1 6/11/4 12/12/9
s 4
f 12/12/10 6/13/5 4/14/8 11/15/10
s 5
f 8/16/2 14/17/11 15/18/11 9/19/3
s 6
f 9/6/6 15/18/12 13/20/12 7/7/7
s 7
f 11/21/13 13/22/13 1/23/13
s 8
f 13/24/14 15/25/14 16/26/14 1/27/14
s 9
f 15/25/14 14/28/14 3/29/14 18/30/14
s 10
f 10/31/15 12/32/15 17/33/15 2/34/15
s 11
f 12/32/15 11/35/15 1/27/15 16/26/15
s 12
f 15/25/14 18/30/14 16/26/14
s 13
f 4/36/13 7/37/13 13/22/13 11/21/13
s 14
f 12/32/15 16/26/15 17/33/15
s 15
f 5/38/13 10/39/13 2/40/13
s 16
f 2/40/13 3/41/13 8/42/13 5/38/13
s 17
f 2/40/16 17/33/16 18/30/16 3/41/16
s 18
f 3/41/13 14/43/13 8/44/13
