# Blender v2.80 (sub 75) OBJ File: 'Dungeon_Remastered_Export1.0.blend'
# www.blender.org
mtllib floor_dirt_large.mtl
o floor_dirt_large_Cube.15029
v -2.000000 -0.100000 2.000012
v 2.000000 -0.100000 2.000012
v 2.000000 -0.100000 -1.999987
v -2.000000 -0.100000 -1.999988
v -2.000000 0.020000 2.000012
v -2.000000 0.020000 -1.999988
v 2.000000 0.020000 -1.999987
v 2.000000 0.020000 2.000012
v 1.191999 0.000000 -1.166332
v 0.963981 0.000000 -1.073487
v 0.996755 0.085327 -1.188479
v 1.012513 0.000000 -1.503449
v 1.233774 0.000000 -1.495191
v 1.283321 0.000000 -1.267952
v 1.129817 0.108606 -1.428365
v 0.945433 0.085911 -1.490788
v 1.212890 0.108606 -1.254658
v 0.860947 0.000000 -1.239258
v 0.850423 0.000000 -1.377379
v -1.442912 0.000000 -1.067590
v -1.255696 0.000000 -0.989784
v -1.297660 0.070114 -0.929944
v -1.342245 0.000000 -0.629429
v -1.636504 0.000000 -0.765993
v -1.579274 0.000000 -1.010831
v -1.475276 0.088635 -0.803126
v -1.364172 0.070579 -0.695233
v -1.475549 0.088635 -0.956315
v -1.153648 0.000000 -0.842571
v -1.207558 0.000000 -0.702857
v 0.398590 0.000000 0.334326
v 0.451662 0.000000 0.359068
v 0.478713 0.058716 0.359068
v 0.447174 0.000000 0.489904
v 0.355041 0.000000 0.468928
v 0.352250 0.000000 0.369712
v 0.433253 0.053563 0.445495
v 0.382838 0.074734 0.369712
v 0.531646 0.000000 0.391111
v 0.525126 0.000000 0.449866
v -0.917110 0.000000 -1.180064
v -1.049975 0.000000 -1.167424
v -1.068651 0.067885 -1.218460
v -1.022455 0.000000 -1.465068
v -0.848915 0.000000 -1.434832
v -0.834223 0.000000 -1.250381
v -0.938032 0.086405 -1.393299
v -1.076693 0.068350 -1.462280
v -0.891170 0.086405 -1.247454
v -1.170267 0.000000 -1.273052
v -1.163753 0.000000 -1.383065
v 1.374978 0.000000 1.576842
v 1.322223 0.000000 1.602255
v 1.305095 0.058716 1.623192
v 1.223797 0.000000 1.515939
v 1.298369 0.000000 1.457909
v 1.376929 0.000000 1.518569
v 1.266984 0.053563 1.533281
v 1.357562 0.074734 1.542244
v 1.246778 0.000000 1.643873
v 1.205429 0.000000 1.601625
v 0.827231 0.000000 -1.188170
v 0.797317 0.000000 -1.119213
v 0.758889 0.038438 -1.130580
v 0.671822 0.000000 -1.191171
v 0.734340 0.000000 -1.262023
v 0.702668 0.038438 -1.191966
v 0.779825 0.038438 -1.201203
v 0.718128 0.000000 -1.069716
v 0.669663 0.000000 -1.103565
v -0.746255 0.000000 1.225121
v -0.776170 0.000000 1.294078
v -0.814598 0.038438 1.282711
v -0.901664 0.000000 1.222121
v -0.839146 0.000000 1.151269
v -0.870819 0.038438 1.221326
v -0.793661 0.038438 1.212088
v -0.855358 0.000000 1.343575
v -0.903824 0.000000 1.309727
v 1.260968 0.000000 1.270161
v 1.185768 0.000000 1.380423
v 1.134581 0.067885 1.362166
v 0.974448 0.000000 1.169016
v 1.108621 0.000000 1.054876
v 1.259868 0.000000 1.161470
v 1.083603 0.086405 1.149960
v 0.941925 0.068350 1.212511
v 1.225721 0.086405 1.207138
v 1.027646 0.000000 1.405423
v 0.947202 0.000000 1.330097
vt 0.633084 0.838616
vt 0.722385 0.838616
vt 0.722385 0.838616
vt 0.633084 0.838616
vt 0.722385 0.838616
vt 0.722385 0.838616
vt 0.633084 0.838616
vt 0.633084 0.838616
vt 0.669261 0.843179
vt 0.692484 0.874429
vt 0.692484 0.791913
vt 0.720204 0.843179
vt 0.692484 0.952554
vt 0.669261 0.921304
vt 0.645254 0.954300
vt 0.684098 0.985550
vt 0.654424 0.954300
vt 0.654424 0.819718
vt 0.654424 0.876175
vt 0.645254 0.876175
vt 0.684098 0.791913
vt 0.684098 0.907425
vt 0.645254 0.819718
vt 0.711034 0.954300
vt 0.711034 0.819718
vt 0.720204 0.921304
vt 0.669261 0.843179
vt 0.692484 0.874429
vt 0.692484 0.791913
vt 0.720204 0.843179
vt 0.692484 0.952554
vt 0.669261 0.921304
vt 0.645254 0.954300
vt 0.684098 0.985550
vt 0.654424 0.954300
vt 0.654424 0.819718
vt 0.654424 0.876175
vt 0.645254 0.876175
vt 0.684098 0.791913
vt 0.684098 0.907425
vt 0.645254 0.819718
vt 0.711034 0.954300
vt 0.711034 0.819718
vt 0.720204 0.921304
vt 0.669261 0.843179
vt 0.692484 0.874429
vt 0.692484 0.791913
vt 0.720204 0.843179
vt 0.692484 0.952554
vt 0.669261 0.921304
vt 0.645254 0.954300
vt 0.654424 0.819718
vt 0.654424 0.876175
vt 0.645254 0.876175
vt 0.684098 0.791913
vt 0.684098 0.907425
vt 0.645254 0.819718
vt 0.684098 0.985550
vt 0.711034 0.954300
vt 0.711034 0.819718
vt 0.720204 0.921304
vt 0.669261 0.843179
vt 0.692484 0.874429
vt 0.692484 0.791913
vt 0.720204 0.843179
vt 0.692484 0.952554
vt 0.669261 0.921304
vt 0.645254 0.954300
vt 0.684098 0.985550
vt 0.654424 0.954300
vt 0.654424 0.819718
vt 0.654424 0.876175
vt 0.645254 0.876175
vt 0.684098 0.791913
vt 0.684098 0.907425
vt 0.645254 0.819718
vt 0.711034 0.954300
vt 0.711034 0.819718
vt 0.720204 0.921304
vt 0.669261 0.843179
vt 0.692484 0.874429
vt 0.692484 0.791913
vt 0.720204 0.843179
vt 0.692484 0.952554
vt 0.669261 0.921304
vt 0.645254 0.954300
vt 0.654424 0.819718
vt 0.654424 0.876175
vt 0.645254 0.876175
vt 0.684098 0.791913
vt 0.684098 0.907425
vt 0.645254 0.819718
vt 0.684098 0.985550
vt 0.711034 0.954300
vt 0.711034 0.819718
vt 0.720204 0.921304
vt 0.669261 0.843179
vt 0.692484 0.874429
vt 0.692484 0.791913
vt 0.720204 0.843179
vt 0.692484 0.952554
vt 0.669261 0.921304
vt 0.645254 0.954300
vt 0.654424 0.819718
vt 0.654424 0.876175
vt 0.645254 0.876175
vt 0.684098 0.791913
vt 0.684098 0.907425
vt 0.684098 0.985550
vt 0.711034 0.954300
vt 0.711034 0.819718
vt 0.720204 0.921304
vt 0.645254 0.819718
vt 0.669261 0.843179
vt 0.692484 0.874429
vt 0.692484 0.791913
vt 0.720204 0.843179
vt 0.692484 0.952554
vt 0.669261 0.921304
vt 0.645254 0.954300
vt 0.654424 0.819718
vt 0.654424 0.876175
vt 0.645254 0.876175
vt 0.684098 0.791913
vt 0.684098 0.907425
vt 0.684098 0.985550
vt 0.711034 0.954300
vt 0.711034 0.819718
vt 0.720204 0.921304
vt 0.645254 0.819718
vt 0.669261 0.843179
vt 0.692484 0.874429
vt 0.692484 0.791913
vt 0.720204 0.843179
vt 0.692484 0.952554
vt 0.669261 0.921304
vt 0.645254 0.954300
vt 0.684098 0.985550
vt 0.654424 0.954300
vt 0.654424 0.819718
vt 0.654424 0.876175
vt 0.645254 0.876175
vt 0.684098 0.791913
vt 0.684098 0.907425
vt 0.645254 0.819718
vt 0.711034 0.954300
vt 0.711034 0.819718
vt 0.720204 0.921304
vn 0.0000 1.0000 -0.0000
vn 0.0000 0.0000 -1.0000
vn 1.0000 0.0000 0.0000
vn 0.0000 0.0000 1.0000
vn -1.0000 0.0000 -0.0000
vn 0.3775 0.5790 0.7227
vn 0.2302 0.7017 0.6743
vn 0.2533 0.7409 0.6220
vn -0.5894 0.7200 0.3663
vn -0.4235 0.8915 0.1609
vn -0.5637 0.8141 0.1396
vn 0.4390 0.5146 0.7365
vn -0.3572 0.9313 0.0710
vn -0.1138 0.9929 0.0335
vn -0.1450 0.9870 0.0693
vn 0.5092 0.6674 -0.5435
vn 0.3903 0.7238 -0.5691
vn 0.7408 0.6340 -0.2219
vn 0.0367 0.1737 -0.9841
vn 0.1048 0.3984 -0.9112
vn 0.6905 0.3718 0.6205
vn -0.5812 0.8093 0.0846
vn -0.5771 -0.3412 -0.7420
vn 0.8156 0.5507 -0.1778
vn 0.0076 0.7677 -0.6408
vn 0.3347 0.9005 -0.2777
vn 0.4313 0.7210 -0.5423
vn 0.4351 0.9004 0.0054
vn -0.1846 0.9319 -0.3123
vn 0.0420 0.8776 0.4775
vn -0.2020 0.9646 0.1697
vn -0.4901 0.8462 0.2093
vn 0.0558 0.6901 0.7216
vn -0.4797 0.7927 -0.3762
vn 0.3923 0.8844 0.2526
vn -0.1781 0.2427 -0.9536
vn 0.2615 0.0234 -0.9649
vn 0.3969 -0.1828 -0.8995
vn 0.3666 -0.1689 -0.9149
vn -0.2524 0.3701 -0.8940
vn -0.2958 0.7110 0.6379
vn 0.0610 0.8507 0.5221
vn -0.0813 0.9446 0.3180
vn 0.1107 0.6512 0.7508
vn -0.5890 0.2411 -0.7713
vn 0.4169 0.8861 0.2026
vn 0.5355 0.7648 0.3582
vn 0.7184 0.6911 0.0797
vn -0.9252 0.3787 0.0260
vn 0.2622 0.5460 0.7957
vn -0.2979 0.5174 0.8022
vn -0.1891 0.5563 0.8092
vn -0.6161 0.3580 0.7016
vn 0.3357 0.5146 0.7890
vn -0.3635 0.9313 0.0223
vn -0.1173 0.9929 0.0178
vn -0.1530 0.9870 0.0492
vn 0.5778 0.6674 -0.4699
vn 0.4635 0.7238 -0.5112
vn 0.7640 0.6340 -0.1200
vn 0.1690 0.1737 -0.9702
vn 0.2267 0.3984 -0.8888
vn 0.6005 0.3718 0.7079
vn -0.3206 0.9472 0.0013
vn -0.5873 0.8093 0.0055
vn -0.4718 -0.3412 -0.8130
vn -0.5432 0.8390 -0.0322
vn 0.8321 0.5507 -0.0663
vn 0.8509 0.2427 0.4660
vn 0.5813 0.0234 0.8134
vn 0.4449 -0.1828 0.8767
vn 0.4761 -0.1689 0.8630
vn 0.8518 0.3701 0.3707
vn -0.3064 0.7110 -0.6329
vn -0.4428 0.8507 -0.2833
vn -0.1946 0.9446 -0.2643
vn -0.6512 0.6512 -0.3897
vn 0.9700 0.2411 0.0325
vn -0.4208 0.8861 0.1944
vn -0.6163 0.7648 0.1877
vn -0.5165 0.6911 0.5055
vn 0.5657 0.3787 -0.7326
vn 0.6112 0.7610 0.2175
vn 0.2028 0.9086 0.3652
vn 0.5658 0.6963 0.4417
vn 0.4178 0.6154 0.6684
vn 0.2493 0.9652 -0.0795
vn -0.2914 0.7770 -0.5580
vn -0.4383 0.8718 -0.2188
vn -0.7561 0.6014 -0.2579
vn -0.4094 0.8722 0.2677
vn -0.2661 0.8855 0.3810
vn 0.5562 0.4487 -0.6995
vn 0.7796 0.5460 0.3069
vn 0.4265 0.5174 0.7419
vn 0.5015 0.5563 0.6626
vn 0.1458 0.3580 0.9223
vn 0.8214 0.5146 0.2461
vn -0.2152 0.9313 0.2938
vn -0.0612 0.9929 0.1016
vn -0.0600 0.9870 0.1491
vn 0.0079 0.6674 -0.7447
vn -0.0970 0.7238 -0.6832
vn 0.3960 0.6340 -0.6643
vn -0.6381 0.1737 -0.7501
vn -0.5386 0.3984 -0.7424
vn 0.9283 0.3718 -0.0094
vn -0.2040 0.9472 0.2474
vn -0.3711 0.8093 0.4552
vn -0.9268 -0.3412 -0.1568
vn -0.3719 0.8390 0.3972
vn 0.4809 0.5507 -0.6823
usemtl texture
s 1
f 8/1/1 7/2/1 6/3/1 5/4/1
s 2
f 3/5/2 4/6/2 6/3/2 7/2/2
s 3
f 2/7/3 3/5/3 7/2/3 8/1/3
s 4
f 1/8/4 2/7/4 8/1/4 5/4/4
s 5
f 4/6/5 1/8/5 5/4/5 6/3/5
s 6
f 9/9/6 11/10/7 10/11/8
s 7
f 10/11/9 11/10/10 18/12/11
s 8
f 11/13/7 9/14/6 17/15/12
s 9
f 16/16/13 17/15/14 15/17/15
s 10
f 13/18/16 15/19/17 17/20/18
s 11
f 13/18/16 12/21/19 16/22/20
s 12
f 9/9/6 14/23/21 17/20/12
s 13
f 11/13/10 16/16/13 19/24/22
s 14
f 16/22/23 12/21/23 19/25/23
s 15
f 16/16/13 11/13/10 17/15/14
s 16
f 18/26/11 11/13/10 19/24/22
s 17
f 15/19/17 13/18/16 16/22/20
s 18
f 14/23/24 13/18/16 17/20/18
s 19
f 20/27/25 22/28/26 21/29/27
s 20
f 21/29/27 22/28/26 29/30/28
s 21
f 22/31/26 20/32/25 28/33/29
s 22
f 27/34/30 28/33/29 26/35/31
s 23
f 24/36/32 26/37/31 28/38/29
s 24
f 24/36/32 23/39/33 27/40/30
s 25
f 20/27/25 25/41/34 28/38/29
s 26
f 22/31/26 27/34/30 30/42/35
s 27
f 27/40/30 23/39/33 30/43/35
s 28
f 27/34/30 22/31/26 28/33/29
s 29
f 29/44/28 22/31/26 30/42/35
s 30
f 26/37/31 24/36/32 27/40/30
s 31
f 25/41/34 24/36/32 28/38/29
s 32
f 31/45/36 33/46/37 32/47/38
s 33
f 32/47/38 33/46/37 39/48/39
s 34
f 33/49/37 31/50/36 38/51/40
s 35
f 35/52/41 37/53/42 38/54/43
s 36
f 35/52/41 34/55/44 37/56/42
s 37
f 31/45/36 36/57/45 38/54/40
s 38
f 33/49/46 37/58/42 40/59/47
s 39
f 37/56/42 34/55/44 40/60/47
s 40
f 37/58/42 33/49/46 38/51/43
s 41
f 39/61/48 33/49/46 40/59/47
s 42
f 36/57/49 35/52/49 38/54/49
s 43
f 41/62/50 43/63/51 42/64/52
s 44
f 42/64/52 43/63/51 50/65/53
s 45
f 43/66/51 41/67/50 49/68/54
s 46
f 48/69/55 49/68/56 47/70/57
s 47
f 45/71/58 47/72/59 49/73/60
s 48
f 45/71/58 44/74/61 48/75/62
s 49
f 41/62/50 46/76/63 49/73/54
s 50
f 43/66/64 48/69/55 51/77/65
s 51
f 48/75/66 44/74/66 51/78/66
s 52
f 48/69/55 43/66/64 49/68/56
s 53
f 50/79/67 43/66/64 51/77/65
s 54
f 47/72/59 45/71/58 48/75/62
s 55
f 46/76/68 45/71/58 49/73/60
s 56
f 52/80/69 54/81/70 53/82/71
s 57
f 53/82/71 54/81/70 60/83/72
s 58
f 54/84/70 52/85/69 59/86/73
s 59
f 56/87/74 58/88/75 59/89/76
s 60
f 56/87/74 55/90/77 58/91/75
s 61
f 52/80/69 57/92/78 59/89/73
s 62
f 54/84/79 58/93/75 61/94/80
s 63
f 58/91/75 55/90/77 61/95/80
s 64
f 58/93/75 54/84/79 59/86/76
s 65
f 60/96/81 54/84/79 61/94/80
s 66
f 57/92/82 56/87/82 59/89/82
s 67
f 62/97/83 64/98/84 63/99/85
s 68
f 63/99/85 64/98/84 69/100/86
s 69
f 64/101/84 62/102/83 68/103/87
s 70
f 66/104/88 67/105/89 68/106/87
s 71
f 66/104/88 65/107/90 67/108/89
s 72
f 64/101/84 67/109/89 70/110/91
s 73
f 67/108/89 65/107/90 70/111/91
s 74
f 67/109/89 64/101/84 68/103/87
s 75
f 69/112/92 64/101/84 70/110/91
s 76
f 62/113/93 66/104/93 68/106/93
s 77
f 71/114/83 73/115/84 72/116/85
s 78
f 72/116/85 73/115/84 78/117/86
s 79
f 73/118/84 71/119/83 77/120/87
s 80
f 75/121/88 76/122/89 77/123/87
s 81
f 75/121/88 74/124/90 76/125/89
s 82
f 73/118/84 76/126/89 79/127/91
s 83
f 76/125/89 74/124/90 79/128/91
s 84
f 76/126/89 73/118/84 77/120/87
s 85
f 78/129/92 73/118/84 79/127/91
s 86
f 71/130/93 75/121/93 77/123/93
s 87
f 80/131/94 82/132/95 81/133/96
s 88
f 81/133/96 82/132/95 89/134/97
s 89
f 82/135/95 80/136/94 88/137/98
s 90
f 87/138/99 88/137/100 86/139/101
s 91
f 84/140/102 86/141/103 88/142/104
s 92
f 84/140/102 83/143/105 87/144/106
s 93
f 80/131/94 85/145/107 88/142/98
s 94
f 82/135/108 87/138/99 90/146/109
s 95
f 87/144/110 83/143/110 90/147/110
s 96
f 87/138/99 82/135/108 88/137/100
s 97
f 89/148/111 82/135/108 90/146/109
s 98
f 86/141/103 84/140/102 87/144/106
s 99
f 85/145/112 84/140/102 88/142/104
