# Blender v2.80 (sub 75) OBJ File: 'Dungeon_Remastered_Export1.0.blend'
# www.blender.org
mtllib floor_dirt_small_B.mtl
o floor_dirt_small_B_Cube.15026
v -1.000012 -0.100000 -1.000000
v -0.442912 0.000000 -0.067590
v -0.255696 0.000000 0.010216
v -0.297660 0.070114 0.070056
v -0.342245 0.000000 0.370571
v -0.636504 0.000000 0.234007
v -0.579274 0.000000 -0.010831
v -0.475276 0.088635 0.196874
v -0.364172 0.070579 0.304767
v -0.475549 0.088635 0.043685
v -0.153648 0.000000 0.157429
v -0.207558 0.000000 0.297143
v 0.082890 0.000000 -0.180064
v -0.049975 0.000000 -0.167424
v -0.068651 0.067885 -0.218460
v -0.022455 0.000000 -0.465068
v 0.151085 0.000000 -0.434832
v 0.165777 0.000000 -0.250381
v 0.061968 0.086405 -0.393299
v -0.076693 0.068350 -0.462280
v 0.108830 0.086405 -0.247454
v -0.170267 0.000000 -0.273052
v -0.163753 0.000000 -0.383065
v 0.999988 -0.100000 -1.000000
v -1.000012 -0.100000 1.000000
v 0.999988 -0.100000 1.000000
v 0.999988 0.020000 -1.000000
v -1.000012 0.020000 -1.000000
v 0.999988 0.020000 1.000000
v -1.000012 0.020000 1.000000
vt 0.669261 0.843179
vt 0.692484 0.874429
vt 0.692484 0.791913
vt 0.720204 0.843179
vt 0.692484 0.952554
vt 0.669261 0.921304
vt 0.645254 0.954300
vt 0.684098 0.985550
vt 0.654424 0.954300
vt 0.654424 0.819718
vt 0.654424 0.876175
vt 0.645254 0.876175
vt 0.684098 0.791913
vt 0.684098 0.907425
vt 0.645254 0.819718
vt 0.711034 0.954300
vt 0.711034 0.819718
vt 0.720204 0.921304
vt 0.669261 0.843179
vt 0.692484 0.874429
vt 0.692484 0.791913
vt 0.720204 0.843179
vt 0.692484 0.952554
vt 0.669261 0.921304
vt 0.645254 0.954300
vt 0.684098 0.985550
vt 0.654424 0.954300
vt 0.654424 0.819718
vt 0.654424 0.876175
vt 0.645254 0.876175
vt 0.684098 0.791913
vt 0.684098 0.907425
vt 0.645254 0.819718
vt 0.711034 0.954300
vt 0.711034 0.819718
vt 0.720204 0.921304
vt 0.633084 0.838616
vt 0.633084 0.838616
vt 0.677734 0.838616
vt 0.677734 0.838616
vt 0.633084 0.838616
vt 0.677734 0.838616
vt 0.677734 0.838616
vt 0.633084 0.838616
vn 0.0076 0.7677 -0.6408
vn 0.3347 0.9005 -0.2777
vn 0.4313 0.7210 -0.5423
vn 0.4351 0.9004 0.0054
vn -0.1846 0.9319 -0.3123
vn 0.0420 0.8776 0.4775
vn -0.2020 0.9646 0.1697
vn -0.4901 0.8462 0.2093
vn 0.0558 0.6901 0.7216
vn -0.4797 0.7927 -0.3762
vn 0.3923 0.8845 0.2526
vn 0.2622 0.5460 0.7957
vn -0.2979 0.5174 0.8022
vn -0.1891 0.5563 0.8092
vn -0.6161 0.3580 0.7016
vn 0.3357 0.5146 0.7890
vn -0.3635 0.9313 0.0223
vn -0.1173 0.9929 0.0178
vn -0.1530 0.9870 0.0492
vn 0.5778 0.6674 -0.4699
vn 0.4635 0.7238 -0.5112
vn 0.7640 0.6340 -0.1200
vn 0.1690 0.1737 -0.9702
vn 0.2267 0.3984 -0.8888
vn 0.6005 0.3718 0.7079
vn -0.3206 0.9472 0.0013
vn -0.5873 0.8093 0.0055
vn -0.4718 -0.3412 -0.8130
vn -0.5432 0.8390 -0.0322
vn 0.8321 0.5507 -0.0663
vn 0.0000 1.0000 0.0000
vn 0.0000 0.0000 1.0000
vn 1.0000 0.0000 0.0000
vn -1.0000 0.0000 0.0000
vn 0.0000 0.0000 -1.0000
usemtl texture
s 1
f 2/1/1 4/2/2 3/3/3
s 2
f 3/3/3 4/2/2 11/4/4
s 3
f 4/5/2 2/6/1 10/7/5
s 4
f 9/8/6 10/7/5 8/9/7
s 5
f 6/10/8 8/11/7 10/12/5
s 6
f 6/10/8 5/13/9 9/14/6
s 7
f 2/1/1 7/15/10 10/12/5
s 8
f 4/5/2 9/8/6 12/16/11
s 9
f 9/14/6 5/13/9 12/17/11
s 10
f 9/8/6 4/5/2 10/7/5
s 11
f 11/18/4 4/5/2 12/16/11
s 12
f 8/11/7 6/10/8 9/14/6
s 13
f 7/15/10 6/10/8 10/12/5
s 14
f 13/19/12 15/20/13 14/21/14
s 15
f 14/21/14 15/20/13 22/22/15
s 16
f 15/23/13 13/24/12 21/25/16
s 17
f 20/26/17 21/25/18 19/27/19
s 18
f 17/28/20 19/29/21 21/30/22
s 19
f 17/28/20 16/31/23 20/32/24
s 20
f 13/19/12 18/33/25 21/30/16
s 21
f 15/23/26 20/26/17 23/34/27
s 22
f 20/32/28 16/31/28 23/35/28
s 23
f 20/26/17 15/23/26 21/25/18
s 24
f 22/36/29 15/23/26 23/34/27
s 25
f 19/29/21 17/28/20 20/32/24
s 26
f 18/33/30 17/28/20 21/30/22
s 27
f 28/37/31 30/38/31 29/39/31 27/40/31
s 28
f 25/41/32 26/42/32 29/39/32 30/38/32
s 29
f 26/42/33 24/43/33 27/40/33 29/39/33
s 30
f 1/44/34 25/41/34 30/38/34 28/37/34
s 31
f 24/43/35 1/44/35 28/37/35 27/40/35
