# Blender v2.80 (sub 75) OBJ File: 'Dungeon_Remastered_Export1.0.blend'
# www.blender.org
mtllib floor_dirt_small_A.mtl
o floor_dirt_small_A_Cube.15932
v 0.134581 0.067885 0.362166
v 0.185768 0.000000 0.380423
v 0.260968 0.000000 0.270161
v 0.205429 0.000000 0.601625
v 0.246778 0.000000 0.643873
v 0.357562 0.074734 0.542244
v 0.266984 0.053563 0.533281
v 0.376929 0.000000 0.518569
v 0.298369 0.000000 0.457909
v 0.223797 0.000000 0.515939
v 0.305095 0.058716 0.623192
v 0.322223 0.000000 0.602255
v 0.374978 0.000000 0.576842
v -0.474874 0.000000 -0.550134
v -0.468354 0.000000 -0.608889
v -0.617162 0.074734 -0.630288
v -0.566747 0.053563 -0.554505
v -0.647750 0.000000 -0.630288
v -0.644959 0.000000 -0.531072
v -0.552826 0.000000 -0.510096
v -0.521287 0.058716 -0.640932
v -0.548338 0.000000 -0.640932
v -0.601410 0.000000 -0.665674
v 0.999988 -0.100000 1.000000
v -0.025552 0.000000 0.169016
v 0.108621 0.000000 0.054876
v 0.259868 0.000000 0.161470
v 0.083603 0.086405 0.149960
v -0.058075 0.068350 0.212511
v 0.225721 0.086405 0.207138
v 0.027646 0.000000 0.405423
v -0.052798 0.000000 0.330097
v -1.000012 -0.100000 1.000000
v 0.999988 -0.100000 -1.000000
v -1.000012 -0.100000 -1.000000
v -1.000012 0.020000 1.000000
v 0.999988 0.020000 1.000000
v 0.999988 0.020000 -1.000000
v -1.000012 0.020000 -1.000000
vt 0.692484 0.791913
vt 0.692484 0.874429
vt 0.720204 0.843179
vt 0.669261 0.843179
vt 0.645254 0.819718
vt 0.654424 0.819718
vt 0.645254 0.876175
vt 0.720204 0.921304
vt 0.692484 0.952554
vt 0.711034 0.954300
vt 0.684098 0.985550
vt 0.645254 0.954300
vt 0.684098 0.907425
vt 0.684098 0.791913
vt 0.711034 0.819718
vt 0.669261 0.843179
vt 0.654424 0.876175
vt 0.669261 0.921304
vt 0.692484 0.791913
vt 0.692484 0.874429
vt 0.720204 0.843179
vt 0.645254 0.819718
vt 0.654424 0.819718
vt 0.645254 0.876175
vt 0.720204 0.921304
vt 0.692484 0.952554
vt 0.711034 0.954300
vt 0.684098 0.985550
vt 0.645254 0.954300
vt 0.684098 0.907425
vt 0.684098 0.791913
vt 0.711034 0.819718
vt 0.669261 0.843179
vt 0.654424 0.876175
vt 0.669261 0.921304
vt 0.692484 0.791913
vt 0.692484 0.874429
vt 0.720204 0.843179
vt 0.692484 0.952554
vt 0.669261 0.921304
vt 0.645254 0.954300
vt 0.684098 0.985550
vt 0.654424 0.954300
vt 0.654424 0.819718
vt 0.654424 0.876175
vt 0.645254 0.876175
vt 0.684098 0.791913
vt 0.684098 0.907425
vt 0.645254 0.819718
vt 0.711034 0.954300
vt 0.711034 0.819718
vt 0.720204 0.921304
vt 0.677734 0.838616
vt 0.677734 0.838616
vt 0.722385 0.838616
vt 0.722385 0.838616
vt 0.677734 0.838616
vt 0.677734 0.838616
vt 0.722385 0.838616
vt 0.722385 0.838616
vn 0.5015 0.5563 0.6626
vn 0.4265 0.5174 0.7419
vn 0.1458 0.3580 0.9223
vn 0.7796 0.5460 0.3069
vn 0.5657 0.3787 -0.7326
vn -0.5165 0.6911 0.5055
vn -0.4208 0.8861 0.1944
vn -0.6163 0.7648 0.1877
vn -0.4427 0.8507 -0.2833
vn -0.1946 0.9446 -0.2643
vn -0.6512 0.6512 -0.3897
vn 0.8509 0.2427 0.4660
vn 0.9700 0.2411 0.0325
vn 0.8518 0.3701 0.3707
vn -0.3064 0.7110 -0.6329
vn 0.5813 0.0234 0.8134
vn 0.4449 -0.1828 0.8767
vn 0.4761 -0.1689 0.8630
vn -0.9252 0.3787 0.0260
vn 0.7183 0.6911 0.0797
vn 0.4169 0.8861 0.2026
vn 0.5355 0.7648 0.3582
vn 0.0610 0.8507 0.5221
vn -0.0813 0.9446 0.3180
vn 0.1107 0.6512 0.7508
vn -0.1781 0.2427 -0.9536
vn -0.5890 0.2411 -0.7713
vn -0.2524 0.3701 -0.8940
vn -0.2958 0.7110 0.6379
vn 0.2615 0.0234 -0.9649
vn 0.3969 -0.1828 -0.8995
vn 0.3666 -0.1689 -0.9149
vn 0.8214 0.5146 0.2461
vn -0.2152 0.9313 0.2938
vn -0.0612 0.9929 0.1016
vn -0.0600 0.9870 0.1491
vn 0.0079 0.6674 -0.7447
vn -0.0970 0.7238 -0.6832
vn 0.3960 0.6340 -0.6643
vn -0.6381 0.1737 -0.7501
vn -0.5386 0.3984 -0.7424
vn 0.9283 0.3718 -0.0094
vn -0.2040 0.9472 0.2474
vn -0.3711 0.8093 0.4552
vn -0.9268 -0.3412 -0.1568
vn -0.3719 0.8390 0.3972
vn 0.4809 0.5507 -0.6823
vn 0.0000 1.0000 0.0000
vn -1.0000 0.0000 0.0000
vn 0.0000 0.0000 1.0000
vn 0.0000 0.0000 -1.0000
vn 1.0000 0.0000 0.0000
usemtl texture
s 1
f 2/1/1 1/2/2 31/3/3
s 2
f 3/4/4 1/2/2 2/1/1
s 3
f 8/5/5 9/6/5 6/7/5
s 4
f 5/8/6 11/9/7 4/10/8
s 5
f 7/11/9 11/9/7 6/12/10
s 6
f 7/13/9 10/14/11 4/15/8
s 7
f 11/9/7 7/11/9 4/10/8
s 8
f 13/16/12 8/5/13 6/7/14
s 9
f 9/6/15 10/14/11 7/13/9
s 10
f 9/6/15 7/17/9 6/7/10
s 11
f 11/9/16 13/18/12 6/12/14
s 12
f 12/19/17 11/20/16 5/21/18
s 13
f 13/16/12 11/20/16 12/19/17
s 14
f 18/22/19 19/23/19 16/24/19
s 15
f 15/25/20 21/26/21 14/27/22
s 16
f 17/28/23 21/26/21 16/29/24
s 17
f 17/30/23 20/31/25 14/32/22
s 18
f 21/26/21 17/28/23 14/27/22
s 19
f 23/33/26 18/22/27 16/24/28
s 20
f 19/23/29 20/31/25 17/30/23
s 21
f 19/23/29 17/34/23 16/24/24
s 22
f 21/26/30 23/35/26 16/29/28
s 23
f 22/36/31 21/37/30 15/38/32
s 24
f 23/33/26 21/37/30 22/36/31
s 25
f 1/39/2 3/40/4 30/41/33
s 26
f 29/42/34 30/41/35 28/43/36
s 27
f 26/44/37 28/45/38 30/46/39
s 28
f 26/44/37 25/47/40 29/48/41
s 29
f 3/4/4 27/49/42 30/46/33
s 30
f 1/39/43 29/42/34 32/50/44
s 31
f 29/48/45 25/47/45 32/51/45
s 32
f 29/42/34 1/39/43 30/41/35
s 33
f 31/52/46 1/39/43 32/50/44
s 34
f 28/45/38 26/44/37 29/48/41
s 35
f 27/49/47 26/44/37 30/46/39
s 36
f 39/53/48 36/54/48 37/55/48 38/56/48
s 37
f 35/57/49 33/58/49 36/54/49 39/53/49
s 38
f 33/58/50 24/59/50 37/55/50 36/54/50
s 39
f 34/60/51 35/57/51 39/53/51 38/56/51
s 40
f 24/59/52 34/60/52 38/56/52 37/55/52
