# Blender v2.80 (sub 75) OBJ File: 'Dungeon_Remastered_Export1.0.blend'
# www.blender.org
mtllib pillar.mtl
o pillar_Cube.13143
v -0.276316 0.500000 -0.552632
v -0.276316 0.500000 0.552632
v -0.276316 3.200000 0.552632
v 0.276316 3.200000 -0.552632
v 0.276316 0.500000 0.552632
v -0.276316 1.750000 0.552632
v -0.276316 1.950000 0.552632
v -0.332140 1.850000 0.496807
v 0.276316 1.950000 0.552632
v 0.276316 1.750000 0.552632
v 0.332140 1.850000 0.496807
v -0.276316 1.950000 -0.552632
v -0.276316 1.750000 -0.552632
v -0.332140 1.850000 -0.496807
v 0.276316 1.750000 -0.552632
v 0.276316 1.950000 -0.552632
v 0.332140 1.850000 -0.496807
v -0.496819 1.850000 -0.332152
v -0.552644 1.950000 -0.276328
v -0.552644 1.750000 -0.276328
v -0.496819 1.850000 0.332128
v -0.552644 1.750000 0.276304
v -0.552644 1.950000 0.276304
v 0.496795 1.850000 -0.332152
v 0.552620 1.750000 -0.276328
v 0.552620 1.950000 -0.276328
v 0.496795 1.850000 0.332128
v 0.552620 1.950000 0.276304
v 0.552620 1.750000 0.276304
v 0.552620 3.200000 -0.276328
v -0.552644 3.200000 0.276304
v -0.552644 0.500000 0.276304
v -0.276316 0.000000 -0.750000
v -0.276316 0.250000 -0.750000
v -0.276316 0.000000 0.750000
v -0.276316 0.250000 0.750000
v -0.276316 3.200000 -0.552632
v -0.000007 4.000000 -0.000005
v -0.276316 3.450000 -0.750000
v -0.276316 3.450000 0.750000
v 0.276316 0.000000 -0.750000
v 0.276316 0.250000 -0.750000
v 0.276316 0.500000 -0.552632
v 0.276316 3.200000 0.552632
v 0.276316 0.000000 0.750000
v 0.276316 0.250000 0.750000
v 0.276316 3.450000 -0.750000
v 0.276316 3.450000 0.750000
v 0.749988 3.450000 -0.276328
v -0.750012 3.450000 -0.276328
v 0.552620 0.500000 -0.276328
v 0.749988 0.250000 -0.276328
v 0.749988 0.000000 -0.276328
v -0.552644 0.500000 -0.276328
v -0.552644 3.200000 -0.276328
v -0.750012 0.250000 -0.276328
v -0.750012 0.000000 -0.276328
v 0.749988 3.450000 0.276304
v -0.750012 3.450000 0.276304
v 0.552620 3.200000 0.276304
v 0.552620 0.500000 0.276304
v 0.749988 0.250000 0.276304
v 0.749988 0.000000 0.276304
v -0.750012 0.250000 0.276304
v -0.750012 0.000000 0.276304
v -0.276316 4.000000 -0.750000
v 0.276316 4.000000 -0.750000
v 0.276316 4.000000 0.750000
v -0.276316 4.000000 0.750000
v 0.749988 4.000000 -0.276328
v 0.749988 4.000000 0.276304
v -0.750012 4.000000 0.276304
v -0.750012 4.000000 -0.276328
vt 0.193812 0.848510
vt 0.193812 0.863501
vt 0.202207 0.863501
vt 0.202207 0.848510
vt 0.202207 0.880891
vt 0.193812 0.880891
vt 0.193812 0.865900
vt 0.202207 0.865900
vt 0.193812 0.865900
vt 0.193812 0.880891
vt 0.202207 0.880891
vt 0.202207 0.865900
vt 0.193812 0.879126
vt 0.202207 0.879126
vt 0.203055 0.880325
vt 0.192964 0.880325
vt 0.192964 0.833450
vt 0.203055 0.833450
vt 0.202207 0.834650
vt 0.193812 0.834650
vt 0.193812 0.834650
vt 0.202207 0.834650
vt 0.203055 0.833450
vt 0.192964 0.833450
vt 0.192964 0.880325
vt 0.203055 0.880325
vt 0.202207 0.879126
vt 0.193812 0.879126
vt 0.202207 0.863501
vt 0.193812 0.863501
vt 0.193812 0.848510
vt 0.202207 0.848510
vt 0.205556 0.833450
vt 0.205556 0.833450
vt 0.206404 0.834650
vt 0.206404 0.834650
vt 0.189615 0.834650
vt 0.189615 0.834650
vt 0.190462 0.833450
vt 0.190462 0.833450
vt 0.206404 0.880891
vt 0.206404 0.880891
vt 0.206404 0.865900
vt 0.206404 0.865900
vt 0.189615 0.865900
vt 0.189615 0.880891
vt 0.189615 0.880891
vt 0.189615 0.865900
vt 0.190462 0.880325
vt 0.190462 0.880325
vt 0.189615 0.879126
vt 0.189615 0.879126
vt 0.206404 0.863501
vt 0.206404 0.863501
vt 0.206404 0.848510
vt 0.206404 0.848510
vt 0.206404 0.879126
vt 0.206404 0.879126
vt 0.205556 0.880325
vt 0.205556 0.880325
vt 0.189615 0.848510
vt 0.189615 0.863501
vt 0.189615 0.863501
vt 0.189615 0.848510
vt 0.193812 0.832885
vt 0.193812 0.847876
vt 0.189615 0.847876
vt 0.189615 0.832885
vt 0.192964 0.849075
vt 0.190462 0.849075
vt 0.193812 0.850275
vt 0.189615 0.850275
vt 0.193812 0.865266
vt 0.189615 0.865266
vt 0.202207 0.832885
vt 0.206404 0.832885
vt 0.206404 0.847876
vt 0.202207 0.847876
vt 0.205556 0.849075
vt 0.203055 0.849075
vt 0.206404 0.850275
vt 0.202207 0.850275
vt 0.202207 0.865266
vt 0.206404 0.865266
vt 0.202207 0.847876
vt 0.206404 0.847876
vt 0.206404 0.832885
vt 0.202207 0.832885
vt 0.203055 0.849075
vt 0.205556 0.849075
vt 0.202207 0.850275
vt 0.206404 0.850275
vt 0.202207 0.865266
vt 0.206404 0.865266
vt 0.193812 0.832885
vt 0.189615 0.832885
vt 0.189615 0.847876
vt 0.193812 0.847876
vt 0.190462 0.849075
vt 0.192964 0.849075
vt 0.189615 0.850275
vt 0.193812 0.850275
vt 0.189615 0.865266
vt 0.193812 0.865266
vt 0.017394 0.866689
vt 0.017394 0.884413
vt 0.018684 0.884413
vt 0.018684 0.866689
vt 0.018684 0.954968
vt 0.020190 0.954968
vt 0.020190 0.946911
vt 0.018684 0.946911
vt 0.020190 0.884411
vt 0.018684 0.884411
vt 0.018684 0.876354
vt 0.020190 0.876354
vt 0.020190 0.884413
vt 0.020190 0.866689
vt 0.020190 0.954968
vt 0.018684 0.954968
vt 0.018684 0.946911
vt 0.020190 0.946911
vt 0.018684 0.796132
vt 0.018684 0.804189
vt 0.020190 0.804189
vt 0.020190 0.796132
vt 0.020190 0.884413
vt 0.018684 0.884413
vt 0.018684 0.866689
vt 0.020190 0.866689
vt 0.020190 0.804189
vt 0.018684 0.804189
vt 0.018684 0.796132
vt 0.020190 0.796132
vt 0.018684 0.876354
vt 0.018684 0.884411
vt 0.020190 0.884411
vt 0.020190 0.876354
vt 0.017394 0.876354
vt 0.017394 0.884411
vt 0.017394 0.876354
vt 0.017394 0.884411
vt 0.020942 0.954968
vt 0.020942 0.954968
vt 0.021480 0.946911
vt 0.021480 0.946911
vt 0.021480 0.884413
vt 0.021480 0.884413
vt 0.021480 0.866689
vt 0.021480 0.866689
vt 0.021480 0.884411
vt 0.021480 0.876354
vt 0.017394 0.866689
vt 0.017394 0.884413
vt 0.017932 0.796132
vt 0.017394 0.804189
vt 0.017394 0.804189
vt 0.017932 0.796132
vt 0.021480 0.804189
vt 0.021480 0.804189
vt 0.020942 0.796132
vt 0.020942 0.796132
vt 0.017932 0.954968
vt 0.017932 0.954968
vt 0.017394 0.946911
vt 0.017394 0.946911
vt 0.021480 0.876354
vt 0.021480 0.884411
vt 0.019437 0.993788
vt 0.020190 0.993788
vt 0.018684 0.993788
vt 0.018684 0.993788
vt 0.020190 0.993788
vt 0.021480 0.993788
vt 0.021480 0.993788
vt 0.017394 0.993788
vt 0.017394 0.993788
vn 0.0000 0.0000 -1.0000
vn 0.0000 0.0000 1.0000
vn 0.0000 0.4874 0.8732
vn 0.0000 -0.4874 0.8732
vn 0.0000 -0.4874 -0.8732
vn 0.0000 0.4874 -0.8732
vn 0.8732 -0.4874 0.0000
vn -0.8732 -0.4874 -0.0000
vn 1.0000 0.0000 0.0000
vn -1.0000 0.0000 -0.0000
vn -0.8732 0.4874 -0.0000
vn 0.8732 0.4874 -0.0000
vn -0.7071 0.0000 0.7071
vn 0.7071 0.0000 0.7071
vn 0.7071 0.0000 -0.7071
vn -0.7071 0.0000 -0.7071
vn 0.0000 0.6196 -0.7849
vn 0.0000 0.6196 0.7849
vn 0.0000 -0.6196 -0.7849
vn 0.0000 -0.6196 0.7849
vn 0.7849 0.6196 0.0000
vn -0.7849 -0.6196 0.0000
vn 0.7849 -0.6196 0.0000
vn -0.7849 0.6196 -0.0000
vn -0.6174 0.4874 0.6174
vn -0.6174 -0.4874 0.6174
vn 0.6174 0.4874 0.6174
vn 0.6174 -0.4874 0.6174
vn 0.6174 0.4874 -0.6174
vn 0.6174 -0.4874 -0.6174
vn -0.6174 0.4874 -0.6174
vn -0.6174 -0.4874 -0.6174
vn 0.0000 1.0000 -0.0000
usemtl texture
s 1
f 1/1/1 13/2/1 15/3/1 43/4/1
s 2
f 44/5/2 3/6/2 7/7/2 9/8/2
s 3
f 12/9/1 37/10/1 4/11/1 16/12/1
s 4
f 6/13/3 10/14/3 11/15/3 8/16/3
s 5
f 8/17/4 11/18/4 9/19/4 7/20/4
s 6
f 12/21/5 16/22/5 17/23/5 14/24/5
s 7
f 14/25/6 17/26/6 15/27/6 13/28/6
s 8
f 10/29/2 6/30/2 2/31/2 5/32/2
s 9
f 27/33/7 24/34/7 26/35/7 28/36/7
s 10
f 23/37/8 19/38/8 18/39/8 21/40/8
s 11
f 30/41/9 60/42/9 28/43/9 26/44/9
s 12
f 23/45/10 31/46/10 55/47/10 19/48/10
s 13
f 21/49/11 18/50/11 20/51/11 22/52/11
s 14
f 25/53/9 29/54/9 61/55/9 51/56/9
s 15
f 29/57/12 25/58/12 24/59/12 27/60/12
s 16
f 32/61/10 22/62/10 20/63/10 54/64/10
s 17
f 2/65/13 6/66/13 22/67/13 32/68/13
s 18
f 8/69/13 21/70/13 22/67/13 6/66/13
s 19
f 7/71/13 23/72/13 21/70/13 8/69/13
s 20
f 3/73/13 31/74/13 23/72/13 7/71/13
s 21
f 5/75/14 61/76/14 29/77/14 10/78/14
s 22
f 10/78/14 29/77/14 27/79/14 11/80/14
s 23
f 11/80/14 27/79/14 28/81/14 9/82/14
s 24
f 44/83/14 9/82/14 28/81/14 60/84/14
s 25
f 15/85/15 25/86/15 51/87/15 43/88/15
s 26
f 17/89/15 24/90/15 25/86/15 15/85/15
s 27
f 16/91/15 26/92/15 24/90/15 17/89/15
s 28
f 4/93/15 30/94/15 26/92/15 16/91/15
s 29
f 1/95/16 54/96/16 20/97/16 13/98/16
s 30
f 13/98/16 20/97/16 18/99/16 14/100/16
s 31
f 14/100/16 18/99/16 19/101/16 12/102/16
s 32
f 12/102/16 19/101/16 55/103/16 37/104/16
s 33
f 50/105/16 73/106/16 66/107/16 39/108/16
s 34
f 1/109/17 43/110/17 42/111/17 34/112/17
s 35
f 46/113/2 36/114/2 35/115/2 45/116/2
s 36
f 66/107/1 67/117/1 47/118/1 39/108/1
s 37
f 5/119/18 2/120/18 36/121/18 46/122/18
s 38
f 37/123/19 39/124/19 47/125/19 4/126/19
s 39
f 68/127/2 69/128/2 40/129/2 48/130/2
s 40
f 48/131/20 40/132/20 3/133/20 44/134/20
s 41
f 33/135/1 34/136/1 42/137/1 41/138/1
s 42
f 57/139/16 56/140/16 34/136/16 33/135/16
s 43
f 65/141/10 64/142/10 56/140/10 57/139/10
s 44
f 51/143/21 61/144/21 62/145/21 52/146/21
s 45
f 70/147/9 71/148/9 58/149/9 49/150/9
s 46
f 65/141/13 35/115/13 36/114/13 64/142/13
s 47
f 62/151/14 46/113/14 45/116/14 63/152/14
s 48
f 59/153/13 40/129/13 69/128/13 72/154/13
s 49
f 31/155/22 59/156/22 50/157/22 55/158/22
s 50
f 49/159/23 58/160/23 60/161/23 30/162/23
s 51
f 32/163/24 54/164/24 56/165/24 64/166/24
s 52
f 53/167/15 41/138/15 42/137/15 52/168/15
s 53
f 72/154/10 73/106/10 50/105/10 59/153/10
s 54
f 52/168/9 62/151/9 63/152/9 53/167/9
s 55
f 49/150/15 47/118/15 67/117/15 70/147/15
s 56
f 71/148/14 68/127/14 48/130/14 58/149/14
s 57
f 36/121/25 2/120/25 32/163/25 64/166/25
s 58
f 40/132/26 59/156/26 31/155/26 3/133/26
s 59
f 46/122/27 62/145/27 61/144/27 5/119/27
s 60
f 48/131/28 44/134/28 60/161/28 58/160/28
s 61
f 42/111/29 43/110/29 51/143/29 52/146/29
s 62
f 47/125/30 49/159/30 30/162/30 4/126/30
s 63
f 34/112/31 56/165/31 54/164/31 1/109/31
s 64
f 39/124/32 37/123/32 55/158/32 50/157/32
s 65
f 38/169/33 67/170/33 66/171/33
s 66
f 38/169/33 69/172/33 68/173/33
s 67
f 38/169/33 71/174/33 70/175/33
s 68
f 38/169/33 73/176/33 72/177/33
s 69
f 38/169/33 72/177/33 69/172/33
s 70
f 38/169/33 70/175/33 67/170/33
s 71
f 38/169/33 68/173/33 71/174/33
s 72
f 38/169/33 66/171/33 73/176/33
