# Blender v2.80 (sub 75) OBJ File: 'Dungeon_Remastered_Export1.0.blend'
# www.blender.org
mtllib shelf_small_candles.mtl
o shelf_small_candles_Cube.15763
v -0.500000 -0.100000 0.000000
v -0.500000 0.100000 -0.000000
v 0.500000 -0.100000 0.000000
v 0.500000 0.100000 -0.000000
v -0.500000 -0.100000 0.475000
v -0.500000 -0.075000 0.500000
v -0.500000 0.075000 0.500000
v -0.500000 0.100000 0.475000
v 0.500000 -0.075000 0.500000
v 0.500000 -0.100000 0.475000
v 0.500000 0.100000 0.475000
v 0.500000 0.075000 0.500000
v 0.355990 -0.100000 0.475000
v 0.078470 -0.100000 0.475000
v 0.199327 -0.100000 0.431978
v 0.355990 -0.075000 0.500000
v 0.078470 -0.075000 0.500000
v 0.199327 -0.075000 0.456760
v 0.078470 0.100000 0.475000
v 0.355990 0.100000 0.475000
v 0.199327 0.100000 0.431978
v 0.078470 0.075000 0.500000
v 0.355990 0.075000 0.500000
v 0.199327 0.075000 0.456760
v -0.100000 -0.300000 -0.000000
v -0.100000 -0.100000 0.000000
v 0.100000 -0.300000 -0.000000
v 0.100000 -0.100000 0.000000
v -0.075000 -0.275000 0.150000
v -0.100000 -0.300000 0.125000
v -0.100000 -0.100000 0.325000
v -0.075000 -0.100000 0.350000
v 0.075000 -0.275000 0.150000
v 0.100000 -0.300000 0.125000
v 0.075000 -0.100000 0.350000
v 0.100000 -0.100000 0.325000
v 0.115127 0.427522 0.354870
v 0.213777 0.378483 0.293606
v 0.249969 0.352391 0.183264
v 0.206766 0.361453 0.075474
v 0.104385 0.401429 0.020671
v -0.009270 0.453614 0.044500
v -0.081018 0.493591 0.135809
v -0.077287 0.502652 0.251875
v 0.000176 0.476560 0.338389
v 0.080292 0.456986 0.188718
v 0.176553 0.450676 0.264356
v 0.105412 0.486039 0.308536
v 0.202652 0.431860 0.184785
v 0.171497 0.438395 0.107053
v 0.097666 0.467223 0.067534
v 0.015706 0.504856 0.084717
v -0.036034 0.533684 0.150564
v -0.033344 0.540219 0.234263
v 0.022518 0.521402 0.296651
v 0.115127 -0.044384 0.354870
v 0.213777 -0.044384 0.293606
v 0.249969 -0.044384 0.183264
v 0.206766 -0.044384 0.075473
v 0.104385 -0.044384 0.020671
v -0.009270 -0.044384 0.044500
v -0.081018 -0.044384 0.135809
v -0.077287 -0.044384 0.251875
v 0.000176 -0.044384 0.338389
v 0.075790 0.387228 0.189661
v 0.094179 0.546413 0.219733
v 0.118839 0.544283 0.197599
v 0.112026 0.544283 0.165101
v 0.080552 0.546413 0.154736
v 0.055891 0.548544 0.176870
v 0.062705 0.548544 0.209368
v 0.087891 0.553651 0.187124
v -0.239235 0.586320 0.130455
v -0.259788 0.586320 0.194323
v -0.234478 0.586320 0.256460
v -0.175149 0.586320 0.287791
v -0.109561 0.586320 0.273656
v -0.068403 0.586320 0.220669
v -0.070935 0.586320 0.153623
v -0.115970 0.586320 0.103889
v -0.182437 0.586320 0.094740
v -0.161773 0.592797 0.190623
v -0.232455 0.621850 0.193291
v -0.217634 0.621850 0.147234
v -0.214203 0.621850 0.238100
v -0.171419 0.621850 0.260694
v -0.124121 0.621850 0.250501
v -0.094441 0.621850 0.212290
v -0.096266 0.621850 0.163941
v -0.128743 0.621850 0.128076
v -0.176675 0.621850 0.121478
v -0.239235 -0.044384 0.130455
v -0.259788 -0.044384 0.194323
v -0.234478 -0.044384 0.256460
v -0.175149 -0.044384 0.287791
v -0.109561 -0.044384 0.273656
v -0.068403 -0.044384 0.220669
v -0.070935 -0.044384 0.153623
v -0.115970 -0.044384 0.103889
v -0.182437 -0.044384 0.094740
v -0.161773 0.558212 0.190623
v -0.187997 0.686941 0.170254
v -0.192525 0.686941 0.203149
v -0.166301 0.686941 0.223518
v -0.135549 0.686941 0.210992
v -0.131021 0.686941 0.178097
v -0.157245 0.686941 0.157728
v -0.161773 0.694199 0.190623
v -0.185206 0.311223 0.333899
v -0.179765 0.311223 0.400771
v -0.132612 0.311223 0.448502
v -0.065810 0.311223 0.454756
v -0.010617 0.311223 0.416607
v 0.007142 0.311223 0.351906
v -0.020843 0.311223 0.290927
v -0.081477 0.311223 0.262203
v -0.146389 0.311223 0.279174
v -0.090620 0.317700 0.359861
v -0.154906 0.346754 0.389363
v -0.158829 0.346754 0.341139
v -0.120902 0.346754 0.423783
v -0.072729 0.346754 0.428293
v -0.032927 0.346754 0.400783
v -0.020121 0.346754 0.354125
v -0.040301 0.346754 0.310151
v -0.084027 0.346754 0.289436
v -0.130837 0.346754 0.301675
v -0.185206 -0.044384 0.333899
v -0.179765 -0.044384 0.400771
v -0.132612 -0.044384 0.448502
v -0.065810 -0.044384 0.454756
v -0.010617 -0.044384 0.416607
v 0.007142 -0.044384 0.351906
v -0.020843 -0.044384 0.290927
v -0.081477 -0.044384 0.262203
v -0.146389 -0.044384 0.279174
v -0.090620 0.252220 0.359861
v -0.122641 0.411844 0.351072
v -0.114242 0.411844 0.383197
v -0.082221 0.411844 0.391986
v -0.058599 0.411844 0.368650
v -0.066998 0.411844 0.336524
v -0.099019 0.411844 0.327735
v -0.090620 0.419102 0.359861
vt 0.599288 0.827623
vt 0.599288 0.831405
vt 0.576758 0.831405
vt 0.576758 0.827623
vt 0.514602 0.795742
vt 0.599288 0.795742
vt 0.565890 0.795742
vt 0.514602 0.826992
vt 0.514602 0.832036
vt 0.599288 0.832036
vt 0.599288 0.826992
vt 0.514602 0.826992
vt 0.514602 0.827623
vt 0.514602 0.831405
vt 0.514602 0.832036
vt 0.599288 0.826992
vt 0.599288 0.832036
vt 0.514602 0.795742
vt 0.560773 0.795742
vt 0.560773 0.796373
vt 0.514602 0.796373
vt 0.560773 0.827623
vt 0.560773 0.831405
vt 0.514602 0.863286
vt 0.514602 0.863286
vt 0.560773 0.863286
vt 0.565890 0.863286
vt 0.576758 0.795742
vt 0.599288 0.795742
vt 0.599288 0.796373
vt 0.576758 0.796373
vt 0.599288 0.863286
vt 0.576758 0.863286
vt 0.576758 0.862655
vt 0.599288 0.862655
vt 0.514602 0.862655
vt 0.560773 0.862655
vt 0.599288 0.863286
vt 0.560773 0.847661
vt 0.560773 0.847030
vt 0.565890 0.847030
vt 0.565890 0.847661
vt 0.565890 0.878911
vt 0.565890 0.878280
vt 0.576758 0.878280
vt 0.576758 0.878911
vt 0.576758 0.811367
vt 0.576758 0.811998
vt 0.565890 0.811998
vt 0.565890 0.811367
vt 0.565890 0.780117
vt 0.565890 0.780748
vt 0.560773 0.780748
vt 0.560773 0.780117
vt 0.560773 0.815780
vt 0.560773 0.811998
vt 0.565890 0.815780
vt 0.565890 0.843248
vt 0.576758 0.843248
vt 0.576758 0.847030
vt 0.518836 0.793221
vt 0.527305 0.793221
vt 0.527305 0.793221
vt 0.518836 0.793221
vt 0.526246 0.825101
vt 0.526246 0.895078
vt 0.519895 0.895078
vt 0.519895 0.825101
vt 0.518836 0.824471
vt 0.518836 0.895078
vt 0.527305 0.895078
vt 0.527305 0.824471
vt 0.518836 0.824471
vt 0.518836 0.895078
vt 0.527305 0.895078
vt 0.527305 0.824471
vt 0.519895 0.840726
vt 0.519895 0.910703
vt 0.518836 0.910703
vt 0.526246 0.840726
vt 0.527305 0.840096
vt 0.527305 0.910703
vt 0.518836 0.808846
vt 0.527305 0.808846
vt 0.526246 0.809476
vt 0.519895 0.809476
vt 0.526246 0.910703
vt 0.518836 0.840096
vt 0.064500 0.053797
vt 0.082731 0.053797
vt 0.082731 0.187171
vt 0.064500 0.187171
vt 0.092437 0.053797
vt 0.092437 0.187171
vt 0.089065 0.053797
vt 0.089065 0.187171
vt 0.074200 0.053797
vt 0.074200 0.187171
vt 0.054799 0.053797
vt 0.054799 0.187171
vt 0.039934 0.053797
vt 0.039934 0.187171
vt 0.092437 0.211573
vt 0.084644 0.221350
vt 0.077648 0.221350
vt 0.082731 0.211573
vt 0.036565 0.053797
vt 0.036565 0.187171
vt 0.046268 0.053797
vt 0.046268 0.187171
vt 0.064500 0.211573
vt 0.064500 0.221350
vt 0.051351 0.221350
vt 0.046268 0.211573
vt 0.044355 0.221350
vt 0.036565 0.211573
vt 0.046787 0.221350
vt 0.039934 0.211573
vt 0.057504 0.221350
vt 0.054799 0.211573
vt 0.071495 0.221350
vt 0.074200 0.211573
vt 0.082215 0.221350
vt 0.089065 0.211573
vt 0.064500 0.101863
vt 0.064500 0.173823
vt 0.077648 0.173823
vt 0.084644 0.173823
vt 0.082215 0.173823
vt 0.071495 0.173823
vt 0.057504 0.173823
vt 0.046787 0.173823
vt 0.044355 0.173823
vt 0.051351 0.173823
vt 0.921876 0.767472
vt 0.949458 0.831170
vt 0.921876 0.831170
vt 0.949458 0.831170
vt 0.921876 0.831170
vt 0.894294 0.831170
vt 0.894294 0.831170
vt 0.894294 0.831170
vt 0.921876 0.831170
vt 0.949458 0.831170
vt 0.064500 0.053797
vt 0.082731 0.053797
vt 0.082731 0.187171
vt 0.064500 0.187171
vt 0.092437 0.053797
vt 0.092437 0.187171
vt 0.089065 0.053797
vt 0.089065 0.187171
vt 0.074200 0.053797
vt 0.074200 0.187171
vt 0.054799 0.053797
vt 0.054799 0.187171
vt 0.039934 0.053797
vt 0.039934 0.187171
vt 0.092437 0.211573
vt 0.084644 0.221350
vt 0.077648 0.221350
vt 0.082731 0.211573
vt 0.036565 0.053797
vt 0.036565 0.187171
vt 0.046268 0.053797
vt 0.046268 0.187171
vt 0.064500 0.211573
vt 0.064500 0.221350
vt 0.051351 0.221350
vt 0.046268 0.211573
vt 0.044355 0.221350
vt 0.036565 0.211573
vt 0.046787 0.221350
vt 0.039934 0.211573
vt 0.057504 0.221350
vt 0.054799 0.211573
vt 0.071495 0.221350
vt 0.074200 0.211573
vt 0.082215 0.221350
vt 0.089065 0.211573
vt 0.064500 0.101863
vt 0.064500 0.173823
vt 0.077648 0.173823
vt 0.084644 0.173823
vt 0.082215 0.173823
vt 0.071495 0.173823
vt 0.057504 0.173823
vt 0.046787 0.173823
vt 0.044355 0.173823
vt 0.051351 0.173823
vt 0.921876 0.767472
vt 0.949458 0.831170
vt 0.921876 0.831170
vt 0.949458 0.831170
vt 0.921876 0.831170
vt 0.894294 0.831170
vt 0.894294 0.831170
vt 0.894294 0.831170
vt 0.921876 0.831170
vt 0.949458 0.831170
vt 0.064500 0.053797
vt 0.082731 0.053797
vt 0.082731 0.187171
vt 0.064500 0.187171
vt 0.092437 0.053797
vt 0.092437 0.187171
vt 0.089065 0.053797
vt 0.089065 0.187171
vt 0.074200 0.053797
vt 0.074200 0.187171
vt 0.054799 0.053797
vt 0.054799 0.187171
vt 0.039934 0.053797
vt 0.039934 0.187171
vt 0.092437 0.211573
vt 0.084644 0.221350
vt 0.077648 0.221350
vt 0.082731 0.211573
vt 0.036565 0.053797
vt 0.036565 0.187171
vt 0.046268 0.053797
vt 0.046268 0.187171
vt 0.064500 0.211573
vt 0.064500 0.221350
vt 0.051351 0.221350
vt 0.046268 0.211573
vt 0.044355 0.221350
vt 0.036565 0.211573
vt 0.046787 0.221350
vt 0.039934 0.211573
vt 0.057504 0.221350
vt 0.054799 0.211573
vt 0.071495 0.221350
vt 0.074200 0.211573
vt 0.082215 0.221350
vt 0.089065 0.211573
vt 0.064500 0.101863
vt 0.064500 0.173823
vt 0.077648 0.173823
vt 0.084644 0.173823
vt 0.082215 0.173823
vt 0.071495 0.173823
vt 0.057504 0.173823
vt 0.046787 0.173823
vt 0.044355 0.173823
vt 0.051351 0.173823
vt 0.921876 0.767472
vt 0.949458 0.831170
vt 0.921876 0.831170
vt 0.949458 0.831170
vt 0.921876 0.831170
vt 0.894294 0.831170
vt 0.894294 0.831170
vt 0.894294 0.831170
vt 0.921876 0.831170
vt 0.949458 0.831170
vn 0.0000 0.0000 1.0000
vn 0.0000 -1.0000 0.0000
vn 0.0000 -0.0000 -1.0000
vn -1.0000 0.0000 0.0000
vn 1.0000 0.0000 0.0000
vn 0.0000 -0.7071 0.7071
vn 0.0000 1.0000 0.0000
vn 0.0000 0.7071 0.7071
vn 0.2452 0.6840 0.6870
vn -0.1915 0.6925 0.6955
vn -0.1915 -0.6925 0.6955
vn 0.2452 -0.6840 0.6870
vn 0.3369 0.0000 0.9416
vn -0.2661 0.0000 0.9640
vn 0.0106 -0.7195 0.6944
vn 0.2242 -0.7334 0.6417
vn -0.2242 -0.7334 0.6417
vn -0.0106 -0.7195 0.6944
vn -0.5278 -0.6371 0.5617
vn 0.5278 -0.6371 0.5617
vn 0.2052 0.0000 0.9787
vn 0.7863 -0.0000 0.6178
vn 0.7995 0.2532 0.5446
vn 0.2984 0.3044 0.9046
vn 0.9995 -0.0000 -0.0321
vn 0.9723 0.2294 -0.0444
vn 0.7450 0.0000 -0.6671
vn 0.7495 0.2376 -0.6179
vn 0.1419 0.0000 -0.9899
vn 0.2243 0.2756 -0.9347
vn -0.5276 0.0000 -0.8495
vn -0.3974 0.3388 -0.8528
vn -0.9502 0.0000 -0.3117
vn -0.9650 0.0000 -0.2623
vn 0.8573 0.5116 -0.0579
vn 0.7386 0.5428 0.3998
vn -0.9282 0.0000 0.3720
vn -0.9349 0.0000 0.3550
vn -0.4719 0.0000 0.8816
vn -0.3448 0.3764 0.8599
vn 0.3607 0.6150 0.7011
vn -0.1575 0.7137 0.6825
vn -0.5597 0.7826 0.2726
vn -0.5511 0.7816 0.2922
vn -0.5701 0.7571 -0.3191
vn -0.5458 0.7499 -0.3737
vn -0.1997 0.6634 -0.7211
vn 0.2954 0.5741 -0.7637
vn 0.6914 0.5220 -0.4995
vn 0.3847 0.9195 -0.0806
vn 0.3516 0.8903 -0.2896
vn 0.2377 0.9452 -0.2237
vn 0.1980 0.9768 -0.0813
vn 0.2520 0.9658 0.0615
vn 0.3730 0.9185 0.1311
vn 0.4938 0.8648 0.0914
vn 0.5550 0.8316 -0.0203
vn 0.5454 0.8251 -0.1471
vn 0.4722 0.8448 -0.2514
vn 0.6423 -0.2133 0.7362
vn 0.9477 -0.2497 -0.1987
vn 0.2925 -0.2133 -0.9322
vn -0.6680 -0.1404 -0.7308
vn -0.0877 0.9880 0.1275
vn 0.0725 0.9973 -0.0152
vn -0.1316 0.9880 -0.0815
vn -0.9734 -0.1039 0.2041
vn -0.3183 -0.1404 0.9376
vn 0.0270 0.9742 -0.2238
vn 0.2294 0.9605 -0.1572
vn 0.2732 0.9605 0.0518
vn 0.1147 0.9742 0.1941
vn -0.7897 0.0000 -0.6134
vn -0.9993 0.0000 0.0377
vn -0.9524 0.3026 0.0360
vn -0.7527 0.3026 -0.5847
vn -0.7412 0.0000 0.6712
vn -0.7065 0.3026 0.6398
vn -0.1364 0.0000 0.9907
vn -0.1300 0.3026 0.9442
vn 0.5323 0.0000 0.8465
vn 0.5074 0.3026 0.8069
vn 0.9519 0.0000 0.3063
vn 0.9073 0.3026 0.2920
vn 0.9261 0.0000 -0.3772
vn 0.8827 0.3026 -0.3595
vn -0.5874 0.6100 0.5319
vn -0.7918 0.6100 0.0299
vn 0.4670 0.0000 -0.8843
vn 0.4451 0.3026 -0.8428
vn -0.2107 0.0000 -0.9776
vn -0.2008 0.3026 -0.9317
vn -0.6258 0.6100 -0.4861
vn -0.1669 0.6100 -0.7746
vn 0.3700 0.6100 -0.7007
vn 0.7339 0.6100 -0.2989
vn 0.7543 0.6100 0.2427
vn 0.4218 0.6100 0.6708
vn -0.1081 0.6100 0.7850
vn 0.3001 0.9250 0.2331
vn 0.3797 0.9250 -0.0143
vn 0.2816 0.9250 -0.2550
vn 0.0518 0.9250 -0.3764
vn -0.2023 0.9250 -0.3216
vn -0.3617 0.9250 -0.1164
vn -0.3519 0.9250 0.1433
vn -0.1774 0.9250 0.3360
vn 0.0800 0.9250 0.3714
vn -0.9668 -0.2180 -0.1331
vn -0.5987 -0.2180 0.7708
vn 0.3682 -0.2180 0.9038
vn 0.9668 -0.2180 0.1331
vn 0.0291 0.9769 -0.2115
vn 0.1978 0.9769 -0.0806
vn 0.5987 -0.2180 -0.7708
vn -0.3682 -0.2180 -0.9038
vn 0.1686 0.9769 0.1310
vn -0.0291 0.9769 0.2115
vn -0.1978 0.9769 0.0806
vn -0.1686 0.9769 -0.1310
vn -0.9643 0.0000 -0.2647
vn -0.9089 0.0000 0.4171
vn -0.8663 0.3026 0.3975
vn -0.9191 0.3026 -0.2523
vn -0.4281 0.0000 0.9037
vn -0.4081 0.3026 0.8614
vn 0.2529 0.0000 0.9675
vn 0.2411 0.3026 0.9221
vn 0.8156 0.0000 0.5785
vn 0.7774 0.3026 0.5514
vn 0.9967 0.0000 -0.0811
vn 0.9500 0.3026 -0.0773
vn 0.7114 0.0000 -0.7028
vn 0.6780 0.3026 -0.6698
vn -0.3392 0.6100 0.7161
vn -0.7202 0.6100 0.3305
vn 0.0932 0.0000 -0.9956
vn 0.0888 0.3026 -0.9490
vn -0.5686 0.0000 -0.8226
vn -0.5419 0.3026 -0.7841
vn -0.7641 0.6100 -0.2097
vn -0.4505 0.6100 -0.6518
vn 0.0739 0.6100 -0.7889
vn 0.5637 0.6100 -0.5569
vn 0.7898 0.6100 -0.0643
vn 0.6463 0.6100 0.4584
vn 0.2004 0.6100 0.7666
vn 0.3664 0.9250 0.1006
vn 0.3453 0.9250 -0.1585
vn 0.1627 0.9250 -0.3434
vn -0.0961 0.9250 -0.3676
vn -0.3099 0.9250 -0.2198
vn -0.3787 0.9250 0.0308
vn -0.2703 0.9250 0.2670
vn -0.0354 0.9250 0.3783
vn 0.2160 0.9250 0.3126
vn -0.9522 -0.1773 0.2489
vn -0.2605 -0.1773 0.9491
vn 0.6917 -0.1773 0.7001
vn 0.9522 -0.1773 -0.2489
vn -0.0540 0.9769 -0.2066
vn 0.1519 0.9769 -0.1501
vn 0.2605 -0.1773 -0.9491
vn -0.6917 -0.1773 -0.7001
vn 0.2059 0.9769 0.0565
vn 0.0540 0.9769 0.2066
vn -0.1519 0.9769 0.1501
vn -0.2059 0.9769 -0.0565
usemtl texture
s 1
f 9/1/1 12/2/1 23/3/1 16/4/1
s 2
f 1/5/2 3/6/2 15/7/2
s 3
f 1/8/3 2/9/3 4/10/3 3/11/3
s 4
f 5/12/4 6/13/4 7/14/4 8/15/4
s 5
f 10/16/5 11/17/5 12/2/5 9/1/5
s 6
f 5/18/6 14/19/6 17/20/6 6/21/6
s 7
f 1/8/4 5/12/4 8/15/4 2/9/4
s 8
f 3/11/5 4/10/5 11/17/5 10/16/5
s 9
f 17/22/1 22/23/1 7/14/1 6/13/1
s 10
f 2/24/7 8/25/7 19/26/7 21/27/7
s 11
f 13/28/6 10/29/6 9/30/6 16/31/6
s 12
f 11/32/8 20/33/8 23/34/8 12/35/8
s 13
f 19/26/8 8/25/8 7/36/8 22/37/8
s 14
f 4/38/7 2/24/7 21/27/7
s 15
f 5/18/2 1/5/2 15/7/2 14/19/2
s 16
f 11/32/7 4/38/7 21/27/7 20/33/7
s 17
f 19/39/9 22/40/9 24/41/9 21/42/9
s 18
f 21/43/10 24/44/10 23/45/10 20/46/10
s 19
f 13/47/11 16/48/11 18/49/11 15/50/11
s 20
f 15/51/12 18/52/12 17/53/12 14/54/12
s 21
f 22/55/13 17/56/13 18/49/13 24/57/13
s 22
f 24/41/14 18/58/14 16/59/14 23/60/14
s 23
f 3/6/2 10/29/2 13/28/2 15/7/2
s 24
f 25/61/2 27/62/2 34/63/2 30/64/2
s 25
f 33/65/15 35/66/16 32/67/17 29/68/18
s 26
f 25/69/3 26/70/3 28/71/3 27/72/3
s 27
f 30/73/4 31/74/4 26/70/4 25/69/4
s 28
f 27/72/5 28/71/5 36/75/5 34/76/5
s 29
f 29/77/18 32/78/17 31/79/19
s 30
f 33/80/15 34/81/6 36/82/20
s 31
f 30/83/6 34/84/6 33/85/15 29/86/18
s 32
f 35/87/16 33/80/15 36/82/20
s 33
f 30/88/6 29/77/18 31/79/19
s 34
f 56/89/21 57/90/22 38/91/23 37/92/24
s 35
f 57/90/22 58/93/25 39/94/26 38/91/23
s 36
f 58/93/25 59/95/27 40/96/28 39/94/26
s 37
f 59/95/27 60/97/29 41/98/30 40/96/28
s 38
f 60/97/29 61/99/31 42/100/32 41/98/30
s 39
f 61/99/31 62/101/33 43/102/34 42/100/32
s 40
f 39/103/26 49/104/35 47/105/36 38/106/23
s 41
f 62/101/33 63/107/37 44/108/38 43/102/34
s 42
f 63/107/37 64/109/39 45/110/40 44/108/38
s 43
f 37/111/24 48/112/41 55/113/42 45/114/40
s 44
f 45/114/40 55/113/42 54/115/43 44/116/44
s 45
f 44/116/44 54/115/43 53/117/45 43/118/46
s 46
f 43/118/46 53/117/45 52/119/47 42/120/32
s 47
f 42/120/32 52/119/47 51/121/48 41/122/30
s 48
f 41/122/30 51/121/48 50/123/49 40/124/28
s 49
f 38/106/23 47/105/36 48/112/41 37/111/24
s 50
f 40/124/28 50/123/49 49/104/35 39/103/26
s 51
f 46/125/50 48/126/51 47/127/52
s 52
f 46/125/50 47/127/52 49/128/53
s 53
f 46/125/50 49/128/53 50/129/54
s 54
f 46/125/50 50/129/54 51/130/55
s 55
f 46/125/50 51/130/55 52/131/56
s 56
f 46/125/50 52/131/56 53/132/57
s 57
f 46/125/50 53/132/57 54/133/58
s 58
f 46/125/50 54/133/58 55/134/59
s 59
f 46/125/50 55/134/59 48/126/51
s 60
f 65/135/60 67/136/60 66/137/60
s 61
f 65/135/61 68/138/61 67/136/61
s 62
f 65/135/62 69/139/62 68/138/62
s 63
f 65/135/63 70/140/63 69/139/63
s 64
f 71/141/64 72/142/65 70/140/66
s 65
f 65/135/67 71/141/67 70/140/67
s 66
f 65/135/68 66/137/68 71/141/68
s 67
f 70/140/66 72/142/65 69/139/69
s 68
f 69/139/69 72/143/65 68/138/70
s 69
f 67/136/71 72/144/65 66/137/72
s 70
f 66/137/72 72/143/65 71/141/64
s 71
f 68/138/70 72/144/65 67/136/71
s 72
f 64/109/39 56/89/21 37/92/24 45/110/40
s 73
f 92/145/73 93/146/74 74/147/75 73/148/76
s 74
f 93/146/74 94/149/77 75/150/78 74/147/75
s 75
f 94/149/77 95/151/79 76/152/80 75/150/78
s 76
f 95/151/79 96/153/81 77/154/82 76/152/80
s 77
f 96/153/81 97/155/83 78/156/84 77/154/82
s 78
f 97/155/83 98/157/85 79/158/86 78/156/84
s 79
f 75/159/78 85/160/87 83/161/88 74/162/75
s 80
f 98/157/85 99/163/89 80/164/90 79/158/86
s 81
f 99/163/89 100/165/91 81/166/92 80/164/90
s 82
f 73/167/76 84/168/93 91/169/94 81/170/92
s 83
f 81/170/92 91/169/94 90/171/95 80/172/90
s 84
f 80/172/90 90/171/95 89/173/96 79/174/86
s 85
f 79/174/86 89/173/96 88/175/97 78/176/84
s 86
f 78/176/84 88/175/97 87/177/98 77/178/82
s 87
f 77/178/82 87/177/98 86/179/99 76/180/80
s 88
f 74/162/75 83/161/88 84/168/93 73/167/76
s 89
f 76/180/80 86/179/99 85/160/87 75/159/78
s 90
f 82/181/7 84/182/100 83/183/101
s 91
f 82/181/7 83/183/101 85/184/102
s 92
f 82/181/7 85/184/102 86/185/103
s 93
f 82/181/7 86/185/103 87/186/104
s 94
f 82/181/7 87/186/104 88/187/105
s 95
f 82/181/7 88/187/105 89/188/106
s 96
f 82/181/7 89/188/106 90/189/107
s 97
f 82/181/7 90/189/107 91/190/108
s 98
f 82/181/7 91/190/108 84/182/100
s 99
f 101/191/109 103/192/109 102/193/109
s 100
f 101/191/110 104/194/110 103/192/110
s 101
f 101/191/111 105/195/111 104/194/111
s 102
f 101/191/112 106/196/112 105/195/112
s 103
f 107/197/113 108/198/7 106/196/114
s 104
f 101/191/115 107/197/115 106/196/115
s 105
f 101/191/116 102/193/116 107/197/116
s 106
f 106/196/114 108/198/7 105/195/117
s 107
f 105/195/117 108/199/7 104/194/118
s 108
f 103/192/119 108/200/7 102/193/120
s 109
f 102/193/120 108/199/7 107/197/113
s 110
f 104/194/118 108/200/7 103/192/119
s 111
f 100/165/91 92/145/73 73/148/76 81/166/92
s 112
f 128/201/121 129/202/122 110/203/123 109/204/124
s 113
f 129/202/122 130/205/125 111/206/126 110/203/123
s 114
f 130/205/125 131/207/127 112/208/128 111/206/126
s 115
f 131/207/127 132/209/129 113/210/130 112/208/128
s 116
f 132/209/129 133/211/131 114/212/132 113/210/130
s 117
f 133/211/131 134/213/133 115/214/134 114/212/132
s 118
f 111/215/126 121/216/135 119/217/136 110/218/123
s 119
f 134/213/133 135/219/137 116/220/138 115/214/134
s 120
f 135/219/137 136/221/139 117/222/140 116/220/138
s 121
f 109/223/124 120/224/141 127/225/142 117/226/140
s 122
f 117/226/140 127/225/142 126/227/143 116/228/138
s 123
f 116/228/138 126/227/143 125/229/144 115/230/134
s 124
f 115/230/134 125/229/144 124/231/145 114/232/132
s 125
f 114/232/132 124/231/145 123/233/146 113/234/130
s 126
f 113/234/130 123/233/146 122/235/147 112/236/128
s 127
f 110/218/123 119/217/136 120/224/141 109/223/124
s 128
f 112/236/128 122/235/147 121/216/135 111/215/126
s 129
f 118/237/7 120/238/148 119/239/149
s 130
f 118/237/7 119/239/149 121/240/150
s 131
f 118/237/7 121/240/150 122/241/151
s 132
f 118/237/7 122/241/151 123/242/152
s 133
f 118/237/7 123/242/152 124/243/153
s 134
f 118/237/7 124/243/153 125/244/154
s 135
f 118/237/7 125/244/154 126/245/155
s 136
f 118/237/7 126/245/155 127/246/156
s 137
f 118/237/7 127/246/156 120/238/148
s 138
f 137/247/157 139/248/157 138/249/157
s 139
f 137/247/158 140/250/158 139/248/158
s 140
f 137/247/159 141/251/159 140/250/159
s 141
f 137/247/160 142/252/160 141/251/160
s 142
f 143/253/161 144/254/7 142/252/162
s 143
f 137/247/163 143/253/163 142/252/163
s 144
f 137/247/164 138/249/164 143/253/164
s 145
f 142/252/162 144/254/7 141/251/165
s 146
f 141/251/165 144/255/7 140/250/166
s 147
f 139/248/167 144/256/7 138/249/168
s 148
f 138/249/168 144/255/7 143/253/161
s 149
f 140/250/166 144/256/7 139/248/167
s 150
f 136/221/139 128/201/121 109/204/124 117/222/140
