# Blender v2.80 (sub 75) OBJ File: 'Dungeon_Remastered_Export1.0.blend'
# www.blender.org
mtllib shelves.mtl
o shelves_Cube.15545
v -1.000000 1.000000 0.250000
v -1.000000 1.200000 0.250000
v 1.000000 1.000000 0.250000
v 1.000000 1.200000 0.250000
v -1.000000 1.000000 0.725000
v -1.000000 1.025000 0.750000
v -1.000000 1.175000 0.750000
v -1.000000 1.200000 0.725000
v 1.000000 1.025000 0.750000
v 1.000000 1.000000 0.725000
v 1.000000 1.200000 0.725000
v 1.000000 1.175000 0.750000
v 0.655990 1.000000 0.725000
v 0.278470 1.000000 0.725000
v 0.399327 1.000000 0.681978
v 0.655990 1.025000 0.750000
v 0.278470 1.025000 0.750000
v 0.399327 1.025000 0.706760
v 0.278470 1.200000 0.725000
v 0.655990 1.200000 0.725000
v 0.399327 1.200000 0.681978
v 0.278470 1.175000 0.750000
v 0.655990 1.175000 0.750000
v 0.399327 1.175000 0.706760
v 1.000000 2.500000 0.250000
v 1.000000 2.700000 0.250000
v -1.000000 2.500000 0.250000
v -1.000000 2.700000 0.250000
v 1.000000 2.500000 0.725000
v 1.000000 2.525000 0.750000
v 1.000000 2.675000 0.750000
v 1.000000 2.700000 0.725000
v -1.000000 2.525000 0.750000
v -1.000000 2.500000 0.725000
v -1.000000 2.700000 0.725000
v -1.000000 2.675000 0.750000
v -0.467919 2.500000 0.725000
v -0.090400 2.500000 0.725000
v -0.211256 2.500000 0.681978
v -0.467919 2.525000 0.750000
v -0.090400 2.525000 0.750000
v -0.211256 2.525000 0.706760
v -0.090400 2.700000 0.725000
v -0.467919 2.700000 0.725000
v -0.211256 2.700000 0.681978
v -0.090400 2.675000 0.750000
v -0.467919 2.675000 0.750000
v -0.211256 2.675000 0.706760
v -0.800000 0.750000 0.250000
v -0.800000 1.000000 0.250000
v -0.600000 0.750000 0.250000
v -0.600000 1.000000 0.250000
v 0.600000 0.750000 0.250000
v 0.600000 1.000000 0.250000
v 0.800000 0.750000 0.250000
v 0.800000 1.000000 0.250000
v -0.775000 0.775000 0.400000
v -0.800000 0.750000 0.375000
v -0.800000 1.000000 0.575000
v -0.775000 1.000000 0.600000
v -0.625000 0.775000 0.400000
v -0.600000 0.750000 0.375000
v -0.625000 1.000000 0.600000
v -0.600000 1.000000 0.575000
v 0.625000 0.775000 0.400000
v 0.600000 0.750000 0.375000
v 0.600000 1.000000 0.575000
v 0.625000 1.000000 0.600000
v 0.775000 0.775000 0.400000
v 0.800000 0.750000 0.375000
v 0.775000 1.000000 0.600000
v 0.800000 1.000000 0.575000
v -0.800000 2.250000 0.250000
v -0.800000 2.500000 0.250000
v -0.600000 2.250000 0.250000
v -0.600000 2.500000 0.250000
v 0.600000 2.250000 0.250000
v 0.600000 2.500000 0.250000
v 0.800000 2.250000 0.250000
v 0.800000 2.500000 0.250000
v -0.775000 2.275000 0.400000
v -0.800000 2.250000 0.375000
v -0.800000 2.500000 0.575000
v -0.775000 2.500000 0.600000
v -0.625000 2.275000 0.400000
v -0.600000 2.250000 0.375000
v -0.625000 2.500000 0.600000
v -0.600000 2.500000 0.575000
v 0.625000 2.275000 0.400000
v 0.600000 2.250000 0.375000
v 0.600000 2.500000 0.575000
v 0.625000 2.500000 0.600000
v 0.775000 2.275000 0.400000
v 0.800000 2.250000 0.375000
v 0.775000 2.500000 0.600000
v 0.800000 2.500000 0.575000
vt 0.599288 0.827623
vt 0.599288 0.831405
vt 0.576758 0.831405
vt 0.576758 0.827623
vt 0.514602 0.795742
vt 0.599288 0.795742
vt 0.565890 0.795742
vt 0.514602 0.826992
vt 0.514602 0.832036
vt 0.599288 0.832036
vt 0.599288 0.826992
vt 0.514602 0.826992
vt 0.514602 0.827623
vt 0.514602 0.831405
vt 0.514602 0.832036
vt 0.599288 0.826992
vt 0.599288 0.832036
vt 0.514602 0.795742
vt 0.560773 0.795742
vt 0.560773 0.796373
vt 0.514602 0.796373
vt 0.560773 0.827623
vt 0.560773 0.831405
vt 0.514602 0.863286
vt 0.514602 0.863286
vt 0.560773 0.863286
vt 0.565890 0.863286
vt 0.576758 0.795742
vt 0.599288 0.795742
vt 0.599288 0.796373
vt 0.576758 0.796373
vt 0.599288 0.863286
vt 0.576758 0.863286
vt 0.576758 0.862655
vt 0.599288 0.862655
vt 0.514602 0.862655
vt 0.560773 0.862655
vt 0.599288 0.863286
vt 0.560773 0.847661
vt 0.560773 0.847030
vt 0.565890 0.847030
vt 0.565890 0.847661
vt 0.565890 0.878911
vt 0.565890 0.878280
vt 0.576758 0.878280
vt 0.576758 0.878911
vt 0.576758 0.811367
vt 0.576758 0.811998
vt 0.565890 0.811998
vt 0.565890 0.811367
vt 0.565890 0.780117
vt 0.565890 0.780748
vt 0.560773 0.780748
vt 0.560773 0.780117
vt 0.560773 0.815780
vt 0.560773 0.811998
vt 0.565890 0.815780
vt 0.565890 0.843248
vt 0.576758 0.843248
vt 0.576758 0.847030
vt 0.599288 0.879299
vt 0.576758 0.879299
vt 0.576758 0.883082
vt 0.599288 0.883082
vt 0.514602 0.847419
vt 0.565890 0.847419
vt 0.599288 0.847419
vt 0.514602 0.878669
vt 0.599288 0.878669
vt 0.599288 0.883712
vt 0.514602 0.883712
vt 0.514602 0.878669
vt 0.514602 0.883712
vt 0.514602 0.883082
vt 0.514602 0.879299
vt 0.599288 0.878669
vt 0.599288 0.883712
vt 0.514602 0.847419
vt 0.514602 0.848049
vt 0.560773 0.848049
vt 0.560773 0.847419
vt 0.560773 0.879299
vt 0.560773 0.883082
vt 0.514602 0.914962
vt 0.565890 0.914962
vt 0.560773 0.914962
vt 0.514602 0.914962
vt 0.576758 0.847419
vt 0.576758 0.848049
vt 0.599288 0.848049
vt 0.599288 0.847419
vt 0.599288 0.914962
vt 0.599288 0.914332
vt 0.576758 0.914332
vt 0.576758 0.914962
vt 0.560773 0.914332
vt 0.514602 0.914332
vt 0.599288 0.914962
vt 0.560773 0.899337
vt 0.565890 0.899337
vt 0.565890 0.898707
vt 0.560773 0.898707
vt 0.565890 0.930587
vt 0.576758 0.930587
vt 0.576758 0.929957
vt 0.565890 0.929957
vt 0.576758 0.863044
vt 0.565890 0.863044
vt 0.565890 0.863674
vt 0.576758 0.863674
vt 0.565890 0.831794
vt 0.560773 0.831794
vt 0.560773 0.832424
vt 0.565890 0.832424
vt 0.560773 0.867457
vt 0.565890 0.867457
vt 0.560773 0.863674
vt 0.576758 0.898707
vt 0.576758 0.894924
vt 0.565890 0.894924
vt 0.518836 0.793221
vt 0.527305 0.793221
vt 0.527305 0.793221
vt 0.518836 0.793221
vt 0.526246 0.825101
vt 0.526246 0.895078
vt 0.519895 0.895078
vt 0.519895 0.825101
vt 0.518836 0.824471
vt 0.518836 0.895078
vt 0.527305 0.895078
vt 0.527305 0.824471
vt 0.518499 0.793221
vt 0.526968 0.793221
vt 0.526968 0.793221
vt 0.518499 0.793221
vt 0.518836 0.824471
vt 0.518836 0.895078
vt 0.527305 0.895078
vt 0.527305 0.824471
vt 0.525909 0.825101
vt 0.525909 0.895078
vt 0.519558 0.895078
vt 0.519558 0.825101
vt 0.518499 0.824471
vt 0.518499 0.895078
vt 0.526968 0.895078
vt 0.526968 0.824471
vt 0.518499 0.824471
vt 0.518499 0.895078
vt 0.526968 0.895078
vt 0.526968 0.824471
vt 0.519895 0.840726
vt 0.519895 0.910703
vt 0.518836 0.910703
vt 0.518836 0.840096
vt 0.526246 0.910703
vt 0.526246 0.840726
vt 0.527305 0.840096
vt 0.527305 0.910703
vt 0.518836 0.808846
vt 0.527305 0.808846
vt 0.526246 0.809476
vt 0.519895 0.809476
vt 0.519558 0.840726
vt 0.519558 0.910703
vt 0.518499 0.910703
vt 0.518499 0.840096
vt 0.525909 0.910703
vt 0.525909 0.840726
vt 0.526968 0.840096
vt 0.526968 0.910703
vt 0.518499 0.808846
vt 0.526968 0.808846
vt 0.525909 0.809476
vt 0.519558 0.809476
vt 0.518836 0.793221
vt 0.527305 0.793221
vt 0.527305 0.793221
vt 0.518836 0.793221
vt 0.526246 0.825101
vt 0.526246 0.895078
vt 0.519895 0.895078
vt 0.519895 0.825101
vt 0.518836 0.824471
vt 0.518836 0.895078
vt 0.527305 0.895078
vt 0.527305 0.824471
vt 0.518499 0.793221
vt 0.526968 0.793221
vt 0.526968 0.793221
vt 0.518499 0.793221
vt 0.518836 0.824471
vt 0.518836 0.895078
vt 0.527305 0.895078
vt 0.527305 0.824471
vt 0.525909 0.825101
vt 0.525909 0.895078
vt 0.519558 0.895078
vt 0.519558 0.825101
vt 0.518499 0.824471
vt 0.518499 0.895078
vt 0.526968 0.895078
vt 0.526968 0.824471
vt 0.518499 0.824471
vt 0.518499 0.895078
vt 0.526968 0.895078
vt 0.526968 0.824471
vt 0.519895 0.840726
vt 0.519895 0.910703
vt 0.518836 0.910703
vt 0.518836 0.840096
vt 0.526246 0.910703
vt 0.526246 0.840726
vt 0.527305 0.840096
vt 0.527305 0.910703
vt 0.518836 0.808846
vt 0.527305 0.808846
vt 0.526246 0.809476
vt 0.519895 0.809476
vt 0.519558 0.840726
vt 0.519558 0.910703
vt 0.518499 0.910703
vt 0.518499 0.840096
vt 0.525909 0.910703
vt 0.525909 0.840726
vt 0.526968 0.840096
vt 0.526968 0.910703
vt 0.518499 0.808846
vt 0.526968 0.808846
vt 0.525909 0.809476
vt 0.519558 0.809476
vn 0.0000 0.0000 1.0000
vn 0.0000 -1.0000 0.0000
vn 0.0000 0.0000 -1.0000
vn -1.0000 0.0000 0.0000
vn 1.0000 0.0000 0.0000
vn 0.0000 -0.7071 0.7071
vn 0.0000 1.0000 -0.0000
vn 0.0000 0.7071 0.7071
vn 0.2452 0.6840 0.6870
vn -0.1183 0.7006 0.7037
vn -0.1182 -0.7006 0.7037
vn 0.2452 -0.6840 0.6870
vn 0.3369 0.0000 0.9416
vn -0.1661 0.0000 0.9861
vn -0.2452 0.6840 0.6870
vn 0.1182 0.7006 0.7037
vn 0.1182 -0.7006 0.7037
vn -0.2452 -0.6840 0.6870
vn -0.3369 0.0000 0.9416
vn 0.1661 0.0000 0.9861
vn 0.1663 -0.6632 0.7298
vn 0.1687 -0.6472 0.7434
vn -0.1687 -0.6472 0.7434
vn -0.1663 -0.6632 0.7298
vn -0.4049 -0.5890 0.6994
vn -0.1635 -0.6749 0.7195
vn 0.1635 -0.6749 0.7195
vn 0.4049 -0.5890 0.6994
usemtl texture
s 1
f 9/1/1 12/2/1 23/3/1 16/4/1
s 2
f 1/5/2 3/6/2 15/7/2
s 3
f 1/8/3 2/9/3 4/10/3 3/11/3
s 4
f 5/12/4 6/13/4 7/14/4 8/15/4
s 5
f 10/16/5 11/17/5 12/2/5 9/1/5
s 6
f 5/18/6 14/19/6 17/20/6 6/21/6
s 7
f 1/8/4 5/12/4 8/15/4 2/9/4
s 8
f 3/11/5 4/10/5 11/17/5 10/16/5
s 9
f 17/22/1 22/23/1 7/14/1 6/13/1
s 10
f 2/24/7 8/25/7 19/26/7 21/27/7
s 11
f 13/28/6 10/29/6 9/30/6 16/31/6
s 12
f 11/32/8 20/33/8 23/34/8 12/35/8
s 13
f 19/26/8 8/25/8 7/36/8 22/37/8
s 14
f 4/38/7 2/24/7 21/27/7
s 15
f 5/18/2 1/5/2 15/7/2 14/19/2
s 16
f 11/32/7 4/38/7 21/27/7 20/33/7
s 17
f 19/39/9 22/40/9 24/41/9 21/42/9
s 18
f 21/43/10 24/44/10 23/45/10 20/46/10
s 19
f 13/47/11 16/48/11 18/49/11 15/50/11
s 20
f 15/51/12 18/52/12 17/53/12 14/54/12
s 21
f 22/55/13 17/56/13 18/49/13 24/57/13
s 22
f 24/41/14 18/58/14 16/59/14 23/60/14
s 23
f 3/6/2 10/29/2 13/28/2 15/7/2
s 24
f 33/61/1 40/62/1 47/63/1 36/64/1
s 25
f 25/65/2 39/66/2 27/67/2
s 26
f 25/68/3 27/69/3 28/70/3 26/71/3
s 27
f 29/72/5 32/73/5 31/74/5 30/75/5
s 28
f 34/76/4 33/61/4 36/64/4 35/77/4
s 29
f 29/78/6 30/79/6 41/80/6 38/81/6
s 30
f 25/68/5 26/71/5 32/73/5 29/72/5
s 31
f 27/69/4 34/76/4 35/77/4 28/70/4
s 32
f 41/82/1 30/75/1 31/74/1 46/83/1
s 33
f 26/84/7 45/85/7 43/86/7 32/87/7
s 34
f 37/88/6 40/89/6 33/90/6 34/91/6
s 35
f 35/92/8 36/93/8 47/94/8 44/95/8
s 36
f 43/86/8 46/96/8 31/97/8 32/87/8
s 37
f 28/98/7 45/85/7 26/84/7
s 38
f 29/78/2 38/81/2 39/66/2 25/65/2
s 39
f 35/92/7 44/95/7 45/85/7 28/98/7
s 40
f 43/99/15 45/100/15 48/101/15 46/102/15
s 41
f 45/103/16 44/104/16 47/105/16 48/106/16
s 42
f 37/107/17 39/108/17 42/109/17 40/110/17
s 43
f 39/111/18 38/112/18 41/113/18 42/114/18
s 44
f 46/115/19 48/116/19 42/109/19 41/117/19
s 45
f 48/101/20 47/118/20 40/119/20 42/120/20
s 46
f 27/67/2 39/66/2 37/88/2 34/91/2
s 47
f 49/121/2 51/122/2 62/123/2 58/124/2
s 48
f 61/125/21 63/126/22 60/127/23 57/128/24
s 49
f 49/129/3 50/130/3 52/131/3 51/132/3
s 50
f 53/133/2 55/134/2 70/135/2 66/136/2
s 51
f 58/137/4 59/138/4 50/130/4 49/129/4
s 52
f 51/132/5 52/131/5 64/139/5 62/140/5
s 53
f 69/141/21 71/142/22 68/143/23 65/144/24
s 54
f 53/145/3 54/146/3 56/147/3 55/148/3
s 55
f 66/149/4 67/150/4 54/146/4 53/145/4
s 56
f 55/148/5 56/147/5 72/151/5 70/152/5
s 57
f 57/153/24 60/154/23 59/155/25 58/156/26
s 58
f 63/157/22 61/158/21 62/159/27 64/160/28
s 59
f 58/161/26 62/162/27 61/163/21 57/164/24
s 60
f 65/165/24 68/166/23 67/167/25 66/168/26
s 61
f 71/169/22 69/170/21 70/171/27 72/172/28
s 62
f 66/173/26 70/174/27 69/175/21 65/176/24
s 63
f 73/177/2 75/178/2 86/179/2 82/180/2
s 64
f 85/181/21 87/182/22 84/183/23 81/184/24
s 65
f 73/185/3 74/186/3 76/187/3 75/188/3
s 66
f 77/189/2 79/190/2 94/191/2 90/192/2
s 67
f 82/193/4 83/194/4 74/186/4 73/185/4
s 68
f 75/188/5 76/187/5 88/195/5 86/196/5
s 69
f 93/197/21 95/198/22 92/199/23 89/200/24
s 70
f 77/201/3 78/202/3 80/203/3 79/204/3
s 71
f 90/205/4 91/206/4 78/202/4 77/201/4
s 72
f 79/204/5 80/203/5 96/207/5 94/208/5
s 73
f 81/209/24 84/210/23 83/211/25 82/212/26
s 74
f 87/213/22 85/214/21 86/215/27 88/216/28
s 75
f 82/217/26 86/218/27 85/219/21 81/220/24
s 76
f 89/221/24 92/222/23 91/223/25 90/224/26
s 77
f 95/225/22 93/226/21 94/227/27 96/228/28
s 78
f 90/229/26 94/230/27 93/231/21 89/232/24
