# Blender v2.80 (sub 75) OBJ File: 'Dungeon_Remastered_Export1.0.blend'
# www.blender.org
mtllib spikes.mtl
o spikes_Cube.14375
v -0.100000 0.000000 0.000001
v 0.000000 2.000000 0.000001
v 0.100000 0.000000 0.000001
v -0.100000 1.644170 0.000001
v 0.000000 0.000000 -0.099999
v 0.100000 1.644170 0.000001
v 0.000000 0.000000 0.100001
v 0.000000 1.644170 0.100001
v 0.000000 1.644170 -0.099999
v 0.900000 0.000000 0.000001
v 1.000000 2.000000 0.000001
v 1.100000 0.000000 0.000001
v 0.900000 1.644170 0.000001
v 1.000000 0.000000 -0.099999
v 1.100000 1.644170 0.000001
v 1.000000 0.000000 0.100001
v 1.000000 1.644170 0.100001
v 1.000000 1.644170 -0.099999
v -1.100000 0.000000 0.000001
v -1.000000 2.000000 0.000001
v -0.900000 0.000000 0.000001
v -1.100000 1.644170 0.000001
v -1.000000 0.000000 -0.099999
v -0.900000 1.644170 0.000001
v -1.000000 0.000000 0.100001
v -1.000000 1.644170 0.100001
v -1.000000 1.644170 -0.099999
v -0.100000 0.000000 -0.999999
v 0.000000 2.000000 -0.999999
v 0.100000 0.000000 -0.999999
v -0.100000 1.644170 -0.999999
v 0.000000 0.000000 -1.099999
v 0.100000 1.644170 -0.999999
v 0.000000 0.000000 -0.899999
v 0.000000 1.644170 -0.899999
v 0.000000 1.644170 -1.099999
v 0.900000 0.000000 -0.999999
v 1.000000 2.000000 -0.999999
v 1.100000 0.000000 -0.999999
v 0.900000 1.644170 -0.999999
v 1.000000 0.000000 -1.099999
v 1.100000 1.644170 -0.999999
v 1.000000 0.000000 -0.899999
v 1.000000 1.644170 -0.899999
v 1.000000 1.644170 -1.099999
v -1.100000 0.000000 -0.999999
v -1.000000 2.000000 -0.999999
v -0.900000 0.000000 -0.999999
v -1.100000 1.644170 -0.999999
v -1.000000 0.000000 -1.099999
v -0.900000 1.644170 -0.999999
v -1.000000 0.000000 -0.899999
v -1.000000 1.644170 -0.899999
v -1.000000 1.644170 -1.099999
v -0.100000 0.000000 1.000001
v 0.000000 2.000000 1.000001
v 0.100000 0.000000 1.000001
v -0.100000 1.644170 1.000001
v 0.000000 0.000000 0.900001
v 0.100000 1.644170 1.000001
v 0.000000 0.000000 1.100001
v 0.000000 1.644170 1.100001
v 0.000000 1.644170 0.900001
v 0.900000 0.000000 1.000001
v 1.000000 2.000000 1.000001
v 1.100000 0.000000 1.000001
v 0.900000 1.644170 1.000001
v 1.000000 0.000000 0.900001
v 1.100000 1.644170 1.000001
v 1.000000 0.000000 1.100001
v 1.000000 1.644170 1.100001
v 1.000000 1.644170 0.900001
v -1.100000 0.000000 1.000001
v -1.000000 2.000000 1.000001
v -0.900000 0.000000 1.000001
v -1.100000 1.644170 1.000001
v -1.000000 0.000000 0.900001
v -0.900000 1.644170 1.000001
v -1.000000 0.000000 1.100001
v -1.000000 1.644170 1.100001
v -1.000000 1.644170 0.900001
vt 0.062509 0.607663
vt 0.062509 0.644018
vt 0.079117 0.577990
vt 0.062509 0.607663
vt 0.045900 0.577990
vt 0.062509 0.506068
vt 0.062509 0.591926
vt 0.045900 0.545849
vt 0.048812 0.506068
vt 0.076205 0.506068
vt 0.079117 0.591926
vt 0.062509 0.545849
vt 0.079117 0.607663
vt 0.062509 0.577990
vt 0.062509 0.506068
vt 0.062509 0.591926
vt 0.079117 0.545849
vt 0.045900 0.591926
vt 0.062509 0.545849
vt 0.045900 0.607663
vt 0.062509 0.577990
vt 0.062509 0.607663
vt 0.062509 0.644018
vt 0.079117 0.577990
vt 0.062509 0.607663
vt 0.045900 0.577990
vt 0.062509 0.506068
vt 0.062509 0.591926
vt 0.045900 0.545849
vt 0.048812 0.506068
vt 0.076205 0.506068
vt 0.079117 0.591926
vt 0.062509 0.545849
vt 0.079117 0.607663
vt 0.062509 0.577990
vt 0.062509 0.506068
vt 0.062509 0.591926
vt 0.079117 0.545849
vt 0.045900 0.591926
vt 0.062509 0.545849
vt 0.045900 0.607663
vt 0.062509 0.577990
vt 0.062509 0.607663
vt 0.062509 0.644018
vt 0.079117 0.577990
vt 0.062509 0.607663
vt 0.045900 0.577990
vt 0.062509 0.506068
vt 0.062509 0.591926
vt 0.045900 0.545849
vt 0.048812 0.506068
vt 0.076205 0.506068
vt 0.079117 0.591926
vt 0.062509 0.545849
vt 0.079117 0.607663
vt 0.062509 0.577990
vt 0.062509 0.506068
vt 0.062509 0.591926
vt 0.079117 0.545849
vt 0.045900 0.591926
vt 0.062509 0.545849
vt 0.045900 0.607663
vt 0.062509 0.577990
vt 0.062509 0.607663
vt 0.062509 0.644018
vt 0.079117 0.577990
vt 0.062509 0.607663
vt 0.045900 0.577990
vt 0.062509 0.506068
vt 0.062509 0.591926
vt 0.045900 0.545849
vt 0.048812 0.506068
vt 0.076205 0.506068
vt 0.079117 0.591926
vt 0.062509 0.545849
vt 0.079117 0.607663
vt 0.062509 0.577990
vt 0.062509 0.506068
vt 0.062509 0.591926
vt 0.079117 0.545849
vt 0.045900 0.591926
vt 0.062509 0.545849
vt 0.045900 0.607663
vt 0.062509 0.577990
vt 0.062509 0.607663
vt 0.062509 0.644018
vt 0.079117 0.577990
vt 0.062509 0.607663
vt 0.045900 0.577990
vt 0.062509 0.506068
vt 0.062509 0.591926
vt 0.045900 0.545849
vt 0.048812 0.506068
vt 0.076205 0.506068
vt 0.079117 0.591926
vt 0.062509 0.545849
vt 0.079117 0.607663
vt 0.062509 0.577990
vt 0.062509 0.506068
vt 0.062509 0.591926
vt 0.079117 0.545849
vt 0.045900 0.591926
vt 0.062509 0.545849
vt 0.045900 0.607663
vt 0.062509 0.577990
vt 0.062509 0.607663
vt 0.062509 0.644018
vt 0.079117 0.577990
vt 0.062509 0.607663
vt 0.045900 0.577990
vt 0.062509 0.506068
vt 0.062509 0.591926
vt 0.045900 0.545849
vt 0.048812 0.506068
vt 0.076205 0.506068
vt 0.079117 0.591926
vt 0.062509 0.545849
vt 0.079117 0.607663
vt 0.062509 0.577990
vt 0.062509 0.506068
vt 0.062509 0.591926
vt 0.079117 0.545849
vt 0.045900 0.591926
vt 0.062509 0.545849
vt 0.045900 0.607663
vt 0.062509 0.577990
vt 0.062509 0.607663
vt 0.062509 0.644018
vt 0.079117 0.577990
vt 0.062509 0.607663
vt 0.045900 0.577990
vt 0.062509 0.506068
vt 0.062509 0.591926
vt 0.045900 0.545849
vt 0.048812 0.506068
vt 0.076205 0.506068
vt 0.079117 0.591926
vt 0.062509 0.545849
vt 0.079117 0.607663
vt 0.062509 0.577990
vt 0.062509 0.506068
vt 0.062509 0.591926
vt 0.079117 0.545849
vt 0.045900 0.591926
vt 0.062509 0.545849
vt 0.045900 0.607663
vt 0.062509 0.577990
vt 0.062509 0.607663
vt 0.062509 0.644018
vt 0.079117 0.577990
vt 0.062509 0.607663
vt 0.045900 0.577990
vt 0.062509 0.506068
vt 0.062509 0.591926
vt 0.045900 0.545849
vt 0.048812 0.506068
vt 0.076205 0.506068
vt 0.079117 0.591926
vt 0.062509 0.545849
vt 0.079117 0.607663
vt 0.062509 0.577990
vt 0.062509 0.506068
vt 0.062509 0.591926
vt 0.079117 0.545849
vt 0.045900 0.591926
vt 0.062509 0.545849
vt 0.045900 0.607663
vt 0.062509 0.577990
vt 0.062509 0.607663
vt 0.062509 0.644018
vt 0.079117 0.577990
vt 0.062509 0.607663
vt 0.045900 0.577990
vt 0.062509 0.506068
vt 0.062509 0.591926
vt 0.045900 0.545849
vt 0.048812 0.506068
vt 0.076205 0.506068
vt 0.079117 0.591926
vt 0.062509 0.545849
vt 0.079117 0.607663
vt 0.062509 0.577990
vt 0.062509 0.506068
vt 0.062509 0.591926
vt 0.079117 0.545849
vt 0.045900 0.591926
vt 0.062509 0.545849
vt 0.045900 0.607663
vt 0.062509 0.577990
vn 0.6935 0.1949 -0.6935
vn -0.6935 0.1949 0.6935
vn -0.7071 0.0000 0.7071
vn 0.7071 -0.0000 0.7071
vn 0.6935 0.1949 0.6935
vn 0.7071 -0.0000 -0.7071
vn -0.7071 0.0000 -0.7071
vn -0.6935 0.1949 -0.6935
usemtl texture
s 1
f 9/1/1 2/2/1 6/3/1
s 2
f 8/4/2 2/2/2 4/5/2
s 3
f 7/6/3 8/7/3 4/8/3 1/9/3
s 4
f 3/10/4 6/11/4 8/12/4 7/6/4
s 5
f 6/13/5 2/2/5 8/14/5
s 6
f 5/15/6 9/16/6 6/17/6 3/10/6
s 7
f 1/9/7 4/18/7 9/19/7 5/15/7
s 8
f 4/20/8 2/2/8 9/21/8
s 9
f 18/22/1 11/23/1 15/24/1
s 10
f 17/25/2 11/23/2 13/26/2
s 11
f 16/27/3 17/28/3 13/29/3 10/30/3
s 12
f 12/31/4 15/32/4 17/33/4 16/27/4
s 13
f 15/34/5 11/23/5 17/35/5
s 14
f 14/36/6 18/37/6 15/38/6 12/31/6
s 15
f 10/30/7 13/39/7 18/40/7 14/36/7
s 16
f 13/41/8 11/23/8 18/42/8
s 17
f 27/43/1 20/44/1 24/45/1
s 18
f 26/46/2 20/44/2 22/47/2
s 19
f 25/48/3 26/49/3 22/50/3 19/51/3
s 20
f 21/52/4 24/53/4 26/54/4 25/48/4
s 21
f 24/55/5 20/44/5 26/56/5
s 22
f 23/57/6 27/58/6 24/59/6 21/52/6
s 23
f 19/51/7 22/60/7 27/61/7 23/57/7
s 24
f 22/62/8 20/44/8 27/63/8
s 25
f 36/64/1 29/65/1 33/66/1
s 26
f 35/67/2 29/65/2 31/68/2
s 27
f 34/69/3 35/70/3 31/71/3 28/72/3
s 28
f 30/73/4 33/74/4 35/75/4 34/69/4
s 29
f 33/76/5 29/65/5 35/77/5
s 30
f 32/78/6 36/79/6 33/80/6 30/73/6
s 31
f 28/72/7 31/81/7 36/82/7 32/78/7
s 32
f 31/83/8 29/65/8 36/84/8
s 33
f 45/85/1 38/86/1 42/87/1
s 34
f 44/88/2 38/86/2 40/89/2
s 35
f 43/90/3 44/91/3 40/92/3 37/93/3
s 36
f 39/94/4 42/95/4 44/96/4 43/90/4
s 37
f 42/97/5 38/86/5 44/98/5
s 38
f 41/99/6 45/100/6 42/101/6 39/94/6
s 39
f 37/93/7 40/102/7 45/103/7 41/99/7
s 40
f 40/104/8 38/86/8 45/105/8
s 41
f 54/106/1 47/107/1 51/108/1
s 42
f 53/109/2 47/107/2 49/110/2
s 43
f 52/111/3 53/112/3 49/113/3 46/114/3
s 44
f 48/115/4 51/116/4 53/117/4 52/111/4
s 45
f 51/118/5 47/107/5 53/119/5
s 46
f 50/120/6 54/121/6 51/122/6 48/115/6
s 47
f 46/114/7 49/123/7 54/124/7 50/120/7
s 48
f 49/125/8 47/107/8 54/126/8
s 49
f 63/127/1 56/128/1 60/129/1
s 50
f 62/130/2 56/128/2 58/131/2
s 51
f 61/132/3 62/133/3 58/134/3 55/135/3
s 52
f 57/136/4 60/137/4 62/138/4 61/132/4
s 53
f 60/139/5 56/128/5 62/140/5
s 54
f 59/141/6 63/142/6 60/143/6 57/136/6
s 55
f 55/135/7 58/144/7 63/145/7 59/141/7
s 56
f 58/146/8 56/128/8 63/147/8
s 57
f 72/148/1 65/149/1 69/150/1
s 58
f 71/151/2 65/149/2 67/152/2
s 59
f 70/153/3 71/154/3 67/155/3 64/156/3
s 60
f 66/157/4 69/158/4 71/159/4 70/153/4
s 61
f 69/160/5 65/149/5 71/161/5
s 62
f 68/162/6 72/163/6 69/164/6 66/157/6
s 63
f 64/156/7 67/165/7 72/166/7 68/162/7
s 64
f 67/167/8 65/149/8 72/168/8
s 65
f 81/169/1 74/170/1 78/171/1
s 66
f 80/172/2 74/170/2 76/173/2
s 67
f 79/174/3 80/175/3 76/176/3 73/177/3
s 68
f 75/178/4 78/179/4 80/180/4 79/174/4
s 69
f 78/181/5 74/170/5 80/182/5
s 70
f 77/183/6 81/184/6 78/185/6 75/178/6
s 71
f 73/177/7 76/186/7 81/187/7 77/183/7
s 72
f 76/188/8 74/170/8 81/189/8
