# Blender v2.80 (sub 75) OBJ File: 'Dungeon_Remastered_Export1.0.blend'
# www.blender.org
mtllib stairs_wood.mtl
o stairs_wood_Cube.13700
v -1.500000 0.000000 5.806452
v -1.500000 4.050000 0.000000
v 1.500000 0.000000 5.806452
v 1.500000 4.050000 0.000000
v -1.500000 0.000000 5.080646
v -1.500000 4.050000 0.919355
v 1.500000 0.000000 5.080646
v 1.500000 4.050000 0.919355
v -1.500000 0.500000 6.000000
v -1.500000 3.500000 0.000000
v 1.500000 3.500000 0.000000
v 1.500000 0.500000 6.000000
v 1.500000 3.500000 0.725806
v 1.500000 3.000000 0.725806
v 1.500000 3.500000 1.645161
v 1.500000 3.000000 1.451613
v 1.500000 2.500000 1.451613
v 1.500000 3.000000 2.370968
v 1.500000 2.500000 2.177419
v 1.500000 2.000000 2.177419
v 1.500000 2.500000 3.096774
v 1.500000 2.000000 2.903226
v 1.500000 1.500000 2.903226
v 1.500000 2.000000 3.822581
v 1.500000 1.500000 3.629032
v 1.500000 1.000000 3.629032
v 1.500000 1.000000 4.354839
v 1.500000 0.500000 4.354839
v 1.500000 1.000000 5.274194
v 1.500000 0.500000 5.080646
v -1.500000 1.000000 5.274194
v -1.500000 0.500000 5.080646
v -1.500000 1.500000 4.548387
v -1.500000 1.000000 4.354839
v -1.500000 0.500000 4.354839
v -1.500000 2.000000 3.822581
v -1.500000 1.500000 3.629032
v -1.500000 1.000000 3.629032
v -1.500000 2.500000 3.096774
v -1.500000 2.000000 2.903226
v -1.500000 1.500000 2.903226
v -1.500000 2.500000 2.177419
v -1.500000 2.000000 2.177419
v -1.500000 3.500000 1.645161
v -1.500000 3.000000 1.451613
v -1.500000 2.500000 1.451613
v -1.500000 3.500000 0.725806
v -1.500000 3.000000 0.725806
v 1.500000 3.800000 0.725806
v -1.500000 3.800000 0.725806
v 1.500000 3.250000 1.451613
v -1.500000 3.250000 1.451613
v 1.500000 2.750000 2.177419
v -1.500000 2.750000 2.177419
v 1.500000 2.250000 2.903226
v -1.500000 2.250000 2.903226
v 1.500000 1.750000 3.629032
v -1.500000 1.750000 3.629032
v 1.500000 1.250000 4.354839
v -1.500000 1.250000 4.354839
v 1.500000 0.750000 5.080646
v -1.500000 0.750000 5.080646
v 1.500000 0.250000 5.806452
v -1.500000 0.250000 5.806452
v -1.500000 0.250000 6.000000
v 1.500000 3.800000 0.919355
v -1.500000 3.800000 0.919355
v 1.500000 3.250000 1.645161
v -1.500000 3.250000 1.645161
v 1.500000 2.750000 2.370968
v -1.500000 2.750000 2.370968
v 1.500000 2.250000 3.096774
v -1.500000 2.250000 3.096774
v 1.500000 1.750000 3.822581
v -1.500000 1.750000 3.822581
v 1.500000 1.250000 4.548387
v -1.500000 1.250000 4.548387
v 1.500000 0.750000 5.274194
v -1.500000 0.750000 5.274194
v 1.500000 0.250000 6.000000
v 0.689432 0.500000 6.000000
v 0.953935 0.500000 6.000000
v 0.821683 0.500000 5.799792
v 0.953935 0.250000 6.000000
v 0.689432 0.250000 6.000000
v 0.821683 0.250000 5.799792
v -0.665917 2.000000 3.822581
v -0.082986 2.000000 3.822581
v -0.502253 2.000000 3.632547
v -0.082986 1.750000 3.822581
v -0.665917 1.750000 3.822581
v -0.474411 1.750000 3.632547
v -1.335129 3.000000 2.370968
v -1.500000 3.000000 2.211416
v 1.500000 1.500000 4.395417
v 1.222034 1.500000 4.548387
v 0.268262 3.500000 1.645161
v 0.735124 3.500000 1.645161
v 0.449629 3.500000 1.464371
v 0.735124 3.250000 1.645161
v 0.268262 3.250000 1.645161
v 0.449629 3.250000 1.464371
v 1.350000 -0.000000 0.700000
v 1.350000 3.334000 0.700000
v 1.350000 -0.000000 0.400000
v 1.350000 3.534000 0.400000
v 1.650000 -0.000000 0.400000
v 1.650000 3.534000 0.400000
v -1.650000 -0.000000 0.400000
v -1.650000 3.534000 0.400000
v -1.350000 -0.000000 0.700000
v -1.350000 3.334000 0.700000
v -1.350000 -0.000000 0.400000
v -1.350000 3.534000 0.400000
v 1.350000 -0.000000 2.700000
v 1.350000 2.034000 2.700000
v 1.350000 -0.000000 2.400000
v 1.350000 2.234000 2.400000
v 1.650000 -0.000000 2.400000
v 1.650000 2.234000 2.400000
v -1.650000 -0.000000 2.400000
v -1.650000 2.234000 2.400000
v -1.350000 -0.000000 2.700000
v -1.350000 2.034000 2.700000
v -1.350000 -0.000000 2.400000
v -1.350000 2.234000 2.400000
v 1.350000 -0.000000 4.700000
v 1.350000 0.734000 4.700000
v 1.350000 -0.000000 4.400000
v 1.350000 0.934000 4.400000
v 1.650000 -0.000000 4.400000
v 1.650000 0.934000 4.400000
v -1.650000 -0.000000 4.400000
v -1.650000 0.934000 4.400000
v -1.350000 -0.000000 4.700000
v -1.350000 0.734000 4.700000
v -1.350000 -0.000000 4.400000
v -1.350000 0.934000 4.400000
v 1.650000 -0.000000 0.650000
v 1.600000 -0.000000 0.700000
v 1.600000 3.334000 0.700000
v 1.650000 3.367333 0.650000
v -1.600000 -0.000000 0.700000
v -1.650000 -0.000000 0.650000
v -1.650000 3.367333 0.650000
v -1.600000 3.334000 0.700000
v 1.650000 -0.000000 2.650000
v 1.600000 -0.000000 2.700000
v 1.600000 2.034000 2.700000
v 1.650000 2.067333 2.650000
v -1.600000 -0.000000 2.700000
v -1.650000 -0.000000 2.650000
v -1.650000 2.067333 2.650000
v -1.600000 2.034000 2.700000
v 1.650000 -0.000000 4.650000
v 1.600000 -0.000000 4.700000
v 1.600000 0.734000 4.700000
v 1.650000 0.767333 4.650000
v -1.600000 -0.000000 4.700000
v -1.650000 -0.000000 4.650000
v -1.650000 0.767333 4.650000
v -1.600000 0.734000 4.700000
vt 0.536831 0.878826
vt 0.536831 0.899301
vt 0.536831 0.899300
vt 0.545740 0.775757
vt 0.545740 0.924243
vt 0.545740 0.933150
vt 0.545740 0.775757
vt 0.559099 0.933150
vt 0.559099 0.775757
vt 0.556872 0.775757
vt 0.556872 0.924243
vt 0.559099 0.925727
vt 0.559099 0.775757
vt 0.559101 0.775757
vt 0.559101 0.924243
vt 0.547966 0.924243
vt 0.547966 0.775757
vt 0.545740 0.775757
vt 0.545740 0.933150
vt 0.559101 0.933150
vt 0.559101 0.775757
vt 0.545740 0.955493
vt 0.556872 0.955493
vt 0.559099 0.956977
vt 0.559099 0.964400
vt 0.545740 0.775757
vt 0.545740 0.925727
vt 0.559099 0.760132
vt 0.559099 0.760132
vt 0.556872 0.760132
vt 0.545740 0.760132
vt 0.545740 0.760132
vt 0.559101 0.760132
vt 0.559101 0.760132
vt 0.545740 0.775757
vt 0.545740 0.866345
vt 0.545740 0.875252
vt 0.545740 0.775757
vt 0.559099 0.875252
vt 0.559099 0.775757
vt 0.556872 0.775757
vt 0.556872 0.866345
vt 0.545740 0.839697
vt 0.556872 0.839697
vt 0.559099 0.841182
vt 0.559099 0.848604
vt 0.559099 0.867829
vt 0.559099 0.775757
vt 0.559101 0.775757
vt 0.559101 0.866345
vt 0.547966 0.866345
vt 0.547966 0.775757
vt 0.545740 0.775757
vt 0.545740 0.875252
vt 0.559101 0.875252
vt 0.559101 0.775757
vt 0.545740 0.964400
vt 0.545740 0.956977
vt 0.547966 0.955493
vt 0.559101 0.955493
vt 0.545740 0.775757
vt 0.545740 0.867829
vt 0.559099 0.760132
vt 0.559099 0.760132
vt 0.556872 0.760132
vt 0.545740 0.760132
vt 0.545740 0.760132
vt 0.559101 0.760132
vt 0.559101 0.760132
vt 0.545740 0.775757
vt 0.545740 0.808447
vt 0.545740 0.817354
vt 0.545740 0.775757
vt 0.559099 0.817354
vt 0.559099 0.775757
vt 0.556872 0.775757
vt 0.556872 0.808447
vt 0.545740 0.848604
vt 0.545740 0.841182
vt 0.547966 0.839697
vt 0.559101 0.839697
vt 0.559099 0.809932
vt 0.559099 0.775757
vt 0.559101 0.775757
vt 0.559101 0.808447
vt 0.547966 0.808447
vt 0.547966 0.775757
vt 0.545740 0.775757
vt 0.545740 0.817354
vt 0.559101 0.817354
vt 0.559101 0.775757
vt 0.545740 0.906502
vt 0.545740 0.899079
vt 0.547966 0.897595
vt 0.559101 0.897595
vt 0.545740 0.775757
vt 0.545740 0.809932
vt 0.545740 0.760132
vt 0.559101 0.760132
vt 0.559101 0.760132
vt 0.556872 0.939868
vt 0.556872 0.791382
vt 0.559099 0.791382
vt 0.559099 0.941352
vt 0.547966 0.791382
vt 0.547966 0.939868
vt 0.545740 0.941352
vt 0.545740 0.791382
vt 0.556872 0.881970
vt 0.556872 0.791382
vt 0.559099 0.791382
vt 0.559099 0.883454
vt 0.547966 0.791382
vt 0.547966 0.881970
vt 0.545740 0.883454
vt 0.545740 0.791382
vt 0.556872 0.824072
vt 0.556872 0.791382
vt 0.559099 0.791382
vt 0.559099 0.825557
vt 0.547966 0.791382
vt 0.547966 0.824072
vt 0.545740 0.825557
vt 0.545740 0.791382
vt 0.559099 0.760132
vt 0.559099 0.760132
vt 0.556872 0.760132
vt 0.545740 0.760132
vt 0.545740 0.760132
vt 0.545740 0.760132
vt 0.545740 0.760132
vt 0.547966 0.760132
vt 0.545740 0.760132
vt 0.547966 0.760132
vt 0.545740 0.760132
vt 0.547966 0.760132
vt 0.545740 0.760132
vt 0.545740 0.906502
vt 0.545740 0.897595
vt 0.559099 0.906502
vt 0.559099 0.899079
vt 0.556872 0.897595
vt 0.545740 0.964400
vt 0.545740 0.848604
vt 0.559101 0.848604
vt 0.559101 0.906502
vt 0.559101 0.964400
vt 0.536831 0.858351
vt 0.536831 0.878826
vt 0.536831 0.837877
vt 0.536831 0.858351
vt 0.536831 0.817402
vt 0.536831 0.837877
vt 0.536831 0.796927
vt 0.536831 0.817402
vt 0.536831 0.776453
vt 0.536831 0.796927
vt 0.588169 0.796927
vt 0.588169 0.796927
vt 0.588169 0.776453
vt 0.588169 0.817402
vt 0.588169 0.817402
vt 0.588169 0.837877
vt 0.588169 0.837877
vt 0.588169 0.858351
vt 0.588169 0.858351
vt 0.588169 0.878826
vt 0.588169 0.878826
vt 0.588169 0.899300
vt 0.588169 0.899301
vt 0.588169 0.919775
vt 0.588169 0.919775
vt 0.536831 0.919775
vt 0.536831 0.919775
vt 0.536831 0.801777
vt 0.588169 0.801777
vt 0.588169 0.781302
vt 0.536831 0.781302
vt 0.588169 0.883675
vt 0.536831 0.883675
vt 0.536831 0.904150
vt 0.588169 0.904150
vt 0.588169 0.802315
vt 0.536831 0.802315
vt 0.536831 0.792078
vt 0.588169 0.792078
vt 0.588169 0.947685
vt 0.536831 0.947685
vt 0.536831 0.935400
vt 0.588169 0.935400
vt 0.588169 0.951025
vt 0.569878 0.951025
vt 0.569878 0.940788
vt 0.588169 0.940788
vt 0.588169 0.925163
vt 0.536831 0.925163
vt 0.536831 0.914926
vt 0.588169 0.914926
vt 0.588169 0.930551
vt 0.539653 0.930551
vt 0.536831 0.920313
vt 0.588169 0.920313
vt 0.588169 0.904688
vt 0.536831 0.904688
vt 0.536831 0.894451
vt 0.588169 0.894451
vt 0.588169 0.925701
vt 0.536831 0.925701
vt 0.536831 0.925701
vt 0.588169 0.925701
vt 0.588169 0.884214
vt 0.536831 0.884214
vt 0.536831 0.873976
vt 0.588169 0.873976
vt 0.588169 0.889601
vt 0.564990 0.889601
vt 0.564990 0.879364
vt 0.588169 0.879364
vt 0.588169 0.863739
vt 0.536831 0.863739
vt 0.536831 0.853502
vt 0.588169 0.853502
vt 0.588169 0.862654
vt 0.585464 0.869127
vt 0.536831 0.869127
vt 0.536831 0.858889
vt 0.588169 0.843264
vt 0.536831 0.843264
vt 0.536831 0.833027
vt 0.588169 0.833027
vt 0.588169 0.864277
vt 0.536831 0.864277
vt 0.536831 0.864277
vt 0.588169 0.864277
vt 0.588169 0.822790
vt 0.536831 0.822790
vt 0.536831 0.812552
vt 0.588169 0.812552
vt 0.588169 0.802315
vt 0.567505 0.802315
vt 0.562500 0.802315
vt 0.588169 0.760828
vt 0.536831 0.760828
vt 0.536831 0.822252
vt 0.588169 0.822252
vt 0.536831 0.842726
vt 0.588169 0.842726
vt 0.536831 0.863201
vt 0.588169 0.863201
vt 0.588169 0.989172
vt 0.536831 0.989172
vt 0.536831 0.989172
vt 0.588169 0.989172
vt 0.588169 0.760828
vt 0.536831 0.760828
vt 0.536831 0.957922
vt 0.588169 0.957922
vt 0.588169 0.935400
vt 0.536831 0.935400
vt 0.588169 0.822790
vt 0.536831 0.822790
vt 0.588169 0.905226
vt 0.536831 0.905226
vt 0.562500 0.905226
vt 0.588169 0.947685
vt 0.536831 0.947685
vt 0.588169 0.904688
vt 0.536831 0.904688
vt 0.536831 0.776453
vt 0.588169 0.973547
vt 0.536831 0.973547
vt 0.536831 0.963310
vt 0.588169 0.963310
vt 0.536831 0.892549
vt 0.536831 0.899301
vt 0.536831 0.889063
vt 0.588169 0.910076
vt 0.536831 0.910076
vt 0.536831 0.899839
vt 0.588169 0.899839
vt 0.588169 0.837877
vt 0.588169 0.827639
vt 0.588169 0.848652
vt 0.536831 0.848652
vt 0.536831 0.838415
vt 0.588169 0.838415
vt 0.588169 0.899301
vt 0.588169 0.889063
vt 0.588169 0.889063
vt 0.588169 0.858351
vt 0.588169 0.848114
vt 0.588169 0.848114
vt 0.536831 0.932060
vt 0.536831 0.942297
vt 0.536831 0.946176
vt 0.536831 0.946176
vt 0.539653 0.946176
vt 0.588169 0.817402
vt 0.588169 0.807165
vt 0.588169 0.807165
vt 0.536831 0.858351
vt 0.536831 0.848114
vt 0.536831 0.848114
vt 0.536831 0.942297
vt 0.536831 0.932060
vt 0.536831 0.817402
vt 0.536831 0.807165
vt 0.536831 0.807165
vt 0.588169 0.966650
vt 0.536831 0.966650
vt 0.562500 0.966650
vt 0.588169 0.884214
vt 0.536831 0.884214
vt 0.588169 0.843264
vt 0.536831 0.843264
vt 0.588169 0.878826
vt 0.588169 0.868589
vt 0.588169 0.868589
vt 0.536831 0.919775
vt 0.536831 0.909538
vt 0.536831 0.909538
vt 0.588169 0.884752
vt 0.536831 0.884752
vt 0.536831 0.884752
vt 0.585464 0.884752
vt 0.536831 0.878826
vt 0.536831 0.868589
vt 0.536831 0.868589
vt 0.536831 0.837877
vt 0.536831 0.827639
vt 0.536831 0.827639
vt 0.588169 0.942297
vt 0.588169 0.942297
vt 0.588169 0.932060
vt 0.588169 0.932060
vt 0.588169 0.919775
vt 0.588169 0.909538
vt 0.588169 0.909538
vt 0.588169 0.796927
vt 0.588169 0.786690
vt 0.588169 0.786690
vt 0.588169 0.776453
vt 0.536831 0.786690
vt 0.588169 0.843802
vt 0.562500 0.843802
vt 0.567505 0.843802
vt 0.588169 0.843802
vt 0.536831 0.796927
vt 0.536831 0.786690
vt 0.561038 0.828177
vt 0.536831 0.828177
vt 0.536831 0.817940
vt 0.561038 0.817940
vt 0.536831 0.843802
vt 0.536831 0.843802
vt 0.561038 0.843802
vt 0.561038 0.859427
vt 0.561038 0.849190
vt 0.562500 0.849190
vt 0.562500 0.859427
vt 0.562500 0.812552
vt 0.567505 0.812552
vt 0.588169 0.828177
vt 0.567505 0.828177
vt 0.567505 0.817940
vt 0.588169 0.817940
vt 0.536831 0.802315
vt 0.561038 0.802315
vt 0.536831 0.905226
vt 0.557707 0.905226
vt 0.588169 0.863739
vt 0.564990 0.863739
vt 0.562500 0.863739
vt 0.557707 0.920851
vt 0.557707 0.910614
vt 0.562500 0.910614
vt 0.562500 0.920851
vt 0.562500 0.873976
vt 0.564990 0.873976
vt 0.557707 0.889601
vt 0.536831 0.889601
vt 0.536831 0.879364
vt 0.557707 0.879364
vt 0.588169 0.905226
vt 0.564990 0.905226
vt 0.536831 0.863739
vt 0.557707 0.863739
vt 0.536831 0.950612
vt 0.539653 0.950612
vt 0.536831 0.950612
vt 0.588169 0.946176
vt 0.588169 0.946176
vt 0.588169 0.892564
vt 0.585464 0.892564
vt 0.588169 0.892564
vt 0.588169 0.827639
vt 0.588169 0.884752
vt 0.536831 0.966650
vt 0.560535 0.966650
vt 0.588169 0.925163
vt 0.569878 0.925163
vt 0.562500 0.925163
vt 0.560535 0.982275
vt 0.560535 0.972038
vt 0.562500 0.972038
vt 0.562500 0.982275
vt 0.562500 0.935400
vt 0.569878 0.935400
vt 0.560535 0.951025
vt 0.536831 0.951025
vt 0.536831 0.940788
vt 0.560535 0.940788
vt 0.588169 0.966650
vt 0.569878 0.966650
vt 0.536831 0.925163
vt 0.560535 0.925163
vn -1.0000 0.0000 0.0000
vn 0.0000 0.0000 -1.0000
vn 0.0000 0.0000 1.0000
vn 1.0000 0.0000 0.0000
vn 0.0000 0.8320 0.5547
vn 0.0000 -1.0000 0.0000
vn 0.0000 0.8321 0.5547
vn 0.7071 0.0000 0.7071
vn -0.7071 0.0000 0.7071
vn 0.0000 -0.8235 -0.5673
vn -0.2785 0.0000 0.9604
vn 0.0000 1.0000 0.0000
vn -0.2174 -0.0121 0.9760
vn 0.2562 0.2848 0.9237
vn 0.1172 0.1303 0.9845
vn 0.0000 -0.9549 -0.2971
vn 0.8344 0.0000 0.5512
vn -0.8344 0.0000 0.5512
vn 0.7300 0.0407 0.6822
vn -0.4244 -0.0236 0.9052
vn -0.6321 0.4169 0.6532
vn 0.4249 0.4725 0.7721
vn 0.3819 0.0000 0.9242
vn 0.7060 0.0000 0.7082
vn -0.5350 0.0000 0.8448
usemtl texture
s 1
f 46/1/1 45/2/1 48/3/1
s off
f 103/4/1 104/5/1 106/6/1 105/7/1
f 105/7/2 106/6/2 108/8/2 107/9/2
f 140/10/3 141/11/3 104/5/3 103/4/3
f 107/9/4 108/8/4 142/12/4 139/13/4
f 111/14/3 112/15/3 146/16/3 143/17/3
f 109/18/2 110/19/2 114/20/2 113/21/2
f 113/21/4 114/20/4 112/15/4 111/14/4
f 104/22/5 141/23/5 142/24/5 108/25/5
f 144/26/1 145/27/1 110/19/1 109/18/1
f 119/28/6 147/29/6 148/30/6 115/31/6
f 109/32/6 113/33/6 111/34/6
f 115/35/1 116/36/1 118/37/1 117/38/1
f 117/38/2 118/37/2 120/39/2 119/40/2
f 148/41/3 149/42/3 116/36/3 115/35/3
f 128/43/7 157/44/7 158/45/7 132/46/7
f 119/40/4 120/39/4 150/47/4 147/48/4
f 123/49/3 124/50/3 154/51/3 151/52/3
f 121/53/2 122/54/2 126/55/2 125/56/2
f 125/56/4 126/55/4 124/50/4 123/49/4
f 110/57/5 145/58/5 146/59/5 112/60/5
f 152/61/1 153/62/1 122/54/1 121/53/1
f 131/63/6 155/64/6 156/65/6 127/66/6
f 121/67/6 125/68/6 123/69/6
f 127/70/1 128/71/1 130/72/1 129/73/1
f 129/73/2 130/72/2 132/74/2 131/75/2
f 156/76/3 157/77/3 128/71/3 127/70/3
f 134/78/7 161/79/7 162/80/7 136/81/7
f 131/75/4 132/74/4 158/82/4 155/83/4
f 135/84/3 136/85/3 162/86/3 159/87/3
f 133/88/2 134/89/2 138/90/2 137/91/2
f 137/91/4 138/90/4 136/85/4 135/84/4
f 122/92/7 153/93/7 154/94/7 124/95/7
f 160/96/1 161/97/1 134/89/1 133/88/1
f 133/98/6 137/99/6 135/100/6
f 141/101/8 140/102/8 139/103/8 142/104/8
f 143/105/9 146/106/9 145/107/9 144/108/9
f 149/109/8 148/110/8 147/111/8 150/112/8
f 151/113/9 154/114/9 153/115/9 152/116/9
f 157/117/8 156/118/8 155/119/8 158/120/8
f 159/121/9 162/122/9 161/123/9 160/124/9
f 107/125/6 139/126/6 140/127/6 103/128/6
f 117/129/6 119/28/6 115/31/6
f 129/130/6 131/63/6 127/66/6
f 160/131/6 133/98/6 135/100/6 159/132/6
f 152/133/6 121/67/6 123/69/6 151/134/6
f 144/135/6 109/32/6 111/34/6 143/136/6
f 105/137/6 107/125/6 103/128/6
f 118/138/5 116/139/5 120/140/5
f 150/141/7 120/140/7 116/139/7 149/142/7
f 106/143/7 104/22/7 108/25/7
f 130/144/7 128/43/7 132/46/7
f 138/145/7 134/78/7 136/81/7
f 126/146/5 122/92/5 124/95/5
f 114/147/7 110/57/7 112/60/7
s 2
f 43/148/1 42/149/1 46/1/1
s 3
f 41/150/1 40/151/1 43/148/1
s 4
f 38/152/1 37/153/1 41/150/1
s 5
f 35/154/1 34/155/1 38/152/1
s 6
f 5/156/1 32/157/1 35/154/1
s 7
f 28/158/4 30/159/4 7/160/4
s 8
f 26/161/4 27/162/4 28/158/4
s 9
f 23/163/4 25/164/4 26/161/4
s 10
f 20/165/4 22/166/4 23/163/4
s 11
f 17/167/4 19/168/4 20/165/4
s 12
f 14/169/4 16/170/4 17/167/4
s 13
f 11/171/4 13/172/4 14/169/4
s 14
f 48/3/1 47/173/1 10/174/1
s 15
f 38/175/10 26/176/10 28/177/10 35/178/10
s 16
f 14/179/10 48/180/10 10/181/10 11/182/10
s 17
f 63/183/3 64/184/3 1/185/3 3/186/3
s 18
f 49/187/3 50/188/3 47/189/3 13/190/3
s 19
f 15/191/3 98/192/11 100/193/11 68/194/3
s 20
f 51/195/3 52/196/3 45/197/3 16/198/3
s 21
f 18/199/3 93/200/3 71/201/3 70/202/3
s 22
f 53/203/3 54/204/3 42/205/3 19/206/3
s 23
f 19/207/12 42/208/12 39/209/12 21/210/12
s 24
f 55/211/3 56/212/3 40/213/3 22/214/3
s 25
f 24/215/3 88/216/13 90/217/13 74/218/3
s 26
f 57/219/3 58/220/3 37/221/3 25/222/3
s 27
f 76/223/14 96/224/15 33/225/3 77/226/3
s 28
f 59/227/3 60/228/3 34/229/3 27/230/3
s 29
f 27/231/12 34/232/12 31/233/12 29/234/12
s 30
f 61/235/3 62/236/3 32/237/3 30/238/3
s 31
f 63/183/6 80/239/6 84/240/6 86/241/6
s 32
f 35/178/10 28/177/10 7/242/16 5/243/16
s 33
f 41/244/10 23/245/10 26/176/10 38/175/10
s 34
f 43/246/10 20/247/10 23/245/10 41/244/10
s 35
f 46/248/10 17/249/10 20/247/10 43/246/10
s 36
f 48/180/10 14/179/10 17/249/10 46/248/10
s 37
f 4/250/12 2/251/12 6/252/12 8/253/12
s 38
f 5/243/16 7/242/16 3/254/6 1/255/6
s 39
f 2/256/2 4/257/2 11/258/2 10/259/2
s 40
f 47/173/1 48/3/1 45/2/1
s 41
f 62/236/6 61/235/6 78/260/6 79/261/6
s 42
f 45/2/1 46/1/1 42/149/1
s 43
f 22/262/12 40/263/12 89/264/12
s 44
f 42/149/1 43/148/1 40/151/1
s 45
f 50/188/6 49/187/6 66/265/6 67/266/6
s 46
f 40/151/1 41/150/1 37/153/1
s 47
f 37/153/1 38/152/1 34/155/1
s 48
f 54/204/6 53/203/6 70/267/6 71/268/6
s 49
f 34/155/1 35/154/1 32/157/1
s 50
f 32/157/1 5/156/1 1/269/1
s 51
f 8/270/3 6/271/3 67/272/3 66/273/3
s 52
f 71/274/1 94/275/1 54/276/1
s 53
f 21/277/3 39/278/3 73/279/3 72/280/3
s 54
f 25/164/4 95/281/4 59/282/4
s 55
f 29/283/3 31/284/3 79/285/3 78/286/3
s 56
f 16/170/4 18/287/4 70/288/4 53/289/4
s 57
f 22/166/4 24/290/4 74/291/4 57/292/4
s 58
f 47/173/1 50/293/1 2/294/1
s 59
f 45/295/12 94/296/12 93/297/12
s 60
f 27/162/4 29/298/4 78/299/4 61/300/4
s 61
f 36/301/1 40/151/1 58/302/1 75/303/1
s 62
f 6/304/1 2/294/1 50/293/1 67/305/1
s 63
f 31/306/1 34/155/1 62/307/1 79/308/1
s 64
f 13/309/12 47/310/12 99/311/12
s 65
f 56/212/6 55/211/6 72/312/6 73/313/6
s 66
f 60/228/6 59/227/6 76/314/6 77/315/6
s 67
f 19/168/4 21/316/4 72/317/4 55/318/4
s 68
f 44/319/1 47/173/1 52/320/1 69/321/1
s 69
f 25/322/12 37/323/12 33/324/12 96/325/12
s 70
f 39/326/1 42/149/1 56/327/1 73/328/1
s 71
f 33/329/1 37/153/1 60/330/1 77/331/1
s 72
f 4/332/4 8/333/4 66/334/4 49/335/4
s 73
f 13/172/4 15/336/4 68/337/4 51/338/4
s 74
f 30/159/4 12/339/4 80/340/4 63/341/4
s 75
f 3/342/4 7/160/4 30/159/4
s 76
f 30/159/4 28/158/4 27/162/4
s 77
f 27/162/4 26/161/4 25/164/4
s 78
f 25/164/4 23/163/4 22/166/4
s 79
f 22/166/4 20/165/4 19/168/4
s 80
f 19/168/4 17/167/4 16/170/4
s 81
f 16/170/4 14/169/4 13/172/4
s 82
f 4/332/4 49/335/4 13/172/4
s 83
f 64/343/1 32/157/1 1/269/1
s 84
f 62/307/1 34/155/1 32/157/1
s 85
f 60/330/1 37/153/1 34/155/1
s 86
f 58/302/1 40/151/1 37/153/1
s 87
f 56/327/1 42/149/1 40/151/1
s 88
f 54/276/1 45/2/1 42/149/1
s 89
f 52/320/1 47/173/1 45/2/1
s 90
f 10/174/1 47/173/1 2/294/1
s 91
f 63/341/4 3/342/4 30/159/4
s 92
f 61/300/4 30/159/4 27/162/4
s 93
f 59/282/4 27/162/4 25/164/4
s 94
f 57/292/4 25/164/4 22/166/4
s 95
f 55/318/4 22/166/4 19/168/4
s 96
f 53/289/4 19/168/4 16/170/4
s 97
f 51/338/4 16/170/4 13/172/4
s 98
f 11/171/4 4/332/4 13/172/4
s 99
f 30/344/12 83/345/12 82/346/12 12/347/12
s 100
f 9/348/1 32/157/1 64/343/1 65/349/1
s 101
f 81/350/3 9/351/3 65/352/3 85/353/3
s 102
f 32/354/12 9/355/12 81/356/12 83/345/12
s 103
f 81/357/17 85/358/17 86/359/17 83/360/17
s 104
f 83/361/18 86/241/18 84/240/18 82/362/18
s 105
f 12/363/3 82/364/3 84/365/3 80/366/3
s 106
f 65/367/6 64/184/6 86/241/6 85/368/6
s 107
f 64/184/12 63/183/12 86/241/12
s 108
f 30/344/12 32/354/12 83/345/12
s 109
f 40/263/12 36/369/12 87/370/12 89/264/12
s 110
f 57/219/6 74/371/6 90/372/6 92/373/6
s 111
f 87/374/19 91/375/19 92/376/19 89/377/19
s 112
f 89/378/20 92/373/20 90/372/13 88/379/13
s 113
f 87/380/3 36/381/3 75/382/3 91/383/3
s 114
f 24/384/12 22/262/12 89/264/12 88/385/12
s 115
f 75/386/6 58/220/6 92/373/6 91/387/6
s 116
f 58/220/6 57/219/6 92/373/6
s 117
f 71/388/21 93/389/21 94/390/21
s 118
f 94/275/1 45/2/1 54/276/1
s 119
f 16/391/12 45/295/12 93/297/12 18/392/12
s 120
f 95/393/22 96/394/15 76/395/14
s 121
f 95/281/4 76/396/4 59/282/4
s 122
f 95/397/12 25/322/12 96/325/12
s 123
f 47/310/12 44/398/12 97/399/12 99/311/12
s 124
f 51/195/6 68/400/6 100/401/6 102/402/6
s 125
f 97/403/23 101/404/23 102/405/24 99/406/24
s 126
f 99/407/25 102/402/25 100/401/11 98/408/11
s 127
f 97/409/23 44/410/3 69/411/3 101/412/23
s 128
f 15/413/12 13/309/12 99/311/12 98/414/12
s 129
f 69/415/6 52/196/6 102/402/6 101/416/6
s 130
f 52/196/6 51/195/6 102/402/6
