# Blender v2.80 (sub 75) OBJ File: 'Dungeon_Remastered_Export1.0.blend'
# www.blender.org
mtllib stool.mtl
o stool_Cube.14235
v 0.151293 0.000000 -0.149998
v 0.113793 0.400000 -0.112498
v 0.338793 0.000000 -0.149998
v 0.301293 0.400000 -0.112498
v 0.151293 0.000000 -0.337498
v 0.113793 0.400000 -0.299998
v 0.151293 0.000000 0.337502
v 0.113793 0.400000 0.300002
v 0.151293 0.000000 0.150002
v 0.113793 0.400000 0.112502
v 0.338793 0.000000 0.150002
v 0.301293 0.400000 0.112502
v 0.338793 0.000000 -0.328123
v 0.329418 0.000000 -0.337498
v 0.291918 0.400000 -0.299998
v 0.301293 0.400000 -0.290623
v 0.329418 0.000000 0.337502
v 0.338793 0.000000 0.328127
v 0.301293 0.400000 0.290627
v 0.291918 0.400000 0.300002
v -0.336207 0.000000 -0.149998
v -0.298707 0.400000 -0.112498
v -0.148707 0.000000 -0.149998
v -0.111207 0.400000 -0.112498
v -0.148707 0.000000 -0.337498
v -0.111207 0.400000 -0.299998
v -0.148707 0.000000 0.337502
v -0.111207 0.400000 0.300002
v -0.336207 0.000000 0.150002
v -0.298707 0.400000 0.112502
v -0.148707 0.000000 0.150002
v -0.111207 0.400000 0.112502
v -0.326832 0.000000 -0.337498
v -0.336207 0.000000 -0.328123
v -0.298707 0.400000 -0.290623
v -0.289332 0.400000 -0.299998
v -0.336207 0.000000 0.328127
v -0.326832 0.000000 0.337502
v -0.289332 0.400000 0.300002
v -0.298707 0.400000 0.290627
v -0.298707 0.100000 0.262502
v -0.223707 0.100000 0.262502
v -0.223707 0.200000 0.262502
v -0.298707 0.100000 -0.262498
v -0.223707 0.100000 -0.262498
v -0.223707 0.200000 -0.262498
v 0.226293 0.100000 0.262502
v 0.226293 0.200000 0.262502
v 0.301293 0.100000 0.262502
v 0.226293 0.100000 -0.262498
v 0.226293 0.200000 -0.262498
v 0.301293 0.100000 -0.262498
v -0.298707 0.187500 0.262502
v -0.289332 0.200000 0.262502
v -0.289332 0.200000 -0.262498
v -0.298707 0.187500 -0.262498
v 0.291918 0.200000 0.262502
v 0.301293 0.187500 0.262502
v 0.301293 0.187500 -0.262498
v 0.291918 0.200000 -0.262498
v 0.000000 0.300000 -0.371874
v -0.017457 0.475000 -0.374998
v -0.017457 0.500000 -0.356248
v -0.017457 0.475000 0.375002
v -0.017457 0.500000 0.356252
v 0.000000 0.300000 0.371878
v -0.354957 0.300000 0.368748
v -0.354957 0.475000 0.375002
v -0.354957 0.500000 0.356252
v -0.373707 0.475000 0.356252
v -0.373707 0.475000 -0.356248
v -0.354957 0.500000 -0.356248
v -0.354957 0.475000 -0.374998
v -0.354957 0.300000 -0.375004
v -0.167457 0.475000 -0.374998
v -0.167457 0.500000 -0.356248
v -0.167457 0.300000 -0.375004
v -0.070928 0.300000 0.368748
v -0.213986 0.300000 0.368748
v -0.167457 0.300000 0.324723
v -0.213986 0.500000 0.356252
v -0.070928 0.500000 0.356252
v -0.167457 0.500000 0.324723
v -0.213986 0.475000 0.375002
v -0.070928 0.475000 0.375002
v -0.167457 0.475000 0.342795
v 0.357543 0.300000 0.375008
v 0.357543 0.475000 0.375002
v 0.376293 0.475000 0.356252
v 0.357543 0.500000 0.356252
v 0.376293 0.475000 -0.356248
v 0.357543 0.475000 -0.374998
v 0.357543 0.500000 -0.356248
v 0.357543 0.300000 -0.368744
v 0.020043 0.475000 -0.374998
v 0.020043 0.500000 -0.356248
v 0.001293 0.475000 -0.356248
v 0.001293 0.475000 0.356252
v 0.020043 0.500000 0.356252
v 0.020043 0.475000 0.375002
v 0.207543 0.475000 0.375002
v 0.207543 0.500000 0.356252
v 0.207543 0.300000 0.375008
v 0.274072 0.300000 -0.368744
v 0.141014 0.300000 -0.368744
v 0.207543 0.300000 -0.304719
v 0.141014 0.500000 -0.356248
v 0.274072 0.500000 -0.356248
v 0.207543 0.500000 -0.304719
v 0.141014 0.475000 -0.374998
v 0.274072 0.475000 -0.374998
v 0.207543 0.475000 -0.322791
vt 0.579507 0.786290
vt 0.592855 0.786290
vt 0.592855 0.786290
vt 0.591743 0.786290
vt 0.579507 0.813991
vt 0.579507 0.813991
vt 0.575058 0.890865
vt 0.575058 0.890865
vt 0.592855 0.813991
vt 0.592855 0.813991
vt 0.588406 0.890865
vt 0.588406 0.890865
vt 0.591743 0.813991
vt 0.587294 0.890865
vt 0.512768 0.786290
vt 0.526116 0.786290
vt 0.526116 0.786290
vt 0.513880 0.813991
vt 0.526116 0.813991
vt 0.530565 0.890865
vt 0.518329 0.890865
vt 0.526116 0.813991
vt 0.530565 0.890865
vt 0.512768 0.813991
vt 0.517217 0.890865
vt 0.512768 0.813991
vt 0.517217 0.890865
vt 0.588406 0.932416
vt 0.587294 0.932416
vt 0.591743 0.855541
vt 0.592855 0.855541
vt 0.518329 0.932416
vt 0.517217 0.932416
vt 0.512768 0.855541
vt 0.513880 0.855541
vt 0.579507 0.786290
vt 0.512768 0.786290
vt 0.513880 0.786290
vt 0.579507 0.813991
vt 0.579507 0.813991
vt 0.575058 0.890865
vt 0.575058 0.890865
vt 0.592855 0.813991
vt 0.588406 0.890865
vt 0.591743 0.813991
vt 0.587294 0.890865
vt 0.592855 0.813991
vt 0.588406 0.890865
vt 0.512768 0.786290
vt 0.526116 0.786290
vt 0.526116 0.786290
vt 0.526116 0.813991
vt 0.513880 0.813991
vt 0.518329 0.890865
vt 0.530565 0.890865
vt 0.512768 0.813991
vt 0.526116 0.813991
vt 0.530565 0.890865
vt 0.517217 0.890865
vt 0.512768 0.813991
vt 0.517217 0.890865
vt 0.592855 0.786290
vt 0.579507 0.786290
vt 0.591743 0.786290
vt 0.592855 0.786290
vt 0.587294 0.932416
vt 0.588406 0.932416
vt 0.592855 0.855541
vt 0.591743 0.855541
vt 0.513880 0.855541
vt 0.512768 0.855541
vt 0.517217 0.932416
vt 0.518329 0.932416
vt 0.579507 0.786290
vt 0.512768 0.786290
vt 0.513880 0.786290
vt 0.521666 0.833209
vt 0.583957 0.833209
vt 0.583957 0.852428
vt 0.521666 0.852428
vt 0.583957 0.880128
vt 0.583957 0.880128
vt 0.521666 0.880128
vt 0.521666 0.880128
vt 0.521666 0.805509
vt 0.521666 0.805509
vt 0.583957 0.805509
vt 0.583957 0.805509
vt 0.583957 0.880128
vt 0.583957 0.880128
vt 0.521666 0.880128
vt 0.521666 0.880128
vt 0.583957 0.833209
vt 0.521666 0.833209
vt 0.521666 0.852428
vt 0.583957 0.852428
vt 0.521666 0.805509
vt 0.521666 0.805509
vt 0.583957 0.805509
vt 0.583957 0.805509
vt 0.521666 0.833209
vt 0.583957 0.833209
vt 0.583957 0.850026
vt 0.521666 0.850026
vt 0.583957 0.893979
vt 0.583957 0.891576
vt 0.521666 0.891576
vt 0.521666 0.893979
vt 0.521666 0.893979
vt 0.521666 0.891576
vt 0.583957 0.891576
vt 0.583957 0.893979
vt 0.583957 0.833209
vt 0.521666 0.833209
vt 0.521666 0.850026
vt 0.583957 0.850026
vt 0.531678 0.929084
vt 0.551699 0.929084
vt 0.551699 0.917982
vt 0.531678 0.917982
vt 0.551699 0.892056
vt 0.551699 0.875240
vt 0.552811 0.892056
vt 0.531678 0.892056
vt 0.531678 0.875240
vt 0.530565 0.892056
vt 0.531678 0.975959
vt 0.531678 0.964857
vt 0.530565 0.964857
vt 0.551699 0.975959
vt 0.552811 0.964857
vt 0.551699 0.964857
vt 0.530565 0.892056
vt 0.530565 0.892056
vt 0.531678 0.875240
vt 0.531678 0.875240
vt 0.551699 0.875240
vt 0.551699 0.892056
vt 0.552811 0.892056
vt 0.531678 0.892056
vt 0.552811 0.964857
vt 0.551699 0.975959
vt 0.551699 0.964857
vt 0.531678 0.964857
vt 0.531678 0.975959
vt 0.530565 0.964857
vt 0.530565 0.964857
vt 0.531678 0.967259
vt 0.551699 0.933434
vt 0.548939 0.933434
vt 0.531678 0.933434
vt 0.531678 0.847540
vt 0.548939 0.847540
vt 0.551699 0.847540
vt 0.551699 0.933434
vt 0.551699 0.933434
vt 0.531678 0.933434
vt 0.551699 0.875240
vt 0.552811 0.892056
vt 0.550011 0.850506
vt 0.548939 0.833689
vt 0.551699 0.833689
vt 0.552811 0.850506
vt 0.551699 0.933434
vt 0.531678 0.933434
vt 0.551699 0.967259
vt 0.552811 0.964857
vt 0.551699 0.967259
vt 0.552811 0.964857
vt 0.551699 0.994960
vt 0.552811 0.992557
vt 0.550011 0.992557
vt 0.548939 0.994960
vt 0.548939 0.925709
vt 0.550011 0.923306
vt 0.552811 0.923306
vt 0.551699 0.925709
vt 0.552811 0.919757
vt 0.551699 0.902940
vt 0.548939 0.902940
vt 0.550011 0.919757
vt 0.551699 0.875240
vt 0.552811 0.892056
vt 0.551699 0.847540
vt 0.531678 0.847540
vt 0.551699 0.847540
vt 0.531678 0.847540
vt 0.551699 0.847540
vt 0.531678 0.892056
vt 0.531678 0.875240
vt 0.551699 0.875240
vt 0.551699 0.892056
vt 0.531678 0.975959
vt 0.531678 0.964857
vt 0.551699 0.964857
vt 0.551699 0.975959
vt 0.551699 0.813931
vt 0.552811 0.892056
vt 0.551699 0.875240
vt 0.530565 0.892056
vt 0.530565 0.964857
vt 0.552811 0.964857
vt 0.530565 0.892056
vt 0.531678 0.875240
vt 0.531678 0.875240
vt 0.530565 0.892056
vt 0.552811 0.892056
vt 0.531678 0.813931
vt 0.552811 0.964857
vt 0.551699 0.886732
vt 0.551699 0.975959
vt 0.531678 0.886732
vt 0.530565 0.964857
vt 0.531678 0.975959
vt 0.551699 0.944709
vt 0.551699 0.855482
vt 0.531678 0.855482
vt 0.531678 0.944709
vt 0.530565 0.964857
vt 0.531678 0.967259
vt 0.551699 0.933434
vt 0.531678 0.933434
vt 0.548939 0.933434
vt 0.531678 0.847540
vt 0.551699 0.847540
vt 0.548939 0.847540
vt 0.551699 0.933434
vt 0.531678 0.933434
vt 0.551699 0.933434
vt 0.551699 0.875240
vt 0.552811 0.892056
vt 0.550011 0.850506
vt 0.552811 0.850506
vt 0.551699 0.833689
vt 0.548939 0.833689
vt 0.551699 0.933434
vt 0.531678 0.933434
vt 0.551699 0.967259
vt 0.552811 0.964857
vt 0.552811 0.964857
vt 0.551699 0.967259
vt 0.551699 0.994960
vt 0.548939 0.994960
vt 0.550011 0.992557
vt 0.552811 0.992557
vt 0.548939 0.925709
vt 0.551699 0.925709
vt 0.552811 0.923306
vt 0.550011 0.923306
vt 0.552811 0.919757
vt 0.550011 0.919757
vt 0.548939 0.902940
vt 0.551699 0.902940
vt 0.552811 0.892056
vt 0.551699 0.875240
vt 0.551699 0.847540
vt 0.531678 0.847540
vt 0.551699 0.847540
vt 0.531678 0.847540
vt 0.551699 0.847540
vn 0.0000 -1.0000 0.0000
vn -0.0000 -0.0933 0.9956
vn 0.0000 0.0933 -0.9956
vn -0.9956 -0.0933 -0.0000
vn 0.9956 0.0933 0.0000
vn 0.0000 -0.0933 -0.9956
vn 0.0000 0.0933 0.9956
vn 0.7010 0.1314 -0.7010
vn 0.7010 0.1314 0.7010
vn 0.9956 -0.0933 0.0000
vn -0.9956 0.0933 0.0000
vn -0.7010 0.1314 -0.7010
vn -0.7010 0.1314 0.7010
vn 1.0000 0.0000 0.0000
vn 0.0000 1.0000 0.0000
vn -1.0000 0.0000 -0.0000
vn 0.9487 0.3162 0.0000
vn -0.8000 0.6000 0.0000
vn -0.9487 0.3162 0.0000
vn 0.8000 0.6000 0.0000
vn 0.5257 0.6689 -0.5257
vn 0.5257 0.6689 0.5257
vn 0.7687 0.5765 0.2769
vn 0.7687 0.5765 -0.2769
vn -0.7069 -0.0253 0.7069
vn 0.7059 0.0578 -0.7059
vn 0.2769 0.5765 -0.7687
vn 0.2769 0.5765 0.7687
vn 0.0000 0.0000 -1.0000
vn 0.0049 -0.0042 -1.0000
vn 0.7059 0.0578 0.7059
vn -0.7071 0.0000 -0.7071
vn -0.2769 0.5765 0.7687
vn -0.5257 0.6689 0.5257
vn -0.7687 0.5765 0.2769
vn -0.7687 0.5765 -0.2769
vn -0.5257 0.6689 -0.5257
vn -0.2769 0.5765 -0.7687
vn -0.9943 -0.1065 -0.0000
vn 0.0000 0.6000 -0.8000
vn 0.0099 -0.0084 -0.9999
vn -0.1998 -0.0471 0.9787
vn -0.0251 -0.0280 0.9993
vn -0.1983 -0.0469 0.9790
vn -0.3665 -0.0645 0.9282
vn 0.2738 0.5736 0.7720
vn 0.2181 0.5828 0.7828
vn -0.1368 0.5908 0.7952
vn -0.1212 0.5924 0.7965
vn 0.1384 0.5873 0.7975
vn 0.0987 0.5901 0.8013
vn 0.3338 -0.0474 0.9415
vn 0.3386 -0.0475 0.9397
vn 0.6328 -0.0537 0.7725
vn 0.0000 -0.0357 0.9994
vn 0.9943 -0.1065 0.0000
vn -0.7055 0.0682 -0.7055
vn 0.7071 0.0000 0.7071
vn -0.0079 -0.0085 0.9999
vn -0.0040 -0.0042 1.0000
vn 0.7069 -0.0253 -0.7069
vn -0.7055 0.0682 0.7055
vn 0.0000 0.6000 0.8000
vn -0.0000 0.0000 1.0000
vn -0.3536 -0.0471 -0.9342
vn -0.3483 -0.0469 -0.9362
vn 0.0000 -0.0357 -0.9994
vn -0.6570 -0.0523 -0.7521
vn 0.3061 0.5678 -0.7642
vn 0.2385 0.5800 -0.7789
vn -0.2385 0.5800 -0.7789
vn -0.3061 0.5678 -0.7642
vn 0.5317 0.5022 -0.6820
vn -0.5317 0.5022 -0.6820
vn 0.3540 -0.0424 -0.9343
vn 0.6570 -0.0523 -0.7521
vn 0.3592 -0.0426 -0.9323
vn 0.0119 -0.0275 -0.9996
usemtl texture
s 1
f 3/1/1 5/2/1 14/3/1 13/4/1
s 2
f 1/5/2 3/6/2 4/7/2 2/8/2
s 3
f 14/9/3 5/10/3 6/11/3 15/12/3
s 4
f 5/10/4 1/5/4 2/8/4 6/11/4
s 5
f 3/6/5 13/13/5 16/14/5 4/7/5
s 6
f 7/15/1 9/16/1 11/17/1
s 7
f 18/18/5 11/19/5 12/20/5 19/21/5
s 8
f 11/19/6 9/22/6 10/23/6 12/20/6
s 9
f 9/22/4 7/24/4 8/25/4 10/23/4
s 10
f 7/24/7 17/26/7 20/27/7 8/25/7
s 11
f 15/28/8 16/29/8 13/30/8 14/31/8
s 12
f 19/32/9 20/33/9 17/34/9 18/35/9
s 13
f 1/36/1 5/2/1 3/1/1
s 14
f 17/37/1 7/15/1 11/17/1 18/38/1
s 15
f 21/39/2 23/40/2 24/41/2 22/42/2
s 16
f 23/40/10 25/43/10 26/44/10 24/41/10
s 17
f 34/45/11 21/39/11 22/42/11 35/46/11
s 18
f 25/43/3 33/47/3 36/48/3 26/44/3
s 19
f 27/49/1 29/50/1 31/51/1
s 20
f 29/52/11 37/53/11 40/54/11 30/55/11
s 21
f 27/56/10 31/57/10 32/58/10 28/59/10
s 22
f 31/57/6 29/52/6 30/55/6 32/58/6
s 23
f 38/60/7 27/56/7 28/59/7 39/61/7
s 24
f 25/62/1 21/63/1 34/64/1 33/65/1
s 25
f 35/66/12 36/67/12 33/68/12 34/69/12
s 26
f 37/70/13 38/71/13 39/72/13 40/73/13
s 27
f 23/74/1 21/63/1 25/62/1
s 28
f 38/75/1 37/76/1 29/50/1 27/49/1
s 29
f 42/77/14 45/78/14 46/79/14 43/80/14
s 30
f 46/81/15 55/82/15 54/83/15 43/84/15
s 31
f 42/85/1 41/86/1 44/87/1 45/88/1
s 32
f 60/89/15 51/90/15 48/91/15 57/92/15
s 33
f 50/93/16 47/94/16 48/95/16 51/96/16
s 34
f 49/97/1 47/98/1 50/99/1 52/100/1
s 35
f 49/101/14 52/102/14 59/103/17 58/104/17
s 36
f 55/105/18 56/106/19 53/107/19 54/108/18
s 37
f 57/109/20 58/110/17 59/111/17 60/112/20
s 38
f 44/113/16 41/114/16 53/115/19 56/116/19
s 39
f 63/117/21 65/118/22 98/119/23 97/120/24
s 40
f 70/121/25 67/122/25 68/123/25
s 41
f 97/124/26 61/125/26 62/126/26
s 42
f 63/127/21 97/128/24 62/129/27
s 43
f 65/130/22 64/131/28 98/132/23
s 44
f 73/133/29 75/134/30 77/135/30 74/136/29
s 45
f 66/137/31 98/138/31 64/139/31
s 46
f 73/133/32 74/136/32 71/140/32
s 47
f 68/141/33 69/142/34 70/143/35
s 48
f 71/144/36 72/145/37 73/146/38
s 49
f 74/136/39 67/122/39 70/121/39 71/140/39
s 50
f 69/142/34 72/145/37 71/144/36 70/143/35
s 51
f 75/147/40 73/146/38 72/145/37 76/148/40
s 52
f 75/134/30 62/126/41 61/125/41 77/135/30
s 53
f 81/149/15 83/150/15 76/151/15
s 54
f 77/152/1 80/153/1 79/154/1
s 55
f 82/155/15 65/156/15 63/157/15 76/151/15
s 56
f 78/158/42 66/137/43 64/139/43 85/159/44
s 57
f 86/160/45 80/161/45 78/162/42 85/163/44
s 58
f 62/129/27 75/147/40 76/148/40 63/127/21
s 59
f 69/164/15 81/149/15 76/151/15 72/165/15
s 60
f 81/166/46 69/142/34 68/141/33 84/167/47
s 61
f 65/130/22 82/168/48 85/169/49 64/131/28
s 62
f 81/170/46 84/171/47 86/172/50 83/173/51
s 63
f 83/174/51 86/175/50 85/176/49 82/177/48
s 64
f 84/178/52 79/179/53 80/180/54 86/181/54
s 65
f 67/122/55 79/182/53 84/183/52 68/123/55
s 66
f 83/150/15 82/155/15 76/151/15
s 67
f 77/152/1 78/184/1 80/153/1
s 68
f 61/185/1 66/186/1 78/184/1 77/152/1
s 69
f 74/187/1 77/152/1 79/154/1 67/188/1
s 70
f 89/189/56 87/190/56 94/191/56 91/192/56
s 71
f 90/193/22 89/194/23 91/195/24 93/196/21
s 72
f 97/197/57 95/198/57 61/199/57
s 73
f 89/189/58 88/200/58 87/190/58
s 74
f 90/193/22 88/201/28 89/194/23
s 75
f 93/196/21 91/195/24 92/202/27
s 76
f 100/203/59 66/204/59 103/205/60 101/206/60
s 77
f 94/191/61 92/207/61 91/192/61
s 78
f 100/203/62 98/208/62 66/204/62
s 79
f 95/209/38 97/210/36 96/211/37
s 80
f 98/212/35 100/213/33 99/214/34
s 81
f 96/215/37 97/216/36 98/217/35 99/218/34
s 82
f 101/219/63 102/220/63 99/214/34 100/213/33
s 83
f 101/206/60 103/205/60 87/190/64 88/200/64
s 84
f 107/221/15 102/222/15 109/223/15
s 85
f 103/224/1 105/225/1 106/226/1
s 86
f 108/227/15 102/222/15 90/228/15 93/229/15
s 87
f 104/230/65 111/231/66 92/207/67 94/191/67
s 88
f 112/232/68 111/233/66 104/234/65 106/235/68
s 89
f 88/201/28 90/193/22 102/220/63 101/219/63
s 90
f 96/236/15 99/237/15 102/222/15 107/221/15
s 91
f 107/238/69 110/239/70 95/209/38 96/211/37
s 92
f 93/196/21 92/202/27 111/240/71 108/241/72
s 93
f 107/242/69 109/243/73 112/244/73 110/245/70
s 94
f 109/246/74 108/247/72 111/248/71 112/249/74
s 95
f 110/250/75 112/251/76 106/252/76 105/253/77
s 96
f 61/199/78 95/198/78 110/254/75 105/255/77
s 97
f 109/223/15 102/222/15 108/227/15
s 98
f 103/224/1 106/226/1 104/256/1
s 99
f 87/257/1 103/224/1 104/256/1 94/258/1
s 100
f 66/259/1 61/260/1 105/225/1 103/224/1
