# Blender v2.80 (sub 75) OBJ File: 'Dungeon_Remastered_Export1.0.blend'
# www.blender.org
mtllib table_medium.mtl
o table_medium_Cube.11255
v -0.600000 0.000000 -0.600000
v -0.500000 0.800000 -0.500000
v -0.600000 0.000000 -0.900000
v -0.500000 0.800000 -0.800000
v -0.900000 0.000000 -0.600000
v -0.800000 0.800000 -0.500000
v 0.900000 0.000000 -0.600000
v 0.800000 0.800000 -0.500000
v 0.600000 0.000000 -0.600000
v 0.500000 0.800000 -0.500000
v 0.600000 0.000000 -0.900000
v 0.500000 0.800000 -0.800000
v -0.875000 0.000000 -0.900000
v -0.900000 0.000000 -0.875000
v -0.800000 0.800000 -0.775000
v -0.775000 0.800000 -0.800000
v 0.900000 0.000000 -0.875000
v 0.875000 0.000000 -0.900000
v 0.775000 0.800000 -0.800000
v 0.800000 0.800000 -0.775000
v -0.475000 1.000000 -0.975000
v -0.500000 0.975000 -0.975000
v -0.475000 0.975000 -1.000000
v -0.506817 0.800000 -0.975000
v -0.025000 1.000000 -0.975000
v -0.025000 0.975000 -1.000000
v 0.000000 0.975000 -0.975000
v 0.008339 0.800000 -0.975000
v 0.500008 0.800000 -0.975000
v 0.500000 0.975000 -0.975000
v 0.475000 0.975000 -1.000000
v 0.475000 1.000000 -0.975000
v 0.025000 0.975000 -1.000000
v 0.000000 0.975000 -0.975000
v 0.025000 1.000000 -0.975000
v 0.008339 0.800000 -0.975000
v -0.600000 0.000000 0.900000
v -0.500000 0.800000 0.800000
v -0.600000 0.000000 0.600000
v -0.500000 0.800000 0.500000
v -0.900000 0.000000 0.600000
v -0.800000 0.800000 0.500000
v -0.975000 1.000000 0.262962
v -0.975000 1.000000 0.387038
v -0.912962 0.800000 0.325000
v -0.975000 0.800000 0.387038
v 0.900000 0.000000 0.600000
v 0.800000 0.800000 0.500000
v 0.600000 0.000000 0.900000
v 0.500000 0.800000 0.800000
v 0.600000 0.000000 0.600000
v 0.500000 0.800000 0.500000
v -0.975000 0.800000 0.262962
v -0.506817 0.800000 0.325000
v -0.525000 1.000000 0.325000
v -0.500000 0.975000 0.325000
v -0.900000 0.000000 0.875000
v -0.875000 0.000000 0.900000
v -0.775000 0.800000 0.800000
v -0.800000 0.800000 0.775000
v -0.506817 0.800000 0.975000
v -0.500000 0.975000 0.975000
v -0.525000 1.000000 0.975000
v -0.525000 0.975000 1.000000
v 0.875000 0.000000 0.900000
v 0.900000 0.000000 0.875000
v 0.800000 0.800000 0.775000
v 0.775000 0.800000 0.800000
v -0.975000 0.975000 1.000000
v -0.975000 1.000000 0.975000
v -1.000000 0.975000 0.975000
v -0.975000 0.800000 0.975000
v -0.500000 0.975000 0.975000
v -0.475000 1.000000 0.975000
v -0.475000 0.975000 1.000000
v -0.506817 0.800000 0.975000
v 0.008339 0.800000 0.975000
v 0.000000 0.975000 0.975000
v 0.025000 1.000000 0.975000
v 0.025000 0.975000 1.000000
v -0.025000 0.975000 1.000000
v -0.025000 1.000000 0.975000
v 0.000000 0.975000 0.975000
v 0.008339 0.800000 0.975000
v 0.475000 0.975000 1.000000
v 0.475000 1.000000 0.975000
v 0.500000 0.975000 0.975000
v 0.500008 0.800000 0.975000
v 0.500000 0.975000 -0.575000
v 0.475000 1.000000 -0.575000
v 0.500008 0.800000 -0.575000
v 0.008339 0.800000 -0.637038
v 0.008339 0.800000 -0.512962
v 0.067038 0.800000 -0.575000
v 0.025000 1.000000 -0.512962
v 0.025000 1.000000 -0.637038
v 0.067038 1.000000 -0.575000
v 0.000000 0.975000 -0.512962
v 0.000000 0.975000 -0.637038
v 0.042943 0.975000 -0.575000
v -0.975000 0.800000 -0.975000
v -0.975000 1.000000 -0.975000
v -1.000000 0.975000 -0.975000
v -0.975000 0.975000 -1.000000
v -0.525000 1.000000 -0.975000
v -0.525000 0.975000 -1.000000
v -0.500000 0.975000 -0.975000
v -0.506817 0.800000 -0.975000
v 0.974999 0.800000 -0.975000
v 0.999999 0.975000 -0.975000
v 0.974999 1.000000 -0.975000
v 0.974999 0.975000 -1.000000
v 0.524999 0.975000 -1.000000
v 0.524999 1.000000 -0.975000
v 0.499999 0.975000 -0.975000
v 0.500008 0.800000 -0.975000
v 0.975000 0.800000 0.975000
v 0.975000 1.000000 0.975000
v 1.000000 0.975000 0.975000
v 0.975000 0.975000 1.000000
v 0.525000 1.000000 0.975000
v 0.525000 0.975000 1.000000
v 0.500000 0.975000 0.975000
v 0.500008 0.800000 0.975000
v 0.500000 0.975000 -0.325000
v 0.525000 1.000000 -0.325000
v 0.500008 0.800000 -0.325000
v 0.975000 0.800000 -0.262962
v 0.975000 0.800000 -0.387038
v 0.912962 0.800000 -0.325000
v 0.975000 1.000000 -0.387038
v 0.975000 1.000000 -0.262962
v 0.912962 1.000000 -0.325000
v 1.000000 0.975000 -0.387038
v 1.000000 0.975000 -0.262962
v 0.937057 0.975000 -0.325000
v -0.912962 1.000000 0.325000
v -1.000000 0.975000 0.387038
v -1.000000 0.975000 0.262962
v -0.937057 0.975000 0.325000
v 0.700000 0.200000 0.800000
v 0.700000 0.200000 0.600000
v 0.700000 0.400000 0.600000
v -0.700000 0.200000 0.800000
v -0.700000 0.200000 0.600000
v -0.700000 0.400000 0.600000
v 0.700000 0.200000 -0.600000
v 0.700000 0.400000 -0.600000
v 0.700000 0.200000 -0.800000
v -0.700000 0.200000 -0.600000
v -0.700000 0.400000 -0.600000
v -0.700000 0.200000 -0.800000
v 0.700000 0.375000 0.800000
v 0.700000 0.400000 0.775000
v -0.700000 0.400000 0.775000
v -0.700000 0.375000 0.800000
v 0.700000 0.400000 -0.775000
v 0.700000 0.375000 -0.800000
v -0.700000 0.375000 -0.800000
v -0.700000 0.400000 -0.775000
vt 0.579507 0.786290
vt 0.592855 0.786290
vt 0.592855 0.786290
vt 0.591743 0.786290
vt 0.579507 0.813991
vt 0.579507 0.813991
vt 0.575058 0.890865
vt 0.575058 0.890865
vt 0.592855 0.813991
vt 0.592855 0.813991
vt 0.588406 0.890865
vt 0.588406 0.890865
vt 0.591743 0.813991
vt 0.587294 0.890865
vt 0.512768 0.786290
vt 0.526116 0.786290
vt 0.526116 0.786290
vt 0.513880 0.813991
vt 0.526116 0.813991
vt 0.530565 0.890865
vt 0.518329 0.890865
vt 0.526116 0.813991
vt 0.530565 0.890865
vt 0.512768 0.813991
vt 0.517217 0.890865
vt 0.512768 0.813991
vt 0.517217 0.890865
vt 0.588406 0.932416
vt 0.587294 0.932416
vt 0.591743 0.855541
vt 0.592855 0.855541
vt 0.518329 0.932416
vt 0.517217 0.932416
vt 0.512768 0.855541
vt 0.513880 0.855541
vt 0.579507 0.786290
vt 0.512768 0.786290
vt 0.513880 0.786290
vt 0.573945 0.938931
vt 0.575058 0.938931
vt 0.573945 0.922115
vt 0.573945 0.944709
vt 0.573945 0.980482
vt 0.575058 0.980482
vt 0.553924 0.938931
vt 0.552811 0.938931
vt 0.553924 0.922115
vt 0.553924 0.944709
vt 0.552811 0.980482
vt 0.553924 0.980482
vt 0.573945 0.922115
vt 0.573945 0.938931
vt 0.552811 0.980482
vt 0.553924 0.944709
vt 0.531678 0.892056
vt 0.531678 0.875240
vt 0.551699 0.875240
vt 0.551699 0.892056
vt 0.573945 0.944709
vt 0.575058 0.980482
vt 0.575058 0.938931
vt 0.531678 0.944709
vt 0.531678 0.933607
vt 0.551699 0.933607
vt 0.551699 0.944709
vt 0.551699 0.892056
vt 0.552811 0.892056
vt 0.551699 0.875240
vt 0.530565 0.892056
vt 0.530565 0.933607
vt 0.552811 0.933607
vt 0.579507 0.813991
vt 0.579507 0.813991
vt 0.575058 0.890865
vt 0.575058 0.890865
vt 0.592855 0.813991
vt 0.588406 0.890865
vt 0.591743 0.813991
vt 0.587294 0.890865
vt 0.592855 0.813991
vt 0.588406 0.890865
vt 0.575058 0.876431
vt 0.576170 0.859615
vt 0.576170 0.859615
vt 0.575058 0.876431
vt 0.596192 0.906534
vt 0.576170 0.906534
vt 0.593432 0.906534
vt 0.596192 0.876431
vt 0.597304 0.876431
vt 0.596192 0.859615
vt 0.575058 0.876431
vt 0.576170 0.859615
vt 0.596192 0.944709
vt 0.596192 0.917982
vt 0.576170 0.917982
vt 0.576170 0.944709
vt 0.512768 0.786290
vt 0.526116 0.786290
vt 0.526116 0.786290
vt 0.526116 0.813991
vt 0.513880 0.813991
vt 0.518329 0.890865
vt 0.530565 0.890865
vt 0.512768 0.813991
vt 0.526116 0.813991
vt 0.530565 0.890865
vt 0.517217 0.890865
vt 0.512768 0.813991
vt 0.517217 0.890865
vt 0.576170 0.876431
vt 0.575058 0.917982
vt 0.597304 0.917982
vt 0.592855 0.786290
vt 0.579507 0.786290
vt 0.591743 0.786290
vt 0.592855 0.786290
vt 0.587294 0.932416
vt 0.588406 0.932416
vt 0.592855 0.855541
vt 0.591743 0.855541
vt 0.596192 0.859615
vt 0.597304 0.876431
vt 0.596192 0.876431
vt 0.513880 0.855541
vt 0.512768 0.855541
vt 0.517217 0.932416
vt 0.518329 0.932416
vt 0.576170 0.876431
vt 0.579507 0.786290
vt 0.512768 0.786290
vt 0.513880 0.786290
vt 0.530565 0.892056
vt 0.531678 0.875240
vt 0.531678 0.875240
vt 0.530565 0.892056
vt 0.552811 0.892056
vt 0.553924 0.922115
vt 0.552811 0.938931
vt 0.573945 0.980482
vt 0.553924 0.938931
vt 0.531678 0.892056
vt 0.552811 0.933607
vt 0.551699 0.933607
vt 0.551699 0.944709
vt 0.553924 0.980482
vt 0.531678 0.933607
vt 0.530565 0.933607
vt 0.531678 0.944709
vt 0.530565 0.933607
vt 0.531678 0.936009
vt 0.551699 0.922159
vt 0.531678 0.922159
vt 0.548939 0.922159
vt 0.573945 0.894415
vt 0.573945 0.894415
vt 0.553924 0.894415
vt 0.553924 0.894415
vt 0.531678 0.847540
vt 0.551699 0.847540
vt 0.548939 0.847540
vt 0.551699 0.922159
vt 0.551699 0.875240
vt 0.552811 0.892056
vt 0.550011 0.850506
vt 0.552811 0.850506
vt 0.551699 0.833689
vt 0.548939 0.833689
vt 0.551699 0.936009
vt 0.552811 0.933607
vt 0.552811 0.933607
vt 0.551699 0.936009
vt 0.551699 0.963710
vt 0.548939 0.963710
vt 0.550011 0.961307
vt 0.552811 0.961307
vt 0.548939 0.894459
vt 0.551699 0.894459
vt 0.550011 0.892056
vt 0.552811 0.919757
vt 0.550011 0.919757
vt 0.548939 0.902940
vt 0.551699 0.902940
vt 0.552811 0.892056
vt 0.551699 0.875240
vt 0.596192 0.944709
vt 0.596192 0.917982
vt 0.597304 0.917982
vt 0.576170 0.944709
vt 0.576170 0.917982
vt 0.575058 0.917982
vt 0.576170 0.920384
vt 0.575058 0.917982
vt 0.508319 0.923306
vt 0.509431 0.923306
vt 0.509431 0.906490
vt 0.508319 0.964857
vt 0.508319 0.964857
vt 0.509431 0.944709
vt 0.509431 0.967259
vt 0.529453 0.944709
vt 0.529453 0.953409
vt 0.509431 0.953409
vt 0.530565 0.923306
vt 0.529453 0.923306
vt 0.529453 0.906490
vt 0.509431 0.964857
vt 0.529453 0.964857
vt 0.530565 0.964857
vt 0.509431 0.923306
vt 0.509431 0.906490
vt 0.508319 0.923306
vt 0.508319 0.923306
vt 0.509431 0.906490
vt 0.512191 0.953409
vt 0.509431 0.944709
vt 0.508319 0.964857
vt 0.508319 0.964857
vt 0.509431 0.967259
vt 0.509431 0.878790
vt 0.529453 0.878790
vt 0.529453 0.878790
vt 0.509431 0.878790
vt 0.509431 0.953409
vt 0.509431 0.878790
vt 0.512191 0.878790
vt 0.529453 0.923306
vt 0.530565 0.923306
vt 0.529453 0.906490
vt 0.509431 0.964857
vt 0.529453 0.944709
vt 0.530565 0.964857
vt 0.529453 0.964857
vt 0.511119 0.881756
vt 0.508319 0.881756
vt 0.509431 0.864939
vt 0.512191 0.864939
vt 0.529453 0.967259
vt 0.530565 0.964857
vt 0.530565 0.923306
vt 0.529453 0.906490
vt 0.509431 0.906490
vt 0.508319 0.923306
vt 0.509431 0.994960
vt 0.512191 0.994960
vt 0.511119 0.992557
vt 0.508319 0.992557
vt 0.512191 0.925709
vt 0.509431 0.925709
vt 0.511119 0.923306
vt 0.508319 0.951007
vt 0.511119 0.951007
vt 0.512191 0.934190
vt 0.509431 0.934190
vt 0.509431 0.878790
vt 0.529453 0.878790
vt 0.551699 0.847540
vt 0.531678 0.847540
vt 0.551699 0.847540
vt 0.531678 0.847540
vt 0.551699 0.847540
vt 0.576170 0.831915
vt 0.596192 0.831915
vt 0.593432 0.831915
vt 0.596192 0.906534
vt 0.596192 0.859615
vt 0.597304 0.876431
vt 0.594504 0.834881
vt 0.597304 0.834881
vt 0.596192 0.818064
vt 0.593432 0.818064
vt 0.596192 0.920384
vt 0.597304 0.917982
vt 0.597304 0.917982
vt 0.596192 0.920384
vt 0.596192 0.948085
vt 0.593432 0.948085
vt 0.594504 0.945682
vt 0.597304 0.945682
vt 0.593432 0.878834
vt 0.596192 0.878834
vt 0.594504 0.876431
vt 0.597304 0.904132
vt 0.594504 0.904132
vt 0.593432 0.887315
vt 0.596192 0.887315
vt 0.597304 0.876431
vt 0.596192 0.859615
vt 0.596192 0.831915
vt 0.576170 0.831915
vt 0.596192 0.831915
vt 0.576170 0.831915
vt 0.596192 0.831915
vt 0.521666 0.833209
vt 0.583957 0.833209
vt 0.583957 0.852428
vt 0.521666 0.852428
vt 0.583957 0.880128
vt 0.583957 0.880128
vt 0.521666 0.880128
vt 0.521666 0.880128
vt 0.521666 0.805509
vt 0.521666 0.805509
vt 0.583957 0.805509
vt 0.583957 0.805509
vt 0.583957 0.880128
vt 0.583957 0.880128
vt 0.521666 0.880128
vt 0.521666 0.880128
vt 0.583957 0.833209
vt 0.521666 0.833209
vt 0.521666 0.852428
vt 0.583957 0.852428
vt 0.521666 0.805509
vt 0.521666 0.805509
vt 0.583957 0.805509
vt 0.583957 0.805509
vt 0.521666 0.833209
vt 0.583957 0.833209
vt 0.583957 0.850026
vt 0.521666 0.850026
vt 0.583957 0.893979
vt 0.583957 0.891576
vt 0.521666 0.891576
vt 0.521666 0.893979
vt 0.521666 0.893979
vt 0.521666 0.891576
vt 0.583957 0.891576
vt 0.583957 0.893979
vt 0.583957 0.833209
vt 0.521666 0.833209
vt 0.521666 0.850026
vt 0.583957 0.850026
vn 0.0000 -1.0000 0.0000
vn 0.9923 -0.1240 0.0000
vn -0.9923 0.1240 0.0000
vn 0.0000 -0.1240 0.9923
vn 0.0000 0.1240 -0.9923
vn -0.9923 -0.1240 0.0000
vn 0.9923 0.1240 0.0000
vn -0.6963 0.1741 -0.6963
vn 0.6963 0.1741 -0.6963
vn -0.7068 0.0275 0.7068
vn -0.4606 0.7588 -0.4606
vn -0.2418 0.6861 -0.6861
vn -0.6861 0.6861 -0.2418
vn 0.7067 0.0337 -0.7067
vn 0.4606 0.7588 -0.4606
vn 0.6861 0.6861 -0.2418
vn 0.2418 0.6861 -0.6861
vn 0.0000 -0.1414 -0.9899
vn 0.6861 0.6861 0.2418
vn 0.4606 0.7588 0.4606
vn -0.4606 0.7588 0.4606
vn -0.6861 0.6861 0.2418
vn -0.9992 0.0389 0.0000
vn 0.0000 1.0000 0.0000
vn -0.7067 -0.0337 0.7067
vn 0.7071 0.0000 -0.7071
vn 0.0000 -0.1240 -0.9923
vn 0.0000 0.1240 0.9923
vn 0.9992 -0.0389 0.0000
vn -0.7035 -0.1005 0.7035
vn -0.2418 0.6861 0.6861
vn 0.2418 0.6861 0.6861
vn 0.7068 -0.0275 0.7068
vn 0.0000 -0.1414 0.9899
vn -0.6963 0.1741 0.6963
vn -0.7035 -0.1005 -0.7035
vn 0.6963 0.1741 0.6963
vn 0.7068 -0.0275 -0.7068
vn 1.0000 0.0000 0.0000
vn -0.7067 -0.0337 -0.7067
vn 0.9989 0.0476 0.0000
vn 0.7067 0.0337 0.7067
vn 0.7071 0.0000 0.7071
vn 0.7071 0.7071 0.0000
vn -0.9386 -0.0634 0.3390
vn -0.9409 -0.0631 0.3326
vn -0.9989 -0.0476 0.0000
vn -0.7716 -0.0715 0.6321
vn -0.6878 0.6811 -0.2511
vn -0.6966 0.6916 -0.1910
vn -0.6966 0.6916 0.1910
vn -0.6878 0.6811 0.2511
vn -0.6411 0.6295 -0.4391
vn -0.6411 0.6295 0.4391
vn -0.9409 -0.0631 -0.3326
vn -0.7716 -0.0715 -0.6321
vn -0.9386 -0.0634 -0.3390
vn 0.7035 -0.1005 0.7035
vn 0.6879 0.6835 0.2442
vn 0.6655 0.6592 0.3500
vn -0.7071 -0.0000 -0.7071
vn 0.9899 -0.1414 -0.0000
vn 0.6879 0.6835 -0.2442
vn 0.6655 0.6592 -0.3500
vn -0.7071 -0.0000 0.7071
vn 0.7035 -0.1005 -0.7035
vn 0.7011 -0.0983 -0.7062
vn -0.7071 0.7071 0.0000
vn -1.0000 -0.0000 0.0000
vn 0.5794 0.5689 0.5836
vn 0.5794 0.5689 -0.5836
vn 0.7011 -0.0983 0.7062
vn -0.7068 0.0275 -0.7068
vn -0.9899 -0.1414 0.0000
vn -0.7011 -0.0983 0.7062
vn -0.6655 0.6592 -0.3500
vn -0.6879 0.6835 -0.2442
vn -0.6879 0.6835 0.2442
vn -0.6655 0.6592 0.3500
vn -0.5794 0.5689 -0.5836
vn -0.5794 0.5689 0.5836
vn -0.7011 -0.0983 -0.7062
vn 0.0000 0.0000 -1.0000
vn 0.0000 0.0000 1.0000
vn 0.0000 0.7071 0.7071
vn 0.0000 0.7071 -0.7071
usemtl texture
s 1
f 3/1/1 5/2/1 14/3/1 13/4/1
s 2
f 1/5/2 3/6/2 4/7/2 2/8/2
s 3
f 14/9/3 5/10/3 6/11/3 15/12/3
s 4
f 5/10/4 1/5/4 2/8/4 6/11/4
s 5
f 3/6/5 13/13/5 16/14/5 4/7/5
s 6
f 7/15/1 9/16/1 11/17/1
s 7
f 18/18/5 11/19/5 12/20/5 19/21/5
s 8
f 11/19/6 9/22/6 10/23/6 12/20/6
s 9
f 9/22/4 7/24/4 8/25/4 10/23/4
s 10
f 7/24/7 17/26/7 20/27/7 8/25/7
s 11
f 15/28/8 16/29/8 13/30/8 14/31/8
s 12
f 19/32/9 20/33/9 17/34/9 18/35/9
s 13
f 1/36/1 5/2/1 3/1/1
s 14
f 17/37/1 7/15/1 11/17/1 18/38/1
s 15
f 75/39/10 73/40/10 76/41/10
s 16
f 21/42/11 23/43/12 22/44/13
s 17
f 26/45/14 27/46/14 28/47/14
s 18
f 25/48/15 27/49/16 26/50/17
s 19
f 24/51/18 23/52/18 26/45/18 28/47/18
s 20
f 83/53/19 27/49/16 25/48/15 82/54/20
s 21
f 25/48/15 26/50/17 23/43/12 21/42/11
s 22
f 31/55/18 29/56/18 36/57/18 33/58/18
s 23
f 74/59/21 21/42/11 22/44/13 73/60/22
s 24
f 76/41/23 73/40/23 22/61/23 24/51/23
s 25
f 74/59/24 82/54/24 25/48/24 21/42/24
s 26
f 32/62/15 31/63/17 33/64/12 35/65/11
s 27
f 80/66/25 78/67/25 77/68/25
s 28
f 31/55/26 30/69/26 29/56/26
s 29
f 32/62/15 30/70/16 31/63/17
s 30
f 35/65/11 33/64/12 34/71/13
s 31
f 37/72/2 39/73/2 40/74/2 38/75/2
s 32
f 39/73/27 41/76/27 42/77/27 40/74/27
s 33
f 58/78/28 37/72/28 38/75/28 59/79/28
s 34
f 41/76/3 57/80/3 60/81/3 42/77/3
s 35
f 56/82/29 54/83/29 108/84/29 107/85/29
s 36
f 44/86/24 55/87/24 137/88/24
s 37
f 69/89/30 71/90/30 72/91/30
s 38
f 62/92/29 61/93/29 54/83/29 56/82/29
s 39
f 70/94/21 69/95/31 64/96/32 63/97/20
s 40
f 47/98/1 49/99/1 51/100/1
s 41
f 49/101/28 65/102/28 68/103/28 50/104/28
s 42
f 47/105/27 51/106/27 52/107/27 48/108/27
s 43
f 51/106/6 49/101/6 50/104/6 52/107/6
s 44
f 66/109/7 47/105/7 48/108/7 67/110/7
s 45
f 62/92/33 64/111/33 61/93/33
s 46
f 64/96/32 62/112/19 63/97/20
s 47
f 61/93/34 64/111/34 69/89/34 72/91/34
s 48
f 71/113/22 69/95/31 70/94/21
s 49
f 41/114/1 37/115/1 58/116/1 57/117/1
s 50
f 59/118/35 60/119/35 57/120/35 58/121/35
s 51
f 101/122/36 103/123/36 104/124/36
s 52
f 65/125/37 66/126/37 67/127/37 68/128/37
s 53
f 106/129/38 107/85/38 108/84/38
s 54
f 39/130/1 37/115/1 41/114/1
s 55
f 66/131/1 65/132/1 49/99/1 47/98/1
s 56
f 87/133/39 88/134/39 91/135/39 89/136/39
s 57
f 36/57/40 34/137/40 33/58/40
s 58
f 84/138/41 28/47/41 27/46/41 83/139/41
s 59
f 73/60/22 75/140/31 74/59/21
s 60
f 83/139/42 81/141/42 84/138/42
s 61
f 87/133/43 85/142/43 88/134/43
s 62
f 78/143/22 80/144/31 79/145/21
s 63
f 81/146/32 83/53/19 82/54/20
s 64
f 84/138/34 81/141/34 75/39/34 76/41/34
s 65
f 85/147/32 87/148/19 86/149/20
s 66
f 88/134/34 85/142/34 80/66/34 77/68/34
s 67
f 79/145/21 80/144/31 85/147/32 86/149/20
s 68
f 89/150/44 90/151/44 86/149/20 87/148/19
s 69
f 89/136/39 91/135/39 29/56/39 30/69/39
s 70
f 95/152/24 90/153/24 97/154/24
s 71
f 74/59/21 75/140/31 81/146/32 82/54/20
s 72
f 76/155/1 24/156/1 28/157/1 84/158/1
s 73
f 91/159/1 93/160/1 94/161/1
s 74
f 96/162/24 90/153/24 32/62/24 35/65/24
s 75
f 92/163/45 99/164/46 34/137/47 36/57/47
s 76
f 100/165/48 99/166/46 92/167/45 94/168/48
s 77
f 30/70/16 32/62/15 90/151/44 89/150/44
s 78
f 79/145/24 86/149/24 90/153/24 95/152/24
s 79
f 95/169/49 98/170/50 78/143/22 79/145/21
s 80
f 35/65/11 34/71/13 99/171/51 96/172/52
s 81
f 95/173/49 97/174/53 100/175/53 98/176/50
s 82
f 97/177/54 96/178/52 99/164/51 100/179/54
s 83
f 98/180/55 100/181/56 94/182/56 93/183/57
s 84
f 77/68/47 78/67/47 98/184/55 93/185/57
s 85
f 97/154/24 90/153/24 96/162/24
s 86
f 102/186/11 104/187/12 103/188/13
s 87
f 105/189/15 106/190/17 104/187/12 102/186/11
s 88
f 106/129/18 108/84/18 101/122/18 104/124/18
s 89
f 56/191/44 55/192/44 63/97/20 62/112/19
s 90
f 105/189/15 107/193/16 106/190/17
s 91
f 119/194/58 120/195/58 117/196/58
s 92
f 134/197/59 110/198/16 111/199/15 131/200/60
s 93
f 111/199/24 114/201/24 126/202/24 131/203/24
s 94
f 115/204/61 113/205/61 116/206/61
s 95
f 110/198/16 112/207/17 111/199/15
s 96
f 113/208/12 115/209/13 114/201/11
s 97
f 116/206/18 113/205/18 112/210/18 109/211/18
s 98
f 111/199/15 112/207/17 113/208/12 114/201/11
s 99
f 109/211/62 110/212/62 134/213/62 129/214/62
s 100
f 131/203/24 126/202/24 133/215/24
s 101
f 118/216/20 119/217/19 135/218/63 132/219/64
s 102
f 129/220/1 127/221/1 116/222/1 109/223/1
s 103
f 133/215/24 126/202/24 132/224/24
s 104
f 128/225/1 127/221/1 130/226/1
s 105
f 122/227/65 123/228/65 124/229/65
s 106
f 118/216/20 120/230/32 119/217/19
s 107
f 121/231/21 123/232/22 122/233/31
s 108
f 117/196/34 120/195/34 122/227/34 124/229/34
s 109
f 112/210/66 110/212/66 109/211/66
s 110
f 121/231/21 122/233/31 120/230/32 118/216/20
s 111
f 136/234/67 135/235/67 128/236/67 130/237/67
s 112
f 123/232/22 121/231/21 126/238/68 125/239/68
s 113
f 126/238/68 114/201/11 115/209/13 125/239/68
s 114
f 132/224/24 126/202/24 121/231/24 118/216/24
s 115
f 125/240/69 127/241/69 124/229/69 123/228/69
s 116
f 128/242/62 135/243/62 119/194/62 117/196/62
s 117
f 115/204/69 116/206/69 127/241/69 125/240/69
s 118
f 131/244/60 133/245/70 136/246/70 134/247/59
s 119
f 133/248/71 132/249/64 135/243/63 136/250/71
s 120
f 134/251/72 136/252/72 130/253/72 129/254/72
s 121
f 117/255/1 124/256/1 127/221/1 128/225/1
s 122
f 22/61/73 23/52/73 24/51/73
s 123
f 91/159/1 94/161/1 92/257/1
s 124
f 29/258/1 91/159/1 92/257/1 36/259/1
s 125
f 88/260/1 77/261/1 93/160/1 91/159/1
s 126
f 130/226/1 127/221/1 129/220/1
s 127
f 54/262/1 46/263/1 45/264/1
s 128
f 43/265/24 55/87/24 105/189/24 102/186/24
s 129
f 53/266/74 139/267/74 103/123/74 101/122/74
s 130
f 140/268/75 139/269/75 53/270/75 45/271/75
s 131
f 107/193/16 105/189/15 55/192/44 56/191/44
s 132
f 70/94/24 63/97/24 55/87/24 44/86/24
s 133
f 44/272/76 138/273/77 71/113/22 70/94/21
s 134
f 102/186/11 103/188/13 139/274/78 43/275/79
s 135
f 44/276/76 137/277/80 140/278/80 138/279/77
s 136
f 137/280/81 43/281/79 139/267/78 140/282/81
s 137
f 138/283/82 140/284/82 45/285/82 46/286/82
s 138
f 72/91/74 71/90/74 138/287/74 46/288/74
s 139
f 137/88/24 55/87/24 43/265/24
s 140
f 54/262/1 45/264/1 53/289/1
s 141
f 108/290/1 54/262/1 53/289/1 101/291/1
s 142
f 61/292/1 72/293/1 46/263/1 54/262/1
s 143
f 142/294/83 145/295/83 146/296/83 143/297/83
s 144
f 146/298/24 155/299/24 154/300/24 143/301/24
s 145
f 142/302/1 141/303/1 144/304/1 145/305/1
s 146
f 160/306/24 151/307/24 148/308/24 157/309/24
s 147
f 150/310/84 147/311/84 148/312/84 151/313/84
s 148
f 149/314/1 147/315/1 150/316/1 152/317/1
s 149
f 149/318/83 152/319/83 159/320/83 158/321/83
s 150
f 155/322/85 156/323/85 153/324/85 154/325/85
s 151
f 157/326/86 158/327/86 159/328/86 160/329/86
s 152
f 144/330/84 141/331/84 153/332/84 156/333/84
