# Blender v2.80 (sub 75) OBJ File: 'Dungeon_Remastered_Export1.0.blend'
# www.blender.org
mtllib table_long.mtl
o table_long_Cube.11256
v 0.600000 0.000000 -1.600000
v 0.500000 0.800000 -1.500000
v 0.600000 0.000000 -1.900000
v 0.500000 0.800000 -1.800000
v 0.900000 0.000000 -1.600000
v 0.800000 0.800000 -1.500000
v -0.900000 0.000000 -1.600000
v -0.800000 0.800000 -1.500000
v -0.600000 0.000000 -1.600000
v -0.500000 0.800000 -1.500000
v -0.600000 0.000000 -1.900000
v -0.500000 0.800000 -1.800000
v 0.875000 0.000000 -1.900000
v 0.900000 0.000000 -1.875000
v 0.800000 0.800000 -1.775000
v 0.775000 0.800000 -1.800000
v -0.900000 0.000000 -1.875000
v -0.875000 0.000000 -1.900000
v -0.775000 0.800000 -1.800000
v -0.800000 0.800000 -1.775000
v 0.600000 0.000000 1.900000
v 0.500000 0.800000 1.800000
v 0.600000 0.000000 1.600000
v 0.500000 0.800000 1.500000
v 0.900000 0.000000 1.600000
v 0.800000 0.800000 1.500000
v -0.900000 0.000000 1.600000
v -0.800000 0.800000 1.500000
v -0.600000 0.000000 1.900000
v -0.500000 0.800000 1.800000
v -0.600000 0.000000 1.600000
v -0.500000 0.800000 1.500000
v 0.900000 0.000000 1.875000
v 0.875000 0.000000 1.900000
v 0.775000 0.800000 1.800000
v 0.800000 0.800000 1.775000
v -0.875000 0.000000 1.900000
v -0.900000 0.000000 1.875000
v -0.800000 0.800000 1.775000
v -0.775000 0.800000 1.800000
v -0.700000 0.200000 1.800000
v -0.700000 0.200000 1.600000
v -0.700000 0.400000 1.600000
v 0.700000 0.200000 1.800000
v 0.700000 0.200000 1.600000
v 0.700000 0.400000 1.600000
v -0.700000 0.200000 -1.600000
v -0.700000 0.400000 -1.600000
v -0.700000 0.200000 -1.800000
v 0.700000 0.200000 -1.600000
v 0.700000 0.400000 -1.600000
v 0.700000 0.200000 -1.800000
v -0.700000 0.375000 1.800000
v -0.700000 0.400000 1.775000
v 0.700000 0.400000 1.775000
v 0.700000 0.375000 1.800000
v -0.700000 0.400000 -1.775000
v -0.700000 0.375000 -1.800000
v 0.700000 0.375000 -1.800000
v 0.700000 0.400000 -1.775000
v 0.475000 1.000000 -1.975000
v 0.500000 0.975000 -1.975000
v 0.475000 0.975000 -2.000000
v 0.506817 0.800000 -1.975000
v 0.975000 0.800000 -1.975000
v 0.975000 1.000000 -1.975000
v 1.000000 0.975000 -1.975000
v 0.975000 0.975000 -2.000000
v 0.506817 0.800000 -1.975000
v 0.525000 0.975000 -2.000000
v 0.500000 0.975000 -1.975000
v 0.525000 1.000000 -1.975000
v 0.025000 1.000000 -1.975000
v 0.025000 0.975000 -2.000000
v 0.000000 0.975000 -1.975000
v -0.008339 0.800000 -1.975000
v 0.500000 0.975000 -1.325000
v 0.525000 1.000000 -1.325000
v 0.506817 0.800000 -1.325000
v -0.500008 0.800000 -1.975000
v -0.500000 0.975000 -1.975000
v -0.475000 0.975000 -2.000000
v -0.475000 1.000000 -1.975000
v -0.025000 0.975000 -2.000000
v 0.000000 0.975000 -1.975000
v -0.025000 1.000000 -1.975000
v -0.008339 0.800000 -1.975000
v 0.975000 0.800000 -1.416654
v 0.975000 0.800000 -1.213346
v 0.913346 0.800000 -1.325000
v 0.975000 1.000000 -1.213346
v 0.975000 1.000000 -1.416654
v 0.913346 1.000000 -1.325000
v 1.000000 0.975000 -1.213346
v 1.000000 0.975000 -1.416654
v 0.940000 0.975000 -1.325000
v 0.500000 0.975000 1.975000
v 0.475000 1.000000 1.975000
v 0.475000 0.975000 2.000000
v 0.506817 0.800000 1.975000
v -0.008339 0.800000 1.975000
v 0.000000 0.975000 1.975000
v -0.025000 1.000000 1.975000
v -0.025000 0.975000 2.000000
v 0.025000 0.975000 2.000000
v 0.025000 1.000000 1.975000
v 0.000000 0.975000 1.975000
v -0.008339 0.800000 1.975000
v -0.475000 0.975000 2.000000
v -0.475000 1.000000 1.975000
v -0.500000 0.975000 1.975000
v -0.500008 0.800000 1.975000
v 0.500000 0.975000 0.775001
v 0.525000 1.000000 0.775001
v 0.506817 0.800000 0.775001
v -0.500000 0.975000 1.325000
v -0.475000 1.000000 1.325000
v -0.500008 0.800000 1.325000
v -0.008339 0.800000 1.262962
v -0.008339 0.800000 1.387038
v -0.087038 0.800000 1.325000
v -0.025000 1.000000 1.387038
v -0.025000 1.000000 1.262962
v -0.087038 1.000000 1.325000
v 0.000000 0.975000 1.387038
v 0.000000 0.975000 1.262962
v -0.062943 0.975000 1.325000
v 0.975000 0.800000 0.659629
v 0.913346 0.800000 0.775001
v 0.975000 1.000000 0.659629
v 0.898346 1.000000 0.775001
v 1.000000 0.975000 0.659629
v -0.974999 0.800000 -1.975000
v -0.999999 0.975000 -1.975000
v -0.974999 1.000000 -1.975000
v -0.974999 0.975000 -2.000000
v -0.524999 0.975000 -2.000000
v -0.524999 1.000000 -1.975000
v -0.499999 0.975000 -1.975000
v -0.500008 0.800000 -1.975000
v -0.975000 0.800000 1.975000
v -0.975000 1.000000 1.975000
v -1.000000 0.975000 1.975000
v -0.975000 0.975000 2.000000
v -0.525000 1.000000 1.975000
v -0.525000 0.975000 2.000000
v -0.500000 0.975000 1.975000
v -0.500008 0.800000 1.975000
v -0.500000 0.975000 0.675000
v -0.525000 1.000000 0.675000
v -0.500008 0.800000 0.675000
v -0.975000 0.800000 0.737038
v -0.975000 0.800000 0.612962
v -0.912962 0.800000 0.675000
v -0.975000 1.000000 0.612962
v -0.975000 1.000000 0.737038
v -0.912962 1.000000 0.675000
v -1.000000 0.975000 0.612962
v -1.000000 0.975000 0.737038
v -0.937057 0.975000 0.675000
v 0.975000 0.800000 1.975000
v 0.975000 1.000000 1.975000
v 1.000000 0.975000 1.975000
v 0.975000 0.975000 2.000000
v 0.506817 0.800000 1.975000
v 0.525000 0.975000 2.000000
v 0.500000 0.975000 1.975000
v 0.525000 1.000000 1.975000
v 0.975000 0.800000 0.916654
v 0.975000 1.000000 0.916654
v 1.000000 0.975000 0.916654
v 0.940000 0.975000 0.775001
vt 0.579507 0.786290
vt 0.591743 0.786290
vt 0.592855 0.786290
vt 0.592855 0.786290
vt 0.579507 0.813991
vt 0.575058 0.890865
vt 0.575058 0.890865
vt 0.579507 0.813991
vt 0.592855 0.813991
vt 0.588406 0.890865
vt 0.588406 0.890865
vt 0.592855 0.813991
vt 0.587294 0.890865
vt 0.591743 0.813991
vt 0.512768 0.786290
vt 0.526116 0.786290
vt 0.526116 0.786290
vt 0.513880 0.813991
vt 0.518329 0.890865
vt 0.530565 0.890865
vt 0.526116 0.813991
vt 0.530565 0.890865
vt 0.526116 0.813991
vt 0.517217 0.890865
vt 0.512768 0.813991
vt 0.517217 0.890865
vt 0.512768 0.813991
vt 0.588406 0.932416
vt 0.592855 0.855541
vt 0.591743 0.855541
vt 0.587294 0.932416
vt 0.518329 0.932416
vt 0.513880 0.855541
vt 0.512768 0.855541
vt 0.517217 0.932416
vt 0.579507 0.786290
vt 0.512768 0.786290
vt 0.513880 0.786290
vt 0.579507 0.813991
vt 0.575058 0.890865
vt 0.575058 0.890865
vt 0.579507 0.813991
vt 0.588406 0.890865
vt 0.592855 0.813991
vt 0.591743 0.813991
vt 0.587294 0.890865
vt 0.588406 0.890865
vt 0.592855 0.813991
vt 0.512768 0.786290
vt 0.526116 0.786290
vt 0.526116 0.786290
vt 0.526116 0.813991
vt 0.530565 0.890865
vt 0.518329 0.890865
vt 0.513880 0.813991
vt 0.512768 0.813991
vt 0.517217 0.890865
vt 0.530565 0.890865
vt 0.526116 0.813991
vt 0.512768 0.813991
vt 0.517217 0.890865
vt 0.592855 0.786290
vt 0.592855 0.786290
vt 0.591743 0.786290
vt 0.579507 0.786290
vt 0.587294 0.932416
vt 0.591743 0.855541
vt 0.592855 0.855541
vt 0.588406 0.932416
vt 0.513880 0.855541
vt 0.518329 0.932416
vt 0.517217 0.932416
vt 0.512768 0.855541
vt 0.579507 0.786290
vt 0.512768 0.786290
vt 0.513880 0.786290
vt 0.521666 0.833209
vt 0.521666 0.852428
vt 0.583957 0.852428
vt 0.583957 0.833209
vt 0.583957 0.880128
vt 0.521666 0.880128
vt 0.521666 0.880128
vt 0.583957 0.880128
vt 0.521666 0.805509
vt 0.583957 0.805509
vt 0.583957 0.805509
vt 0.521666 0.805509
vt 0.583957 0.880128
vt 0.521666 0.880128
vt 0.521666 0.880128
vt 0.583957 0.880128
vt 0.583957 0.833209
vt 0.583957 0.852428
vt 0.521666 0.852428
vt 0.521666 0.833209
vt 0.521666 0.805509
vt 0.583957 0.805509
vt 0.583957 0.805509
vt 0.521666 0.805509
vt 0.521666 0.833209
vt 0.521666 0.850026
vt 0.583957 0.850026
vt 0.583957 0.833209
vt 0.583957 0.893979
vt 0.521666 0.893979
vt 0.521666 0.891576
vt 0.583957 0.891576
vt 0.521666 0.893979
vt 0.583957 0.893979
vt 0.583957 0.891576
vt 0.521666 0.891576
vt 0.583957 0.833209
vt 0.583957 0.850026
vt 0.521666 0.850026
vt 0.521666 0.833209
vt 0.596192 0.861390
vt 0.597304 0.878206
vt 0.597304 0.878206
vt 0.596192 0.861390
vt 0.576170 0.861390
vt 0.576170 0.861390
vt 0.575058 0.878206
vt 0.575058 0.878206
vt 0.573945 0.909456
vt 0.573945 0.892640
vt 0.575058 0.909456
vt 0.573945 0.944709
vt 0.575058 0.964857
vt 0.573945 0.964857
vt 0.553924 0.909456
vt 0.553924 0.892640
vt 0.552811 0.909456
vt 0.576170 0.878206
vt 0.596192 0.944709
vt 0.597304 0.933607
vt 0.596192 0.933607
vt 0.596192 0.861390
vt 0.596192 0.878206
vt 0.576170 0.933607
vt 0.575058 0.933607
vt 0.576170 0.944709
vt 0.553924 0.944709
vt 0.553924 0.964857
vt 0.552811 0.964857
vt 0.573945 0.892640
vt 0.573945 0.909456
vt 0.552811 0.964857
vt 0.553924 0.944709
vt 0.531678 0.862581
vt 0.551699 0.862581
vt 0.551699 0.845765
vt 0.531678 0.845765
vt 0.573945 0.944709
vt 0.575058 0.964857
vt 0.575058 0.933607
vt 0.576170 0.936009
vt 0.597304 0.933607
vt 0.597304 0.933607
vt 0.596192 0.936009
vt 0.596192 0.936009
vt 0.596192 0.922159
vt 0.576170 0.922159
vt 0.596192 0.936009
vt 0.597304 0.933607
vt 0.576170 0.847540
vt 0.593449 0.847540
vt 0.596192 0.847540
vt 0.576170 0.847540
vt 0.596192 0.847540
vt 0.593449 0.847540
vt 0.575058 0.909456
vt 0.531678 0.944709
vt 0.551699 0.944709
vt 0.551699 0.917982
vt 0.531678 0.917982
vt 0.551699 0.862581
vt 0.551699 0.845765
vt 0.552811 0.862581
vt 0.530565 0.862581
vt 0.530565 0.917982
vt 0.552811 0.917982
vt 0.596192 0.963710
vt 0.597304 0.961307
vt 0.594635 0.961307
vt 0.593449 0.963710
vt 0.593449 0.894458
vt 0.594635 0.892056
vt 0.597304 0.892056
vt 0.596192 0.894458
vt 0.597304 0.905906
vt 0.596192 0.889090
vt 0.593449 0.889090
vt 0.594635 0.905906
vt 0.594635 0.836655
vt 0.593449 0.819839
vt 0.596192 0.819839
vt 0.597304 0.836655
vt 0.596192 0.922159
vt 0.592781 0.922159
vt 0.576170 0.922159
vt 0.593449 0.922159
vt 0.596192 0.922159
vt 0.596192 0.922159
vt 0.530565 0.862581
vt 0.530565 0.862581
vt 0.531678 0.845765
vt 0.531678 0.845765
vt 0.552811 0.862581
vt 0.553924 0.892640
vt 0.552811 0.909456
vt 0.573945 0.964857
vt 0.553924 0.909456
vt 0.531678 0.862581
vt 0.552811 0.917982
vt 0.551699 0.944709
vt 0.551699 0.917982
vt 0.553924 0.964857
vt 0.531678 0.917982
vt 0.531678 0.944709
vt 0.530565 0.917982
vt 0.530565 0.917982
vt 0.531678 0.920384
vt 0.551699 0.906534
vt 0.548939 0.906534
vt 0.531678 0.906534
vt 0.576170 0.936009
vt 0.575058 0.933607
vt 0.573945 0.878790
vt 0.553924 0.878790
vt 0.553924 0.878790
vt 0.573945 0.878790
vt 0.531678 0.831915
vt 0.548939 0.831915
vt 0.551699 0.831915
vt 0.551699 0.906534
vt 0.551699 0.845765
vt 0.552811 0.862581
vt 0.550011 0.821030
vt 0.548939 0.804214
vt 0.551699 0.804214
vt 0.552811 0.821030
vt 0.551699 0.920384
vt 0.552811 0.917982
vt 0.551699 0.920384
vt 0.552811 0.917982
vt 0.551699 0.948085
vt 0.552811 0.945682
vt 0.550011 0.945682
vt 0.548939 0.948085
vt 0.548939 0.878834
vt 0.550011 0.876431
vt 0.552811 0.876431
vt 0.551699 0.878834
vt 0.552811 0.890281
vt 0.551699 0.873465
vt 0.548939 0.873465
vt 0.550011 0.890281
vt 0.551699 0.845765
vt 0.552811 0.862581
vt 0.508319 0.925081
vt 0.509431 0.908265
vt 0.509431 0.925081
vt 0.508319 0.980482
vt 0.509431 0.982884
vt 0.509431 0.944709
vt 0.508319 0.980482
vt 0.509431 0.969034
vt 0.529453 0.969034
vt 0.529453 0.944709
vt 0.530565 0.925081
vt 0.529453 0.908265
vt 0.529453 0.925081
vt 0.509431 0.980482
vt 0.529453 0.980482
vt 0.530565 0.980482
vt 0.509431 0.908265
vt 0.509431 0.925081
vt 0.509431 0.908265
vt 0.508319 0.925081
vt 0.508319 0.925081
vt 0.512191 0.969034
vt 0.509431 0.944709
vt 0.509431 0.982884
vt 0.508319 0.980482
vt 0.508319 0.980482
vt 0.509431 0.894415
vt 0.509431 0.894415
vt 0.529453 0.894415
vt 0.529453 0.894415
vt 0.509431 0.969034
vt 0.509431 0.894415
vt 0.512191 0.894415
vt 0.529453 0.925081
vt 0.529453 0.908265
vt 0.530565 0.925081
vt 0.509431 0.980482
vt 0.529453 0.944709
vt 0.529453 0.980482
vt 0.530565 0.980482
vt 0.511119 0.883530
vt 0.512191 0.866714
vt 0.509431 0.866714
vt 0.508319 0.883530
vt 0.530565 0.980482
vt 0.529453 0.982884
vt 0.530565 0.925081
vt 0.529453 0.908265
vt 0.509431 0.908265
vt 0.508319 0.925081
vt 0.509431 0.994960
vt 0.508319 0.992557
vt 0.511119 0.992557
vt 0.512191 0.994960
vt 0.512191 0.941334
vt 0.511119 0.938931
vt 0.508319 0.938931
vt 0.509431 0.941334
vt 0.508319 0.952781
vt 0.509431 0.935965
vt 0.512191 0.935965
vt 0.511119 0.952781
vt 0.509431 0.894415
vt 0.529453 0.894415
vt 0.597304 0.878206
vt 0.575058 0.878206
vt 0.576170 0.861390
vt 0.596192 0.847540
vt 0.596192 0.847540
vt 0.576170 0.861390
vt 0.575058 0.878206
vt 0.576170 0.878206
vt 0.596192 0.944709
vt 0.596192 0.933607
vt 0.597304 0.933607
vt 0.596192 0.861390
vt 0.596192 0.878206
vt 0.576170 0.933607
vt 0.576170 0.944709
vt 0.575058 0.933607
vt 0.597304 0.933607
vt 0.596192 0.936009
vt 0.596192 0.861390
vt 0.597304 0.878206
vt 0.596192 0.894459
vt 0.592781 0.894459
vt 0.594635 0.892056
vt 0.597304 0.892056
vt 0.592781 0.963710
vt 0.596192 0.963710
vt 0.597304 0.961307
vt 0.594635 0.961307
vt 0.597304 0.836655
vt 0.594635 0.836655
vt 0.593449 0.819839
vt 0.596192 0.819839
vt 0.594635 0.905906
vt 0.597304 0.905906
vt 0.596192 0.889090
vt 0.593449 0.889090
vt 0.576170 0.847540
vt 0.596192 0.847540
vt 0.576170 0.847540
vt 0.596192 0.847540
vt 0.597304 0.878206
vt 0.596192 0.861390
vt 0.597304 0.878206
vt 0.551699 0.831915
vt 0.531678 0.831915
vt 0.551699 0.831915
vt 0.531678 0.831915
vt 0.551699 0.831915
vn 0.0000 -1.0000 0.0000
vn -0.9923 -0.1240 0.0000
vn 0.9923 0.1240 0.0000
vn 0.0000 -0.1240 0.9923
vn 0.0000 0.1240 -0.9923
vn 0.9923 -0.1240 0.0000
vn -0.9923 0.1240 0.0000
vn 0.6963 0.1741 -0.6963
vn -0.6963 0.1741 -0.6963
vn 0.0000 -0.1240 -0.9923
vn 0.0000 0.1240 0.9923
vn 0.6963 0.1741 0.6963
vn -0.6963 0.1741 0.6963
vn 0.0000 0.0000 -1.0000
vn 0.0000 1.0000 0.0000
vn 0.0000 0.0000 1.0000
vn 0.0000 0.7071 0.7071
vn 0.0000 0.7071 -0.7071
vn 0.9582 -0.1391 -0.2499
vn 0.9609 -0.1393 -0.2393
vn 0.9624 -0.1396 0.2330
vn 0.9600 -0.1393 0.2430
vn -0.9992 -0.0389 0.0000
vn 0.7068 0.0275 0.7068
vn 0.4606 0.7588 -0.4606
vn 0.6861 0.6861 -0.2418
vn 0.2418 0.6861 -0.6861
vn -0.7067 0.0337 -0.7067
vn -0.7068 -0.0275 -0.7068
vn 0.0000 -0.1414 -0.9899
vn -0.2418 0.6861 -0.6861
vn -0.6861 0.6861 -0.2418
vn -0.4606 0.7588 -0.4606
vn -0.6861 0.6861 0.2418
vn -0.4606 0.7588 0.4606
vn 0.4606 0.7588 0.4606
vn 0.6861 0.6861 0.2418
vn -0.7071 0.7071 -0.0000
vn 0.6556 0.7400 0.1501
vn 0.6934 0.7030 -0.1581
vn 0.6871 0.6991 -0.1981
vn 0.6389 0.7455 0.1896
vn 0.6806 0.6925 0.2390
vn 0.6905 0.6997 0.1834
vn 0.9992 0.0389 0.0000
vn 0.7067 -0.0337 0.7067
vn -0.7071 0.0000 -0.7071
vn 0.6504 0.6719 -0.3543
vn 0.6315 0.6524 0.4191
vn 0.8709 -0.1285 -0.4744
vn 0.8270 -0.1220 0.5488
vn 0.9461 -0.1372 0.2934
vn 0.9503 -0.1377 0.2792
vn -1.0000 0.0000 0.0000
vn 0.7067 -0.0337 -0.7067
vn -0.9989 0.0476 0.0000
vn 0.2418 0.6861 0.6861
vn -0.7067 0.0337 0.7067
vn -0.7071 0.0000 0.7071
vn -0.2418 0.6861 0.6861
vn 0.0000 -0.1414 0.9899
vn 0.9989 -0.0476 0.0000
vn 0.6577 -0.0609 0.7508
vn 0.6655 0.6592 -0.3500
vn 0.6879 0.6835 -0.2442
vn 0.6655 0.6592 0.3500
vn 0.6879 0.6835 0.2442
vn 0.5794 0.5689 -0.5836
vn 0.5794 0.5689 0.5836
vn 0.6577 -0.0609 -0.7508
vn -0.7035 -0.1005 0.7035
vn -0.6879 0.6835 0.2442
vn -0.6655 0.6592 0.3500
vn 0.7071 -0.0000 -0.7071
vn -0.9899 -0.1414 -0.0000
vn -0.6655 0.6592 -0.3500
vn -0.6879 0.6835 -0.2442
vn 0.7071 -0.0000 0.7071
vn -0.7035 -0.1005 -0.7035
vn -0.7011 -0.0983 -0.7062
vn 0.7071 0.7071 0.0000
vn 1.0000 -0.0000 0.0000
vn -0.5794 0.5689 0.5836
vn -0.5794 0.5689 -0.5836
vn -0.7011 -0.0983 0.7062
vn 0.7068 0.0275 -0.7068
vn 0.7035 -0.1005 -0.7035
vn -0.7068 -0.0275 0.7068
vn 0.6562 0.7439 -0.1270
vn 0.6432 0.7499 -0.1546
vn 0.9899 -0.1414 0.0000
vn 0.6000 0.7998 0.0191
vn 0.5997 0.7994 0.0353
vn 0.8771 -0.1295 0.4625
vn 0.9105 -0.1344 -0.3910
vn 0.9705 -0.1408 -0.1959
vn 0.9690 -0.1407 -0.2030
vn 0.7035 -0.1005 0.7035
usemtl texture
s 1
f 3/1/1 13/2/1 14/3/1 5/4/1
s 2
f 1/5/2 2/6/2 4/7/2 3/8/2
s 3
f 14/9/3 15/10/3 6/11/3 5/12/3
s 4
f 5/12/4 6/11/4 2/6/4 1/5/4
s 5
f 3/8/5 4/7/5 16/13/5 13/14/5
s 6
f 7/15/1 11/16/1 9/17/1
s 7
f 18/18/5 19/19/5 12/20/5 11/21/5
s 8
f 11/21/6 12/20/6 10/22/6 9/23/6
s 9
f 9/23/4 10/22/4 8/24/4 7/25/4
s 10
f 7/25/7 8/24/7 20/26/7 17/27/7
s 11
f 15/28/8 14/29/8 13/30/8 16/31/8
s 12
f 19/32/9 18/33/9 17/34/9 20/35/9
s 13
f 1/36/1 3/1/1 5/4/1
s 14
f 17/37/1 18/38/1 11/16/1 7/15/1
s 15
f 21/39/2 22/40/2 24/41/2 23/42/2
s 16
f 23/42/10 24/41/10 26/43/10 25/44/10
s 17
f 34/45/11 35/46/11 22/40/11 21/39/11
s 18
f 25/44/3 26/43/3 36/47/3 33/48/3
s 19
f 27/49/1 31/50/1 29/51/1
s 20
f 29/52/11 30/53/11 40/54/11 37/55/11
s 21
f 27/56/10 28/57/10 32/58/10 31/59/10
s 22
f 31/59/6 32/58/6 30/53/6 29/52/6
s 23
f 38/60/7 39/61/7 28/57/7 27/56/7
s 24
f 25/62/1 33/63/1 34/64/1 21/65/1
s 25
f 35/66/12 34/67/12 33/68/12 36/69/12
s 26
f 37/70/13 40/71/13 39/72/13 38/73/13
s 27
f 23/74/1 25/62/1 21/65/1
s 28
f 38/75/1 27/49/1 29/51/1 37/76/1
s 29
f 42/77/14 43/78/14 46/79/14 45/80/14
s 30
f 46/81/15 43/82/15 54/83/15 55/84/15
s 31
f 42/85/1 45/86/1 44/87/1 41/88/1
s 32
f 60/89/15 57/90/15 48/91/15 51/92/15
s 33
f 50/93/16 51/94/16 48/95/16 47/96/16
s 34
f 49/97/1 52/98/1 50/99/1 47/100/1
s 35
f 49/101/14 58/102/14 59/103/14 52/104/14
s 36
f 55/105/17 54/106/17 53/107/17 56/108/17
s 37
f 57/109/18 60/110/18 59/111/18 58/112/18
s 38
f 44/113/16 56/114/16 53/115/16 41/116/16
s 39
f 89/117/19 94/118/20 132/119/21 128/120/22
s 40
f 69/121/23 79/122/23 77/123/23 71/124/23
s 41
f 99/125/24 100/126/24 97/127/24
s 42
f 61/128/25 62/129/26 63/130/27
s 43
f 74/131/28 76/132/28 75/133/28
s 44
f 70/134/29 69/121/29 71/124/29
s 45
f 66/135/25 67/136/26 68/137/27
s 46
f 65/138/30 69/121/30 70/134/30 68/139/30
s 47
f 70/140/31 71/141/32 72/142/33
s 48
f 73/143/33 74/144/31 75/145/32
s 49
f 64/146/30 76/132/30 74/131/30 63/147/30
s 50
f 107/148/34 106/149/35 73/143/33 75/145/32
s 51
f 73/143/33 61/128/25 63/130/27 74/144/31
s 52
f 72/142/33 66/135/25 68/137/27 70/140/31
s 53
f 82/150/30 84/151/30 87/152/30 80/153/30
s 54
f 98/154/36 97/155/37 62/129/26 61/128/25
s 55
f 71/141/32 77/156/38 78/157/38 72/142/33
s 56
f 132/158/39 94/159/40 91/160/41 130/161/42
s 57
f 92/162/15 66/135/15 72/142/15 78/163/15
s 58
f 66/135/25 92/164/43 95/165/44 67/136/26
s 59
f 115/166/1 129/167/1 169/168/1
s 60
f 79/169/1 88/170/1 90/171/1
s 61
f 100/126/45 64/146/45 62/172/45 97/127/45
s 62
f 98/154/15 61/128/15 73/143/15 106/149/15
s 63
f 83/173/33 86/174/25 84/175/27 82/176/31
s 64
f 104/177/46 101/178/46 102/179/46
s 65
f 82/150/47 80/153/47 81/180/47
s 66
f 83/173/33 82/176/31 81/181/32
s 67
f 86/174/25 85/182/26 84/175/27
s 68
f 91/183/41 94/184/40 96/185/48 93/186/48
s 69
f 93/187/49 96/188/49 95/189/44 92/190/43
s 70
f 94/191/20 89/192/19 90/193/50 96/194/50
s 71
f 96/195/51 90/196/51 88/197/52 95/198/53
s 72
f 170/199/15 131/200/15 114/201/15
s 73
f 93/202/15 92/162/15 78/163/15
s 74
f 130/203/15 91/204/15 78/163/15 114/201/15
s 75
f 111/205/54 116/206/54 118/207/54 112/208/54
s 76
f 87/152/55 84/151/55 85/209/55
s 77
f 108/210/56 107/211/56 75/133/56 76/132/56
s 78
f 97/155/37 98/154/36 99/212/57
s 79
f 107/211/58 108/210/58 105/213/58
s 80
f 111/205/59 112/208/59 109/214/59
s 81
f 102/215/37 103/216/36 104/217/57
s 82
f 105/218/60 106/149/35 107/148/34
s 83
f 108/210/61 100/126/61 99/125/61 105/213/61
s 84
f 109/219/60 110/220/35 111/221/34
s 85
f 112/208/61 101/178/61 104/177/61 109/214/61
s 86
f 103/216/36 110/220/35 109/219/60 104/217/57
s 87
f 116/222/38 111/221/34 110/220/35 117/223/38
s 88
f 116/206/54 81/180/54 80/153/54 118/207/54
s 89
f 122/224/15 124/225/15 117/226/15
s 90
f 98/154/36 106/149/35 105/218/60 99/212/57
s 91
f 114/227/38 78/157/38 77/156/38 113/228/38
s 92
f 131/200/15 130/203/15 114/201/15
s 93
f 100/229/1 108/230/1 76/231/1 64/232/1
s 94
f 118/233/1 121/234/1 120/235/1
s 95
f 123/236/15 86/174/15 83/173/15 117/226/15
s 96
f 119/237/62 87/152/62 85/209/62 126/238/62
s 97
f 127/239/63 121/240/63 119/241/63 126/242/63
s 98
f 81/181/32 116/222/38 117/223/38 83/173/33
s 99
f 103/216/15 122/224/15 117/226/15 110/220/15
s 100
f 122/243/64 103/216/36 102/215/37 125/244/65
s 101
f 86/174/25 123/245/66 126/246/67 85/182/26
s 102
f 122/247/64 125/248/65 127/249/68 124/250/68
s 103
f 124/251/69 127/252/69 126/253/67 123/254/66
s 104
f 125/255/70 120/256/70 121/257/70 127/258/70
s 105
f 101/178/62 120/259/62 125/260/62 102/179/62
s 106
f 124/225/15 123/236/15 117/226/15
s 107
f 143/261/71 141/262/71 144/263/71
s 108
f 158/264/72 155/265/73 135/266/33 134/267/32
s 109
f 135/266/15 155/268/15 150/269/15 138/270/15
s 110
f 139/271/74 140/272/74 137/273/74
s 111
f 134/267/32 135/266/33 136/274/31
s 112
f 137/275/27 138/270/25 139/276/26
s 113
f 140/272/30 133/277/30 136/278/30 137/273/30
s 114
f 135/266/33 138/270/25 137/275/27 136/274/31
s 115
f 133/277/75 153/279/75 158/280/75 134/281/75
s 116
f 155/268/15 157/282/15 150/269/15
s 117
f 142/283/35 156/284/76 159/285/77 143/286/34
s 118
f 153/287/1 133/288/1 140/289/1 151/290/1
s 119
f 157/282/15 156/291/15 150/269/15
s 120
f 152/292/1 154/293/1 151/290/1
s 121
f 146/294/78 148/295/78 147/296/78
s 122
f 142/283/35 143/286/34 144/297/60
s 123
f 145/298/36 146/299/57 147/300/37
s 124
f 141/262/61 148/295/61 146/294/61 144/263/61
s 125
f 136/278/79 133/277/79 134/281/79
s 126
f 145/298/36 142/283/35 144/297/60 146/299/57
s 127
f 160/301/80 154/302/80 152/303/80 159/304/80
s 128
f 147/300/37 149/305/81 150/306/81 145/298/36
s 129
f 150/306/81 149/305/81 139/276/26 138/270/25
s 130
f 156/291/15 142/283/15 145/298/15 150/269/15
s 131
f 149/307/82 147/296/82 148/295/82 151/308/82
s 132
f 152/309/75 141/262/75 143/261/75 159/310/75
s 133
f 139/271/82 149/307/82 151/308/82 140/272/82
s 134
f 155/311/73 158/312/72 160/313/83 157/314/83
s 135
f 157/315/84 160/316/84 159/317/77 156/318/76
s 136
f 158/319/85 153/320/85 154/321/85 160/322/85
s 137
f 141/323/1 152/292/1 151/290/1 148/324/1
s 138
f 62/172/86 64/146/86 63/147/86
s 139
f 67/325/87 65/138/87 68/139/87
s 140
f 113/326/23 77/123/23 79/122/23 115/327/23
s 141
f 115/166/1 79/169/1 89/328/1 128/329/1
s 142
f 165/330/23 167/331/23 113/326/23 115/327/23
s 143
f 166/332/88 167/331/88 165/330/88
s 144
f 162/333/36 164/334/57 163/335/37
s 145
f 161/336/61 164/337/61 166/332/61 165/330/61
s 146
f 166/338/60 168/339/35 167/340/34
s 147
f 168/339/35 166/338/60 164/334/57 162/333/36
s 148
f 167/340/34 168/339/35 114/227/38 113/228/38
s 149
f 162/333/36 163/335/37 171/341/89 170/342/90
s 150
f 88/343/52 65/138/91 67/325/91 95/344/53
s 151
f 91/204/15 93/202/15 78/163/15
s 152
f 130/345/42 131/346/92 172/347/93 132/348/39
s 153
f 131/349/92 170/350/90 171/351/89 172/352/93
s 154
f 132/353/21 172/354/94 129/355/94 128/356/22
s 155
f 172/357/95 171/358/96 169/359/97 129/360/95
s 156
f 165/361/1 115/166/1 169/168/1 161/362/1
s 157
f 129/167/1 115/166/1 128/329/1
s 158
f 69/363/1 65/364/1 88/170/1 79/169/1
s 159
f 163/365/98 164/337/98 161/336/98
s 160
f 169/366/97 171/367/96 163/365/91 161/336/91
s 161
f 118/233/1 119/368/1 121/234/1
s 162
f 80/369/1 87/370/1 119/368/1 118/233/1
s 163
f 112/371/1 118/233/1 120/235/1 101/372/1
s 164
f 79/169/1 90/171/1 89/328/1
s 165
f 162/333/15 170/199/15 114/201/15 168/339/15
s 166
f 154/293/1 153/287/1 151/290/1
