# Blender v2.80 (sub 75) OBJ File: 'Dungeon_Remastered_Export1.0.blend'
# www.blender.org
mtllib table_small.mtl
o table_small_Cube.14737
v 0.199181 0.000000 -0.200198
v 0.149181 0.900000 -0.150198
v 0.449181 0.000000 -0.200197
v 0.399181 0.900000 -0.150198
v 0.199181 0.000000 -0.450194
v 0.149181 0.900000 -0.400194
v 0.199181 0.000000 0.449793
v 0.149181 0.900000 0.399793
v 0.199181 0.000000 0.199796
v 0.149181 0.900000 0.149797
v 0.449181 0.000000 0.199796
v 0.399181 0.900000 0.149797
v 0.449181 0.000000 -0.437694
v 0.436681 0.000000 -0.450194
v 0.386681 0.900000 -0.400194
v 0.399181 0.900000 -0.387695
v 0.436681 0.000000 0.449793
v 0.449181 0.000000 0.437293
v 0.399181 0.900000 0.387293
v 0.386681 0.900000 0.399793
v -0.450819 0.000000 -0.200198
v -0.400819 0.900000 -0.150198
v -0.200819 0.000000 -0.200198
v -0.150819 0.900000 -0.150198
v -0.200819 0.000000 -0.450194
v -0.150819 0.900000 -0.400194
v -0.200819 0.000000 0.449793
v -0.150819 0.900000 0.399793
v -0.450819 0.000000 0.199796
v -0.400819 0.900000 0.149797
v -0.200819 0.000000 0.199796
v -0.150819 0.900000 0.149797
v -0.438319 0.000000 -0.450194
v -0.450819 0.000000 -0.437694
v -0.400819 0.900000 -0.387695
v -0.388319 0.900000 -0.400194
v -0.450819 0.000000 0.437293
v -0.438319 0.000000 0.449793
v -0.388319 0.900000 0.399793
v -0.400819 0.900000 0.387293
v -0.400819 0.400000 0.349794
v -0.300819 0.400000 0.349794
v -0.300819 0.500000 0.349794
v -0.400819 0.400000 -0.350195
v -0.300819 0.400000 -0.350195
v -0.300819 0.500000 -0.350195
v 0.299181 0.400000 0.349794
v 0.299181 0.500000 0.349794
v 0.399181 0.400000 0.349794
v 0.299181 0.400000 -0.350195
v 0.299181 0.500000 -0.350195
v 0.399181 0.400000 -0.350195
v -0.400819 0.487500 0.349794
v -0.388319 0.500000 0.349794
v -0.388319 0.500000 -0.350195
v -0.400819 0.487500 -0.350195
v 0.386681 0.500000 0.349794
v 0.399181 0.487500 0.349794
v 0.399181 0.487500 -0.350195
v 0.386681 0.500000 -0.350195
v -0.002543 0.800000 -0.496027
v -0.025819 0.975000 -0.500193
v -0.025819 1.000000 -0.475193
v -0.025819 0.975000 0.499792
v -0.025819 1.000000 0.474792
v -0.002543 0.800000 0.495626
v -0.475819 0.800000 0.491453
v -0.475819 0.975000 0.499792
v -0.475819 1.000000 0.474792
v -0.500819 0.975000 0.474792
v -0.500819 0.975000 -0.475193
v -0.475819 1.000000 -0.475193
v -0.475819 0.975000 -0.500193
v -0.475819 0.800000 -0.500201
v -0.225819 0.975000 -0.500193
v -0.225819 1.000000 -0.475193
v -0.225819 0.800000 -0.500201
v -0.097114 0.800000 0.491453
v -0.287857 0.800000 0.491453
v -0.225819 0.800000 0.432754
v -0.287857 1.000000 0.474792
v -0.097114 1.000000 0.474792
v -0.225819 1.000000 0.432754
v -0.287857 0.975000 0.499792
v -0.097114 0.975000 0.499792
v -0.225819 0.975000 0.456850
v 0.474181 0.800000 0.499799
v 0.474181 0.975000 0.499792
v 0.499181 0.975000 0.474792
v 0.474181 1.000000 0.474792
v 0.499181 0.975000 -0.475193
v 0.474181 0.975000 -0.500193
v 0.474181 1.000000 -0.475193
v 0.474181 0.800000 -0.491854
v 0.024181 0.975000 -0.500193
v 0.024181 1.000000 -0.475193
v -0.000819 0.975000 -0.475193
v -0.000819 0.975000 0.474792
v 0.024181 1.000000 0.474792
v 0.024181 0.975000 0.499792
v 0.274181 0.975000 0.499792
v 0.274181 1.000000 0.474792
v 0.274181 0.800000 0.499799
v 0.362886 0.800000 -0.491854
v 0.185476 0.800000 -0.491854
v 0.274181 0.800000 -0.406489
v 0.185476 1.000000 -0.475193
v 0.362886 1.000000 -0.475193
v 0.274181 1.000000 -0.406489
v 0.185476 0.975000 -0.500193
v 0.362886 0.975000 -0.500193
v 0.274181 0.975000 -0.430585
v 0.349186 0.400000 0.399798
v 0.349186 0.400000 0.299800
v 0.349186 0.500000 0.299800
v -0.350814 0.400000 0.399799
v -0.350814 0.400000 0.299800
v -0.350814 0.500000 0.299800
v 0.349186 0.400000 -0.300191
v 0.349186 0.500000 -0.300191
v 0.349186 0.400000 -0.400189
v -0.350814 0.400000 -0.300191
v -0.350814 0.500000 -0.300191
v -0.350814 0.400000 -0.400189
v 0.349186 0.487500 0.399798
v 0.349186 0.500000 0.387299
v -0.350814 0.500000 0.387299
v -0.350814 0.487500 0.399799
v 0.349186 0.500000 -0.387689
v 0.349186 0.487500 -0.400189
v -0.350814 0.487500 -0.400189
v -0.350814 0.500000 -0.387689
vt 0.579507 0.786290
vt 0.592855 0.786290
vt 0.592855 0.786290
vt 0.591743 0.786290
vt 0.579507 0.813991
vt 0.579507 0.813991
vt 0.575058 0.890865
vt 0.575058 0.890865
vt 0.592855 0.813991
vt 0.592855 0.813991
vt 0.588406 0.890865
vt 0.588406 0.890865
vt 0.591743 0.813991
vt 0.587294 0.890865
vt 0.512768 0.786290
vt 0.526116 0.786290
vt 0.526116 0.786290
vt 0.513880 0.813991
vt 0.526116 0.813991
vt 0.530565 0.890865
vt 0.518329 0.890865
vt 0.526116 0.813991
vt 0.530565 0.890865
vt 0.512768 0.813991
vt 0.517217 0.890865
vt 0.512768 0.813991
vt 0.517217 0.890865
vt 0.588406 0.932416
vt 0.587294 0.932416
vt 0.591743 0.855541
vt 0.592855 0.855541
vt 0.518329 0.932416
vt 0.517217 0.932416
vt 0.512768 0.855541
vt 0.513880 0.855541
vt 0.579507 0.786290
vt 0.512768 0.786290
vt 0.513880 0.786290
vt 0.579507 0.813991
vt 0.579507 0.813991
vt 0.575058 0.890865
vt 0.575058 0.890865
vt 0.592855 0.813991
vt 0.588406 0.890865
vt 0.591743 0.813991
vt 0.587294 0.890865
vt 0.592855 0.813991
vt 0.588406 0.890865
vt 0.512768 0.786290
vt 0.526116 0.786290
vt 0.526116 0.786290
vt 0.526116 0.813991
vt 0.513880 0.813991
vt 0.518329 0.890865
vt 0.530565 0.890865
vt 0.512768 0.813991
vt 0.526116 0.813991
vt 0.530565 0.890865
vt 0.517217 0.890865
vt 0.512768 0.813991
vt 0.517217 0.890865
vt 0.592855 0.786290
vt 0.579507 0.786290
vt 0.591743 0.786290
vt 0.592855 0.786290
vt 0.587294 0.932416
vt 0.588406 0.932416
vt 0.592855 0.855541
vt 0.591743 0.855541
vt 0.513880 0.855541
vt 0.512768 0.855541
vt 0.517217 0.932416
vt 0.518329 0.932416
vt 0.579507 0.786290
vt 0.512768 0.786290
vt 0.513880 0.786290
vt 0.521666 0.833209
vt 0.583957 0.833209
vt 0.583957 0.852428
vt 0.521666 0.852428
vt 0.583957 0.880128
vt 0.583957 0.880128
vt 0.521666 0.880128
vt 0.521666 0.880128
vt 0.521666 0.805509
vt 0.521666 0.805509
vt 0.583957 0.805509
vt 0.583957 0.805509
vt 0.583957 0.880128
vt 0.583957 0.880128
vt 0.521666 0.880128
vt 0.521666 0.880128
vt 0.583957 0.833209
vt 0.521666 0.833209
vt 0.521666 0.852428
vt 0.583957 0.852428
vt 0.521666 0.805509
vt 0.521666 0.805509
vt 0.583957 0.805509
vt 0.583957 0.805509
vt 0.521666 0.833209
vt 0.583957 0.833209
vt 0.583957 0.850026
vt 0.521666 0.850026
vt 0.583957 0.893979
vt 0.583957 0.891576
vt 0.521666 0.891576
vt 0.521666 0.893979
vt 0.521666 0.893979
vt 0.521666 0.891576
vt 0.583957 0.891576
vt 0.583957 0.893979
vt 0.583957 0.833209
vt 0.521666 0.833209
vt 0.521666 0.850026
vt 0.583957 0.850026
vt 0.531678 0.929084
vt 0.551699 0.929084
vt 0.551699 0.917982
vt 0.531678 0.917982
vt 0.551699 0.892056
vt 0.551699 0.875240
vt 0.552811 0.892056
vt 0.531678 0.892056
vt 0.531678 0.875240
vt 0.530565 0.892056
vt 0.531678 0.975959
vt 0.531678 0.964857
vt 0.530565 0.964857
vt 0.551699 0.975959
vt 0.552811 0.964857
vt 0.551699 0.964857
vt 0.530565 0.892056
vt 0.530565 0.892056
vt 0.531678 0.875240
vt 0.531678 0.875240
vt 0.551699 0.875240
vt 0.551699 0.892056
vt 0.552811 0.892056
vt 0.531678 0.892056
vt 0.552811 0.964857
vt 0.551699 0.975959
vt 0.551699 0.964857
vt 0.531678 0.964857
vt 0.531678 0.975959
vt 0.530565 0.964857
vt 0.530565 0.964857
vt 0.531678 0.967259
vt 0.551699 0.933434
vt 0.548939 0.933434
vt 0.531678 0.933434
vt 0.531678 0.847540
vt 0.548939 0.847540
vt 0.551699 0.847540
vt 0.551699 0.933434
vt 0.551699 0.933434
vt 0.531678 0.933434
vt 0.551699 0.875240
vt 0.552811 0.892056
vt 0.550011 0.850506
vt 0.548939 0.833689
vt 0.551699 0.833689
vt 0.552811 0.850506
vt 0.551699 0.933434
vt 0.531678 0.933434
vt 0.551699 0.967259
vt 0.552811 0.964857
vt 0.551699 0.967259
vt 0.552811 0.964857
vt 0.551699 0.994960
vt 0.552811 0.992557
vt 0.550011 0.992557
vt 0.548939 0.994960
vt 0.548939 0.925709
vt 0.550011 0.923306
vt 0.552811 0.923306
vt 0.551699 0.925709
vt 0.552811 0.919757
vt 0.551699 0.902940
vt 0.548939 0.902940
vt 0.550011 0.919757
vt 0.551699 0.875240
vt 0.552811 0.892056
vt 0.551699 0.847540
vt 0.531678 0.847540
vt 0.551699 0.847540
vt 0.531678 0.847540
vt 0.551699 0.847540
vt 0.531678 0.892056
vt 0.531678 0.875240
vt 0.551699 0.875240
vt 0.551699 0.892056
vt 0.531678 0.975959
vt 0.531678 0.964857
vt 0.551699 0.964857
vt 0.551699 0.975959
vt 0.551699 0.813931
vt 0.552811 0.892056
vt 0.551699 0.875240
vt 0.530565 0.892056
vt 0.530565 0.964857
vt 0.552811 0.964857
vt 0.530565 0.892056
vt 0.531678 0.875240
vt 0.531678 0.875240
vt 0.530565 0.892056
vt 0.552811 0.892056
vt 0.531678 0.813931
vt 0.552811 0.964857
vt 0.551699 0.886732
vt 0.551699 0.975959
vt 0.531678 0.886732
vt 0.530565 0.964857
vt 0.531678 0.975959
vt 0.551699 0.944709
vt 0.551699 0.855482
vt 0.531678 0.855482
vt 0.531678 0.944709
vt 0.530565 0.964857
vt 0.531678 0.967259
vt 0.551699 0.933434
vt 0.531678 0.933434
vt 0.548939 0.933434
vt 0.531678 0.847540
vt 0.551699 0.847540
vt 0.548939 0.847540
vt 0.551699 0.933434
vt 0.531678 0.933434
vt 0.551699 0.933434
vt 0.551699 0.875240
vt 0.552811 0.892056
vt 0.550011 0.850506
vt 0.552811 0.850506
vt 0.551699 0.833689
vt 0.548939 0.833689
vt 0.551699 0.933434
vt 0.531678 0.933434
vt 0.551699 0.967259
vt 0.552811 0.964857
vt 0.552811 0.964857
vt 0.551699 0.967259
vt 0.551699 0.994960
vt 0.548939 0.994960
vt 0.550011 0.992557
vt 0.552811 0.992557
vt 0.548939 0.925709
vt 0.551699 0.925709
vt 0.552811 0.923306
vt 0.550011 0.923306
vt 0.552811 0.919757
vt 0.550011 0.919757
vt 0.548939 0.902940
vt 0.551699 0.902940
vt 0.552811 0.892056
vt 0.551699 0.875240
vt 0.551699 0.847540
vt 0.531678 0.847540
vt 0.551699 0.847540
vt 0.531678 0.847540
vt 0.551699 0.847540
vt 0.521666 0.833209
vt 0.583957 0.833209
vt 0.583957 0.852428
vt 0.521666 0.852428
vt 0.583957 0.880128
vt 0.583957 0.880128
vt 0.521666 0.880128
vt 0.521666 0.880128
vt 0.521666 0.805509
vt 0.521666 0.805509
vt 0.583957 0.805509
vt 0.583957 0.805509
vt 0.583957 0.880128
vt 0.583957 0.880128
vt 0.521666 0.880128
vt 0.521666 0.880128
vt 0.583957 0.833209
vt 0.521666 0.833209
vt 0.521666 0.852428
vt 0.583957 0.852428
vt 0.521666 0.805509
vt 0.521666 0.805509
vt 0.583957 0.805509
vt 0.583957 0.805509
vt 0.521666 0.833209
vt 0.583957 0.833209
vt 0.583957 0.850026
vt 0.521666 0.850026
vt 0.583957 0.893979
vt 0.583957 0.891576
vt 0.521666 0.891576
vt 0.521666 0.893979
vt 0.521666 0.893979
vt 0.521666 0.891576
vt 0.583957 0.891576
vt 0.583957 0.893979
vt 0.583957 0.833209
vt 0.521666 0.833209
vt 0.521666 0.850026
vt 0.583957 0.850026
vn 0.0000 -1.0000 0.0000
vn -0.0000 -0.0555 0.9985
vn 0.0000 0.0555 -0.9985
vn -0.9985 -0.0555 -0.0000
vn 0.9985 0.0555 0.0000
vn 0.0000 -0.0555 -0.9985
vn 0.0000 0.0555 0.9985
vn 0.7049 0.0783 -0.7049
vn 0.7049 0.0783 0.7049
vn 0.9985 -0.0555 0.0000
vn -0.9985 0.0555 0.0000
vn -0.7049 0.0783 -0.7049
vn -0.7049 0.0783 0.7049
vn 1.0000 0.0000 0.0000
vn 0.0000 1.0000 0.0000
vn -1.0000 0.0000 -0.0000
vn -0.7071 0.7071 0.0000
vn 0.7071 0.7071 0.0000
vn 0.4606 0.7588 -0.4606
vn 0.4606 0.7588 0.4606
vn 0.6861 0.6861 0.2418
vn 0.6861 0.6861 -0.2418
vn -0.7067 -0.0337 0.7067
vn 0.7050 0.0770 -0.7050
vn 0.2418 0.6861 -0.6861
vn 0.2418 0.6861 0.6861
vn 0.0000 0.0000 -1.0000
vn 0.0049 -0.0056 -1.0000
vn 0.7050 0.0770 0.7050
vn -0.7071 0.0000 -0.7071
vn -0.2418 0.6861 0.6861
vn -0.4606 0.7588 0.4606
vn -0.6861 0.6861 0.2418
vn -0.6861 0.6861 -0.2418
vn -0.4606 0.7588 -0.4606
vn -0.2418 0.6861 -0.6861
vn -0.9899 -0.1414 -0.0000
vn 0.0000 0.7071 -0.7071
vn 0.0099 -0.0112 -0.9999
vn -0.1998 -0.0628 0.9778
vn -0.0251 -0.0374 0.9990
vn -0.1978 -0.0625 0.9783
vn -0.3659 -0.0859 0.9267
vn 0.2511 0.6811 0.6878
vn 0.1910 0.6916 0.6966
vn -0.1230 0.6984 0.7051
vn -0.1065 0.7002 0.7060
vn 0.1287 0.6948 0.7076
vn 0.0857 0.6980 0.7109
vn 0.3326 -0.0631 0.9409
vn 0.3390 -0.0634 0.9386
vn 0.6321 -0.0715 0.7716
vn -0.0000 -0.0476 0.9989
vn 0.9899 -0.1414 0.0000
vn -0.7042 0.0908 -0.7042
vn 0.7071 0.0000 0.7071
vn -0.0079 -0.0113 0.9999
vn -0.0040 -0.0056 1.0000
vn 0.7067 -0.0337 -0.7067
vn -0.7042 0.0908 0.7042
vn -0.0000 0.7071 0.7071
vn -0.0000 0.0000 1.0000
vn -0.3541 -0.0627 -0.9331
vn -0.3471 -0.0625 -0.9357
vn 0.0000 -0.0476 -0.9989
vn -0.6563 -0.0696 -0.7513
vn 0.2823 0.6751 -0.6816
vn 0.2087 0.6891 -0.6940
vn -0.2087 0.6891 -0.6940
vn -0.2823 0.6751 -0.6816
vn 0.4861 0.6123 -0.6235
vn -0.4861 0.6123 -0.6235
vn 0.3528 -0.0564 -0.9340
vn 0.6563 -0.0696 -0.7513
vn 0.3597 -0.0568 -0.9313
vn 0.0119 -0.0366 -0.9993
usemtl texture
s 1
f 3/1/1 5/2/1 14/3/1 13/4/1
s 2
f 1/5/2 3/6/2 4/7/2 2/8/2
s 3
f 14/9/3 5/10/3 6/11/3 15/12/3
s 4
f 5/10/4 1/5/4 2/8/4 6/11/4
s 5
f 3/6/5 13/13/5 16/14/5 4/7/5
s 6
f 7/15/1 9/16/1 11/17/1
s 7
f 18/18/5 11/19/5 12/20/5 19/21/5
s 8
f 11/19/6 9/22/6 10/23/6 12/20/6
s 9
f 9/22/4 7/24/4 8/25/4 10/23/4
s 10
f 7/24/7 17/26/7 20/27/7 8/25/7
s 11
f 15/28/8 16/29/8 13/30/8 14/31/8
s 12
f 19/32/9 20/33/9 17/34/9 18/35/9
s 13
f 1/36/1 5/2/1 3/1/1
s 14
f 17/37/1 7/15/1 11/17/1 18/38/1
s 15
f 21/39/2 23/40/2 24/41/2 22/42/2
s 16
f 23/40/10 25/43/10 26/44/10 24/41/10
s 17
f 34/45/11 21/39/11 22/42/11 35/46/11
s 18
f 25/43/3 33/47/3 36/48/3 26/44/3
s 19
f 27/49/1 29/50/1 31/51/1
s 20
f 29/52/11 37/53/11 40/54/11 30/55/11
s 21
f 27/56/10 31/57/10 32/58/10 28/59/10
s 22
f 31/57/6 29/52/6 30/55/6 32/58/6
s 23
f 38/60/7 27/56/7 28/59/7 39/61/7
s 24
f 25/62/1 21/63/1 34/64/1 33/65/1
s 25
f 35/66/12 36/67/12 33/68/12 34/69/12
s 26
f 37/70/13 38/71/13 39/72/13 40/73/13
s 27
f 23/74/1 21/63/1 25/62/1
s 28
f 38/75/1 37/76/1 29/50/1 27/49/1
s 29
f 42/77/14 45/78/14 46/79/14 43/80/14
s 30
f 46/81/15 55/82/15 54/83/15 43/84/15
s 31
f 42/85/1 41/86/1 44/87/1 45/88/1
s 32
f 60/89/15 51/90/15 48/91/15 57/92/15
s 33
f 50/93/16 47/94/16 48/95/16 51/96/16
s 34
f 49/97/1 47/98/1 50/99/1 52/100/1
s 35
f 49/101/14 52/102/14 59/103/14 58/104/14
s 36
f 55/105/17 56/106/17 53/107/17 54/108/17
s 37
f 57/109/18 58/110/18 59/111/18 60/112/18
s 38
f 44/113/16 41/114/16 53/115/16 56/116/16
s 39
f 63/117/19 65/118/20 98/119/21 97/120/22
s 40
f 70/121/23 67/122/23 68/123/23
s 41
f 97/124/24 61/125/24 62/126/24
s 42
f 63/127/19 97/128/22 62/129/25
s 43
f 65/130/20 64/131/26 98/132/21
s 44
f 73/133/27 75/134/28 77/135/28 74/136/27
s 45
f 66/137/29 98/138/29 64/139/29
s 46
f 73/133/30 74/136/30 71/140/30
s 47
f 68/141/31 69/142/32 70/143/33
s 48
f 71/144/34 72/145/35 73/146/36
s 49
f 74/136/37 67/122/37 70/121/37 71/140/37
s 50
f 69/142/32 72/145/35 71/144/34 70/143/33
s 51
f 75/147/38 73/146/36 72/145/35 76/148/38
s 52
f 75/134/28 62/126/39 61/125/39 77/135/28
s 53
f 81/149/15 83/150/15 76/151/15
s 54
f 77/152/1 80/153/1 79/154/1
s 55
f 82/155/15 65/156/15 63/157/15 76/151/15
s 56
f 78/158/40 66/137/41 64/139/41 85/159/42
s 57
f 86/160/43 80/161/43 78/162/40 85/163/42
s 58
f 62/129/25 75/147/38 76/148/38 63/127/19
s 59
f 69/164/15 81/149/15 76/151/15 72/165/15
s 60
f 81/166/44 69/142/32 68/141/31 84/167/45
s 61
f 65/130/20 82/168/46 85/169/47 64/131/26
s 62
f 81/170/44 84/171/45 86/172/48 83/173/49
s 63
f 83/174/49 86/175/48 85/176/47 82/177/46
s 64
f 84/178/50 79/179/51 80/180/52 86/181/52
s 65
f 67/122/53 79/182/51 84/183/50 68/123/53
s 66
f 83/150/15 82/155/15 76/151/15
s 67
f 77/152/1 78/184/1 80/153/1
s 68
f 61/185/1 66/186/1 78/184/1 77/152/1
s 69
f 74/187/1 77/152/1 79/154/1 67/188/1
s 70
f 89/189/54 87/190/54 94/191/54 91/192/54
s 71
f 90/193/20 89/194/21 91/195/22 93/196/19
s 72
f 97/197/55 95/198/55 61/199/55
s 73
f 89/189/56 88/200/56 87/190/56
s 74
f 90/193/20 88/201/26 89/194/21
s 75
f 93/196/19 91/195/22 92/202/25
s 76
f 100/203/57 66/204/57 103/205/58 101/206/58
s 77
f 94/191/59 92/207/59 91/192/59
s 78
f 100/203/60 98/208/60 66/204/60
s 79
f 95/209/36 97/210/34 96/211/35
s 80
f 98/212/33 100/213/31 99/214/32
s 81
f 96/215/35 97/216/34 98/217/33 99/218/32
s 82
f 101/219/61 102/220/61 99/214/32 100/213/31
s 83
f 101/206/58 103/205/58 87/190/62 88/200/62
s 84
f 107/221/15 102/222/15 109/223/15
s 85
f 103/224/1 105/225/1 106/226/1
s 86
f 108/227/15 102/222/15 90/228/15 93/229/15
s 87
f 104/230/63 111/231/64 92/207/65 94/191/65
s 88
f 112/232/66 111/233/64 104/234/63 106/235/66
s 89
f 88/201/26 90/193/20 102/220/61 101/219/61
s 90
f 96/236/15 99/237/15 102/222/15 107/221/15
s 91
f 107/238/67 110/239/68 95/209/36 96/211/35
s 92
f 93/196/19 92/202/25 111/240/69 108/241/70
s 93
f 107/242/67 109/243/71 112/244/71 110/245/68
s 94
f 109/246/72 108/247/70 111/248/69 112/249/72
s 95
f 110/250/73 112/251/74 106/252/74 105/253/75
s 96
f 61/199/76 95/198/76 110/254/73 105/255/75
s 97
f 109/223/15 102/222/15 108/227/15
s 98
f 103/224/1 106/226/1 104/256/1
s 99
f 87/257/1 103/224/1 104/256/1 94/258/1
s 100
f 66/259/1 61/260/1 105/225/1 103/224/1
s 101
f 114/261/27 117/262/27 118/263/27 115/264/27
s 102
f 118/265/15 127/266/15 126/267/15 115/268/15
s 103
f 114/269/1 113/270/1 116/271/1 117/272/1
s 104
f 132/273/15 123/274/15 120/275/15 129/276/15
s 105
f 122/277/62 119/278/62 120/279/62 123/280/62
s 106
f 121/281/1 119/282/1 122/283/1 124/284/1
s 107
f 121/285/27 124/286/27 131/287/27 130/288/27
s 108
f 127/289/61 128/290/61 125/291/61 126/292/61
s 109
f 129/293/38 130/294/38 131/295/38 132/296/38
s 110
f 116/297/62 113/298/62 125/299/62 128/300/62
