# Blender v2.80 (sub 75) OBJ File: 'Dungeon_Remastered_Export1.0.blend'
# www.blender.org
mtllib torch.mtl
o torch_Cylinder.330
v -0.000000 0.211064 -0.136843
v -0.052529 0.403172 -0.021758
v 0.136843 0.211064 -0.000000
v 0.000000 0.211064 0.136843
v -0.136843 0.211064 0.000000
v 0.000012 0.158564 -0.061909
v 0.061917 0.158564 -0.000005
v 0.000012 0.158564 0.061899
v -0.061892 0.158564 -0.000005
v 0.000012 -0.259774 -0.061909
v 0.061917 -0.259774 -0.000005
v 0.000012 -0.259774 0.061899
v -0.061892 -0.259774 -0.000005
v 0.000007 -0.395046 -0.000003
v 0.000007 -0.384416 -0.036354
v 0.036358 -0.384416 -0.000003
v 0.000007 -0.384416 0.036348
v -0.036343 -0.384416 -0.000003
v 0.056682 0.291172 -0.136843
v -0.056682 0.291172 -0.136843
v 0.136843 0.291172 -0.056682
v 0.136843 0.291172 0.056682
v 0.056682 0.291172 0.136843
v -0.056682 0.291172 0.136843
v -0.136843 0.291172 0.056682
v -0.136843 0.291172 -0.056682
v -0.041711 0.315172 0.000000
v 0.000000 0.315172 0.041711
v 0.041711 0.315172 0.000000
v -0.000000 0.315172 -0.041711
v -0.052529 0.403172 0.021758
v -0.021758 0.403172 0.052529
v 0.021758 0.403172 0.052529
v 0.052529 0.403172 0.021758
v 0.052529 0.403172 -0.021758
v 0.021758 0.403172 -0.052529
v -0.021758 0.403172 -0.052529
v 0.000000 0.435172 0.000000
v 0.000000 0.490999 -0.136041
v 0.096196 0.490999 -0.096196
v 0.136041 0.490999 0.000000
v 0.096196 0.490999 0.096196
v -0.000000 0.490999 0.136041
v -0.096196 0.490999 0.096196
v -0.136041 0.490999 -0.000000
v -0.096196 0.490999 -0.096196
v -0.000001 0.439994 -0.185603
v 0.131241 0.439994 -0.131241
v 0.134900 0.540319 -0.134900
v 0.000000 0.540319 -0.190777
v 0.185602 0.439994 0.000000
v 0.190777 0.540319 0.000000
v 0.131241 0.439994 0.131242
v 0.134900 0.540319 0.134900
v -0.000001 0.439994 0.185603
v -0.000000 0.540319 0.190777
v -0.131242 0.439994 0.131242
v -0.134900 0.540319 0.134900
v -0.185604 0.439994 0.000000
v -0.190777 0.540319 0.000000
v -0.131242 0.439994 -0.131241
v -0.134900 0.540319 -0.134900
v 0.000002 0.490999 -0.215756
v 0.152564 0.490999 -0.152563
v 0.215758 0.490999 -0.000001
v 0.152564 0.490999 0.152561
v 0.000002 0.490999 0.215754
v -0.152560 0.490999 0.152561
v -0.215753 0.490999 -0.000001
v -0.152560 0.490999 -0.152563
v -0.045776 0.284165 -0.194551
v 0.045775 0.284165 -0.194551
v -0.045776 0.284165 0.194551
v 0.045775 0.284165 0.194551
v 0.194551 0.284165 -0.045775
v 0.194551 0.284165 0.045775
v -0.194551 0.284165 -0.045775
v -0.194551 0.284165 0.045775
v -0.045776 0.490999 -0.146049
v -0.045776 0.490999 -0.220921
v 0.045775 0.490999 -0.220921
v 0.045775 0.490999 -0.146049
v -0.045776 0.490999 0.220921
v -0.045776 0.490999 0.146049
v 0.045775 0.490999 0.146049
v 0.045775 0.490999 0.220921
v 0.146049 0.490999 -0.045775
v 0.220921 0.490999 -0.045775
v 0.220921 0.490999 0.045775
v 0.146049 0.490999 0.045775
v -0.220921 0.490999 -0.045775
v -0.146049 0.490999 -0.045775
v -0.146049 0.490999 0.045775
v -0.220921 0.490999 0.045775
v -0.045776 0.646559 -0.211425
v -0.045776 0.619607 -0.275142
v 0.045775 0.619607 -0.275142
v 0.045775 0.646559 -0.211425
v -0.045776 0.619607 0.275142
v -0.045776 0.646559 0.211425
v 0.045775 0.646559 0.211425
v 0.045775 0.619607 0.275142
v 0.211425 0.646559 -0.045775
v 0.275142 0.619607 -0.045775
v 0.275142 0.619607 0.045775
v 0.211425 0.646559 0.045775
v -0.275142 0.619607 -0.045775
v -0.211425 0.646559 -0.045775
v -0.211425 0.646559 0.045775
v -0.275142 0.619607 0.045775
vt 0.189276 0.834024
vt 0.189276 0.851291
vt 0.202395 0.851291
vt 0.202395 0.834024
vt 0.202395 0.851291
vt 0.189276 0.851291
vt 0.189276 0.834024
vt 0.170722 0.834024
vt 0.170722 0.851291
vt 0.157606 0.851291
vt 0.157606 0.834024
vt 0.157606 0.851291
vt 0.170722 0.851291
vt 0.170722 0.834024
vt 0.189276 0.824116
vt 0.202395 0.824116
vt 0.190132 0.812801
vt 0.184198 0.812801
vt 0.157606 0.824116
vt 0.170722 0.824116
vt 0.175803 0.812801
vt 0.169873 0.812801
vt 0.170722 0.824116
vt 0.175803 0.812801
vt 0.189276 0.824116
vt 0.184198 0.812801
vt 0.920412 0.916698
vt 0.926342 0.916698
vt 0.926342 0.833299
vt 0.920412 0.833299
vt 0.926342 0.916698
vt 0.926342 0.833299
vt 0.940671 0.916698
vt 0.934737 0.916698
vt 0.934737 0.833299
vt 0.940671 0.833299
vt 0.934737 0.916698
vt 0.934737 0.833299
vt 0.920412 0.817674
vt 0.926342 0.817674
vt 0.928076 0.797276
vt 0.924589 0.797276
vt 0.926342 0.817674
vt 0.928076 0.797276
vt 0.940671 0.817674
vt 0.934737 0.817674
vt 0.933003 0.797276
vt 0.936486 0.797276
vt 0.934737 0.817674
vt 0.933003 0.797276
vt 0.930538 0.779911
vt 0.933003 0.781651
vt 0.936486 0.781651
vt 0.933003 0.781651
vt 0.928076 0.781651
vt 0.924589 0.781651
vt 0.928076 0.781651
vt 0.182830 0.897622
vt 0.186830 0.897622
vt 0.202395 0.892449
vt 0.189276 0.892449
vt 0.202395 0.892449
vt 0.182830 0.897622
vt 0.189276 0.892449
vt 0.177172 0.897622
vt 0.170722 0.892449
vt 0.173172 0.897622
vt 0.157606 0.892449
vt 0.157606 0.892449
vt 0.907348 0.828556
vt 0.902311 0.828556
vt 0.898749 0.835453
vt 0.170722 0.892449
vt 0.901580 0.762714
vt 0.905580 0.762714
vt 0.907348 0.781681
vt 0.902311 0.781681
vt 0.177172 0.897622
vt 0.891922 0.762714
vt 0.895922 0.762714
vt 0.895190 0.781681
vt 0.890150 0.781681
vt 0.895922 0.762714
vt 0.890150 0.781681
vt 0.895190 0.781681
vt 0.902311 0.781681
vt 0.907348 0.781681
vt 0.901580 0.762714
vt 0.890150 0.828556
vt 0.890150 0.828556
vt 0.895190 0.828556
vt 0.902311 0.828556
vt 0.907348 0.828556
vt 0.895190 0.828556
vt 0.192869 0.891990
vt 0.191945 0.902803
vt 0.208841 0.902803
vt 0.211069 0.891990
vt 0.208841 0.902803
vt 0.211069 0.891990
vt 0.191945 0.902803
vt 0.192869 0.891990
vt 0.168053 0.902803
vt 0.167133 0.891990
vt 0.151156 0.902803
vt 0.148932 0.891990
vt 0.151156 0.902803
vt 0.148932 0.891990
vt 0.168377 0.840021
vt 0.191621 0.840021
vt 0.188519 0.902803
vt 0.171483 0.902803
vt 0.168053 0.902803
vt 0.167133 0.891990
vt 0.200567 0.902803
vt 0.200567 0.902803
vt 0.208065 0.840021
vt 0.208065 0.840021
vt 0.188519 0.928336
vt 0.200567 0.928336
vt 0.208841 0.928336
vt 0.191945 0.928336
vt 0.188519 0.902803
vt 0.191621 0.840021
vt 0.200567 0.928336
vt 0.208841 0.928336
vt 0.171483 0.902803
vt 0.168377 0.840021
vt 0.188519 0.928336
vt 0.191945 0.928336
vt 0.159431 0.902803
vt 0.151937 0.840021
vt 0.171483 0.928336
vt 0.168053 0.928336
vt 0.159431 0.902803
vt 0.151937 0.840021
vt 0.159431 0.928336
vt 0.151156 0.928336
vt 0.159431 0.928336
vt 0.151156 0.928336
vt 0.171483 0.928336
vt 0.168053 0.928336
vt 0.168377 0.865554
vt 0.167133 0.876365
vt 0.192869 0.876365
vt 0.191621 0.865554
vt 0.151937 0.865554
vt 0.148932 0.876365
vt 0.151937 0.865554
vt 0.148932 0.876365
vt 0.168377 0.865554
vt 0.167133 0.876365
vt 0.191621 0.865554
vt 0.192869 0.876365
vt 0.208065 0.865554
vt 0.211069 0.876365
vt 0.208065 0.865554
vt 0.211069 0.876365
vt 0.170722 0.830712
vt 0.172508 0.829202
vt 0.170722 0.818590
vt 0.172508 0.849781
vt 0.187489 0.849781
vt 0.187489 0.829202
vt 0.189276 0.830712
vt 0.148159 0.849781
vt 0.148159 0.849781
vt 0.143847 0.894347
vt 0.143847 0.894347
vt 0.172508 0.829202
vt 0.170722 0.830712
vt 0.189276 0.830712
vt 0.187489 0.829202
vt 0.189276 0.818590
vt 0.187489 0.849781
vt 0.172508 0.849781
vt 0.202395 0.830712
vt 0.211838 0.829202
vt 0.216155 0.873768
vt 0.203899 0.873441
vt 0.202395 0.830712
vt 0.211838 0.829202
vt 0.202395 0.818590
vt 0.211838 0.849781
vt 0.211838 0.849781
vt 0.172508 0.894020
vt 0.187489 0.894020
vt 0.148159 0.829202
vt 0.157606 0.830712
vt 0.157606 0.830712
vt 0.148159 0.829202
vt 0.157606 0.818590
vt 0.172508 0.873441
vt 0.172508 0.873768
vt 0.225029 0.922081
vt 0.225029 0.922081
vt 0.216155 0.894347
vt 0.216155 0.894347
vt 0.134973 0.922081
vt 0.134973 0.922081
vt 0.187489 0.922081
vt 0.172508 0.922081
vt 0.172508 0.894347
vt 0.187489 0.894347
vt 0.187489 0.894020
vt 0.172508 0.894020
vt 0.203899 0.873441
vt 0.216155 0.873768
vt 0.156099 0.894020
vt 0.156099 0.894020
vt 0.172508 0.894347
vt 0.187489 0.894347
vt 0.187489 0.873441
vt 0.187489 0.873768
vt 0.203899 0.894020
vt 0.203899 0.894020
vt 0.172508 0.873768
vt 0.172508 0.873441
vt 0.156099 0.873441
vt 0.143847 0.873768
vt 0.187489 0.873768
vt 0.187489 0.873441
vt 0.143847 0.873768
vt 0.156099 0.873441
vt 0.172508 0.901502
vt 0.172508 0.907311
vt 0.214602 0.907311
vt 0.225029 0.901502
vt 0.134973 0.901502
vt 0.145400 0.907311
vt 0.187489 0.907311
vt 0.187489 0.901502
vt 0.145400 0.907311
vt 0.134973 0.901502
vt 0.187489 0.927890
vt 0.172508 0.927890
vt 0.214602 0.927890
vt 0.214602 0.927890
vt 0.172508 0.927890
vt 0.187489 0.927890
vt 0.145400 0.927890
vt 0.145400 0.927890
vt 0.187489 0.901502
vt 0.187489 0.907311
vt 0.225029 0.901502
vt 0.214602 0.907311
vt 0.172508 0.922081
vt 0.187489 0.922081
vt 0.172508 0.969049
vt 0.187489 0.969049
vt 0.187489 0.963239
vt 0.172508 0.963239
vt 0.172508 0.963239
vt 0.187489 0.963239
vt 0.187489 0.969049
vt 0.172508 0.969049
vt 0.214602 0.969049
vt 0.214602 0.969049
vt 0.225029 0.963239
vt 0.225029 0.963239
vt 0.134973 0.963239
vt 0.134973 0.963239
vt 0.145400 0.969049
vt 0.145400 0.969049
vt 0.172508 0.907311
vt 0.172508 0.901502
vn 0.6480 -0.5899 -0.4817
vn 0.8731 -0.3593 -0.3296
vn 0.3296 -0.3593 -0.8731
vn 0.4817 -0.5899 -0.6480
vn 0.4817 -0.5899 0.6480
vn 0.3296 -0.3593 0.8731
vn 0.8731 -0.3593 0.3296
vn 0.6480 -0.5899 0.4817
vn -0.6480 -0.5900 0.4817
vn -0.8731 -0.3593 0.3296
vn -0.3296 -0.3593 0.8731
vn -0.4817 -0.5900 0.6480
vn -0.4817 -0.5900 -0.6480
vn -0.3296 -0.3593 -0.8731
vn -0.8731 -0.3593 -0.3296
vn -0.6480 -0.5900 -0.4817
vn 0.4977 -0.7103 -0.4977
vn -0.4976 -0.7104 -0.4976
vn -0.4976 -0.7105 0.4976
vn 0.4977 -0.7103 0.4977
vn -0.7071 0.0000 -0.7071
vn -0.7054 -0.0685 -0.7054
vn -0.7071 0.0000 0.7071
vn -0.7054 -0.0685 0.7054
vn 0.7071 -0.0000 0.7071
vn 0.7054 -0.0685 0.7054
vn 0.7071 -0.0000 -0.7071
vn 0.7054 -0.0685 -0.7054
vn -0.6998 -0.1435 -0.6998
vn -0.6998 -0.1434 0.6998
vn 0.6998 -0.1435 0.6998
vn 0.6998 -0.1435 -0.6998
vn -0.0000 -1.0000 -0.0000
vn 0.0000 -0.9598 -0.2807
vn 0.2807 -0.9598 0.0000
vn -0.0000 -0.9598 0.2807
vn -0.2807 -0.9598 -0.0000
vn -0.0000 0.9843 -0.1763
vn 0.1763 0.9843 0.0000
vn 0.1949 0.9770 -0.0866
vn 0.0866 0.9770 -0.1949
vn 0.1949 0.9770 0.0866
vn 0.0000 0.9843 0.1763
vn 0.0866 0.9770 0.1949
vn -0.0866 0.9770 0.1949
vn -0.1763 0.9843 0.0000
vn -0.1949 0.9770 0.0866
vn -0.1949 0.9770 -0.0866
vn 0.4531 0.8715 -0.1877
vn 0.1877 0.8715 -0.4531
vn -0.0000 1.0000 0.0000
vn -0.0866 0.9770 -0.1949
vn 0.0000 -0.3075 0.9516
vn 0.9516 -0.3075 0.0000
vn 0.8876 -0.2104 0.4098
vn 0.4098 -0.2104 0.8876
vn -0.9516 -0.3075 0.0000
vn -0.4098 -0.2104 0.8876
vn -0.8876 -0.2104 0.4098
vn 0.0000 -0.3075 -0.9516
vn -0.8876 -0.2104 -0.4098
vn -0.4098 -0.2104 -0.8876
vn 0.4098 -0.2104 -0.8876
vn 0.8876 -0.2104 -0.4098
vn -0.4531 0.8715 -0.1877
vn -0.4531 0.8715 0.1877
vn -0.1877 0.8715 0.4531
vn 0.1877 0.8715 0.4531
vn 0.4531 0.8715 0.1877
vn -0.1877 0.8715 -0.4531
vn 0.0000 0.4518 -0.8921
vn 0.6308 0.4518 -0.6308
vn 0.8921 0.4518 0.0000
vn 0.6308 0.4518 0.6308
vn -0.0000 0.4518 0.8921
vn -0.6308 0.4518 0.6308
vn -0.8921 0.4518 0.0000
vn 0.5071 -0.6969 0.5071
vn 0.0000 -0.6969 0.7172
vn -0.6308 0.4518 -0.6308
vn -0.7172 -0.6969 0.0000
vn -0.5071 -0.6969 0.5071
vn 0.0000 0.7429 0.6694
vn -0.4733 0.7429 0.4733
vn -0.5071 -0.6969 -0.5071
vn -0.6694 0.7429 -0.0000
vn -0.0000 -0.6969 -0.7172
vn -0.4733 0.7429 -0.4733
vn 0.5071 -0.6969 -0.5071
vn 0.0000 0.7429 -0.6694
vn 0.7172 -0.6969 0.0000
vn 0.4733 0.7429 -0.4733
vn 0.6694 0.7429 0.0000
vn 0.4733 0.7429 0.4733
vn -0.6087 -0.5089 -0.6087
vn 0.0000 -0.5089 -0.8608
vn -0.8609 -0.5089 0.0000
vn -0.6087 -0.5089 0.6087
vn -0.0000 -0.5089 0.8608
vn 0.6087 -0.5089 0.6087
vn 0.8608 -0.5089 0.0000
vn 0.6087 -0.5089 -0.6087
vn -0.9649 -0.2477 -0.0876
vn 0.0000 -0.6196 -0.7849
vn 0.0000 -0.3432 -0.9393
vn 0.9649 -0.2477 -0.0876
vn -0.9393 -0.3432 -0.0000
vn -0.9656 -0.2599 -0.0000
vn -0.9649 -0.2477 0.0876
vn 0.9649 -0.2477 0.0876
vn 0.0000 -0.6196 0.7849
vn 0.0000 -0.3432 0.9393
vn 0.0876 -0.2477 0.9649
vn 0.0351 0.0082 0.9993
vn 0.0481 0.0113 0.9988
vn 0.0876 -0.2477 -0.9649
vn 0.7849 -0.6196 0.0000
vn 0.9393 -0.3432 0.0000
vn 0.0000 0.0460 -0.9989
vn 0.0000 0.2172 -0.9761
vn -0.0876 -0.2477 -0.9649
vn -0.0876 -0.2477 0.9649
vn -0.7849 -0.6196 0.0000
vn -0.9988 0.0113 -0.0481
vn -0.9993 0.0082 -0.0351
vn 0.9215 -0.3885 -0.0000
vn 0.9656 -0.2599 -0.0000
vn -0.9215 -0.3885 -0.0000
vn 0.0000 -0.3885 0.9215
vn 0.0000 -0.2599 0.9656
vn -0.0000 0.0460 0.9989
vn -0.0000 0.2172 0.9761
vn 0.0481 0.0113 -0.9988
vn 0.0351 0.0082 -0.9993
vn 0.9989 0.0460 0.0000
vn 0.9761 0.2172 0.0000
vn 0.0000 -0.2599 -0.9656
vn 0.9988 0.0113 0.0481
vn 0.9993 0.0082 0.0351
vn -0.9989 0.0460 -0.0000
vn -0.9761 0.2172 -0.0000
vn -0.9993 0.0082 0.0351
vn -0.9988 0.0113 0.0481
vn -0.0481 0.0113 0.9988
vn -0.0351 0.0082 0.9993
vn 0.9993 0.0082 -0.0351
vn 0.9988 0.0113 -0.0481
vn -0.0351 0.0082 -0.9993
vn -0.0481 0.0113 -0.9988
vn -1.0000 -0.0000 0.0000
vn 0.0000 -0.0000 -1.0000
vn 1.0000 -0.0000 0.0000
vn -0.0000 -0.0000 1.0000
vn -0.0000 0.3874 0.9219
vn -0.9219 0.3874 -0.0000
vn 0.0000 0.3874 -0.9219
vn 0.9219 0.3874 0.0000
vn 0.0000 -0.3885 -0.9215
vn 0.0000 0.9210 -0.3896
vn 0.0000 0.9210 0.3896
vn 0.3896 0.9210 0.0000
vn -0.3896 0.9210 -0.0000
usemtl texture
s 1
f 1/1/1 19/2/2 21/3/3 3/4/4
s 2
f 3/4/5 22/5/6 23/6/7 4/7/8
s 3
f 4/8/9 24/9/10 25/10/11 5/11/12
s 4
f 5/11/13 26/12/14 20/13/15 1/14/16
s 5
f 1/15/1 3/16/4 7/17/17 6/18/17
s 6
f 5/19/13 1/20/16 6/21/18 9/22/18
s 7
f 4/23/9 5/19/12 9/22/19 8/24/19
s 8
f 3/16/5 4/25/8 8/26/20 7/17/20
s 9
f 9/27/21 6/28/21 10/29/22 13/30/22
s 10
f 8/31/23 9/27/23 13/30/24 12/32/24
s 11
f 7/33/25 8/34/25 12/35/26 11/36/26
s 12
f 6/37/27 7/33/27 11/36/28 10/38/28
s 13
f 13/39/22 10/40/22 15/41/29 18/42/29
s 14
f 12/43/24 13/39/24 18/42/30 17/44/30
s 15
f 11/45/26 12/46/26 17/47/31 16/48/31
s 16
f 10/49/28 11/45/28 16/48/32 15/50/32
s 17
f 14/51/33 15/52/34 16/53/35
s 18
f 14/51/33 16/53/35 17/54/36
s 19
f 14/51/33 17/55/36 18/56/37
s 20
f 14/51/33 18/56/37 15/57/34
s 21
f 30/58/38 29/59/39 21/60/40 19/61/41
s 22
f 29/59/39 22/62/42 21/60/40
s 23
f 29/59/39 28/63/43 23/64/44 22/62/42
s 24
f 28/65/43 24/66/45 23/64/44
s 25
f 28/65/43 27/67/46 25/68/47 24/66/45
s 26
f 27/67/46 26/69/48 25/68/47
s 27
f 35/70/49 36/71/50 38/72/51
s 28
f 30/58/38 19/61/41 20/73/52
s 29
f 28/74/53 29/75/54 34/76/55 33/77/56
s 30
f 27/67/46 30/78/38 20/73/52 26/69/48
s 31
f 27/79/57 28/80/53 32/81/58 31/82/59
s 32
f 30/83/60 27/79/57 2/84/61 37/85/62
s 33
f 30/83/60 37/85/62 36/86/63
s 34
f 29/75/54 35/87/64 34/76/55
s 35
f 28/74/53 33/77/56 32/81/58
s 36
f 27/79/57 31/82/59 2/84/61
s 37
f 29/75/54 30/88/60 36/86/63 35/87/64
s 38
f 2/89/65 31/90/66 38/72/51
s 39
f 32/91/67 33/92/68 38/72/51
s 40
f 34/93/69 35/70/49 38/72/51
s 41
f 36/71/50 37/94/70 38/72/51
s 42
f 37/94/70 2/89/65 38/72/51
s 43
f 31/90/66 32/91/67 38/72/51
s 44
f 33/92/68 34/93/69 38/72/51
s 45
f 63/95/71 50/96/71 49/97/72 64/98/72
s 46
f 64/98/72 49/97/72 52/99/73 65/100/73
s 47
f 65/100/73 52/99/73 54/101/74 66/102/74
s 48
f 66/102/74 54/101/74 56/103/75 67/104/75
s 49
f 67/104/75 56/103/75 58/105/76 68/106/76
s 50
f 68/106/76 58/105/76 60/107/77 69/108/77
s 51
f 61/109/78 47/110/79 39/111/79 46/112/78
s 52
f 69/108/77 60/107/77 62/113/80 70/114/80
s 53
f 70/114/80 62/113/80 50/96/71 63/95/71
s 54
f 41/115/81 40/116/82 48/117/82 51/118/81
s 55
f 39/119/83 40/120/84 49/121/84 50/122/83
s 56
f 42/123/85 41/115/81 51/118/81 53/124/85
s 57
f 40/120/84 41/125/86 52/126/86 49/121/84
s 58
f 43/127/87 42/123/85 53/124/85 55/128/87
s 59
f 41/125/86 42/129/88 54/130/88 52/126/86
s 60
f 44/131/89 43/127/87 55/128/87 57/132/89
s 61
f 42/129/88 43/133/90 56/134/90 54/130/88
s 62
f 45/135/91 44/131/89 57/132/89 59/136/91
s 63
f 43/133/90 44/137/92 58/138/92 56/134/90
s 64
f 59/136/91 61/109/78 46/112/78 45/135/91
s 65
f 44/137/92 45/139/93 60/140/93 58/138/92
s 66
f 45/139/93 46/141/94 62/142/94 60/140/93
s 67
f 46/141/94 39/119/83 50/122/83 62/142/94
s 68
f 61/143/95 70/144/95 63/145/96 47/146/96
s 69
f 59/147/97 69/148/97 70/144/95 61/143/95
s 70
f 57/149/98 68/150/98 69/148/97 59/147/97
s 71
f 55/151/99 67/152/99 68/150/98 57/149/98
s 72
f 53/153/100 66/154/100 67/152/99 55/151/99
s 73
f 51/155/101 65/156/101 66/154/100 53/153/100
s 74
f 48/157/102 64/158/102 65/156/101 51/155/101
s 75
f 47/146/96 63/145/96 64/158/102 48/157/102
s 76
f 20/159/15 71/160/103 1/14/16
s 77
f 1/161/104 71/162/105 72/163/105
s 78
f 1/1/1 72/164/106 19/165/2
s 79
f 77/166/107 78/167/107 94/168/108 91/169/108
s 80
f 4/8/9 73/170/109 24/171/10
s 81
f 23/172/7 74/173/110 4/7/8
s 82
f 4/174/111 74/175/112 73/176/112
s 83
f 22/177/6 76/178/113 89/179/114 90/180/115
s 84
f 21/181/3 75/182/116 3/4/4
s 85
f 3/183/117 75/184/118 76/185/118
s 86
f 3/4/5 76/178/113 22/177/6
s 87
f 23/6/119 24/9/119 84/186/120 85/187/120
s 88
f 5/11/13 77/188/121 26/189/14
s 89
f 25/190/11 78/191/122 5/11/12
s 90
f 5/192/123 78/167/107 77/166/107
s 91
f 71/160/103 20/159/15 79/193/124 80/194/125
s 92
f 104/195/126 105/196/126 89/197/127 88/198/127
s 93
f 110/199/128 107/200/128 91/169/108 94/168/108
s 94
f 102/201/129 99/202/129 83/203/130 86/204/130
s 95
f 20/13/131 19/2/131 82/205/132 79/206/132
s 96
f 75/182/116 21/181/3 87/207/133 88/208/134
s 97
f 25/10/135 26/12/135 92/209/136 93/210/136
s 98
f 72/163/105 71/162/105 80/211/137 81/212/137
s 99
f 74/173/110 23/172/7 85/213/138 86/214/139
s 100
f 21/3/140 22/5/140 90/215/141 87/216/141
s 101
f 24/171/10 73/170/109 83/217/142 84/218/143
s 102
f 76/185/118 75/184/118 88/198/127 89/197/127
s 103
f 78/191/122 25/190/11 93/219/144 94/220/145
s 104
f 19/165/2 72/164/106 81/221/146 82/222/147
s 105
f 73/176/112 74/175/112 86/204/130 83/203/130
s 106
f 26/189/14 77/188/121 91/223/148 92/224/149
s 107
f 99/225/150 100/226/150 84/218/143 83/217/142
s 108
f 103/227/151 104/228/151 88/208/134 87/207/133
s 109
f 107/229/151 108/230/151 92/224/149 91/223/148
s 110
f 101/231/152 102/232/152 86/214/139 85/213/138
s 111
f 109/233/153 110/234/153 94/220/145 93/219/144
s 112
f 98/235/154 95/236/154 79/206/132 82/205/132
s 113
f 106/237/155 103/238/155 87/216/141 90/215/141
s 114
f 100/239/156 101/240/156 85/187/120 84/186/120
s 115
f 108/241/157 109/242/157 93/210/136 92/209/136
s 116
f 97/243/152 98/244/152 82/222/147 81/221/146
s 117
f 105/245/153 106/246/153 90/180/115 89/179/114
s 118
f 96/247/158 97/248/158 81/212/137 80/211/137
s 119
f 95/249/159 98/250/159 97/251/159 96/252/159
s 120
f 99/253/160 102/254/160 101/255/160 100/256/160
s 121
f 103/257/161 106/258/161 105/259/161 104/260/161
s 122
f 107/261/162 110/262/162 109/263/162 108/264/162
s 123
f 80/194/125 79/193/124 95/265/150 96/266/150
s 124
f 40/116/82 39/111/79 47/110/79 48/117/82
