# Blender v2.80 (sub 75) OBJ File: 'Dungeon_Remastered_Export1.0.blend'
# www.blender.org
mtllib trunk_medium_A.mtl
o trunk_medium_A_Cube.412
v -0.442751 -0.000000 0.337679
v -0.459635 0.240146 0.336302
v -0.442751 -0.000000 -0.337680
v -0.459635 0.240146 -0.336303
v 0.442751 -0.000000 0.337679
v 0.459635 0.240146 0.336302
v 0.442751 -0.000000 -0.337680
v 0.459635 0.240146 -0.336303
v 0.383433 0.240146 -0.270144
v 0.442751 -0.000000 -0.270144
v -0.442751 0.240146 0.270255
v -0.442751 0.240146 -0.270256
v -0.442751 -0.000000 0.270143
v 0.442751 -0.000000 0.270143
v -0.383433 0.240146 -0.270144
v -0.442751 -0.000000 -0.270144
v -0.383433 0.240146 0.270143
v 0.442751 0.240146 0.270255
v 0.442751 0.240146 -0.270256
v 0.383433 0.240146 0.270143
v 0.116447 0.240146 -0.337680
v 0.116447 -0.000000 0.337679
v 0.116447 -0.000000 -0.337680
v 0.116447 0.240146 0.337679
v -0.116447 -0.000000 -0.337680
v -0.116447 0.240146 0.337679
v -0.116447 0.240146 -0.337680
v -0.116447 -0.000000 0.337679
v 0.116447 0.240146 0.388331
v -0.116447 0.240146 0.388331
v -0.116447 0.240146 -0.388332
v 0.116447 0.240146 -0.388332
v -0.442751 0.413538 0.270367
v -0.442751 0.413538 -0.270368
v 0.442751 0.413538 0.270367
v 0.442751 0.413538 -0.270368
v 0.476519 0.240146 -0.405217
v 0.476519 0.240146 0.405214
v 0.476519 0.413538 -0.334925
v 0.476519 0.413538 0.334924
v -0.476519 0.240146 0.405214
v -0.476519 0.240146 -0.405217
v -0.476519 0.413538 -0.334925
v -0.476519 0.413538 0.334924
v 0.085909 0.413538 -0.437526
v -0.085909 0.413538 0.437525
v 0.085909 0.413538 0.437525
v -0.085909 0.413538 -0.437526
v 0.476519 0.413538 -0.396813
v 0.476519 0.413538 0.396810
v -0.476519 0.413538 -0.396813
v -0.476519 0.413538 0.396810
v -0.116276 0.413538 0.385878
v 0.116276 0.413538 0.385878
v 0.116276 0.413538 -0.385880
v -0.116276 0.413538 -0.385880
v 0.442751 0.511395 -0.157244
v -0.085802 0.726469 -0.243022
v -0.476519 0.563374 -0.178056
v 0.085802 0.726469 -0.243022
v -0.476519 0.620416 -0.203402
v 0.476519 0.563374 -0.178056
v 0.116149 0.652893 -0.198043
v 0.476519 0.620416 -0.203402
v -0.116149 0.652893 -0.198043
v -0.442751 0.511395 -0.157244
v -0.442751 0.511395 0.157242
v 0.476519 0.563374 0.178054
v -0.085802 0.726469 0.243020
v 0.085802 0.726469 0.243020
v -0.116149 0.652893 0.198041
v -0.476519 0.563374 0.178054
v 0.476519 0.620416 0.203400
v 0.442751 0.511395 0.157242
v -0.476519 0.620416 0.203400
v 0.116149 0.652893 0.198041
vt 0.596964 0.769995
vt 0.596964 0.825002
vt 0.596964 0.825002
vt 0.596964 0.769995
vt 0.567403 0.785620
vt 0.567403 0.871877
vt 0.565039 0.871877
vt 0.565039 0.785620
vt 0.565039 0.809377
vt 0.563856 0.754370
vt 0.563856 0.809377
vt 0.593417 0.785620
vt 0.593417 0.871877
vt 0.595782 0.871877
vt 0.595782 0.785620
vt 0.565039 0.754370
vt 0.567403 0.754370
vt 0.563856 0.754370
vt 0.565039 0.754370
vt 0.565039 0.809377
vt 0.563856 0.809377
vt 0.596964 0.754370
vt 0.595782 0.754370
vt 0.593417 0.754370
vt 0.595782 0.856252
vt 0.595782 0.856252
vt 0.595782 0.769995
vt 0.595782 0.769995
vt 0.563856 0.769995
vt 0.563856 0.825002
vt 0.563856 0.825002
vt 0.563856 0.769995
vt 0.596964 0.769995
vt 0.596964 0.825002
vt 0.596964 0.825002
vt 0.596964 0.769995
vt 0.595782 0.754370
vt 0.595782 0.809377
vt 0.596964 0.809377
vt 0.596964 0.754370
vt 0.595782 0.754370
vt 0.593417 0.754370
vt 0.595782 0.809377
vt 0.596964 0.754370
vt 0.596964 0.809377
vt 0.565039 0.785620
vt 0.565039 0.871877
vt 0.567403 0.871877
vt 0.567403 0.785620
vt 0.565039 0.754370
vt 0.567403 0.754370
vt 0.563856 0.754370
vt 0.565039 0.769995
vt 0.565039 0.856252
vt 0.565039 0.856252
vt 0.565039 0.769995
vt 0.595782 0.785620
vt 0.595782 0.871877
vt 0.593417 0.871877
vt 0.593417 0.785620
vt 0.176953 0.779310
vt 0.132312 0.779310
vt 0.135447 0.848512
vt 0.173818 0.848512
vt 0.176953 0.822359
vt 0.176953 0.769150
vt 0.176953 0.835334
vt 0.132312 0.835334
vt 0.132312 0.769150
vt 0.132312 0.822359
vt 0.132312 0.822359
vt 0.132312 0.769150
vt 0.132312 0.835334
vt 0.185641 0.862278
vt 0.185623 0.833959
vt 0.222918 0.833959
vt 0.222901 0.862278
vt 0.176953 0.769150
vt 0.176953 0.822359
vt 0.176953 0.835334
vt 0.542257 0.796520
vt 0.542257 0.786015
vt 0.543671 0.780212
vt 0.543671 0.797413
vt 0.518910 0.814088
vt 0.518910 0.814088
vt 0.517495 0.816476
vt 0.517495 0.816476
vt 0.532747 0.792988
vt 0.532747 0.792988
vt 0.532747 0.792988
vt 0.532747 0.792988
vt 0.518910 0.796520
vt 0.517495 0.797413
vt 0.543671 0.798564
vt 0.538733 0.797955
vt 0.538728 0.871409
vt 0.543671 0.862336
vt 0.542257 0.796520
vt 0.542257 0.814088
vt 0.543671 0.816476
vt 0.543671 0.797413
vt 0.543671 0.829814
vt 0.543671 0.893586
vt 0.538728 0.871409
vt 0.538733 0.797955
vt 0.522433 0.860455
vt 0.517495 0.829814
vt 0.517495 0.811462
vt 0.522426 0.811462
vt 0.518910 0.796520
vt 0.517495 0.797413
vt 0.517495 0.795837
vt 0.517495 0.813038
vt 0.517495 0.814189
vt 0.517495 0.795837
vt 0.542257 0.786015
vt 0.543671 0.780212
vt 0.522438 0.871409
vt 0.517495 0.862336
vt 0.517495 0.798564
vt 0.522433 0.797955
vt 0.538733 0.860455
vt 0.543671 0.829814
vt 0.543671 0.811462
vt 0.538740 0.811462
vt 0.184290 0.820097
vt 0.185641 0.821639
vt 0.185653 0.845897
vt 0.184303 0.833992
vt 0.517495 0.861064
vt 0.522433 0.860455
vt 0.522426 0.811462
vt 0.517495 0.811462
vt 0.542257 0.814088
vt 0.543671 0.816476
vt 0.518910 0.786015
vt 0.517495 0.780212
vt 0.518910 0.786015
vt 0.517495 0.780212
vt 0.517495 0.832101
vt 0.517495 0.832101
vt 0.517495 0.836294
vt 0.517495 0.836294
vt 0.543671 0.795837
vt 0.543671 0.795837
vt 0.543671 0.814189
vt 0.543671 0.813038
vt 0.185641 0.862278
vt 0.222901 0.862278
vt 0.222918 0.833959
vt 0.185623 0.833959
vt 0.532747 0.792988
vt 0.532747 0.792988
vt 0.532747 0.792988
vt 0.532747 0.792988
vt 0.532747 0.792988
vt 0.532747 0.792988
vt 0.532747 0.792988
vt 0.532747 0.792988
vt 0.532747 0.792988
vt 0.532747 0.792988
vt 0.532747 0.792988
vt 0.532747 0.792988
vt 0.543671 0.795837
vt 0.543671 0.813038
vt 0.543671 0.814189
vt 0.543671 0.795837
vt 0.517495 0.795837
vt 0.517495 0.795837
vt 0.517495 0.814189
vt 0.517495 0.813038
vt 0.184303 0.833992
vt 0.185653 0.845897
vt 0.185641 0.821639
vt 0.184290 0.820097
vt 0.224239 0.833992
vt 0.224251 0.820097
vt 0.222901 0.821639
vt 0.222888 0.845897
vt 0.222918 0.813640
vt 0.543671 0.836294
vt 0.543671 0.832101
vt 0.222888 0.886535
vt 0.185653 0.886535
vt 0.222888 0.845897
vt 0.224239 0.833992
vt 0.222888 0.886535
vt 0.185653 0.886535
vt 0.543671 0.832101
vt 0.543671 0.836294
vt 0.176953 0.779310
vt 0.173818 0.848512
vt 0.135447 0.848512
vt 0.132312 0.779310
vt 0.184273 0.808560
vt 0.224269 0.808560
vt 0.224251 0.820097
vt 0.222901 0.821639
vt 0.185623 0.813640
vt 0.517495 0.893586
vt 0.522438 0.871409
vt 0.522433 0.797955
vt 0.517495 0.829814
vt 0.543671 0.861064
vt 0.538733 0.860455
vt 0.538740 0.811462
vt 0.543671 0.811462
vt 0.543671 0.831086
vt 0.538728 0.840159
vt 0.538728 0.840159
vt 0.543671 0.862336
vt 0.223020 0.771438
vt 0.193698 0.771438
vt 0.193698 0.771438
vt 0.223020 0.771438
vt 0.564201 0.802834
vt 0.564201 0.823650
vt 0.564201 0.823650
vt 0.564201 0.802834
vt 0.564201 0.802834
vt 0.564201 0.823650
vt 0.564201 0.823650
vt 0.564201 0.802834
vt 0.563856 0.769995
vt 0.563856 0.825002
vt 0.563856 0.825002
vt 0.563856 0.769995
vt 0.522438 0.840159
vt 0.517495 0.862336
vt 0.517495 0.831086
vt 0.522438 0.840159
vt 0.564201 0.856880
vt 0.564201 0.856880
vt 0.564201 0.856880
vt 0.564201 0.856880
vt 0.542257 0.774259
vt 0.542257 0.774259
vt 0.595782 0.774259
vt 0.595782 0.774259
vt 0.565039 0.774259
vt 0.563856 0.774259
vt 0.518910 0.774259
vt 0.565039 0.774259
vn 0.9915 -0.0352 -0.1253
vn 0.9686 -0.0412 -0.2450
vn 0.9684 -0.0413 -0.2461
vn -0.0021 0.0028 1.0000
vn -0.0019 0.0005 -1.0000
vn 0.0021 0.0028 -1.0000
vn 0.0000 -1.0000 0.0000
vn -0.0019 0.0005 1.0000
vn 0.9708 0.2398 0.0000
vn -0.9915 -0.0352 -0.1253
vn -0.9684 -0.0413 -0.2461
vn -0.9686 -0.0412 -0.2450
vn 0.9915 -0.0352 0.1253
vn 0.9684 -0.0413 0.2461
vn 0.9686 -0.0412 0.2450
vn 0.0019 0.0005 -1.0000
vn 0.0019 0.0005 1.0000
vn -0.0021 0.0028 -1.0000
vn -0.9708 0.2398 0.0000
vn 0.0021 0.0028 1.0000
vn 0.0000 -0.2064 -0.9785
vn 0.0000 -0.2379 -0.9713
vn 1.0000 0.0000 0.0000
vn -1.0000 0.0000 0.0000
vn 0.0000 -0.2729 0.9620
vn 0.0000 -0.2379 0.9713
vn 0.8806 -0.2763 0.3850
vn 0.9066 -0.1872 0.3782
vn -0.8461 -0.4954 0.1965
vn -0.8461 -0.4954 -0.1965
vn -0.8460 -0.4948 -0.1986
vn -0.8460 -0.4948 0.1986
vn -0.8806 -0.2763 0.3850
vn -0.9066 -0.1872 0.3782
vn -0.0142 0.3586 -0.9334
vn -0.0139 0.3630 -0.9317
vn 0.0121 0.6495 -0.7602
vn 0.8806 -0.2763 -0.3850
vn 0.8461 -0.4954 -0.1965
vn 0.8460 -0.4948 -0.1986
vn 0.9066 -0.1872 -0.3782
vn -0.0142 0.3586 0.9334
vn 0.0121 0.6495 0.7602
vn -0.0139 0.3630 0.9317
vn 0.0139 0.3630 0.9317
vn 0.0142 0.3586 0.9334
vn 0.0386 0.0313 0.9988
vn -0.8806 -0.2763 -0.3850
vn -0.9066 -0.1872 -0.3782
vn -0.9904 -0.0518 0.1278
vn -0.9985 -0.0206 0.0508
vn -0.9958 -0.0345 0.0851
vn -0.0121 0.6495 0.7602
vn -0.0386 0.0312 -0.9988
vn -0.8895 0.1522 0.4308
vn -0.8861 0.1249 0.4463
vn -0.9266 0.3221 0.1940
vn -0.9278 0.3272 0.1791
vn 0.0142 0.3586 -0.9334
vn 0.0139 0.3630 -0.9317
vn 0.0386 0.0312 -0.9988
vn 0.8461 -0.4954 0.1965
vn 0.8460 -0.4948 0.1986
vn -0.9686 -0.0412 0.2450
vn -0.9684 -0.0413 0.2461
vn 0.9904 -0.0518 0.1278
vn 0.9958 -0.0345 0.0851
vn 0.9985 -0.0206 0.0508
vn 0.0000 -0.2729 -0.9620
vn 0.9904 -0.0518 -0.1279
vn 0.9985 -0.0206 -0.0508
vn 0.9958 -0.0345 -0.0851
vn -0.9904 -0.0518 -0.1278
vn -0.9958 -0.0345 -0.0851
vn -0.9985 -0.0206 -0.0508
vn -0.9278 0.3272 -0.1791
vn -0.9266 0.3221 -0.1940
vn -0.8861 0.1249 -0.4463
vn -0.8895 0.1522 -0.4308
vn 0.9278 0.3272 -0.1791
vn 0.8895 0.1522 -0.4308
vn 0.8861 0.1249 -0.4463
vn 0.9266 0.3221 -0.1940
vn 0.8620 0.0080 -0.5068
vn -0.0000 0.5279 0.8493
vn 0.9266 0.3221 0.1940
vn 0.9278 0.3272 0.1791
vn 0.0000 0.5279 -0.8493
vn 0.0000 -0.2064 0.9785
vn -0.8620 0.0080 -0.5068
vn 0.8620 0.0080 0.5068
vn 0.8895 0.1522 0.4308
vn 0.8861 0.1249 0.4463
vn -0.8620 0.0080 0.5068
vn -0.0121 0.6495 -0.7602
vn -0.0386 0.0313 0.9988
vn 0.0898 0.9960 -0.0000
vn -0.9915 -0.0352 0.1253
vn 0.0000 1.0000 -0.0000
vn -0.0898 0.9960 0.0000
usemtl texture
s 1
f 14/1/1 18/2/2 6/3/3 5/4/1
s 2
f 28/5/4 26/6/4 2/7/4 1/8/4
s 3
f 17/9/5 13/10/5 11/11/5
s 4
f 23/12/6 21/13/6 8/14/6 7/15/6
s 5
f 13/16/7 28/17/7 1/18/7
s 6
f 16/19/8 15/20/8 12/21/8
s 7
f 14/22/7 5/23/7 22/24/7
s 8
f 9/25/9 20/26/9 14/27/9 10/28/9
s 9
f 1/29/10 2/30/11 11/31/12 13/32/10
s 10
f 7/33/13 8/34/14 19/35/15 10/36/13
s 11
f 14/37/16 20/38/16 18/39/16
s 12
f 7/40/7 10/41/7 23/42/7
s 13
f 9/43/17 10/44/17 19/45/17
s 14
f 3/46/18 4/47/18 27/48/18 25/49/18
s 15
f 3/50/7 25/51/7 16/52/7
s 16
f 13/53/19 17/54/19 15/55/19 16/56/19
s 17
f 14/37/7 22/24/7 23/42/7 10/41/7
s 18
f 28/17/7 13/16/7 16/19/7 25/51/7
s 19
f 5/57/20 6/58/20 24/59/20 22/60/20
s 20
f 23/61/21 25/62/21 31/63/22 32/64/22
s 21
f 29/65/23 22/66/23 24/67/23
s 22
f 26/68/24 28/69/24 30/70/24
s 23
f 31/71/24 25/72/24 27/73/24
s 24
f 46/74/25 30/75/26 29/76/26 47/77/25
s 25
f 23/78/23 32/79/23 21/80/23
s 26
f 36/81/27 19/82/15 8/83/14 39/84/28
s 27
f 66/85/29 67/86/30 72/87/31 59/88/32
s 28
f 8/89/7 21/90/7 32/91/7 37/92/7
s 29
f 34/93/33 66/85/29 59/88/32 43/94/34
s 30
f 49/95/35 55/96/36 63/97/37 64/98/37
s 31
f 35/99/38 74/100/39 68/101/40 40/102/41
s 32
f 50/103/42 73/104/43 76/105/43 54/106/44
s 33
f 53/107/45 52/108/46 41/109/47 30/110/47
s 34
f 67/86/30 33/111/48 44/112/49 72/87/31
s 35
f 4/113/50 43/114/51 51/115/52 42/116/50
s 36
f 18/117/2 35/99/38 40/102/41 6/118/3
s 37
f 71/119/53 75/120/53 52/121/46 53/122/45
s 38
f 55/123/36 49/124/35 37/125/54 32/126/54
s 39
f 53/127/55 46/128/56 69/129/57 71/130/58
s 40
f 51/131/59 56/132/60 31/133/61 42/134/61
s 41
f 74/100/39 57/135/62 62/136/63 68/101/40
s 42
f 33/111/48 11/137/12 2/138/11 44/112/49
s 43
f 12/139/64 34/93/33 43/94/34 4/140/65
s 44
f 59/141/24 72/142/24 75/143/24 61/144/24
s 45
f 8/145/66 37/146/66 49/147/67 39/148/68
s 46
f 48/149/69 45/150/69 32/151/22 31/152/22
s 47
f 6/153/7 38/154/7 29/155/7 24/156/7
s 48
f 26/157/7 30/158/7 41/159/7 2/160/7
s 49
f 27/161/7 4/162/7 42/163/7 31/164/7
s 50
f 6/165/70 40/166/71 50/167/72 38/168/70
s 51
f 2/169/73 41/170/73 52/171/74 44/172/75
s 52
f 43/114/51 59/141/24 61/144/24 51/115/52
s 53
f 65/173/76 58/174/77 48/175/78 56/176/79
s 54
f 63/177/80 55/178/81 45/179/82 60/180/83
s 55
f 55/178/81 32/181/84 45/179/82
s 56
f 39/148/68 49/147/67 64/182/23 62/183/23
s 57
f 46/74/85 47/77/85 70/184/85 69/185/85
s 58
f 63/177/80 60/180/83 70/186/86 76/187/87
s 59
f 60/188/88 45/150/88 48/149/88 58/189/88
s 60
f 40/166/71 68/190/23 73/191/23 50/167/72
s 61
f 22/192/89 29/193/26 30/194/26 28/195/89
s 62
f 72/142/24 44/172/75 52/171/74 75/143/24
s 63
f 56/176/79 48/175/78 31/196/90
s 64
f 29/197/91 54/198/92 47/199/93
s 65
f 47/199/93 54/198/92 76/187/87 70/186/86
s 66
f 53/127/55 30/200/94 46/128/56
s 67
f 61/201/95 65/202/95 56/203/60 51/204/59
s 68
f 50/205/42 54/206/44 29/207/96 38/208/96
s 69
f 64/209/97 63/210/97 76/211/97 73/212/97
s 70
f 22/213/7 28/214/7 25/215/7 23/216/7
s 71
f 19/217/23 36/218/23 35/219/23 18/220/23
s 72
f 11/221/24 33/222/24 34/223/24 12/224/24
s 73
f 16/225/98 12/226/64 4/227/65 3/228/98
s 74
f 58/189/99 69/185/99 70/184/99 60/188/99
s 75
f 68/190/23 62/183/23 64/182/23 73/191/23
s 76
f 65/229/100 61/230/100 75/231/100 71/232/100
s 77
f 57/135/62 36/81/27 39/84/28 62/136/63
s 78
f 36/218/23 57/233/23 74/234/23 35/219/23
s 79
f 33/222/24 67/235/24 66/236/24 34/223/24
s 80
f 19/237/7 18/238/7 20/239/7 9/240/7
s 81
f 17/241/7 11/242/7 12/243/7 15/244/7
s 82
f 65/173/76 71/130/58 69/129/57 58/174/77
