# Blender v2.80 (sub 75) OBJ File: 'Dungeon_Remastered_Export1.0.blend'
# www.blender.org
mtllib trunk_small_C.mtl
o trunk_small_C_Cube.454
v -0.315167 -0.000000 0.225119
v -0.326423 0.180095 0.224201
v -0.315167 -0.000000 -0.225120
v -0.326423 0.180095 -0.224202
v 0.315167 -0.000000 0.225119
v 0.326424 0.180095 0.224201
v 0.315167 -0.000000 -0.225120
v 0.326424 0.180095 -0.224202
v 0.275622 0.180096 -0.180096
v 0.315167 -0.000000 -0.180096
v -0.315167 0.180096 0.180170
v -0.315167 0.180096 -0.180171
v -0.315167 -0.000000 0.180096
v 0.315167 -0.000000 0.180096
v -0.275622 0.180096 -0.180096
v -0.315167 -0.000000 -0.180096
v -0.275622 0.180096 0.180096
v 0.315167 0.180096 0.180170
v 0.315167 0.180096 -0.180171
v 0.275622 0.180096 0.180096
v 0.112560 -0.000000 -0.225120
v -0.112560 -0.000000 -0.225120
v -0.112560 0.180096 -0.225120
v 0.112560 0.180096 -0.225120
v -0.112560 -0.000000 0.225119
v 0.112560 -0.000000 0.225119
v 0.112560 0.180096 0.225119
v -0.112560 0.180096 0.225119
v 0.247632 0.180096 -0.225120
v 0.247632 -0.000000 0.225119
v 0.247632 -0.000000 -0.225120
v 0.247632 0.180096 0.225119
v -0.247632 -0.000000 -0.225120
v -0.247632 0.180096 0.225119
v -0.247632 0.180096 -0.225120
v -0.247632 -0.000000 0.225119
v 0.247632 0.180096 0.258887
v 0.112560 0.180096 0.258887
v -0.112560 0.180096 0.258887
v -0.247632 0.180096 0.258887
v -0.247632 0.180096 -0.258888
v -0.112560 0.180096 -0.258888
v 0.112560 0.180096 -0.258888
v 0.247632 0.180096 -0.258888
v -0.315167 0.293519 0.180244
v -0.315167 0.293519 -0.180245
v 0.315167 0.293519 0.180244
v 0.315167 0.293519 -0.180245
v 0.337680 0.180095 -0.270144
v 0.337680 0.180095 0.270143
v 0.337680 0.299073 -0.223284
v 0.337680 0.299073 0.223283
v -0.337679 0.180095 0.270143
v -0.337679 0.180095 -0.270144
v -0.337679 0.299073 -0.223284
v -0.337679 0.299073 0.223283
v 0.227272 0.317184 -0.291684
v 0.132919 0.317184 -0.291684
v -0.132919 0.317183 0.291683
v -0.227272 0.317183 0.291683
v 0.227272 0.317183 0.291683
v 0.132919 0.317183 0.291683
v -0.227272 0.317184 -0.291684
v -0.132919 0.317184 -0.291684
v 0.337680 0.306225 -0.264542
v 0.337680 0.306225 0.264540
v -0.337679 0.306225 -0.264542
v -0.337679 0.306225 0.264540
v -0.247517 0.302438 0.257252
v -0.112674 0.302438 0.257252
v 0.112674 0.302438 0.257252
v 0.247517 0.302438 0.257252
v 0.112674 0.302438 -0.257253
v 0.247517 0.302438 -0.257253
v -0.247517 0.302438 -0.257253
v -0.112674 0.302438 -0.257253
v 0.315167 0.370930 -0.104829
v -0.132990 0.484312 -0.162015
v -0.227201 0.484312 -0.162015
v -0.337679 0.405583 -0.118704
v 0.227201 0.484312 -0.162015
v -0.337679 0.443611 -0.135601
v 0.337680 0.405583 -0.118704
v 0.247432 0.435262 -0.132029
v 0.337680 0.443611 -0.135601
v -0.247432 0.435262 -0.132029
v -0.315167 0.370930 -0.104829
v 0.132990 0.484312 -0.162015
v -0.112759 0.435262 -0.132029
v 0.112759 0.435262 -0.132029
v -0.315167 0.370930 0.104828
v 0.337680 0.405583 0.118703
v -0.132990 0.484312 0.162013
v -0.227201 0.484312 0.162013
v 0.227201 0.484312 0.162013
v 0.132990 0.484312 0.162013
v -0.247432 0.435262 0.132027
v -0.112759 0.435262 0.132027
v -0.337679 0.405583 0.118703
v 0.337680 0.443611 0.135600
v 0.315167 0.370930 0.104828
v -0.337679 0.443611 0.135600
v 0.247432 0.435262 0.132027
v 0.112759 0.435262 0.132027
vt 0.602019 0.848120
vt 0.602019 0.903127
vt 0.602019 0.903127
vt 0.602019 0.848120
vt 0.568698 0.863745
vt 0.568698 0.950002
vt 0.566032 0.950002
vt 0.566032 0.863745
vt 0.566032 0.887502
vt 0.564699 0.832495
vt 0.564699 0.887502
vt 0.598020 0.863745
vt 0.598020 0.950002
vt 0.600686 0.950002
vt 0.600686 0.863745
vt 0.566032 0.832495
vt 0.568698 0.832495
vt 0.564699 0.832495
vt 0.566032 0.832495
vt 0.566032 0.887502
vt 0.564699 0.887502
vt 0.602019 0.832495
vt 0.600686 0.832495
vt 0.598020 0.832495
vt 0.600686 0.934377
vt 0.600686 0.934377
vt 0.600686 0.848120
vt 0.600686 0.848120
vt 0.564699 0.848120
vt 0.564699 0.903127
vt 0.564699 0.903127
vt 0.564699 0.848120
vt 0.602019 0.848120
vt 0.602019 0.903127
vt 0.602019 0.903127
vt 0.602019 0.848120
vt 0.600686 0.832495
vt 0.600686 0.887502
vt 0.602019 0.887502
vt 0.602019 0.832495
vt 0.600686 0.832495
vt 0.598020 0.832495
vt 0.600686 0.887502
vt 0.602019 0.832495
vt 0.602019 0.887502
vt 0.566032 0.863745
vt 0.566032 0.950002
vt 0.568698 0.950002
vt 0.568698 0.863745
vt 0.566032 0.832495
vt 0.568698 0.832495
vt 0.564699 0.832495
vt 0.566032 0.848120
vt 0.566032 0.934377
vt 0.566032 0.934377
vt 0.566032 0.848120
vt 0.576695 0.863745
vt 0.576695 0.950002
vt 0.590023 0.950002
vt 0.590023 0.863745
vt 0.576695 0.832495
vt 0.590023 0.832495
vt 0.590023 0.832495
vt 0.576695 0.832495
vt 0.590023 0.863745
vt 0.590023 0.950002
vt 0.576695 0.950002
vt 0.576695 0.863745
vt 0.223020 0.845542
vt 0.215023 0.845542
vt 0.215023 0.845542
vt 0.223020 0.845542
vt 0.600686 0.863745
vt 0.600686 0.950002
vt 0.598020 0.950002
vt 0.598020 0.863745
vt 0.201695 0.845542
vt 0.193698 0.845542
vt 0.193698 0.845542
vt 0.201695 0.845542
vt 0.153216 0.912077
vt 0.153216 0.842552
vt 0.153216 0.929031
vt 0.176953 0.912077
vt 0.176953 0.842552
vt 0.176953 0.929031
vt 0.132312 0.929031
vt 0.132312 0.842552
vt 0.132312 0.912077
vt 0.132312 0.912077
vt 0.132312 0.842552
vt 0.132312 0.929031
vt 0.156049 0.912077
vt 0.156049 0.842552
vt 0.156049 0.929031
vt 0.153216 0.855827
vt 0.132312 0.855827
vt 0.135447 0.946250
vt 0.150080 0.946250
vt 0.176953 0.855827
vt 0.156049 0.855827
vt 0.159185 0.946250
vt 0.173818 0.946250
vt 0.176953 0.842552
vt 0.176953 0.912077
vt 0.176953 0.929031
vt 0.156049 0.929031
vt 0.156049 0.842552
vt 0.156049 0.912077
vt 0.153216 0.929031
vt 0.153216 0.842552
vt 0.153216 0.912077
vt 0.540352 0.874645
vt 0.540352 0.864140
vt 0.541946 0.858337
vt 0.541946 0.875538
vt 0.514035 0.892213
vt 0.514035 0.892213
vt 0.512441 0.894601
vt 0.512441 0.894601
vt 0.529632 0.871113
vt 0.529632 0.871113
vt 0.529632 0.871113
vt 0.529632 0.871113
vt 0.514035 0.874645
vt 0.512441 0.875538
vt 0.541946 0.876689
vt 0.536380 0.876080
vt 0.536374 0.949534
vt 0.541946 0.940461
vt 0.540352 0.874645
vt 0.540352 0.892213
vt 0.541946 0.894601
vt 0.541946 0.875538
vt 0.199282 0.927278
vt 0.197931 0.942833
vt 0.197944 0.911137
vt 0.199295 0.909122
vt 0.529481 0.876080
vt 0.524906 0.876080
vt 0.524900 0.949534
vt 0.529487 0.949534
vt 0.541946 0.907939
vt 0.541946 0.971711
vt 0.536374 0.949534
vt 0.536380 0.876080
vt 0.518007 0.938580
vt 0.512441 0.907939
vt 0.512441 0.889587
vt 0.517999 0.889587
vt 0.514035 0.874645
vt 0.512441 0.875538
vt 0.512441 0.873962
vt 0.512441 0.891163
vt 0.512441 0.892314
vt 0.512441 0.873962
vt 0.529632 0.871113
vt 0.529632 0.871113
vt 0.529632 0.871113
vt 0.529632 0.871113
vt 0.540352 0.864140
vt 0.541946 0.858337
vt 0.529481 0.938580
vt 0.524906 0.938580
vt 0.524914 0.889587
vt 0.529474 0.889587
vt 0.518013 0.949534
vt 0.512441 0.940461
vt 0.512441 0.876689
vt 0.518007 0.876080
vt 0.536380 0.938580
vt 0.541946 0.907939
vt 0.541946 0.889587
vt 0.536388 0.889587
vt 0.524900 0.918284
vt 0.529487 0.918284
vt 0.529487 0.918284
vt 0.524900 0.918284
vt 0.184290 0.909122
vt 0.185641 0.911137
vt 0.185653 0.942833
vt 0.184303 0.927278
vt 0.512441 0.939189
vt 0.518007 0.938580
vt 0.517999 0.889587
vt 0.512441 0.889587
vt 0.529481 0.876080
vt 0.529487 0.949534
vt 0.524900 0.949534
vt 0.524906 0.876080
vt 0.540352 0.892213
vt 0.541946 0.894601
vt 0.514035 0.864140
vt 0.512441 0.858337
vt 0.514035 0.864140
vt 0.512441 0.858337
vt 0.512441 0.910226
vt 0.512441 0.910226
vt 0.512441 0.914419
vt 0.512441 0.914419
vt 0.210598 0.911137
vt 0.209247 0.909122
vt 0.209260 0.927278
vt 0.210610 0.942833
vt 0.541946 0.873962
vt 0.541946 0.873962
vt 0.541946 0.892314
vt 0.541946 0.891163
vt 0.524906 0.938580
vt 0.529481 0.938580
vt 0.529474 0.889587
vt 0.524914 0.889587
vt 0.185641 0.964237
vt 0.185653 0.995933
vt 0.197931 0.995933
vt 0.197944 0.964237
vt 0.529632 0.871113
vt 0.529632 0.871113
vt 0.529632 0.871113
vt 0.529632 0.871113
vt 0.529632 0.871113
vt 0.529632 0.871113
vt 0.529632 0.871113
vt 0.529632 0.871113
vt 0.529632 0.871113
vt 0.529632 0.871113
vt 0.529632 0.871113
vt 0.529632 0.871113
vt 0.529632 0.871113
vt 0.529632 0.871113
vt 0.529632 0.871113
vt 0.529632 0.871113
vt 0.541946 0.873962
vt 0.541946 0.891163
vt 0.541946 0.892314
vt 0.541946 0.873962
vt 0.512441 0.873962
vt 0.512441 0.873962
vt 0.512441 0.892314
vt 0.512441 0.891163
vt 0.184303 0.927278
vt 0.185653 0.942833
vt 0.185641 0.911137
vt 0.184290 0.909122
vt 0.199312 0.894047
vt 0.224239 0.927278
vt 0.224251 0.909122
vt 0.222901 0.911137
vt 0.222888 0.942833
vt 0.222918 0.900684
vt 0.210580 0.900684
vt 0.210598 0.911137
vt 0.209247 0.909122
vt 0.199295 0.909122
vt 0.197944 0.911137
vt 0.197931 0.942833
vt 0.199282 0.927278
vt 0.541946 0.914419
vt 0.541946 0.910226
vt 0.210580 0.927234
vt 0.210598 0.964237
vt 0.222901 0.964237
vt 0.222918 0.927234
vt 0.185623 0.927234
vt 0.197961 0.927234
vt 0.185653 0.995933
vt 0.197931 0.995933
vt 0.222888 0.942833
vt 0.224239 0.927278
vt 0.210598 0.964237
vt 0.210580 0.927234
vt 0.222918 0.927234
vt 0.222901 0.964237
vt 0.185641 0.964237
vt 0.185623 0.927234
vt 0.197961 0.927234
vt 0.197944 0.964237
vt 0.541946 0.910226
vt 0.541946 0.914419
vt 0.210610 0.995933
vt 0.210610 0.995933
vt 0.222888 0.995933
vt 0.222888 0.995933
vt 0.209230 0.894047
vt 0.197961 0.900684
vt 0.184273 0.894047
vt 0.224269 0.894047
vt 0.224251 0.909122
vt 0.222901 0.911137
vt 0.185623 0.900684
vt 0.512441 0.971711
vt 0.518013 0.949534
vt 0.518007 0.876080
vt 0.512441 0.907939
vt 0.541946 0.939189
vt 0.536380 0.938580
vt 0.536388 0.889587
vt 0.541946 0.889587
vt 0.541946 0.909211
vt 0.536374 0.918284
vt 0.536374 0.918284
vt 0.541946 0.940461
vt 0.209260 0.927278
vt 0.210610 0.942833
vt 0.565088 0.880959
vt 0.565088 0.901775
vt 0.565088 0.901775
vt 0.565088 0.880959
vt 0.565088 0.880959
vt 0.565088 0.901775
vt 0.565088 0.901775
vt 0.565088 0.880959
vt 0.564699 0.848120
vt 0.564699 0.903127
vt 0.564699 0.903127
vt 0.564699 0.848120
vt 0.132312 0.855827
vt 0.153216 0.855827
vt 0.150080 0.946250
vt 0.135447 0.946250
vt 0.176953 0.855827
vt 0.173818 0.946250
vt 0.159185 0.946250
vt 0.156049 0.855827
vt 0.518013 0.918284
vt 0.512441 0.940461
vt 0.512441 0.909211
vt 0.518013 0.918284
vt 0.565088 0.935005
vt 0.565088 0.935005
vt 0.565088 0.935005
vt 0.565088 0.935005
vt 0.540352 0.852384
vt 0.540352 0.852384
vt 0.600686 0.852384
vt 0.600686 0.852384
vt 0.566032 0.852384
vt 0.564699 0.852384
vt 0.514035 0.852384
vt 0.566032 0.852384
vn 0.9916 -0.0313 -0.1253
vn 0.9691 -0.0392 -0.2437
vn 0.9688 -0.0392 -0.2447
vn -0.0063 0.0024 1.0000
vn -0.0019 0.0004 -1.0000
vn 0.0063 0.0024 -1.0000
vn 0.0000 -1.0000 0.0000
vn -0.0019 0.0004 1.0000
vn 0.9767 0.2145 0.0000
vn -0.9916 -0.0313 -0.1253
vn -0.9688 -0.0392 -0.2447
vn -0.9691 -0.0392 -0.2437
vn 0.9916 -0.0313 0.1253
vn 0.9688 -0.0392 0.2447
vn 0.9691 -0.0392 0.2437
vn 0.0019 0.0004 -1.0000
vn 0.0019 0.0004 1.0000
vn -0.0063 0.0024 -1.0000
vn -0.9767 0.2145 0.0000
vn 0.0000 0.0000 -1.0000
vn 0.0000 0.0000 1.0000
vn 0.0063 0.0024 1.0000
vn 1.0000 0.0000 0.0000
vn -1.0000 0.0000 0.0000
vn 0.0000 -0.1843 -0.9829
vn 0.0000 -0.2074 -0.9783
vn 0.8926 -0.2381 0.3828
vn 0.9064 -0.1888 0.3779
vn -0.8571 -0.4740 0.2018
vn -0.8571 -0.4740 -0.2018
vn -0.8571 -0.4756 -0.1980
vn -0.8571 -0.4756 0.1980
vn -0.8926 -0.2381 0.3828
vn -0.9064 -0.1888 0.3779
vn -0.1029 0.3817 -0.9185
vn -0.1029 0.3786 -0.9198
vn -0.0896 0.6824 -0.7255
vn 0.8926 -0.2381 -0.3828
vn 0.8571 -0.4740 -0.2018
vn 0.8571 -0.4756 -0.1980
vn 0.9064 -0.1888 -0.3779
vn 0.9319 0.3316 0.1471
vn 0.9310 0.3231 0.1697
vn 0.9041 0.1610 0.3958
vn 0.8998 0.1369 0.4142
vn 0.0000 0.3754 -0.9269
vn 0.0000 0.6860 -0.7276
vn -0.1029 0.3817 0.9185
vn -0.0896 0.6824 0.7255
vn -0.1029 0.3786 0.9198
vn 0.1029 0.3786 0.9198
vn 0.1029 0.3817 0.9185
vn 0.1029 0.0289 0.9943
vn -0.8926 -0.2381 -0.3828
vn -0.9064 -0.1888 -0.3779
vn -0.9911 -0.0488 0.1239
vn -0.9982 -0.0217 0.0551
vn -0.9969 -0.0290 0.0737
vn 0.0000 0.3754 0.9269
vn 0.0000 0.0134 0.9999
vn 0.0896 0.6824 0.7255
vn -0.1029 0.0289 -0.9943
vn 0.0000 1.0000 0.0000
vn -0.8998 0.1369 0.4142
vn -0.9041 0.1610 0.3958
vn -0.9310 0.3231 0.1697
vn -0.9319 0.3316 0.1471
vn 0.1029 0.3817 -0.9185
vn 0.1029 0.3786 -0.9198
vn 0.1029 0.0289 -0.9943
vn 0.0000 0.6860 0.7276
vn 0.8571 -0.4740 0.2018
vn 0.8571 -0.4756 0.1980
vn -0.9691 -0.0392 0.2437
vn -0.9688 -0.0392 0.2447
vn -0.9041 0.1610 -0.3959
vn -0.8998 0.1368 -0.4142
vn -0.9319 0.3316 -0.1471
vn -0.9310 0.3231 -0.1697
vn 0.9911 -0.0488 0.1239
vn 0.9969 -0.0290 0.0737
vn 0.9982 -0.0217 0.0551
vn 0.0000 0.0134 -0.9999
vn 0.0000 0.6130 -0.7901
vn 0.9911 -0.0488 -0.1239
vn 0.9982 -0.0217 -0.0551
vn 0.9969 -0.0290 -0.0737
vn -0.9911 -0.0488 -0.1239
vn -0.9969 -0.0290 -0.0737
vn -0.9982 -0.0217 -0.0551
vn 0.8634 0.0076 0.5044
vn 0.9319 0.3316 -0.1471
vn 0.8998 0.1368 -0.4142
vn 0.9041 0.1610 -0.3959
vn 0.9310 0.3231 -0.1697
vn 0.8634 0.0075 -0.5044
vn -0.8634 0.0076 0.5044
vn 0.0000 -0.2327 -0.9726
vn 0.0000 -0.2327 0.9726
vn 0.0000 -0.2074 0.9783
vn -0.8634 0.0075 -0.5044
vn 0.0896 0.6824 -0.7255
vn -0.1029 0.0289 0.9943
vn -0.0921 0.9957 -0.0000
vn -0.9916 -0.0313 0.1253
vn 0.0000 -0.1843 0.9829
vn 0.0000 0.6130 0.7901
vn 0.0921 0.9957 0.0000
usemtl texture
s 1
f 14/1/1 18/2/2 6/3/3 5/4/1
s 2
f 36/5/4 34/6/4 2/7/4 1/8/4
s 3
f 17/9/5 13/10/5 11/11/5
s 4
f 31/12/6 29/13/6 8/14/6 7/15/6
s 5
f 13/16/7 36/17/7 1/18/7
s 6
f 16/19/8 15/20/8 12/21/8
s 7
f 14/22/7 5/23/7 30/24/7
s 8
f 9/25/9 20/26/9 14/27/9 10/28/9
s 9
f 1/29/10 2/30/11 11/31/12 13/32/10
s 10
f 7/33/13 8/34/14 19/35/15 10/36/13
s 11
f 14/37/16 20/38/16 18/39/16
s 12
f 7/40/7 10/41/7 31/42/7
s 13
f 9/43/17 10/44/17 19/45/17
s 14
f 3/46/18 4/47/18 35/48/18 33/49/18
s 15
f 3/50/7 33/51/7 16/52/7
s 16
f 13/53/19 17/54/19 15/55/19 16/56/19
s 17
f 22/57/20 23/58/20 24/59/20 21/60/20
s 18
f 22/61/7 21/62/7 26/63/7 25/64/7
s 19
f 14/37/7 30/24/7 31/42/7 10/41/7
s 20
f 26/65/21 27/66/21 28/67/21 25/68/21
s 21
f 30/69/7 26/70/7 21/71/7 31/72/7
s 22
f 36/17/7 13/16/7 16/19/7 33/51/7
s 23
f 5/73/22 6/74/22 32/75/22 30/76/22
s 24
f 25/77/7 36/78/7 33/79/7 22/80/7
s 25
f 39/81/23 25/82/23 28/83/23
s 26
f 37/84/23 30/85/23 32/86/23
s 27
f 34/87/24 36/88/24 40/89/24
s 28
f 41/90/24 33/91/24 35/92/24
s 29
f 43/93/24 21/94/24 24/95/24
s 30
f 22/96/25 33/97/25 41/98/26 42/99/26
s 31
f 31/100/25 21/101/25 43/102/26 44/103/26
s 32
f 31/104/23 44/105/23 29/106/23
s 33
f 27/107/24 26/108/24 38/109/24
s 34
f 23/110/23 22/111/23 42/112/23
s 35
f 48/113/27 19/114/15 8/115/14 51/116/28
s 36
f 87/117/29 91/118/30 99/119/31 80/120/32
s 37
f 8/121/7 29/122/7 44/123/7 49/124/7
s 38
f 46/125/33 87/117/29 80/120/32 55/126/34
s 39
f 65/127/35 74/128/36 84/129/37 85/130/37
s 40
f 47/131/38 101/132/39 92/133/40 52/134/41
s 41
f 98/135/42 93/136/43 59/137/44 70/138/45
s 42
f 73/139/46 76/140/46 89/141/47 90/142/47
s 43
f 66/143/48 100/144/49 103/145/49 72/146/50
s 44
f 69/147/51 68/148/52 53/149/53 40/150/53
s 45
f 91/118/30 45/151/54 56/152/55 99/119/31
s 46
f 4/153/56 55/154/57 67/155/58 54/156/56
s 47
f 24/157/7 23/158/7 42/159/7 43/160/7
s 48
f 18/161/2 47/131/38 52/134/41 6/162/3
s 49
f 71/163/59 70/164/59 39/165/60 38/166/60
s 50
f 97/167/61 102/168/61 68/169/52 69/170/51
s 51
f 74/171/36 65/172/35 49/173/62 44/174/62
s 52
f 98/175/63 104/176/63 90/177/63 89/178/63
s 53
f 69/179/64 60/180/65 94/181/66 97/182/67
s 54
f 67/183/68 75/184/69 41/185/70 54/186/70
s 55
f 71/187/59 104/188/71 98/189/71 70/190/59
s 56
f 101/132/39 77/191/72 83/192/73 92/133/40
s 57
f 45/151/54 11/193/12 2/194/11 56/152/55
s 58
f 12/195/74 46/125/33 55/126/34 4/196/75
s 59
f 80/197/24 99/198/24 102/199/24 82/200/24
s 60
f 58/201/76 73/202/77 90/203/78 88/204/79
s 61
f 8/205/80 49/206/80 65/207/81 51/208/82
s 62
f 76/209/46 73/210/46 43/211/83 42/212/83
s 63
f 63/213/84 79/214/84 78/215/84 64/216/84
s 64
f 27/217/7 38/218/7 39/219/7 28/220/7
s 65
f 6/221/7 50/222/7 37/223/7 32/224/7
s 66
f 34/225/7 40/226/7 53/227/7 2/228/7
s 67
f 35/229/7 4/230/7 54/231/7 41/232/7
s 68
f 6/233/85 52/234/86 66/235/87 50/236/85
s 69
f 2/237/88 53/238/88 68/239/89 56/240/90
s 70
f 55/154/57 80/197/24 82/200/24 67/155/58
s 71
f 86/241/78 79/242/79 63/243/76 75/244/77
s 72
f 70/138/45 59/137/44 39/245/91
s 73
f 84/246/92 74/247/93 57/248/94 81/249/95
s 74
f 74/247/93 44/250/96 57/248/94
s 75
f 38/251/97 62/252/65 71/253/64
s 76
f 76/254/93 64/255/94 78/256/95 89/257/92
s 77
f 51/208/82 65/207/81 85/258/23 83/259/23
s 78
f 43/260/26 58/261/98 57/262/98 44/263/26
s 79
f 41/264/26 63/213/98 64/216/98 42/265/26
s 80
f 79/214/63 94/266/63 93/267/63 78/215/63
s 81
f 84/246/92 81/249/95 95/268/43 103/269/42
s 82
f 62/270/99 38/271/100 37/272/100 61/273/99
s 83
f 60/274/99 40/275/100 39/276/100 59/277/99
s 84
f 52/234/86 92/278/23 100/279/23 66/235/87
s 85
f 88/280/63 96/281/63 95/282/63 81/283/63
s 86
f 43/284/101 73/202/77 58/201/76
s 87
f 99/198/24 56/240/90 68/239/89 102/199/24
s 88
f 76/254/93 42/285/96 64/255/94
s 89
f 75/244/77 63/243/76 41/286/101
s 90
f 37/287/91 72/288/45 61/289/44
s 91
f 61/289/44 72/288/45 103/269/42 95/268/43
s 92
f 69/179/64 40/290/97 60/180/65
s 93
f 82/291/102 86/292/102 75/293/69 67/294/68
s 94
f 66/295/48 72/296/50 37/297/103 50/298/103
s 95
f 85/299/104 84/300/104 103/301/104 100/302/104
s 96
f 104/303/67 96/304/66 88/204/79 90/203/78
s 97
f 19/305/23 48/306/23 47/307/23 18/308/23
s 98
f 11/309/24 45/310/24 46/311/24 12/312/24
s 99
f 16/313/105 12/314/74 4/315/75 3/316/105
s 100
f 36/317/106 25/318/106 39/319/100 40/320/100
s 101
f 30/321/106 37/322/100 38/323/100 26/324/106
s 102
f 98/135/42 89/257/92 78/256/95 93/136/43
s 103
f 58/261/84 88/280/84 81/283/84 57/262/84
s 104
f 94/266/107 60/274/107 59/277/107 93/267/107
s 105
f 92/278/23 83/259/23 85/258/23 100/279/23
s 106
f 96/304/66 104/303/67 71/253/64 62/252/65
s 107
f 86/325/108 82/326/108 102/327/108 97/328/108
s 108
f 96/281/107 62/270/107 61/273/107 95/282/107
s 109
f 77/191/72 48/113/27 51/116/28 83/192/73
s 110
f 48/306/23 77/329/23 101/330/23 47/307/23
s 111
f 45/310/24 91/331/24 87/332/24 46/311/24
s 112
f 19/333/7 18/334/7 20/335/7 9/336/7
s 113
f 17/337/7 11/338/7 12/339/7 15/340/7
s 114
f 86/241/78 97/182/67 94/181/66 79/242/79
