# Blender v2.80 (sub 75) OBJ File: 'Dungeon_Remastered_Export1.0.blend'
# www.blender.org
mtllib wall_endcap.mtl
o wall_endcap_Cube.13148
v 0.000000 0.000000 -0.500000
v 0.000000 0.000000 0.500000
v 0.000000 0.250000 -0.500000
v 0.000000 0.250000 0.500000
v 0.000000 0.500000 0.250000
v 0.000000 0.500000 -0.250000
v 0.900000 0.000000 -0.500000
v 1.000000 0.000000 -0.429289
v 0.900000 0.000000 0.500000
v 1.000000 0.000000 0.429289
v 0.900000 0.250000 -0.500000
v 1.000000 0.250711 -0.429289
v 0.900000 0.250000 0.500000
v 1.000000 0.250711 0.429289
v 0.000000 3.200000 -0.250000
v 0.000000 3.200000 0.250000
v 0.000000 4.000000 -0.500000
v 0.000000 4.000000 0.500000
v 0.000000 3.450000 -0.500000
v 0.000000 3.450000 0.500000
v 0.900000 4.000000 -0.500000
v 1.000000 4.000000 -0.429289
v 0.900000 4.000000 0.500000
v 1.000000 4.000000 0.429289
v 0.900000 3.450000 -0.500000
v 1.000000 3.449289 -0.429289
v 0.900000 3.450000 0.500000
v 1.000000 3.449289 0.429289
v 0.900000 0.500000 -0.250000
v 1.000000 0.500000 -0.150000
v 1.000000 3.200000 -0.150000
v 0.900000 3.200000 -0.250000
v 1.000000 0.500000 0.150000
v 0.900000 0.500000 0.250000
v 0.900000 3.200000 0.250000
v 1.000000 3.200000 0.150000
v 0.476237 2.598469 -0.238803
v 0.417271 2.657436 -0.238803
v 0.152348 2.657436 -0.238803
v 0.093382 2.598469 -0.238803
v 0.093382 2.411846 -0.238803
v 0.152348 2.352880 -0.238803
v 0.417271 2.352880 -0.238803
v 0.476237 2.411846 -0.238803
v 0.426323 2.402794 -0.329804
v 0.426323 2.607521 -0.329804
v 0.143296 2.402794 -0.329804
v 0.143296 2.607521 -0.329804
v 0.166883 1.102994 -0.329804
v 0.166883 1.307721 -0.329804
v 0.549910 1.102994 -0.329804
v 0.549910 1.307721 -0.329805
v 0.599824 1.298669 -0.238803
v 0.540858 1.357635 -0.238803
v 0.175935 1.357635 -0.238803
v 0.116969 1.298669 -0.238803
v 0.116969 1.112046 -0.238803
v 0.175935 1.053080 -0.238803
v 0.540858 1.053080 -0.238803
v 0.599824 1.112046 -0.238803
v 0.315945 1.053080 -0.238803
v 0.312345 1.176320 -0.329804
v 0.385671 1.102994 -0.329804
v 0.314887 1.067752 -0.265553
v 0.239020 1.102994 -0.329804
v 0.745279 2.916017 -0.238803
v 0.686313 2.974983 -0.238803
v 0.321390 2.974983 -0.238803
v 0.262424 2.916017 -0.238803
v 0.262424 2.729394 -0.238803
v 0.321390 2.670428 -0.238803
v 0.686313 2.670428 -0.238803
v 0.745279 2.729394 -0.238803
v 0.695365 2.720342 -0.329804
v 0.695365 2.925069 -0.329804
v 0.312338 2.720342 -0.329804
v 0.312338 2.925069 -0.329804
v 0.141612 0.954535 -0.329804
v 0.141612 0.749808 -0.329804
v 0.424639 0.954535 -0.329804
v 0.424639 0.749808 -0.329804
v 0.474553 0.758860 -0.238803
v 0.415587 0.699893 -0.238803
v 0.150664 0.699893 -0.238803
v 0.091697 0.758860 -0.238803
v 0.091697 0.945483 -0.238803
v 0.150664 1.004449 -0.238803
v 0.415587 1.004449 -0.238803
v 0.474553 0.945483 -0.238803
v 0.460613 2.598469 0.238803
v 0.519579 2.657436 0.238803
v 0.784502 2.657436 0.238803
v 0.843469 2.598469 0.238803
v 0.843469 2.411846 0.238803
v 0.784502 2.352880 0.238803
v 0.519579 2.352880 0.238803
v 0.460613 2.411846 0.238803
v 0.510527 2.402794 0.329804
v 0.510527 2.607521 0.329804
v 0.793554 2.402794 0.329804
v 0.793554 2.607521 0.329804
v 0.769968 1.102994 0.329804
v 0.769968 1.307721 0.329804
v 0.386941 1.102994 0.329804
v 0.386941 1.307721 0.329804
v 0.337026 1.298669 0.238803
v 0.395993 1.357635 0.238803
v 0.760916 1.357635 0.238803
v 0.819882 1.298669 0.238804
v 0.819882 1.112046 0.238803
v 0.760916 1.053080 0.238803
v 0.395993 1.053080 0.238803
v 0.337026 1.112046 0.238803
v 0.620905 1.053080 0.238803
v 0.624505 1.176320 0.329804
v 0.551180 1.102994 0.329804
v 0.621964 1.067752 0.265553
v 0.697831 1.102994 0.329804
v 0.191571 2.916017 0.238803
v 0.250537 2.974983 0.238803
v 0.615460 2.974983 0.238803
v 0.674427 2.916017 0.238803
v 0.674427 2.729394 0.238803
v 0.615460 2.670428 0.238803
v 0.250537 2.670428 0.238803
v 0.191571 2.729394 0.238803
v 0.241485 2.720342 0.329804
v 0.241485 2.925069 0.329804
v 0.624512 2.720342 0.329804
v 0.624512 2.925069 0.329804
v 0.795239 0.954535 0.329804
v 0.795239 0.749808 0.329804
v 0.512212 0.954535 0.329804
v 0.512212 0.749808 0.329804
v 0.462297 0.758860 0.238803
v 0.521264 0.699894 0.238803
v 0.786187 0.699894 0.238803
v 0.845153 0.758860 0.238803
v 0.845153 0.945483 0.238803
v 0.786187 1.004449 0.238803
v 0.521264 1.004449 0.238803
v 0.462297 0.945483 0.238803
v 1.066905 2.707379 -0.080219
v 1.066905 2.502652 -0.080219
v 1.066905 2.707379 0.098857
v 1.066905 2.502652 0.098857
v 0.975904 2.511704 0.148771
v 0.975904 2.452738 0.089805
v 0.975904 2.452738 -0.071167
v 0.975904 2.511704 -0.130134
v 0.975904 2.698327 -0.130134
v 0.975904 2.757293 -0.071167
v 0.975904 2.757293 0.089805
v 0.975904 2.698327 0.148771
v 0.975904 0.906587 0.127755
v 0.975904 0.965554 0.068789
v 0.975904 0.965554 -0.092184
v 0.975904 0.906587 -0.151150
v 0.975904 0.719964 -0.151150
v 0.975904 0.660998 -0.092184
v 0.975904 0.660998 0.068789
v 0.975904 0.719964 0.127755
v 1.066905 0.710912 0.077841
v 1.066905 0.915639 0.077841
v 1.066905 0.710912 -0.101236
v 1.066905 0.915639 -0.101236
vt 0.057080 0.811757
vt 0.057295 0.811757
vt 0.057295 0.817535
vt 0.057080 0.819814
vt 0.057080 0.796132
vt 0.055145 0.796132
vt 0.055145 0.804189
vt 0.057080 0.804189
vt 0.148012 0.848510
vt 0.148012 0.848510
vt 0.148012 0.880891
vt 0.148012 0.880891
vt 0.055145 0.876354
vt 0.055145 0.884411
vt 0.057080 0.884411
vt 0.057080 0.876354
vt 0.057080 0.876354
vt 0.057080 0.884411
vt 0.055145 0.884411
vt 0.055145 0.876354
vt 0.057295 0.876354
vt 0.057295 0.890029
vt 0.057295 0.890029
vt 0.057295 0.876354
vt 0.057295 0.886690
vt 0.057295 0.886690
vt 0.158805 0.848510
vt 0.158805 0.880891
vt 0.055145 0.804189
vt 0.055145 0.796132
vt 0.057080 0.796132
vt 0.057080 0.804189
vt 0.055145 0.946911
vt 0.055145 0.954968
vt 0.055145 0.954968
vt 0.055145 0.946911
vt 0.057080 0.946911
vt 0.057080 0.954968
vt 0.057080 0.970593
vt 0.057080 0.962536
vt 0.057295 0.968314
vt 0.057295 0.972204
vt 0.057080 0.954968
vt 0.057080 0.946911
vt 0.055145 0.884413
vt 0.057080 0.884413
vt 0.057080 0.866689
vt 0.055145 0.866689
vt 0.057080 0.884413
vt 0.055145 0.884413
vt 0.055145 0.866689
vt 0.057080 0.866689
vt 0.057295 0.864410
vt 0.057295 0.881190
vt 0.057295 0.881190
vt 0.057295 0.864410
vt 0.057080 0.993788
vt 0.057080 0.993788
vt 0.055145 0.993788
vt 0.055145 0.993788
vt 0.158805 0.848510
vt 0.158805 0.880891
vt 0.057080 0.970593
vt 0.057295 0.970593
vt 0.057295 0.964815
vt 0.057080 0.962536
vt 0.057295 0.952633
vt 0.057295 0.952701
vt 0.057295 0.952701
vt 0.057295 0.952633
vt 0.057295 0.993788
vt 0.057295 0.993788
vt 0.158805 0.896516
vt 0.158805 0.864135
vt 0.160004 0.864135
vt 0.160004 0.896516
vt 0.158805 0.864135
vt 0.158805 0.896516
vt 0.160004 0.896516
vt 0.160004 0.864135
vt 0.160004 0.880891
vt 0.160004 0.880891
vt 0.160004 0.848510
vt 0.160004 0.848510
vt 0.057295 0.796132
vt 0.057295 0.798411
vt 0.057295 0.798411
vt 0.057295 0.796132
vt 0.057295 0.810146
vt 0.057080 0.811757
vt 0.057080 0.819814
vt 0.057295 0.814036
vt 0.206849 0.840435
vt 0.206849 0.888066
vt 0.142984 0.888066
vt 0.142984 0.840435
vt 0.142984 0.824810
vt 0.142984 0.872441
vt 0.136384 0.870426
vt 0.136384 0.826824
vt 0.208695 0.820584
vt 0.144829 0.820584
vt 0.146025 0.813984
vt 0.207497 0.813984
vt 0.206849 0.903691
vt 0.206849 0.856060
vt 0.213449 0.858074
vt 0.213449 0.901676
vt 0.142984 0.907866
vt 0.206849 0.907866
vt 0.205652 0.914466
vt 0.144180 0.914466
vt 0.146025 0.798359
vt 0.144829 0.804959
vt 0.138230 0.806156
vt 0.142984 0.892241
vt 0.144180 0.898841
vt 0.136384 0.891044
vt 0.215294 0.837406
vt 0.208695 0.836209
vt 0.207497 0.829609
vt 0.206849 0.923491
vt 0.213449 0.922294
vt 0.205652 0.930091
vt 0.196776 0.832815
vt 0.187079 0.832020
vt 0.186745 0.805788
vt 0.144294 0.805037
vt 0.137695 0.806234
vt 0.145490 0.798437
vt 0.142449 0.872572
vt 0.135849 0.870558
vt 0.135849 0.826955
vt 0.142449 0.824941
vt 0.206312 0.856191
vt 0.212914 0.858205
vt 0.212914 0.901808
vt 0.206312 0.903822
vt 0.208158 0.836287
vt 0.206962 0.829687
vt 0.214759 0.837484
vt 0.143645 0.898919
vt 0.135849 0.891122
vt 0.142449 0.892319
vt 0.212914 0.922372
vt 0.205116 0.930169
vt 0.206312 0.923569
vt 0.142449 0.888197
vt 0.142449 0.840566
vt 0.177386 0.840566
vt 0.187079 0.839771
vt 0.188590 0.796818
vt 0.188449 0.814062
vt 0.206962 0.814062
vt 0.145490 0.814062
vt 0.187079 0.812643
vt 0.177386 0.813437
vt 0.186745 0.786411
vt 0.206312 0.907944
vt 0.205116 0.914544
vt 0.143645 0.914544
vt 0.142449 0.907944
vt 0.206312 0.840566
vt 0.206312 0.888197
vt 0.196776 0.840566
vt 0.144294 0.820662
vt 0.179231 0.820662
vt 0.198621 0.820662
vt 0.208158 0.820662
vt 0.206849 0.840435
vt 0.206849 0.888066
vt 0.142984 0.888066
vt 0.142984 0.840435
vt 0.142984 0.824810
vt 0.142984 0.872441
vt 0.136384 0.870426
vt 0.136384 0.826824
vt 0.208695 0.820584
vt 0.144829 0.820584
vt 0.146025 0.813984
vt 0.207497 0.813984
vt 0.206849 0.903691
vt 0.206849 0.856060
vt 0.213449 0.858074
vt 0.213449 0.901676
vt 0.142984 0.907866
vt 0.206849 0.907866
vt 0.205652 0.914466
vt 0.144180 0.914466
vt 0.146025 0.798359
vt 0.144829 0.804959
vt 0.138230 0.806156
vt 0.142984 0.892241
vt 0.144180 0.898841
vt 0.136384 0.891044
vt 0.215294 0.837406
vt 0.208695 0.836209
vt 0.207497 0.829609
vt 0.206849 0.923491
vt 0.213449 0.922294
vt 0.205652 0.930091
vt 0.206849 0.840435
vt 0.206849 0.888066
vt 0.142984 0.888066
vt 0.142984 0.840435
vt 0.215294 0.837406
vt 0.208695 0.836209
vt 0.207497 0.829609
vt 0.208695 0.820584
vt 0.144829 0.820584
vt 0.146025 0.813984
vt 0.207497 0.813984
vt 0.142984 0.907866
vt 0.206849 0.907866
vt 0.205652 0.914466
vt 0.144180 0.914466
vt 0.142984 0.892241
vt 0.144180 0.898841
vt 0.136384 0.891044
vt 0.142984 0.824810
vt 0.142984 0.872441
vt 0.136384 0.870426
vt 0.136384 0.826824
vt 0.206849 0.923491
vt 0.213449 0.922294
vt 0.205652 0.930091
vt 0.206849 0.903691
vt 0.206849 0.856060
vt 0.213449 0.858074
vt 0.213449 0.901676
vt 0.146025 0.798359
vt 0.144829 0.804959
vt 0.138230 0.806156
vt 0.206849 0.840435
vt 0.206849 0.888066
vt 0.142984 0.888066
vt 0.142984 0.840435
vt 0.142984 0.824810
vt 0.142984 0.872441
vt 0.136384 0.870426
vt 0.136384 0.826824
vt 0.208695 0.820584
vt 0.144829 0.820584
vt 0.146025 0.813984
vt 0.207497 0.813984
vt 0.206849 0.903691
vt 0.206849 0.856060
vt 0.213449 0.858074
vt 0.213449 0.901676
vt 0.142984 0.907866
vt 0.206849 0.907866
vt 0.205652 0.914466
vt 0.144180 0.914466
vt 0.146025 0.798359
vt 0.144829 0.804959
vt 0.138230 0.806156
vt 0.142984 0.892241
vt 0.144180 0.898841
vt 0.136384 0.891044
vt 0.215294 0.837406
vt 0.208695 0.836209
vt 0.207497 0.829609
vt 0.206849 0.923491
vt 0.213449 0.922294
vt 0.205652 0.930091
vt 0.196776 0.832815
vt 0.187079 0.832020
vt 0.186745 0.805788
vt 0.144294 0.805037
vt 0.137695 0.806234
vt 0.145490 0.798437
vt 0.142449 0.872572
vt 0.135849 0.870558
vt 0.135849 0.826955
vt 0.142449 0.824941
vt 0.206312 0.856191
vt 0.212914 0.858205
vt 0.212914 0.901808
vt 0.206312 0.903822
vt 0.208158 0.836287
vt 0.206962 0.829687
vt 0.214759 0.837484
vt 0.143645 0.898919
vt 0.135849 0.891122
vt 0.142449 0.892319
vt 0.212914 0.922372
vt 0.205116 0.930169
vt 0.206312 0.923569
vt 0.142449 0.888197
vt 0.142449 0.840566
vt 0.177386 0.840566
vt 0.187079 0.839771
vt 0.188590 0.796818
vt 0.188449 0.814062
vt 0.206962 0.814062
vt 0.145490 0.814062
vt 0.187079 0.812643
vt 0.177386 0.813437
vt 0.186745 0.786411
vt 0.206312 0.907944
vt 0.205116 0.914544
vt 0.143645 0.914544
vt 0.142449 0.907944
vt 0.206312 0.840566
vt 0.206312 0.888197
vt 0.196776 0.840566
vt 0.144294 0.820662
vt 0.179231 0.820662
vt 0.198621 0.820662
vt 0.208158 0.820662
vt 0.206849 0.840435
vt 0.206849 0.888066
vt 0.142984 0.888066
vt 0.142984 0.840435
vt 0.142984 0.824810
vt 0.142984 0.872441
vt 0.136384 0.870426
vt 0.136384 0.826824
vt 0.208695 0.820584
vt 0.144829 0.820584
vt 0.146025 0.813984
vt 0.207497 0.813984
vt 0.206849 0.903691
vt 0.206849 0.856060
vt 0.213449 0.858074
vt 0.213449 0.901676
vt 0.142984 0.907866
vt 0.206849 0.907866
vt 0.205652 0.914466
vt 0.144180 0.914466
vt 0.146025 0.798359
vt 0.144829 0.804959
vt 0.138230 0.806156
vt 0.142984 0.892241
vt 0.144180 0.898841
vt 0.136384 0.891044
vt 0.215294 0.837406
vt 0.208695 0.836209
vt 0.207497 0.829609
vt 0.206849 0.923491
vt 0.213449 0.922294
vt 0.205652 0.930091
vt 0.206849 0.840435
vt 0.206849 0.888066
vt 0.142984 0.888066
vt 0.142984 0.840435
vt 0.215294 0.837406
vt 0.208695 0.836209
vt 0.207497 0.829609
vt 0.208695 0.820584
vt 0.144829 0.820584
vt 0.146025 0.813984
vt 0.207497 0.813984
vt 0.142984 0.907866
vt 0.206849 0.907866
vt 0.205652 0.914466
vt 0.144180 0.914466
vt 0.142984 0.892241
vt 0.144180 0.898841
vt 0.136384 0.891044
vt 0.142984 0.824810
vt 0.142984 0.872441
vt 0.136384 0.870426
vt 0.136384 0.826824
vt 0.206849 0.923491
vt 0.213449 0.922294
vt 0.205652 0.930091
vt 0.206849 0.903691
vt 0.206849 0.856060
vt 0.213449 0.858074
vt 0.213449 0.901676
vt 0.146025 0.798359
vt 0.144829 0.804959
vt 0.138230 0.806156
vt 0.206849 0.840435
vt 0.206849 0.888066
vt 0.142984 0.888066
vt 0.142984 0.840435
vt 0.215294 0.837406
vt 0.208695 0.836209
vt 0.207497 0.829609
vt 0.146025 0.798359
vt 0.144829 0.804959
vt 0.138230 0.806156
vt 0.142984 0.907866
vt 0.206849 0.907866
vt 0.205652 0.914466
vt 0.144180 0.914466
vt 0.142984 0.824810
vt 0.142984 0.872441
vt 0.136384 0.870426
vt 0.136384 0.826824
vt 0.206849 0.903691
vt 0.206849 0.856060
vt 0.213449 0.858074
vt 0.213449 0.901676
vt 0.206849 0.923491
vt 0.213449 0.922294
vt 0.205652 0.930091
vt 0.142984 0.892241
vt 0.144180 0.898841
vt 0.136384 0.891044
vt 0.208695 0.820584
vt 0.144829 0.820584
vt 0.146025 0.813984
vt 0.207497 0.813984
vt 0.142984 0.892241
vt 0.144180 0.898841
vt 0.136384 0.891044
vt 0.215294 0.837406
vt 0.208695 0.836209
vt 0.207497 0.829609
vt 0.208695 0.820584
vt 0.144829 0.820584
vt 0.146025 0.813984
vt 0.207497 0.813984
vt 0.206849 0.903691
vt 0.206849 0.856060
vt 0.213449 0.858074
vt 0.213449 0.901676
vt 0.142984 0.824810
vt 0.142984 0.872441
vt 0.136384 0.870426
vt 0.136384 0.826824
vt 0.146025 0.798359
vt 0.144829 0.804959
vt 0.138230 0.806156
vt 0.206849 0.923491
vt 0.213449 0.922294
vt 0.205652 0.930091
vt 0.142984 0.907866
vt 0.206849 0.907866
vt 0.205652 0.914466
vt 0.144180 0.914466
vt 0.206849 0.840435
vt 0.206849 0.888066
vt 0.142984 0.888066
vt 0.142984 0.840435
vn 0.6264 -0.3806 0.6803
vn 0.6638 -0.2611 0.7008
vn 0.5037 -0.6284 0.5928
vn 0.0000 -0.7071 -0.7071
vn -1.0000 0.0000 0.0000
vn 0.0000 0.0000 -1.0000
vn 0.0000 0.0000 1.0000
vn 1.0000 0.0000 0.0000
vn 0.5774 0.0000 -0.8165
vn 0.5774 0.0000 0.8165
vn 0.0000 -0.7071 0.7071
vn 0.0000 0.7071 0.7071
vn 0.6264 0.3806 0.6803
vn 0.5037 0.6284 0.5928
vn 0.6638 0.2611 0.7008
vn 0.0000 0.7071 -0.7071
vn 0.5773 0.0000 0.8165
vn 0.5773 0.0000 -0.8165
vn 0.0000 1.0000 0.0000
vn 0.6264 0.3806 -0.6803
vn 0.6638 0.2611 -0.7008
vn 0.5037 0.6284 -0.5928
vn 0.6264 -0.3806 -0.6803
vn 0.6638 -0.2611 -0.7008
vn 0.5037 -0.6284 -0.5928
vn 0.5959 -0.5959 -0.5383
vn 0.5959 0.5959 -0.5383
vn 0.8494 0.2969 -0.4364
vn 0.8494 -0.2969 -0.4364
vn -0.5959 -0.5959 -0.5383
vn 0.2969 -0.8494 -0.4364
vn -0.2969 -0.8494 -0.4364
vn -0.5959 0.5959 -0.5383
vn -0.8494 -0.2969 -0.4364
vn -0.8494 0.2969 -0.4364
vn -0.2969 0.8494 -0.4364
vn 0.2969 0.8494 -0.4364
vn 0.4476 -0.4476 -0.7741
vn -0.0000 -0.8768 -0.4809
vn -0.4601 -0.4601 -0.7593
vn -0.5959 -0.5959 0.5383
vn -0.5959 0.5959 0.5383
vn -0.8494 0.2969 0.4364
vn -0.8494 -0.2969 0.4364
vn 0.5959 -0.5959 0.5383
vn -0.2969 -0.8494 0.4364
vn 0.2969 -0.8494 0.4364
vn 0.5959 0.5959 0.5383
vn 0.8494 -0.2969 0.4364
vn 0.8494 0.2969 0.4364
vn 0.2969 0.8494 0.4364
vn -0.2969 0.8494 0.4364
vn -0.4476 -0.4476 0.7741
vn 0.0000 -0.8768 0.4809
vn 0.4601 -0.4601 0.7593
vn 0.4364 -0.2969 -0.8494
vn 0.5383 -0.5959 -0.5959
vn 0.4364 -0.8494 -0.2969
vn 0.4364 -0.8494 0.2969
vn 0.5383 -0.5959 0.5959
vn 0.4364 -0.2969 0.8494
vn 0.5383 0.5959 0.5959
vn 0.5383 0.5959 -0.5959
vn 0.4364 0.8494 -0.2969
vn 0.4364 0.8494 0.2969
vn 0.4364 0.2969 0.8494
vn 0.4364 0.2969 -0.8494
usemtl texture
s 1
f 35/1/1 36/2/2 28/3/3 27/4/3
s 2
f 32/5/4 15/6/4 19/7/4 25/8/4
s 3
f 6/9/5 5/10/5 16/11/5 15/12/5
s 4
f 1/13/6 3/14/6 11/15/6 7/16/6
s 5
f 9/17/7 13/18/7 4/19/7 2/20/7
s 6
f 8/21/8 12/22/8 14/23/8 10/24/8
s 7
f 12/25/9 8/21/9 7/16/9 11/15/9
s 8
f 13/18/10 9/17/10 10/24/10 14/26/10
s 9
f 29/27/6 6/9/6 15/12/6 32/28/6
s 10
f 20/29/11 16/30/11 35/31/11 27/32/11
s 11
f 4/33/5 5/34/5 6/35/5 3/36/5
s 12
f 2/20/5 4/19/5 3/14/5 1/13/5
s 13
f 5/34/12 4/33/12 13/37/12 34/38/12
s 14
f 34/39/13 13/40/14 14/41/14 33/42/15
s 15
f 3/36/16 6/35/16 29/43/16 11/44/16
s 16
f 17/45/6 21/46/6 25/47/6 19/48/6
s 17
f 23/49/7 18/50/7 20/51/7 27/52/7
s 18
f 23/49/17 27/52/17 28/53/17 24/54/17
s 19
f 22/55/18 26/56/18 25/47/18 21/46/18
s 20
f 23/57/19 21/58/19 17/59/19 18/60/19
s 21
f 34/61/7 35/62/7 16/11/7 5/10/7
s 22
f 20/29/5 19/7/5 15/6/5 16/30/5
s 23
f 20/51/5 18/50/5 17/45/5 19/48/5
s 24
f 29/63/20 30/64/21 12/65/22 11/66/22
s 25
f 12/67/8 30/68/8 33/69/8 14/70/8
s 26
f 24/71/19 22/72/19 21/58/19 23/57/19
s 27
f 28/53/8 26/56/8 22/55/8 24/54/8
s 28
f 35/73/1 34/74/13 33/75/15 36/76/2
s 29
f 29/77/20 32/78/23 31/79/24 30/80/21
s 30
f 31/81/8 36/82/8 33/83/8 30/84/8
s 31
f 31/85/8 26/86/8 28/87/8 36/88/8
s 32
f 31/89/24 32/90/23 25/91/25 26/92/25
s 33
f 47/93/6 48/94/6 46/95/6 45/96/6
s 34
f 45/97/26 46/98/27 37/99/28 44/100/29
s 35
f 47/101/30 45/102/26 43/103/31 42/104/32
s 36
f 48/105/33 47/106/30 41/107/34 40/108/35
s 37
f 46/109/27 48/110/33 39/111/36 38/112/37
s 38
f 43/113/31 45/114/26 44/115/29
s 39
f 46/116/27 38/117/37 37/118/28
s 40
f 41/119/34 47/120/30 42/121/32
s 41
f 48/122/33 40/123/35 39/124/36
s 42
f 65/125/38 62/126/38 64/127/38
s 43
f 51/128/26 60/129/29 59/130/31
s 44
f 52/131/27 53/132/28 60/133/29 51/134/26
s 45
f 49/135/30 57/136/34 56/137/35 50/138/33
s 46
f 49/139/30 58/140/32 57/141/34
s 47
f 54/142/37 53/143/28 52/144/27
s 48
f 56/145/35 55/146/36 50/147/33
s 49
f 52/148/6 51/149/6 63/150/6 62/151/6
s 50
f 64/152/39 61/153/39 58/154/32
s 51
f 59/155/31 61/153/39 64/152/39
s 52
f 62/156/40 63/157/40 64/158/40
s 53
f 50/159/33 55/160/36 54/161/37 52/162/27
s 54
f 49/163/6 50/164/6 62/151/6 65/165/6
s 55
f 51/166/26 59/155/31 64/152/39 63/167/39
s 56
f 65/168/39 64/152/39 58/154/32 49/169/30
s 57
f 52/148/6 62/151/6 50/164/6
s 58
f 76/170/6 77/171/6 75/172/6 74/173/6
s 59
f 74/174/26 75/175/27 66/176/28 73/177/29
s 60
f 76/178/30 74/179/26 72/180/31 71/181/32
s 61
f 77/182/33 76/183/30 70/184/34 69/185/35
s 62
f 75/186/27 77/187/33 68/188/36 67/189/37
s 63
f 72/190/31 74/191/26 73/192/29
s 64
f 75/193/27 67/194/37 66/195/28
s 65
f 70/196/34 76/197/30 71/198/32
s 66
f 77/199/33 69/200/35 68/201/36
s 67
f 79/202/6 78/203/6 80/204/6 81/205/6
s 68
f 85/206/34 79/207/30 84/208/32
s 69
f 79/209/30 81/210/26 83/211/31 84/212/32
s 70
f 80/213/27 78/214/33 87/215/36 88/216/37
s 71
f 80/217/27 88/218/37 89/219/28
s 72
f 81/220/26 80/221/27 89/222/28 82/223/29
s 73
f 78/224/33 86/225/35 87/226/36
s 74
f 78/227/33 79/228/30 85/229/34 86/230/35
s 75
f 83/231/31 81/232/26 82/233/29
s 76
f 100/234/7 101/235/7 99/236/7 98/237/7
s 77
f 98/238/41 99/239/42 90/240/43 97/241/44
s 78
f 100/242/45 98/243/41 96/244/46 95/245/47
s 79
f 101/246/48 100/247/45 94/248/49 93/249/50
s 80
f 99/250/42 101/251/48 92/252/51 91/253/52
s 81
f 96/254/46 98/255/41 97/256/44
s 82
f 99/257/42 91/258/52 90/259/43
s 83
f 94/260/49 100/261/45 95/262/47
s 84
f 101/263/48 93/264/50 92/265/51
s 85
f 118/266/53 115/267/53 117/268/53
s 86
f 104/269/41 113/270/44 112/271/46
s 87
f 105/272/42 106/273/43 113/274/44 104/275/41
s 88
f 102/276/45 110/277/49 109/278/50 103/279/48
s 89
f 102/280/45 111/281/47 110/282/49
s 90
f 107/283/52 106/284/43 105/285/42
s 91
f 109/286/50 108/287/51 103/288/48
s 92
f 105/289/7 104/290/7 116/291/7 115/292/7
s 93
f 117/293/54 114/294/54 111/295/47
s 94
f 112/296/46 114/294/54 117/293/54
s 95
f 115/297/55 116/298/55 117/299/55
s 96
f 103/300/48 108/301/51 107/302/52 105/303/42
s 97
f 102/304/7 103/305/7 115/292/7 118/306/7
s 98
f 104/307/41 112/296/46 117/293/54 116/308/54
s 99
f 118/309/54 117/293/54 111/295/47 102/310/45
s 100
f 105/289/7 115/292/7 103/305/7
s 101
f 129/311/7 130/312/7 128/313/7 127/314/7
s 102
f 127/315/41 128/316/42 119/317/43 126/318/44
s 103
f 129/319/45 127/320/41 125/321/46 124/322/47
s 104
f 130/323/48 129/324/45 123/325/49 122/326/50
s 105
f 128/327/42 130/328/48 121/329/51 120/330/52
s 106
f 125/331/46 127/332/41 126/333/44
s 107
f 128/334/42 120/335/52 119/336/43
s 108
f 123/337/49 129/338/45 124/339/47
s 109
f 130/340/48 122/341/50 121/342/51
s 110
f 132/343/7 131/344/7 133/345/7 134/346/7
s 111
f 138/347/49 132/348/45 137/349/47
s 112
f 132/350/45 134/351/41 136/352/46 137/353/47
s 113
f 133/354/42 131/355/48 140/356/51 141/357/52
s 114
f 133/358/42 141/359/52 142/360/43
s 115
f 134/361/41 133/362/42 142/363/43 135/364/44
s 116
f 131/365/48 139/366/50 140/367/51
s 117
f 131/368/48 132/369/45 138/370/49 139/371/50
s 118
f 136/372/46 134/373/41 135/374/44
s 119
f 144/375/8 143/376/8 145/377/8 146/378/8
s 120
f 150/379/56 144/380/57 149/381/58
s 121
f 148/382/59 146/383/60 147/384/61
s 122
f 145/385/62 143/386/63 152/387/64 153/388/65
s 123
f 146/389/60 145/390/62 154/391/66 147/392/61
s 124
f 143/393/63 144/394/57 150/395/56 151/396/67
s 125
f 143/397/63 151/398/67 152/399/64
s 126
f 145/400/62 153/401/65 154/402/66
s 127
f 144/403/57 146/404/60 148/405/59 149/406/58
s 128
f 164/407/62 156/408/65 155/409/66
s 129
f 159/410/56 165/411/57 160/412/58
s 130
f 165/413/57 163/414/60 161/415/59 160/416/58
s 131
f 166/417/63 165/418/57 159/419/56 158/420/67
s 132
f 163/421/60 164/422/62 155/423/66 162/424/61
s 133
f 161/425/59 163/426/60 162/427/61
s 134
f 166/428/63 158/429/67 157/430/64
s 135
f 164/431/62 166/432/63 157/433/64 156/434/65
s 136
f 165/435/8 166/436/8 164/437/8 163/438/8
