# Blender v2.80 (sub 75) OBJ File: 'Dungeon_Remastered_Export1.0.blend'
# www.blender.org
mtllib wall_half_endcap.mtl
o wall_half_endcap_Cube.13152
v -2.000000 3.200000 -0.250000
v -0.300000 3.200000 0.250000
v -0.300000 0.500000 -0.250000
v -2.000000 0.000000 -0.500000
v -2.000000 0.000000 0.500000
v -2.000000 0.250000 -0.500000
v -2.000000 0.250000 0.500000
v -2.000000 0.500000 0.250000
v -2.000000 0.500000 -0.250000
v -2.000000 3.450000 -0.500000
v -2.000000 3.450000 0.500000
v -2.000000 3.200000 0.250000
v -1.100000 0.000000 -0.500000
v -0.900000 0.000000 -0.500000
v -1.000000 0.000000 -0.429289
v -0.900000 0.000000 0.500000
v -1.100000 0.000000 0.500000
v -1.000000 0.000000 0.429289
v -0.900000 0.250000 -0.500000
v -1.100000 0.250000 -0.500000
v -1.000000 0.320711 -0.429289
v -1.100000 0.250000 0.500000
v -0.900000 0.250000 0.500000
v -1.000000 0.320711 0.429289
v -1.100000 4.000000 -0.500000
v -1.000000 4.000000 -0.429289
v -1.100000 4.000000 0.500000
v -1.000000 4.000000 0.429289
v -1.100000 3.450000 -0.500000
v -0.900000 3.450000 -0.500000
v -1.000000 3.379289 -0.429289
v -0.900000 3.450000 0.500000
v -1.100000 3.450000 0.500000
v -1.000000 3.379289 0.429289
v 0.000000 3.450000 0.500000
v 0.000000 4.000000 0.500000
v 0.000000 3.450000 -0.500000
v 0.000000 4.000000 -0.500000
v -0.300000 3.200000 -0.250000
v 0.000000 0.250000 0.500000
v 0.000000 0.000000 0.500000
v 0.000000 0.250000 -0.500000
v 0.000000 0.000000 -0.500000
v -0.300000 0.500000 0.250000
v -1.726504 1.467093 0.238804
v -1.667538 1.526060 0.238804
v -1.202615 1.526060 0.238804
v -1.143649 1.467093 0.238804
v -1.143649 1.280470 0.238804
v -1.202615 1.221504 0.238804
v -1.667538 1.221504 0.238804
v -1.726504 1.280470 0.238804
v -1.676590 1.271418 0.329805
v -1.676590 1.476145 0.329805
v -1.193563 1.271418 0.329805
v -1.193563 1.476145 0.329805
v -0.565304 1.272008 0.329805
v -0.565304 1.476735 0.329805
v -1.048330 1.272008 0.329805
v -1.048330 1.476735 0.329805
v -1.098245 1.467682 0.238804
v -1.039279 1.526649 0.238804
v -0.574356 1.526649 0.238804
v -0.515389 1.467682 0.238804
v -0.515389 1.281060 0.238804
v -0.574356 1.222093 0.238804
v -1.039279 1.222093 0.238804
v -1.098245 1.281060 0.238804
v -0.714366 1.222093 0.238804
v -0.710766 1.345333 0.329805
v -0.784091 1.272008 0.329805
v -0.713308 1.236766 0.265554
v -0.637440 1.272008 0.329805
v -1.424711 1.139432 0.238804
v -1.365745 1.198398 0.238804
v -0.900822 1.198398 0.238804
v -0.841856 1.139432 0.238804
v -0.841856 0.952809 0.238804
v -0.900822 0.893843 0.238804
v -1.365745 0.893843 0.238804
v -1.424711 0.952809 0.238804
v -1.374797 0.943757 0.329805
v -1.374797 1.148484 0.329805
v -0.891770 0.943757 0.329805
v -0.891770 1.148484 0.329805
v -1.597769 2.964717 0.238804
v -1.538802 3.023684 0.238804
v -1.073879 3.023684 0.238804
v -1.014913 2.964717 0.238804
v -1.014913 2.778094 0.238804
v -1.073879 2.719128 0.238804
v -1.538802 2.719128 0.238804
v -1.597769 2.778094 0.238804
v -1.547854 2.769042 0.329805
v -1.547854 2.973769 0.329805
v -1.064828 2.769042 0.329805
v -1.064828 2.973769 0.329805
v -1.238038 2.637056 0.238804
v -1.179072 2.696023 0.238804
v -0.796928 2.696023 0.238804
v -0.737961 2.637056 0.238804
v -0.737961 2.450433 0.238804
v -0.796928 2.391467 0.238804
v -1.179072 2.391467 0.238804
v -1.238038 2.450433 0.238804
v -1.188124 2.441381 0.329805
v -1.188124 2.646108 0.329805
v -0.787876 2.441381 0.329805
v -0.787876 2.646108 0.329805
v -0.993667 1.984316 -0.238803
v -1.052634 2.043282 -0.238803
v -1.517556 2.043282 -0.238803
v -1.576523 1.984316 -0.238803
v -1.576523 1.797693 -0.238803
v -1.517556 1.738726 -0.238803
v -1.052634 1.738726 -0.238803
v -0.993667 1.797693 -0.238803
v -1.043582 1.788641 -0.329805
v -1.043582 1.993368 -0.329805
v -1.526608 1.788641 -0.329804
v -1.526608 1.993368 -0.329804
v -0.650969 2.119532 -0.238804
v -0.700883 2.110480 -0.329805
v -0.700883 2.315207 -0.329805
v -1.183910 2.110480 -0.329804
v -1.183910 2.315207 -0.329804
v -0.853131 1.993368 -0.329804
v -0.853131 1.788641 -0.329804
v -0.501223 1.993368 -0.329805
v -0.501223 1.788641 -0.329805
v -0.451309 1.797693 -0.238803
v -0.510275 1.738726 -0.238803
v -0.844079 1.738726 -0.238803
v -0.903046 1.797693 -0.238803
v -0.903046 1.984316 -0.238803
v -0.844079 2.043282 -0.238803
v -0.510275 2.043282 -0.238803
v -0.451309 1.984316 -0.238803
v -1.303361 2.916855 -0.329805
v -1.303361 2.712129 -0.329805
v -1.786387 2.916855 -0.329805
v -1.786387 2.712129 -0.329805
v -1.836302 2.721180 -0.238803
v -1.777336 2.662214 -0.238803
v -1.312413 2.662214 -0.238804
v -1.253446 2.721180 -0.238804
v -1.253446 2.907803 -0.238804
v -1.312413 2.966770 -0.238804
v -1.777336 2.966770 -0.238803
v -1.836302 2.907803 -0.238803
v -1.452423 2.966770 -0.238803
v -1.448823 2.843530 -0.329805
v -1.522148 2.916855 -0.329805
v -1.451365 2.952097 -0.265554
v -1.375497 2.916855 -0.329805
v -0.709935 2.060565 -0.238804
v -1.174858 2.060565 -0.238803
v -1.233825 2.119532 -0.238803
v -1.233825 2.306154 -0.238803
v -1.174858 2.365121 -0.238803
v -0.709935 2.365121 -0.238804
v -0.650969 2.306154 -0.238804
v -0.957908 1.130175 -0.238803
v -1.007822 1.121123 -0.329805
v -1.007822 1.325850 -0.329805
v -1.490849 1.121123 -0.329804
v -1.490849 1.325850 -0.329804
v -1.145170 0.998051 -0.329804
v -1.145170 0.793324 -0.329804
v -0.662143 0.998051 -0.329804
v -0.662143 0.793324 -0.329804
v -0.612229 0.802376 -0.238803
v -0.671195 0.743409 -0.238803
v -1.136118 0.743409 -0.238803
v -1.195085 0.802376 -0.238803
v -1.195085 0.988999 -0.238803
v -1.136118 1.047965 -0.238803
v -0.671195 1.047965 -0.238803
v -0.612229 0.988999 -0.238803
v -1.016874 1.071208 -0.238803
v -1.481797 1.071208 -0.238803
v -1.540764 1.130175 -0.238803
v -1.540764 1.316797 -0.238803
v -1.481797 1.375764 -0.238803
v -1.016874 1.375764 -0.238803
v -0.957908 1.316797 -0.238803
v -2.000000 4.000000 -0.500000
v -2.000000 4.000000 0.500000
v -0.900000 4.000000 -0.500000
v -0.900000 4.000000 0.500000
v -0.900000 4.000000 0.350000
v -0.900000 4.000000 -0.350000
v -1.000000 3.900000 -0.350000
v -1.000000 3.900000 0.350000
v -1.100000 4.000000 -0.350000
v -1.100000 4.000000 0.350000
vt 0.197436 0.848510
vt 0.197436 0.880891
vt 0.173451 0.880891
vt 0.173451 0.848510
vt 0.197436 0.848510
vt 0.173451 0.848510
vt 0.173451 0.880891
vt 0.197436 0.880891
vt 0.027706 0.876354
vt 0.027706 0.884411
vt 0.025126 0.884411
vt 0.025126 0.876354
vt 0.027706 0.946911
vt 0.025126 0.946911
vt 0.024911 0.949190
vt 0.027061 0.954968
vt 0.024911 0.801910
vt 0.025126 0.804189
vt 0.027706 0.804189
vt 0.027061 0.796132
vt 0.022760 0.876354
vt 0.022760 0.884411
vt 0.024695 0.884411
vt 0.024695 0.876354
vt 0.024695 0.876354
vt 0.024695 0.884411
vt 0.022760 0.884411
vt 0.022760 0.876354
vt 0.022760 0.954968
vt 0.022760 0.946911
vt 0.024695 0.946911
vt 0.024911 0.949190
vt 0.025126 0.884411
vt 0.025126 0.876354
vt 0.024911 0.876354
vt 0.024911 0.886690
vt 0.024911 0.876354
vt 0.024911 0.886690
vt 0.027061 0.954968
vt 0.027706 0.946911
vt 0.022760 0.946911
vt 0.022760 0.954968
vt 0.024695 0.946911
vt 0.027706 0.884413
vt 0.025126 0.884413
vt 0.025126 0.866689
vt 0.027706 0.866689
vt 0.022760 0.796132
vt 0.022760 0.804189
vt 0.024695 0.804189
vt 0.022760 0.804189
vt 0.022760 0.796132
vt 0.024911 0.801910
vt 0.024695 0.804189
vt 0.022760 0.884413
vt 0.024695 0.884413
vt 0.024695 0.866689
vt 0.022760 0.866689
vt 0.027061 0.796132
vt 0.024695 0.884413
vt 0.022760 0.884413
vt 0.022760 0.866689
vt 0.024695 0.866689
vt 0.025126 0.946911
vt 0.024911 0.864410
vt 0.024911 0.881190
vt 0.025126 0.884413
vt 0.025126 0.866689
vt 0.024911 0.864410
vt 0.024911 0.881190
vt 0.027706 0.804189
vt 0.025126 0.804189
vt 0.027706 0.884411
vt 0.027706 0.876354
vt 0.025126 0.993788
vt 0.027706 0.993788
vt 0.025126 0.993788
vt 0.027706 0.884413
vt 0.027706 0.866689
vt 0.206849 0.840435
vt 0.206849 0.888066
vt 0.142984 0.888066
vt 0.142984 0.840435
vt 0.142984 0.824810
vt 0.142984 0.872441
vt 0.136384 0.870426
vt 0.136384 0.826824
vt 0.208695 0.820584
vt 0.144829 0.820584
vt 0.146025 0.813984
vt 0.207497 0.813984
vt 0.206849 0.903691
vt 0.206849 0.856060
vt 0.213449 0.858074
vt 0.213449 0.901676
vt 0.142984 0.907866
vt 0.206849 0.907866
vt 0.205652 0.914466
vt 0.144180 0.914466
vt 0.146025 0.798359
vt 0.144829 0.804959
vt 0.138230 0.806156
vt 0.142984 0.892241
vt 0.144180 0.898841
vt 0.136384 0.891044
vt 0.215294 0.837406
vt 0.208695 0.836209
vt 0.207497 0.829609
vt 0.206849 0.923491
vt 0.213449 0.922294
vt 0.205652 0.930091
vt 0.196776 0.832815
vt 0.187079 0.832020
vt 0.186745 0.805788
vt 0.144294 0.805037
vt 0.137695 0.806234
vt 0.145490 0.798437
vt 0.142449 0.872572
vt 0.135849 0.870558
vt 0.135849 0.826955
vt 0.142449 0.824941
vt 0.206312 0.856191
vt 0.212914 0.858205
vt 0.212914 0.901808
vt 0.206312 0.903822
vt 0.208158 0.836287
vt 0.206962 0.829687
vt 0.214759 0.837484
vt 0.143645 0.898919
vt 0.135849 0.891122
vt 0.142449 0.892319
vt 0.212914 0.922372
vt 0.205116 0.930169
vt 0.206312 0.923569
vt 0.142449 0.888197
vt 0.142449 0.840566
vt 0.177386 0.840566
vt 0.187079 0.839771
vt 0.188590 0.796818
vt 0.188449 0.814062
vt 0.206962 0.814062
vt 0.145490 0.814062
vt 0.187079 0.812643
vt 0.177386 0.813437
vt 0.186745 0.786411
vt 0.206312 0.907944
vt 0.205116 0.914544
vt 0.143645 0.914544
vt 0.142449 0.907944
vt 0.206312 0.840566
vt 0.206312 0.888197
vt 0.196776 0.840566
vt 0.144294 0.820662
vt 0.179231 0.820662
vt 0.198621 0.820662
vt 0.208158 0.820662
vt 0.206849 0.840435
vt 0.206849 0.888066
vt 0.142984 0.888066
vt 0.142984 0.840435
vt 0.142984 0.824810
vt 0.142984 0.872441
vt 0.136384 0.870426
vt 0.136384 0.826824
vt 0.208695 0.820584
vt 0.144829 0.820584
vt 0.146025 0.813984
vt 0.207497 0.813984
vt 0.206849 0.903691
vt 0.206849 0.856060
vt 0.213449 0.858074
vt 0.213449 0.901676
vt 0.142984 0.907866
vt 0.206849 0.907866
vt 0.205652 0.914466
vt 0.144180 0.914466
vt 0.146025 0.798359
vt 0.144829 0.804959
vt 0.138230 0.806156
vt 0.142984 0.892241
vt 0.144180 0.898841
vt 0.136384 0.891044
vt 0.215294 0.837406
vt 0.208695 0.836209
vt 0.207497 0.829609
vt 0.206849 0.923491
vt 0.213449 0.922294
vt 0.205652 0.930091
vt 0.206849 0.840435
vt 0.206849 0.888066
vt 0.142984 0.888066
vt 0.142984 0.840435
vt 0.142984 0.824810
vt 0.142984 0.872441
vt 0.136384 0.870426
vt 0.136384 0.826824
vt 0.208695 0.820584
vt 0.144829 0.820584
vt 0.146025 0.813984
vt 0.207497 0.813984
vt 0.206849 0.903691
vt 0.206849 0.856060
vt 0.213449 0.858074
vt 0.213449 0.901676
vt 0.142984 0.907866
vt 0.206849 0.907866
vt 0.205652 0.914466
vt 0.144180 0.914466
vt 0.146025 0.798359
vt 0.144829 0.804959
vt 0.138230 0.806156
vt 0.142984 0.892241
vt 0.144180 0.898841
vt 0.136384 0.891044
vt 0.215294 0.837406
vt 0.208695 0.836209
vt 0.207497 0.829609
vt 0.206849 0.923491
vt 0.213449 0.922294
vt 0.205652 0.930091
vt 0.206849 0.840435
vt 0.206849 0.888066
vt 0.142984 0.888066
vt 0.142984 0.840435
vt 0.142984 0.824810
vt 0.142984 0.872441
vt 0.136384 0.870426
vt 0.136384 0.826824
vt 0.208695 0.820584
vt 0.144829 0.820584
vt 0.146025 0.813984
vt 0.207497 0.813984
vt 0.206849 0.903691
vt 0.206849 0.856060
vt 0.213449 0.858074
vt 0.213449 0.901676
vt 0.142984 0.907866
vt 0.206849 0.907866
vt 0.205652 0.914466
vt 0.144180 0.914466
vt 0.146025 0.798359
vt 0.144829 0.804959
vt 0.138230 0.806156
vt 0.142984 0.892241
vt 0.144180 0.898841
vt 0.136384 0.891044
vt 0.215294 0.837406
vt 0.208695 0.836209
vt 0.207497 0.829609
vt 0.206849 0.923491
vt 0.213449 0.922294
vt 0.205652 0.930091
vt 0.206849 0.840435
vt 0.206849 0.888066
vt 0.142984 0.888066
vt 0.142984 0.840435
vt 0.142984 0.824810
vt 0.142984 0.872441
vt 0.136384 0.870426
vt 0.136384 0.826824
vt 0.208695 0.820584
vt 0.144829 0.820584
vt 0.146025 0.813984
vt 0.207497 0.813984
vt 0.206849 0.903691
vt 0.206849 0.856060
vt 0.213449 0.858074
vt 0.213449 0.901676
vt 0.142984 0.907866
vt 0.206849 0.907866
vt 0.205652 0.914466
vt 0.144180 0.914466
vt 0.146025 0.798359
vt 0.144829 0.804959
vt 0.138230 0.806156
vt 0.142984 0.892241
vt 0.144180 0.898841
vt 0.136384 0.891044
vt 0.215294 0.837406
vt 0.208695 0.836209
vt 0.207497 0.829609
vt 0.206849 0.923491
vt 0.213449 0.922294
vt 0.205652 0.930091
vt 0.206849 0.840435
vt 0.206849 0.888066
vt 0.142984 0.888066
vt 0.142984 0.840435
vt 0.146025 0.798359
vt 0.144829 0.804959
vt 0.138230 0.806156
vt 0.215294 0.837406
vt 0.208695 0.836209
vt 0.207497 0.829609
vt 0.206849 0.903691
vt 0.206849 0.856060
vt 0.213449 0.858074
vt 0.213449 0.901676
vt 0.142984 0.907866
vt 0.206849 0.907866
vt 0.205652 0.914466
vt 0.144180 0.914466
vt 0.142984 0.907866
vt 0.206849 0.907866
vt 0.205652 0.914466
vt 0.144180 0.914466
vt 0.215294 0.837406
vt 0.208695 0.836209
vt 0.207497 0.829609
vt 0.206849 0.840435
vt 0.206849 0.888066
vt 0.142984 0.888066
vt 0.142984 0.840435
vt 0.206849 0.923491
vt 0.213449 0.922294
vt 0.205652 0.930091
vt 0.206849 0.903691
vt 0.206849 0.856060
vt 0.213449 0.858074
vt 0.213449 0.901676
vt 0.208695 0.820584
vt 0.144829 0.820584
vt 0.146025 0.813984
vt 0.207497 0.813984
vt 0.142984 0.824810
vt 0.142984 0.872441
vt 0.136384 0.870426
vt 0.136384 0.826824
vt 0.208695 0.820584
vt 0.144829 0.820584
vt 0.146025 0.813984
vt 0.207497 0.813984
vt 0.142984 0.892241
vt 0.144180 0.898841
vt 0.136384 0.891044
vt 0.206849 0.923491
vt 0.213449 0.922294
vt 0.205652 0.930091
vt 0.146025 0.798359
vt 0.144829 0.804959
vt 0.138230 0.806156
vt 0.152222 0.860868
vt 0.161917 0.825367
vt 0.162253 0.849527
vt 0.206549 0.923450
vt 0.213149 0.922253
vt 0.205353 0.930050
vt 0.206549 0.855991
vt 0.213149 0.858005
vt 0.213149 0.901607
vt 0.206549 0.903622
vt 0.142684 0.872372
vt 0.136084 0.870357
vt 0.136084 0.826755
vt 0.142684 0.824741
vt 0.142684 0.892200
vt 0.143883 0.898800
vt 0.136084 0.891003
vt 0.207199 0.829568
vt 0.214994 0.837365
vt 0.208395 0.836168
vt 0.137930 0.806115
vt 0.145729 0.798318
vt 0.144529 0.804918
vt 0.206549 0.840366
vt 0.161917 0.852495
vt 0.142684 0.840366
vt 0.206549 0.887997
vt 0.171612 0.887997
vt 0.162253 0.893301
vt 0.162392 0.914425
vt 0.143883 0.914425
vt 0.205353 0.914425
vt 0.161917 0.844744
vt 0.171612 0.880246
vt 0.162253 0.868905
vt 0.142684 0.887997
vt 0.152222 0.887997
vt 0.206549 0.907825
vt 0.171612 0.907825
vt 0.152222 0.907825
vt 0.142684 0.907825
vt 0.144529 0.820543
vt 0.145729 0.813943
vt 0.207199 0.813943
vt 0.208395 0.820543
vt 0.142984 0.824810
vt 0.142984 0.872441
vt 0.136384 0.870426
vt 0.136384 0.826824
vt 0.142984 0.892241
vt 0.144180 0.898841
vt 0.136384 0.891044
vt 0.206849 0.840435
vt 0.206849 0.888066
vt 0.142984 0.888066
vt 0.142984 0.840435
vt 0.146025 0.798359
vt 0.144829 0.804959
vt 0.138230 0.806156
vt 0.215294 0.837406
vt 0.208695 0.836209
vt 0.207497 0.829609
vt 0.206849 0.903691
vt 0.206849 0.856060
vt 0.213449 0.858074
vt 0.213449 0.901676
vt 0.142984 0.907866
vt 0.206849 0.907866
vt 0.205652 0.914466
vt 0.144180 0.914466
vt 0.142984 0.907866
vt 0.206849 0.907866
vt 0.205652 0.914466
vt 0.144180 0.914466
vt 0.215294 0.837406
vt 0.208695 0.836209
vt 0.207497 0.829609
vt 0.206849 0.840435
vt 0.206849 0.888066
vt 0.142984 0.888066
vt 0.142984 0.840435
vt 0.206849 0.923491
vt 0.213449 0.922294
vt 0.205652 0.930091
vt 0.206849 0.903691
vt 0.206849 0.856060
vt 0.213449 0.858074
vt 0.213449 0.901676
vt 0.208695 0.820584
vt 0.144829 0.820584
vt 0.146025 0.813984
vt 0.207497 0.813984
vt 0.142984 0.824810
vt 0.142984 0.872441
vt 0.136384 0.870426
vt 0.136384 0.826824
vt 0.208695 0.820584
vt 0.144829 0.820584
vt 0.146025 0.813984
vt 0.207497 0.813984
vt 0.142984 0.892241
vt 0.144180 0.898841
vt 0.136384 0.891044
vt 0.206849 0.923491
vt 0.213449 0.922294
vt 0.205652 0.930091
vt 0.146025 0.798359
vt 0.144829 0.804959
vt 0.138230 0.806156
vt 0.142984 0.824810
vt 0.142984 0.872441
vt 0.136384 0.870426
vt 0.136384 0.826824
vt 0.142984 0.892241
vt 0.144180 0.898841
vt 0.136384 0.891044
vt 0.055145 0.993788
vt 0.057080 0.993788
vt 0.057080 0.993788
vt 0.055145 0.993788
vt 0.057080 0.993788
vt 0.057080 0.993788
vt 0.057295 0.828114
vt 0.057295 0.828114
vt 0.057080 0.890614
vt 0.057080 0.890614
vt 0.057511 0.890614
vt 0.057511 0.890614
vt 0.057295 0.890614
vt 0.057295 0.890614
vt 0.057295 0.993739
vt 0.057511 0.993788
vt 0.057511 0.993788
vt 0.057295 0.890614
vt 0.057295 0.993739
vt 0.057511 0.993788
vt 0.057511 0.993788
vt 0.057295 0.890614
vt 0.027706 0.993788
vt 0.025126 0.993788
vt 0.025126 0.993788
vn 0.0000 0.0000 1.0000
vn 0.0000 0.0000 -1.0000
vn 1.0000 0.0000 0.0000
vn -1.0000 0.0000 0.0000
vn 0.0000 0.7071 -0.7071
vn 0.0000 -0.7071 -0.7071
vn -0.0000 0.7071 0.7071
vn -0.5774 0.0000 -0.8165
vn 0.5774 0.0000 -0.8165
vn 0.5774 0.0000 0.8165
vn -0.5774 0.0000 0.8165
vn 0.6402 0.7682 0.0000
vn 0.0000 -0.7071 0.7071
vn 0.5773 0.0000 0.8165
vn -0.5773 0.0000 0.8165
vn -0.5773 0.0000 -0.8165
vn 0.5773 0.0000 -0.8165
vn -0.2745 0.9552 0.1103
vn 0.0000 1.0000 0.0000
vn 0.6402 -0.7682 0.0000
vn -0.5959 -0.5959 0.5383
vn -0.5959 0.5959 0.5383
vn -0.8494 0.2969 0.4364
vn -0.8494 -0.2969 0.4364
vn 0.5959 -0.5959 0.5383
vn -0.2969 -0.8494 0.4364
vn 0.2969 -0.8494 0.4364
vn 0.5959 0.5959 0.5383
vn 0.8494 -0.2969 0.4364
vn 0.8494 0.2969 0.4364
vn 0.2969 0.8494 0.4364
vn -0.2969 0.8494 0.4364
vn -0.4476 -0.4476 0.7741
vn 0.0000 -0.8768 0.4809
vn 0.4601 -0.4601 0.7593
vn 0.5959 -0.5959 -0.5383
vn 0.5959 0.5959 -0.5383
vn 0.8494 0.2969 -0.4364
vn 0.8494 -0.2969 -0.4364
vn -0.5959 -0.5959 -0.5383
vn 0.2969 -0.8494 -0.4364
vn -0.2969 -0.8494 -0.4364
vn -0.5959 0.5959 -0.5383
vn -0.8494 -0.2969 -0.4364
vn -0.8494 0.2969 -0.4364
vn -0.2969 0.8494 -0.4364
vn 0.2969 0.8494 -0.4364
vn -0.4476 0.4476 -0.7741
vn -0.0000 0.8768 -0.4809
vn 0.4601 0.4601 -0.7593
vn 0.6802 0.6802 -0.2732
vn 0.6802 0.6802 0.2732
vn -0.2745 0.9552 -0.1103
vn -0.6802 0.6802 0.2732
vn -0.6802 0.6802 -0.2732
vn 0.5277 0.5277 -0.6656
vn -0.5277 0.5277 0.6656
vn -0.5277 0.5277 -0.6656
vn 0.5277 0.5277 0.6656
usemtl texture
s 1
f 44/1/1 2/2/1 12/3/1 8/4/1
s 2
f 3/5/2 9/6/2 1/7/2 39/8/2
s 3
f 44/1/3 3/5/3 39/8/3 2/2/3
s 4
f 9/6/4 8/4/4 12/3/4 1/7/4
s 5
f 41/9/1 40/10/1 23/11/1 16/12/1
s 6
f 42/13/5 19/14/5 21/15/5 3/16/5
s 7
f 31/17/6 30/18/6 37/19/6 39/20/6
s 8
f 4/21/2 6/22/2 20/23/2 13/24/2
s 9
f 17/25/1 22/26/1 7/27/1 5/28/1
s 10
f 8/29/7 7/30/7 22/31/7 24/32/7
s 11
f 19/33/8 14/34/8 15/35/8 21/36/8
s 12
f 21/36/9 15/35/9 13/24/9 20/23/9
s 13
f 22/26/10 17/25/10 18/37/10 24/38/10
s 14
f 24/38/11 18/37/11 16/12/11 23/11/11
s 15
f 42/13/12 3/16/12 44/39/12 40/40/12
s 16
f 6/41/5 9/42/5 21/15/5 20/43/5
s 17
f 36/44/1 190/45/1 32/46/1 35/47/1
s 18
f 31/17/6 1/48/6 10/49/6 29/50/6
s 19
f 11/51/13 12/52/13 34/53/13 33/54/13
s 20
f 187/55/2 25/56/2 29/57/2 10/58/2
s 21
f 3/16/5 21/15/5 9/42/5
s 22
f 12/52/13 2/59/13 34/53/13
s 23
f 27/60/1 188/61/1 11/62/1 33/63/1
s 24
f 24/32/7 23/64/7 40/40/7 44/39/7
s 25
f 27/60/14 33/63/14 34/65/14 28/66/14
s 26
f 28/66/15 34/65/15 32/46/15 190/45/15
s 27
f 189/67/16 30/68/16 31/69/16 26/70/16
s 28
f 26/70/17 31/69/17 29/57/17 25/56/17
s 29
f 35/71/13 32/72/13 34/53/13 2/59/13
s 30
f 42/73/3 40/10/3 41/9/3 43/74/3
s 31
f 39/20/6 1/48/6 31/17/6
s 32
f 188/61/4 187/55/4 10/58/4 11/62/4
s 33
f 11/51/4 10/49/4 1/48/4 12/52/4
s 34
f 7/30/4 8/29/4 9/42/4 6/41/4
s 35
f 5/28/4 7/27/4 6/22/4 4/21/4
s 36
f 192/75/18 38/76/19 189/77/19
s 37
f 189/67/2 38/78/2 37/79/2 30/68/2
s 38
f 14/34/2 19/33/2 42/73/2 43/74/2
s 39
f 2/59/20 39/20/20 37/19/20 35/71/20
s 40
f 35/47/3 37/79/3 38/78/3 36/44/3
s 41
f 8/29/7 24/32/7 44/39/7
s 42
f 55/80/1 56/81/1 54/82/1 53/83/1
s 43
f 53/84/21 54/85/22 45/86/23 52/87/24
s 44
f 55/88/25 53/89/21 51/90/26 50/91/27
s 45
f 56/92/28 55/93/25 49/94/29 48/95/30
s 46
f 54/96/22 56/97/28 47/98/31 46/99/32
s 47
f 51/100/26 53/101/21 52/102/24
s 48
f 54/103/22 46/104/32 45/105/23
s 49
f 49/106/29 55/107/25 50/108/27
s 50
f 56/109/28 48/110/30 47/111/31
s 51
f 73/112/33 70/113/33 72/114/33
s 52
f 59/115/21 68/116/24 67/117/26
s 53
f 60/118/22 61/119/23 68/120/24 59/121/21
s 54
f 57/122/25 65/123/29 64/124/30 58/125/28
s 55
f 57/126/25 66/127/27 65/128/29
s 56
f 62/129/32 61/130/23 60/131/22
s 57
f 64/132/30 63/133/31 58/134/28
s 58
f 60/135/1 59/136/1 71/137/1 70/138/1
s 59
f 72/139/34 69/140/34 66/141/27
s 60
f 67/142/26 69/140/34 72/139/34
s 61
f 70/143/35 71/144/35 72/145/35
s 62
f 58/146/28 63/147/31 62/148/32 60/149/22
s 63
f 57/150/1 58/151/1 70/138/1 73/152/1
s 64
f 59/153/21 67/142/26 72/139/34 71/154/34
s 65
f 73/155/34 72/139/34 66/141/27 57/156/25
s 66
f 60/135/1 70/138/1 58/151/1
s 67
f 84/157/1 85/158/1 83/159/1 82/160/1
s 68
f 82/161/21 83/162/22 74/163/23 81/164/24
s 69
f 84/165/25 82/166/21 80/167/26 79/168/27
s 70
f 85/169/28 84/170/25 78/171/29 77/172/30
s 71
f 83/173/22 85/174/28 76/175/31 75/176/32
s 72
f 80/177/26 82/178/21 81/179/24
s 73
f 83/180/22 75/181/32 74/182/23
s 74
f 78/183/29 84/184/25 79/185/27
s 75
f 85/186/28 77/187/30 76/188/31
s 76
f 96/189/1 97/190/1 95/191/1 94/192/1
s 77
f 94/193/21 95/194/22 86/195/23 93/196/24
s 78
f 96/197/25 94/198/21 92/199/26 91/200/27
s 79
f 97/201/28 96/202/25 90/203/29 89/204/30
s 80
f 95/205/22 97/206/28 88/207/31 87/208/32
s 81
f 92/209/26 94/210/21 93/211/24
s 82
f 95/212/22 87/213/32 86/214/23
s 83
f 90/215/29 96/216/25 91/217/27
s 84
f 97/218/28 89/219/30 88/220/31
s 85
f 108/221/1 109/222/1 107/223/1 106/224/1
s 86
f 106/225/21 107/226/22 98/227/23 105/228/24
s 87
f 108/229/25 106/230/21 104/231/26 103/232/27
s 88
f 109/233/28 108/234/25 102/235/29 101/236/30
s 89
f 107/237/22 109/238/28 100/239/31 99/240/32
s 90
f 104/241/26 106/242/21 105/243/24
s 91
f 107/244/22 99/245/32 98/246/23
s 92
f 102/247/29 108/248/25 103/249/27
s 93
f 109/250/28 101/251/30 100/252/31
s 94
f 120/253/2 121/254/2 119/255/2 118/256/2
s 95
f 118/257/36 119/258/37 110/259/38 117/260/39
s 96
f 120/261/40 118/262/36 116/263/41 115/264/42
s 97
f 121/265/43 120/266/40 114/267/44 113/268/45
s 98
f 119/269/37 121/270/43 112/271/46 111/272/47
s 99
f 116/273/41 118/274/36 117/275/39
s 100
f 119/276/37 111/277/47 110/278/38
s 101
f 114/279/44 120/280/40 115/281/42
s 102
f 121/282/43 113/283/45 112/284/46
s 103
f 128/285/2 127/286/2 129/287/2 130/288/2
s 104
f 132/289/41 130/290/36 131/291/39
s 105
f 134/292/44 128/293/40 133/294/42
s 106
f 126/295/43 125/296/40 158/297/44 159/298/45
s 107
f 124/299/37 126/300/43 160/301/46 161/302/47
s 108
f 129/303/37 127/304/43 136/305/46 137/306/47
s 109
f 158/307/44 125/308/40 157/309/42
s 110
f 125/310/2 126/311/2 124/312/2 123/313/2
s 111
f 127/314/43 135/315/45 136/316/46
s 112
f 127/317/43 128/318/40 134/319/44 135/320/45
s 113
f 128/321/40 130/322/36 132/323/41 133/324/42
s 114
f 130/325/36 129/326/37 138/327/38 131/328/39
s 115
f 125/329/40 123/330/36 156/331/41 157/332/42
s 116
f 129/333/37 137/334/47 138/335/38
s 117
f 126/336/43 159/337/45 160/338/46
s 118
f 156/339/41 123/340/36 122/341/39
s 119
f 155/342/48 152/343/48 154/344/48
s 120
f 141/345/43 150/346/45 149/347/46
s 121
f 142/348/40 143/349/44 150/350/45 141/351/43
s 122
f 139/352/37 147/353/38 146/354/39 140/355/36
s 123
f 139/356/37 148/357/47 147/358/38
s 124
f 144/359/42 143/360/44 142/361/40
s 125
f 146/362/39 145/363/41 140/364/36
s 126
f 142/365/2 152/366/2 140/367/2
s 127
f 142/365/2 141/368/2 153/369/2 152/366/2
s 128
f 154/370/49 151/371/49 148/372/47
s 129
f 149/373/46 151/371/49 154/370/49
s 130
f 152/374/50 153/375/50 154/376/50
s 131
f 139/377/2 140/367/2 152/366/2 155/378/2
s 132
f 141/379/43 149/373/46 154/370/49 153/380/49
s 133
f 155/381/49 154/370/49 148/372/47 139/382/37
s 134
f 140/383/36 145/384/41 144/385/42 142/386/40
s 135
f 123/387/36 124/388/37 162/389/38 122/390/39
s 136
f 124/391/37 161/392/47 162/393/38
s 137
f 169/394/2 168/395/2 170/396/2 171/397/2
s 138
f 173/398/41 171/399/36 172/400/39
s 139
f 175/401/44 169/402/40 174/403/42
s 140
f 167/404/43 166/405/40 182/406/44 183/407/45
s 141
f 165/408/37 167/409/43 184/410/46 185/411/47
s 142
f 170/412/37 168/413/43 177/414/46 178/415/47
s 143
f 182/416/44 166/417/40 181/418/42
s 144
f 166/419/2 167/420/2 165/421/2 164/422/2
s 145
f 168/423/43 176/424/45 177/425/46
s 146
f 168/426/43 169/427/40 175/428/44 176/429/45
s 147
f 169/430/40 171/431/36 173/432/41 174/433/42
s 148
f 171/434/36 170/435/37 179/436/38 172/437/39
s 149
f 166/438/40 164/439/36 180/440/41 181/441/42
s 150
f 170/442/37 178/443/47 179/444/38
s 151
f 167/445/43 183/446/45 184/447/46
s 152
f 180/448/41 164/449/36 163/450/39
s 153
f 164/451/36 165/452/37 186/453/38 163/454/39
s 154
f 165/455/37 185/456/47 186/457/38
s 155
f 187/458/19 195/459/19 25/460/19
s 156
f 188/461/19 27/462/19 196/463/19
s 157
f 188/461/19 196/463/19 195/459/19 187/458/19
s 158
f 194/464/51 193/465/52 195/466/52 196/467/51
s 159
f 191/468/53 192/469/18 193/470/54 194/471/55
s 160
f 28/472/19 190/473/19 191/474/53
s 161
f 27/462/19 28/472/19 196/463/19
s 162
f 194/471/51 196/467/51 28/475/56
s 163
f 26/476/19 25/460/19 195/459/19
s 164
f 189/477/19 26/476/19 192/478/18
s 165
f 193/470/54 192/469/18 26/479/57
s 166
f 191/468/53 194/471/55 28/475/58
s 167
f 195/466/52 193/470/52 26/479/59
s 168
f 36/480/19 38/76/19 192/75/18 191/481/53
s 169
f 190/482/19 36/480/19 191/481/53
